<?xml version="1.0" encoding="utf-8"?>
<!-- Generator: Adobe Illustrator 23.1.0, SVG Export Plug-In . SVG Version: 6.00 Build 0)  -->
<svg version="1.1" xmlns="http://www.w3.org/2000/svg" xmlns:xlink="http://www.w3.org/1999/xlink" x="0px" y="0px"
	 viewBox="0 0 500 500" style="enable-background:new 0 0 500 500;" xml:space="preserve">
<style type="text/css">
	.st0{display:none;}
	.st1{display:inline;fill:#E3FDFF;}
	.st2{fill:#7DCEDB;}
	.st3{fill:#FF9100;}
	.st4{fill:#E05F07;}
	.st5{fill:#FF3600;}
	.st6{opacity:0.47;fill:#124C91;}
	.st7{fill:#D80F0F;}
	.st8{fill:#FFE6E6;}
	.st9{opacity:0.25;fill:#FFE6E6;}
	.st10{fill:#FFFFFF;}
</style>
<g id="BACKGROUND" class="st0">
	<rect class="st1" width="500" height="500"/>
</g>
<g id="OBJECTS">
	<g>
		<path class="st2" d="M356.9,399.9c-1-0.2-2,0.3-2.6,1.1l-1.1-0.2c0.5-2.9,0.1-5.9-1.2-8.8l2.3-1.3c0.9,0.8,2.2,0.9,3.3,0.3
			c1.4-0.8,1.9-2.6,1.1-4c-0.8-1.4-2.6-1.9-4-1.1c-1.1,0.6-1.6,1.9-1.4,3l-2.3,1.3c-1.2-1.9-2.8-3.4-4.6-4.5l0.7-1.2
			c0.8,0.1,1.6-0.3,2-1c0.5-1,0.1-2.2-0.8-2.7c-1-0.5-2.2-0.1-2.7,0.8c-0.4,0.8-0.3,1.6,0.3,2.2l-0.7,1.2c-1.6-0.8-3.4-1.3-5.2-1.5
			l0-2.9c0.9-0.3,1.5-1.1,1.5-2.1c0-1.2-1-2.3-2.2-2.3c-1.2,0-2.3,1-2.3,2.2c0,1,0.6,1.8,1.5,2.1l0,2.8c-2.5,0-5.1,0.6-7.4,2l-1-1.9
			c0.7-0.7,0.9-1.8,0.4-2.8c-0.6-1.2-2.1-1.7-3.3-1.1c-1.2,0.6-1.7,2.1-1.1,3.3c0.5,0.9,1.5,1.4,2.5,1.3l1.1,2.1
			c-2.1,1.5-3.7,3.6-4.7,5.9l-0.3-0.2c0.2-0.9-0.2-1.9-1-2.4c-1.1-0.6-2.4-0.3-3.1,0.7c-0.6,1.1-0.3,2.4,0.7,3.1
			c0.8,0.5,1.9,0.4,2.6-0.2l0.5,0.3c-0.7,2.2-0.9,4.5-0.6,6.7l-1.8,0.2c-0.4-0.7-1.2-1.2-2-1.1c-1.1,0.1-1.8,1.1-1.7,2.2
			c0.1,1.1,1.1,1.8,2.2,1.7c0.8-0.1,1.5-0.7,1.7-1.5l1.9-0.2c0.3,1.4,0.8,2.7,1.6,4c0.8,1.4,1.9,2.7,3.1,3.7l-1.8,1.4
			c-0.7-0.4-1.6-0.4-2.3,0.1c-0.9,0.7-1,1.9-0.3,2.8c0.7,0.9,1.9,1,2.8,0.3c0.7-0.5,0.9-1.4,0.6-2.2l2-1.6c1.5,1.1,3.2,1.9,5,2.3
			l-0.2,2.2c-0.9,0.2-1.6,1-1.7,2c-0.1,1.2,0.8,2.3,2,2.4c1.2,0.1,2.3-0.8,2.4-2c0.1-1-0.5-1.8-1.3-2.2l0.2-2
			c1.8,0.3,3.6,0.2,5.4-0.2l0.1,0.3c-0.6,0.5-0.9,1.4-0.6,2.2c0.4,1,1.5,1.6,2.5,1.2c1-0.4,1.6-1.5,1.2-2.5c-0.3-0.8-1-1.3-1.9-1.3
			l0-0.1c1-0.3,2-0.8,3-1.3c1-0.6,1.9-1.2,2.7-2l1.4,1.5c-0.5,1-0.4,2.2,0.4,3c1,1.1,2.7,1.1,3.7,0.1c1.1-1,1.1-2.7,0.1-3.7
			c-0.8-0.8-2-1.1-3-0.6L350,408c1.4-1.6,2.4-3.5,3-5.5l1.1,0.2c0.1,1,0.9,1.8,1.9,2c1.3,0.3,2.6-0.6,2.9-1.9
			C359.1,401.5,358.3,400.2,356.9,399.9z"/>
		<path class="st2" d="M255.9,88.1c0,1,0.6,1.9,1.5,2.3l0,1c-2.9-0.1-5.8,0.7-8.3,2.4l-1.6-2c0.6-1,0.6-2.3-0.2-3.3
			c-1-1.2-2.8-1.4-4-0.5c-1.2,1-1.4,2.8-0.5,4c0.8,1,2,1.3,3.1,0.9l1.6,2c-1.6,1.4-2.9,3.2-3.7,5.1l-1.3-0.5c0-0.8-0.5-1.5-1.3-1.8
			c-1-0.4-2.1,0.2-2.5,1.2c-0.4,1,0.2,2.1,1.2,2.5c0.8,0.3,1.6,0,2.1-0.6l1.3,0.5c-0.6,1.7-0.8,3.5-0.7,5.2l-2.8,0.4
			c-0.4-0.8-1.3-1.3-2.2-1.1c-1.2,0.2-2,1.3-1.9,2.5c0.2,1.2,1.3,2,2.5,1.9c0.9-0.1,1.7-0.8,1.8-1.7l2.7-0.4c0.4,2.4,1.3,4.8,3,6.9
			l-1.7,1.2c-0.8-0.6-1.9-0.6-2.7,0c-1.1,0.8-1.3,2.3-0.6,3.3c0.8,1.1,2.3,1.3,3.3,0.6c0.8-0.6,1.2-1.6,0.9-2.6l1.9-1.3
			c1.8,1.8,4,3.1,6.4,3.7l-0.1,0.3c-0.9,0-1.8,0.5-2.1,1.3c-0.5,1.1,0,2.4,1.2,2.9c1.1,0.5,2.4,0,2.9-1.2c0.4-0.9,0.1-1.9-0.5-2.5
			l0.2-0.6c2.2,0.4,4.5,0.3,6.6-0.4l0.5,1.7c-0.6,0.5-1,1.3-0.7,2.1c0.3,1,1.4,1.6,2.4,1.3c1-0.3,1.6-1.4,1.3-2.4
			c-0.2-0.8-0.9-1.3-1.7-1.4l-0.5-1.8c1.3-0.5,2.5-1.2,3.7-2.1c1.3-1,2.3-2.2,3.2-3.5l1.6,1.5c-0.3,0.7-0.2,1.6,0.5,2.2
			c0.8,0.7,2,0.7,2.7-0.1c0.7-0.8,0.7-2-0.1-2.7c-0.6-0.6-1.5-0.7-2.2-0.3l-1.9-1.7c0.8-1.6,1.4-3.4,1.5-5.1l2.1-0.1
			c0.4,0.8,1.2,1.4,2.1,1.3c1.2-0.1,2.1-1.1,2.1-2.3c-0.1-1.2-1.1-2.1-2.3-2.1c-0.9,0.1-1.7,0.7-2,1.6l-1.9,0.1
			c0-1.7-0.3-3.5-0.9-5.2l0.2-0.1c0.6,0.5,1.5,0.7,2.2,0.3c0.9-0.5,1.3-1.7,0.8-2.6c-0.5-0.9-1.7-1.3-2.6-0.8c-0.7,0.4-1.1,1.2-1,2
			l-0.1,0.1c-0.5-0.9-1-1.9-1.7-2.7c-0.7-0.9-1.5-1.6-2.3-2.3l1.3-1.6c1,0.3,2.2,0,2.9-0.8c0.9-1.1,0.7-2.7-0.4-3.6
			c-1.1-0.9-2.7-0.7-3.6,0.4c-0.7,0.9-0.7,2.1-0.2,3l-1.3,1.7c-1.8-1.1-3.7-1.8-5.8-2.1l0.1-1.1c0.9-0.3,1.6-1.1,1.7-2.2
			c0.1-1.3-1-2.4-2.3-2.5C257.1,85.8,256,86.8,255.9,88.1z"/>
		<path class="st2" d="M181.6,134.1c0,0.9,0.5,1.6,1.2,2l0,0.9c-2.4,0-4.9,0.6-7.1,2.1l-1.4-1.7c0.5-0.8,0.5-2-0.2-2.8
			c-0.8-1.1-2.4-1.2-3.4-0.4c-1.1,0.8-1.2,2.4-0.4,3.4c0.7,0.8,1.7,1.1,2.7,0.8l1.4,1.7c-1.4,1.2-2.5,2.7-3.2,4.3l-1.1-0.4
			c0-0.7-0.4-1.3-1.1-1.5c-0.9-0.3-1.8,0.1-2.1,1c-0.3,0.9,0.1,1.8,1,2.1c0.7,0.2,1.4,0,1.8-0.5l1.1,0.4c-0.5,1.4-0.7,3-0.6,4.5
			l-2.4,0.3c-0.4-0.7-1.1-1.1-1.9-1c-1,0.1-1.7,1.1-1.6,2.1c0.1,1,1.1,1.7,2.1,1.6c0.8-0.1,1.4-0.7,1.6-1.5l2.3-0.3
			c0.3,2.1,1.1,4.1,2.5,5.9l-1.5,1.1c-0.7-0.5-1.6-0.5-2.3,0c-0.9,0.7-1.1,1.9-0.5,2.8c0.7,0.9,1.9,1.1,2.8,0.5
			c0.7-0.5,1-1.4,0.8-2.2l1.6-1.1c1.5,1.6,3.4,2.6,5.4,3.2l-0.1,0.3c-0.8,0-1.5,0.4-1.8,1.1c-0.4,1,0,2,1,2.5s2,0,2.5-1
			c0.3-0.7,0.1-1.6-0.4-2.1l0.2-0.5c1.9,0.3,3.8,0.2,5.6-0.3l0.4,1.4c-0.5,0.4-0.8,1.1-0.6,1.8c0.2,0.9,1.2,1.4,2,1.1
			c0.9-0.2,1.4-1.2,1.1-2c-0.2-0.7-0.8-1.1-1.5-1.2l-0.4-1.5c1.1-0.4,2.1-1,3.1-1.8c1.1-0.9,2-1.9,2.7-3l1.4,1.3
			c-0.3,0.6-0.1,1.4,0.4,1.8c0.7,0.6,1.7,0.6,2.3-0.1c0.6-0.7,0.6-1.7-0.1-2.3c-0.5-0.5-1.3-0.6-1.9-0.3l-1.6-1.5
			c0.7-1.4,1.2-2.9,1.3-4.4l1.8-0.1c0.3,0.7,1,1.2,1.8,1.1c1-0.1,1.8-1,1.8-2c-0.1-1-1-1.8-2-1.8c-0.8,0.1-1.5,0.6-1.7,1.3l-1.6,0.1
			c0-1.5-0.3-3-0.8-4.4l0.2-0.1c0.5,0.4,1.2,0.6,1.9,0.2c0.8-0.4,1.1-1.4,0.7-2.2c-0.4-0.8-1.4-1.1-2.2-0.7c-0.6,0.3-0.9,1-0.8,1.7
			l-0.1,0.1c-0.4-0.8-0.9-1.6-1.5-2.3c-0.6-0.7-1.2-1.4-1.9-1.9l1.1-1.3c0.9,0.3,1.8,0,2.4-0.7c0.8-1,0.6-2.3-0.3-3.1
			c-1-0.8-2.3-0.6-3.1,0.3c-0.6,0.7-0.6,1.8-0.2,2.5l-1.1,1.4c-1.5-0.9-3.2-1.5-4.9-1.7l0-0.9c0.8-0.2,1.4-1,1.4-1.8
			c0.1-1.1-0.8-2.1-1.9-2.1C182.6,132.1,181.7,133,181.6,134.1z"/>
		<path class="st2" d="M188.2,292.2c-0.5-0.1-1.1,0.1-1.3,0.6l-0.6-0.1c0.3-1.5,0.1-3.1-0.6-4.6l1.2-0.7c0.5,0.4,1.2,0.5,1.8,0.2
			c0.7-0.4,1-1.4,0.6-2.1s-1.4-1-2.1-0.6c-0.6,0.3-0.9,1-0.7,1.6l-1.2,0.7c-0.6-1-1.5-1.8-2.4-2.4l0.4-0.7c0.4,0.1,0.9-0.1,1.1-0.5
			c0.3-0.5,0.1-1.1-0.4-1.4c-0.5-0.3-1.1-0.1-1.4,0.4c-0.2,0.4-0.1,0.9,0.1,1.2l-0.3,0.6c-0.9-0.4-1.8-0.7-2.7-0.8l0-1.5
			c0.5-0.2,0.8-0.6,0.8-1.1c0-0.7-0.5-1.2-1.2-1.2c-0.7,0-1.2,0.5-1.2,1.2c0,0.5,0.3,0.9,0.8,1.1l0,1.5c-1.3,0-2.7,0.3-3.9,1l-0.5-1
			c0.4-0.4,0.5-1,0.2-1.5c-0.3-0.6-1.1-0.9-1.7-0.6c-0.6,0.3-0.9,1.1-0.6,1.7c0.3,0.5,0.8,0.8,1.3,0.7l0.6,1.1
			c-1.1,0.8-2,1.9-2.5,3.1l-0.2-0.1c0.1-0.5-0.1-1-0.5-1.2c-0.6-0.3-1.3-0.2-1.6,0.4c-0.3,0.6-0.2,1.3,0.4,1.6
			c0.4,0.3,1,0.2,1.4-0.1l0.3,0.2c-0.4,1.1-0.5,2.3-0.3,3.5l-0.9,0.1c-0.2-0.4-0.6-0.6-1.1-0.6c-0.6,0.1-1,0.6-0.9,1.2
			c0.1,0.6,0.6,1,1.2,0.9c0.4-0.1,0.8-0.4,0.9-0.8l1-0.1c0.2,0.7,0.4,1.4,0.8,2.1c0.4,0.8,1,1.4,1.6,2l-0.9,0.7
			c-0.4-0.2-0.8-0.2-1.2,0.1c-0.4,0.4-0.5,1-0.2,1.5c0.4,0.4,1,0.5,1.5,0.2c0.4-0.3,0.5-0.7,0.3-1.1l1.1-0.8c0.8,0.6,1.7,1,2.6,1.2
			l-0.1,1.1c-0.5,0.1-0.8,0.5-0.9,1c-0.1,0.6,0.4,1.2,1.1,1.3c0.6,0.1,1.2-0.4,1.3-1.1c0-0.5-0.2-1-0.7-1.2l0.1-1
			c0.9,0.1,1.9,0.1,2.8-0.1l0,0.1c-0.3,0.3-0.5,0.7-0.3,1.1c0.2,0.5,0.8,0.8,1.3,0.6c0.5-0.2,0.8-0.8,0.6-1.3
			c-0.2-0.4-0.6-0.7-1-0.7l0-0.1c0.5-0.2,1.1-0.4,1.6-0.7c0.5-0.3,1-0.6,1.4-1l0.7,0.8c-0.3,0.5-0.2,1.1,0.2,1.6
			c0.5,0.6,1.4,0.6,2,0.1c0.6-0.5,0.6-1.4,0.1-2c-0.4-0.4-1-0.6-1.6-0.3l-0.8-0.8c0.7-0.9,1.2-1.8,1.6-2.9l0.6,0.1
			c0.1,0.5,0.5,1,1,1.1c0.7,0.1,1.4-0.3,1.5-1C189.3,293.1,188.9,292.4,188.2,292.2z"/>
		<path class="st2" d="M379.5,96.7c-0.8-0.2-1.5,0.2-1.9,0.9l-0.8-0.2c0.4-2.2,0.1-4.5-0.9-6.6l1.8-1c0.7,0.6,1.7,0.7,2.5,0.2
			c1.1-0.6,1.4-2,0.8-3c-0.6-1.1-2-1.4-3-0.8c-0.8,0.5-1.2,1.4-1.1,2.3l-1.7,1c-0.9-1.4-2.1-2.6-3.5-3.4l0.5-0.9
			c0.6,0.1,1.2-0.2,1.5-0.8c0.4-0.7,0.1-1.6-0.6-2c-0.7-0.4-1.6-0.1-2,0.6c-0.3,0.6-0.2,1.3,0.2,1.7l-0.5,0.9
			c-1.2-0.6-2.6-1-3.9-1.2l0-2.2c0.7-0.2,1.1-0.9,1.1-1.6c0-0.9-0.7-1.7-1.7-1.7c-0.9,0-1.7,0.7-1.7,1.7c0,0.7,0.5,1.4,1.1,1.6
			l0,2.1c-1.9,0-3.8,0.5-5.6,1.5l-0.8-1.5c0.5-0.6,0.7-1.4,0.3-2.1c-0.5-0.9-1.6-1.3-2.5-0.8c-0.9,0.5-1.3,1.6-0.8,2.5
			c0.4,0.7,1.1,1.1,1.9,1l0.8,1.6c-1.6,1.2-2.8,2.7-3.6,4.4l-0.2-0.1c0.1-0.7-0.1-1.4-0.8-1.8c-0.8-0.5-1.9-0.2-2.3,0.6
			s-0.2,1.9,0.6,2.3c0.6,0.4,1.4,0.3,2-0.1L355,92c-0.5,1.6-0.7,3.4-0.5,5.1l-1.3,0.2c-0.3-0.5-0.9-0.9-1.5-0.8
			c-0.8,0.1-1.4,0.9-1.3,1.7c0.1,0.8,0.9,1.4,1.7,1.3c0.6-0.1,1.1-0.6,1.3-1.2l1.4-0.2c0.2,1,0.6,2.1,1.2,3c0.6,1.1,1.4,2,2.3,2.8
			l-1.4,1.1c-0.5-0.3-1.2-0.3-1.7,0.1c-0.6,0.5-0.8,1.5-0.2,2.1c0.5,0.6,1.5,0.8,2.1,0.2c0.5-0.4,0.7-1.1,0.5-1.6l1.5-1.2
			c1.1,0.8,2.4,1.4,3.8,1.8l-0.1,1.6c-0.7,0.2-1.2,0.8-1.3,1.5c-0.1,0.9,0.6,1.8,1.5,1.8c0.9,0.1,1.8-0.6,1.8-1.5
			c0.1-0.7-0.3-1.4-1-1.7l0.1-1.5c1.3,0.2,2.7,0.2,4.1-0.1l0.1,0.2c-0.5,0.4-0.7,1-0.5,1.7c0.3,0.8,1.1,1.2,1.9,0.9
			c0.8-0.3,1.2-1.1,0.9-1.9c-0.2-0.6-0.8-1-1.4-1l0-0.1c0.8-0.2,1.5-0.6,2.3-1c0.7-0.4,1.4-0.9,2-1.5l1.1,1.1
			c-0.4,0.7-0.3,1.6,0.3,2.3c0.8,0.8,2,0.9,2.8,0.1s0.9-2,0.1-2.8c-0.6-0.6-1.5-0.8-2.3-0.5l-1.1-1.2c1-1.2,1.8-2.7,2.2-4.2l0.8,0.2
			c0.1,0.7,0.7,1.4,1.5,1.5c1,0.2,2-0.4,2.2-1.5C381.2,97.9,380.5,96.9,379.5,96.7z"/>
		<path class="st2" d="M376.6,207c-0.1,1.3,0.7,2.5,1.9,2.9l-0.1,1.3c-3.6-0.1-7.3,0.9-10.5,3.1l-2.1-2.6c0.8-1.3,0.7-2.9-0.2-4.2
			c-1.2-1.6-3.5-1.8-5.1-0.6c-1.6,1.2-1.8,3.5-0.6,5.1c1,1.2,2.6,1.6,4,1.2l2,2.6c-2.1,1.8-3.7,4-4.7,6.4l-1.7-0.6
			c0-1-0.6-1.9-1.6-2.3c-1.3-0.5-2.7,0.2-3.1,1.5c-0.5,1.3,0.2,2.7,1.5,3.1c1,0.4,2.1,0,2.7-0.8l1.6,0.6c-0.7,2.1-1,4.4-0.9,6.7
			l-3.6,0.5c-0.5-1-1.7-1.6-2.8-1.5c-1.5,0.2-2.6,1.6-2.4,3.1c0.2,1.5,1.6,2.6,3.1,2.4c1.2-0.2,2.1-1.1,2.3-2.2l3.5-0.5
			c0.5,3.1,1.7,6.1,3.8,8.7l-2.2,1.6c-1-0.7-2.4-0.7-3.5,0c-1.4,1-1.7,2.9-0.7,4.2c1,1.4,2.9,1.7,4.2,0.7c1.1-0.8,1.5-2.1,1.2-3.3
			l2.4-1.7c2.3,2.3,5.1,3.9,8.1,4.7l-0.2,0.4c-1.1-0.1-2.2,0.6-2.7,1.7c-0.6,1.4,0.1,3.1,1.5,3.7c1.4,0.6,3.1-0.1,3.7-1.5
			c0.5-1.1,0.2-2.4-0.7-3.1l0.3-0.7c2.8,0.5,5.6,0.3,8.4-0.5l0.6,2.1c-0.8,0.6-1.2,1.6-0.9,2.7c0.4,1.3,1.7,2.1,3,1.7
			c1.3-0.4,2.1-1.7,1.7-3c-0.3-1-1.2-1.7-2.2-1.8l-0.6-2.2c1.6-0.7,3.2-1.5,4.6-2.7c1.6-1.3,3-2.8,4-4.5l2.1,1.9
			c-0.4,0.9-0.2,2,0.6,2.8c1,0.9,2.5,0.9,3.5-0.1c0.9-1,0.9-2.5-0.1-3.5c-0.8-0.7-1.9-0.8-2.8-0.4l-2.4-2.2c1.1-2,1.7-4.3,2-6.5
			l2.7-0.2c0.5,1,1.5,1.7,2.7,1.7c1.5-0.1,2.7-1.4,2.6-3c-0.1-1.5-1.4-2.7-3-2.6c-1.2,0.1-2.2,0.9-2.5,2l-2.5,0.2
			c0-2.2-0.4-4.4-1.2-6.6l0.3-0.2c0.7,0.7,1.9,0.8,2.8,0.3c1.2-0.6,1.6-2.1,1-3.3c-0.6-1.2-2.1-1.6-3.3-1c-0.9,0.5-1.4,1.5-1.3,2.5
			l-0.2,0.1c-0.6-1.2-1.3-2.4-2.2-3.4c-0.9-1.1-1.8-2.1-2.9-2.9l1.6-2c1.3,0.4,2.7,0.1,3.6-1.1c1.1-1.4,0.9-3.5-0.5-4.6
			c-1.4-1.1-3.5-0.9-4.6,0.5c-0.9,1.1-0.9,2.6-0.2,3.8l-1.7,2.1c-2.3-1.4-4.8-2.3-7.3-2.6l0.1-1.4c1.2-0.4,2.1-1.4,2.1-2.7
			c0.1-1.7-1.2-3.1-2.9-3.2C378.1,204,376.7,205.3,376.6,207z"/>
		<path class="st2" d="M290.3,316.5c0,0.9,0.5,1.8,1.3,2.1l0,1c-2.6,0-5.3,0.7-7.6,2.2l-1.5-1.9c0.6-0.9,0.5-2.1-0.2-3
			c-0.9-1.1-2.5-1.3-3.7-0.4c-1.1,0.9-1.3,2.5-0.4,3.7c0.7,0.9,1.9,1.2,2.9,0.8l1.5,1.8c-1.5,1.3-2.6,2.9-3.4,4.6l-1.2-0.4
			c0-0.7-0.5-1.4-1.2-1.7c-0.9-0.3-1.9,0.2-2.3,1.1c-0.3,0.9,0.2,1.9,1.1,2.3c0.7,0.3,1.5,0,2-0.5l1.2,0.4c-0.5,1.5-0.7,3.2-0.7,4.8
			l-2.6,0.4c-0.4-0.7-1.2-1.2-2.1-1.1c-1.1,0.2-1.9,1.2-1.7,2.3c0.2,1.1,1.2,1.9,2.3,1.7c0.9-0.1,1.5-0.8,1.7-1.6l2.5-0.4
			c0.3,2.2,1.2,4.4,2.7,6.3l-1.6,1.1c-0.7-0.5-1.7-0.5-2.5,0c-1,0.7-1.2,2.1-0.5,3c0.7,1,2.1,1.2,3,0.5c0.8-0.5,1.1-1.5,0.8-2.4
			l1.7-1.2c1.7,1.7,3.7,2.8,5.8,3.4l-0.1,0.3c-0.8,0-1.6,0.4-2,1.2c-0.4,1,0,2.2,1.1,2.6c1,0.4,2.2,0,2.6-1.1
			c0.3-0.8,0.1-1.7-0.5-2.3l0.2-0.5c2,0.3,4.1,0.2,6-0.4l0.4,1.5c-0.6,0.4-0.9,1.2-0.7,1.9c0.3,0.9,1.2,1.5,2.2,1.2
			c0.9-0.3,1.5-1.2,1.2-2.2c-0.2-0.7-0.9-1.2-1.6-1.3l-0.5-1.6c1.2-0.5,2.3-1.1,3.3-1.9c1.2-0.9,2.1-2,2.9-3.2l1.5,1.4
			c-0.3,0.7-0.1,1.5,0.4,2c0.7,0.7,1.8,0.6,2.5-0.1c0.7-0.7,0.6-1.8-0.1-2.5c-0.6-0.5-1.4-0.6-2-0.3l-1.7-1.6
			c0.8-1.5,1.2-3.1,1.4-4.7l1.9-0.1c0.3,0.8,1.1,1.3,2,1.2c1.1-0.1,1.9-1,1.9-2.1c-0.1-1.1-1-1.9-2.1-1.9c-0.9,0.1-1.6,0.7-1.8,1.4
			l-1.8,0.1c0-1.6-0.3-3.2-0.9-4.7l0.2-0.1c0.5,0.5,1.3,0.6,2,0.2c0.9-0.5,1.2-1.5,0.7-2.4c-0.5-0.9-1.5-1.2-2.4-0.7
			c-0.7,0.4-1,1.1-0.9,1.8l-0.1,0.1c-0.4-0.9-0.9-1.7-1.6-2.5c-0.6-0.8-1.3-1.5-2.1-2.1l1.1-1.4c0.9,0.3,2,0,2.6-0.8
			c0.8-1,0.7-2.5-0.4-3.3c-1-0.8-2.5-0.7-3.3,0.4c-0.6,0.8-0.7,1.9-0.2,2.7l-1.2,1.5c-1.6-1-3.4-1.6-5.3-1.9l0-1
			c0.9-0.3,1.5-1,1.5-2c0.1-1.2-0.9-2.2-2.1-2.3C291.4,314.4,290.4,315.3,290.3,316.5z"/>
		<g>
			
				<ellipse transform="matrix(0.7071 -0.7071 0.7071 0.7071 -82.5173 171.0623)" class="st3" cx="165.2" cy="185.1" rx="30" ry="30"/>
			<path class="st3" d="M171.7,144.3c0-3.3-2.6-5.9-5.9-5.9c-3.3,0-5.9,2.6-5.9,5.9c0,2.6,1.6,4.7,3.9,5.5V175h4v-25.2
				C170,149,171.7,146.9,171.7,144.3z"/>
			<path class="st3" d="M193.7,161.2c1.8-2,1.6-5.2-0.5-6.9c-2-1.8-5.2-1.6-6.9,0.5c-1.4,1.6-1.6,3.9-0.6,5.6l-13.8,15.8l2.5,2.2
				l13.8-15.8C190.1,163.3,192.3,162.8,193.7,161.2z"/>
			<path class="st3" d="M126.4,181.4c-2.7-0.1-5,1.9-5.2,4.7c-0.1,2.7,1.9,5,4.7,5.2c2.1,0.1,4-1.1,4.8-3l21,1.1l0.2-3.3l-21-1.1
				C130.3,182.9,128.5,181.5,126.4,181.4z"/>
			<path class="st3" d="M197.5,197.7c2.2,0.4,4.2-1.1,4.6-3.2c0.4-2.2-1.1-4.2-3.2-4.6c-1.7-0.3-3.3,0.5-4.1,1.9l-16.7-3l-0.5,2.7
				l16.7,3C194.6,196,195.8,197.4,197.5,197.7z"/>
			<path class="st3" d="M150,151.6c-1.2-1.9-3.6-2.4-5.5-1.3c-1.9,1.2-2.4,3.6-1.3,5.5c0.9,1.5,2.6,2.1,4.2,1.8l9,14.4l2.3-1.4
				l-9-14.4C150.7,154.9,150.9,153.1,150,151.6z"/>
			<path class="st3" d="M148.8,218.7c-0.9,2,0.1,4.4,2.1,5.2c2,0.9,4.4-0.1,5.2-2.1c0.7-1.6,0.2-3.4-1-4.5l6.6-15.7l-2.5-1
				l-6.6,15.7C151,216.2,149.4,217.1,148.8,218.7z"/>
			<path class="st3" d="M173.5,222.2c0.3,2.2,2.4,3.7,4.5,3.4c2.2-0.3,3.7-2.4,3.4-4.5c-0.3-1.7-1.6-3-3.2-3.3l-2.5-16.8l-2.7,0.4
				l2.5,16.8C174.1,218.9,173.3,220.5,173.5,222.2z"/>
			<path class="st3" d="M191.9,213.6c2.1,1.4,4.9,0.9,6.3-1.1c1.4-2.1,0.9-4.9-1.1-6.3c-1.6-1.1-3.7-1.1-5.2,0L176,195.1l-1.8,2.5
				l15.9,11.1C189.7,210.5,190.3,212.5,191.9,213.6z"/>
			<path class="st3" d="M135.1,202.4c-2.2,1.2-3,3.9-1.8,6.1c1.2,2.2,3.9,3,6.1,1.8c1.7-0.9,2.6-2.8,2.3-4.7l17-9.2l-1.5-2.7
				l-17,9.2C138.9,201.8,136.8,201.4,135.1,202.4z"/>
			<path class="st3" d="M133.8,159.8c-2.2-1.3-4.9-0.6-6.2,1.6c-1.3,2.2-0.6,4.9,1.6,6.2c1.7,1,3.8,0.8,5.2-0.4L151,177l1.6-2.7
				l-16.7-9.8C136.3,162.7,135.5,160.8,133.8,159.8z"/>
			<path class="st3" d="M204.2,179.9c2.9-0.7,4.7-3.5,4-6.4c-0.7-2.9-3.5-4.7-6.4-4c-2.3,0.5-3.8,2.4-4.1,4.6l-22.2,5.1l0.8,3.5
				l22.2-5.1C199.7,179.4,202,180.4,204.2,179.9z"/>
			<path class="st4" d="M173.2,173c0,1.2-1,2.2-2.2,2.2c-1.2,0-2.2-1-2.2-2.2c0-1.2,1-2.2,2.2-2.2
				C172.2,170.8,173.2,171.8,173.2,173z"/>
			<path class="st4" d="M188.4,188.6c0,2.5-2,4.5-4.5,4.5c-2.5,0-4.5-2-4.5-4.5c0-2.5,2-4.5,4.5-4.5
				C186.4,184.1,188.4,186.1,188.4,188.6z"/>
			<path class="st4" d="M170,188.4c0,2.7-2.2,4.9-4.9,4.9c-2.7,0-4.9-2.2-4.9-4.9c0-2.7,2.2-4.9,4.9-4.9
				C167.9,183.5,170,185.7,170,188.4z"/>
			<circle class="st4" cx="147.1" cy="178.9" r="5.9"/>
			<path class="st4" d="M187,174.9c0,1.1-0.9,2-2,2c-1.1,0-2-0.9-2-2c0-1.1,0.9-2,2-2C186.2,173,187,173.8,187,174.9z"/>
			<circle class="st4" cx="177.3" cy="204.6" r="1.8"/>
			<path class="st4" d="M166.1,164.4c0,2.4-2,4.4-4.4,4.4c-2.4,0-4.4-2-4.4-4.4s2-4.4,4.4-4.4C164.1,160,166.1,161.9,166.1,164.4z"
				/>
			<path class="st4" d="M157,201.7c0,2-1.7,3.7-3.7,3.7c-2,0-3.7-1.7-3.7-3.7c0-2,1.7-3.7,3.7-3.7C155.4,198,157,199.7,157,201.7z"
				/>
		</g>
		<g>
			
				<ellipse transform="matrix(0.8737 -0.4865 0.4865 0.8737 -139.7309 236.6719)" class="st3" cx="385.9" cy="387.4" rx="31.2" ry="31.2"/>
			<path class="st3" d="M359.9,353.2c-2.4-2.3-6.3-2.3-8.7,0.2c-2.3,2.4-2.3,6.3,0.2,8.7c1.9,1.8,4.7,2.2,7,1.1l18.9,18.1l2.9-3
				l-18.9-18.1C362.3,357.9,361.8,355.1,359.9,353.2z"/>
			<path class="st3" d="M388.5,348.8c-0.2-2.8-2.7-4.9-5.5-4.7c-2.8,0.2-4.9,2.7-4.7,5.5c0.2,2.2,1.8,4,3.8,4.5l1.9,21.7l3.5-0.3
				l-1.9-21.7C387.4,353,388.7,351,388.5,348.8z"/>
			<path class="st3" d="M355.1,413.9c-2.1,1.9-2.2,5.2-0.2,7.2c1.9,2.1,5.2,2.2,7.2,0.2c1.6-1.5,2-3.8,1.2-5.8l15.9-14.9l-2.4-2.5
				L360.9,413C359.1,412.1,356.7,412.4,355.1,413.9z"/>
			<path class="st3" d="M418.6,372.2c1.8-1.3,2.3-3.9,0.9-5.8c-1.3-1.8-3.9-2.3-5.8-0.9c-1.4,1.1-2,2.9-1.5,4.5l-14.3,10.4l1.7,2.3
				l14.3-10.4C415.2,373.2,417.1,373.2,418.6,372.2z"/>
			<path class="st3" d="M349.7,374.8c-2.2-0.5-4.4,1-4.9,3.2c-0.5,2.2,1,4.4,3.2,4.9c1.8,0.4,3.5-0.4,4.4-1.9l17.3,3.6l0.6-2.8
				l-17.3-3.6C352.8,376.6,351.5,375.1,349.7,374.8z"/>
			<path class="st3" d="M399.3,423.9c0.9,2.1,3.4,3.1,5.5,2.1c2.1-0.9,3.1-3.4,2.1-5.5c-0.7-1.6-2.4-2.6-4.1-2.5l-7-16.2l-2.6,1.1
				l7,16.2C399,420.4,398.6,422.3,399.3,423.9z"/>
			<path class="st3" d="M419.7,407.9c1.9,1.3,4.5,0.9,5.8-1c1.3-1.9,0.9-4.5-1-5.8c-1.5-1-3.4-1-4.8,0l-14.4-10.2l-1.6,2.3
				l14.4,10.2C417.6,405,418.2,406.8,419.7,407.9z"/>
			<path class="st3" d="M426.5,387.9c2.6-0.5,4.2-3,3.7-5.5c-0.5-2.6-3-4.2-5.5-3.7c-2,0.4-3.4,2-3.7,3.9l-19.7,3.9l0.6,3.1
				l19.7-3.9C422.5,387.3,424.5,388.3,426.5,387.9z"/>
			<path class="st3" d="M377.2,422.4c-0.7,2.5,0.8,5.1,3.3,5.8s5.1-0.8,5.8-3.3c0.5-2-0.3-4-1.8-5.1l5.3-19.4l-3.1-0.8l-5.3,19.4
				C379.4,419.1,377.7,420.5,377.2,422.4z"/>
			<path class="st3" d="M344.3,392.8c-2.5,0.7-4,3.3-3.3,5.8c0.7,2.5,3.3,4,5.8,3.3c2-0.6,3.3-2.3,3.4-4.2l19.4-5.4l-0.9-3.1
				l-19.4,5.4C348.2,393.1,346.2,392.3,344.3,392.8z"/>
			<path class="st3" d="M410,354.4c1.6-2.6,0.7-6.1-1.9-7.6c-2.6-1.6-6.1-0.7-7.6,1.9c-1.2,2.1-1,4.6,0.5,6.4l-12.2,20.4l3.2,1.9
				l12.2-20.4C406.4,357.4,408.8,356.5,410,354.4z"/>
			<path class="st4" d="M382.6,372.7c0.9,0.9,1,2.4,0.1,3.3c-0.9,0.9-2.4,1-3.3,0.1c-0.9-0.9-1-2.4-0.1-3.3
				C380.2,371.9,381.6,371.8,382.6,372.7z"/>
			<path class="st4" d="M405.2,372.5c1.9,1.8,1.9,4.7,0.1,6.6c-1.8,1.9-4.7,1.9-6.6,0.1c-1.9-1.8-1.9-4.7-0.1-6.6
				C400.4,370.8,403.3,370.7,405.2,372.5z"/>
			<path class="st4" d="M391.8,386.1c2,1.9,2.1,5.1,0.2,7.2c-1.9,2-5.1,2.1-7.2,0.2c-2-1.9-2.1-5.1-0.2-7.2
				C386.6,384.3,389.8,384.2,391.8,386.1z"/>
			<path class="st4" d="M372.4,392.1c2.5,2.4,2.5,6.3,0.2,8.7s-6.3,2.5-8.7,0.2c-2.5-2.4-2.5-6.3-0.2-8.7
				C366.1,389.8,370,389.7,372.4,392.1z"/>
			<path class="st4" d="M393.9,363.7c0.8,0.8,0.8,2.1,0.1,2.9c-0.8,0.8-2.1,0.8-2.9,0.1c-0.8-0.8-0.8-2.1-0.1-2.9
				C391.8,362.9,393.1,362.9,393.9,363.7z"/>
			<path class="st4" d="M410.5,391c0.8,0.7,0.8,1.9,0.1,2.7c-0.7,0.8-1.9,0.8-2.7,0.1c-0.8-0.7-0.8-1.9-0.1-2.7
				C408.5,390.3,409.8,390.2,410.5,391z"/>
			<path class="st4" d="M370.9,371.9c1.8,1.8,1.9,4.7,0.1,6.5c-1.8,1.8-4.7,1.9-6.5,0.1c-1.8-1.8-1.9-4.7-0.1-6.5
				C366.2,370.2,369.1,370.1,370.9,371.9z"/>
			<path class="st4" d="M392.4,405.5c1.5,1.5,1.6,3.9,0.1,5.4c-1.5,1.5-3.9,1.6-5.4,0.1c-1.5-1.5-1.6-3.9-0.1-5.4
				C388.5,404.1,390.9,404,392.4,405.5z"/>
		</g>
		<g>
			
				<ellipse transform="matrix(0.7391 -0.6736 0.6736 0.7391 -223.8756 284.6159)" class="st3" cx="255.4" cy="431.3" rx="23.4" ry="23.4"/>
			<path class="st3" d="M261.5,399.6c0.1-2.5-1.9-4.7-4.5-4.8c-2.5-0.1-4.7,1.9-4.8,4.5c-0.1,2,1.1,3.7,2.9,4.4l-0.7,19.7l3.1,0.1
				l0.7-19.7C260.1,403.2,261.5,401.6,261.5,399.6z"/>
			<path class="st3" d="M278.3,413.4c1.5-1.5,1.4-4-0.2-5.4c-1.5-1.5-4-1.4-5.4,0.2c-1.1,1.2-1.3,3-0.6,4.4l-11.2,12l1.9,1.8
				l11.2-12C275.5,414.9,277.2,414.6,278.3,413.4z"/>
			<path class="st3" d="M225.2,427.3c-2.1-0.2-4,1.4-4.2,3.5c-0.2,2.1,1.4,4,3.5,4.2c1.7,0.1,3.2-0.8,3.8-2.2l16.3,1.4l0.2-2.6
				l-16.3-1.4C228.2,428.6,226.9,427.5,225.2,427.3z"/>
			<path class="st3" d="M280.3,441.9c1.7,0.4,3.3-0.7,3.7-2.4c0.4-1.7-0.7-3.3-2.4-3.7c-1.3-0.3-2.6,0.3-3.3,1.4l-13-2.8l-0.4,2.1
				l13,2.8C278.1,440.6,279,441.6,280.3,441.9z"/>
			<path class="st3" d="M244.4,404.7c-0.9-1.5-2.8-2-4.3-1.1c-1.5,0.9-2,2.8-1.1,4.3c0.7,1.2,2,1.7,3.2,1.5l6.7,11.5l1.8-1.1
				l-6.7-11.5C244.9,407.3,245.1,405.9,244.4,404.7z"/>
			<path class="st3" d="M241.7,457.1c-0.7,1.6,0,3.4,1.5,4.1c1.6,0.7,3.4,0,4.1-1.5c0.6-1.2,0.3-2.6-0.6-3.5l5.5-12.1l-1.9-0.9
				l-5.5,12.1C243.5,455.2,242.3,455.9,241.7,457.1z"/>
			<path class="st3" d="M260.9,460.4c0.2,1.7,1.7,2.9,3.4,2.7c1.7-0.2,2.9-1.7,2.7-3.4c-0.2-1.3-1.1-2.4-2.4-2.7l-1.5-13.2l-2.1,0.2
				l1.5,13.2C261.5,457.9,260.8,459.1,260.9,460.4z"/>
			<path class="st3" d="M275.5,454.2c1.6,1.2,3.8,0.9,5-0.7c1.2-1.6,0.9-3.8-0.7-5c-1.2-0.9-2.9-0.9-4.1-0.1l-12.1-9.1l-1.4,1.9
				l12.1,9.1C273.9,451.7,274.3,453.3,275.5,454.2z"/>
			<path class="st3" d="M231.5,444c-1.8,0.9-2.5,3-1.6,4.8c0.9,1.7,3,2.5,4.8,1.6c1.4-0.7,2.1-2.1,1.9-3.6l13.5-6.8l-1.1-2.2
				l-13.5,6.8C234.5,443.6,232.9,443.3,231.5,444z"/>
			<path class="st3" d="M231.5,410.7c-1.7-1-3.8-0.6-4.9,1.1c-1,1.7-0.6,3.8,1.1,4.9c1.3,0.8,2.9,0.7,4.1-0.2l12.8,8.1l1.3-2
				l-12.8-8.1C233.4,413,232.8,411.5,231.5,410.7z"/>
			<path class="st3" d="M286,428.2c2.3-0.4,3.7-2.6,3.3-4.9c-0.4-2.3-2.6-3.7-4.9-3.3c-1.8,0.3-3.1,1.8-3.3,3.5l-17.5,3.4l0.5,2.8
				l17.5-3.4C282.5,427.7,284.2,428.6,286,428.2z"/>
			<path class="st4" d="M262,422.1c0,1-0.8,1.7-1.8,1.7c-1,0-1.7-0.8-1.7-1.8c0-1,0.8-1.7,1.8-1.7C261.3,420.3,262,421.1,262,422.1z
				"/>
			<path class="st4" d="M273.4,434.6c-0.1,1.9-1.7,3.4-3.6,3.4c-1.9-0.1-3.4-1.7-3.4-3.6c0.1-1.9,1.7-3.4,3.6-3.4
				C272,431.1,273.5,432.7,273.4,434.6z"/>
			<path class="st4" d="M259.1,433.9c-0.1,2.1-1.8,3.8-3.9,3.7c-2.1-0.1-3.8-1.8-3.7-3.9c0.1-2.1,1.8-3.8,3.9-3.7
				C257.5,430.1,259.2,431.8,259.1,433.9z"/>
			<path class="st4" d="M246.1,426.1c-0.1,2.6-2.2,4.6-4.8,4.5c-2.6-0.1-4.6-2.2-4.5-4.8c0.1-2.6,2.2-4.6,4.8-4.5
				C244.2,421.4,246.2,423.5,246.1,426.1z"/>
			<path class="st4" d="M272.7,423.9c0,0.9-0.7,1.5-1.6,1.5s-1.5-0.7-1.5-1.6c0-0.9,0.7-1.5,1.6-1.5S272.8,423,272.7,423.9z"/>
			<path class="st4" d="M265.8,446.8c0,0.8-0.7,1.4-1.5,1.4c-0.8,0-1.4-0.7-1.4-1.5c0-0.8,0.7-1.4,1.5-1.4
				C265.2,445.4,265.8,446,265.8,446.8z"/>
			<path class="st4" d="M256.6,415.1c-0.1,1.9-1.7,3.4-3.6,3.3s-3.4-1.7-3.3-3.6c0.1-1.9,1.7-3.4,3.6-3.3
				C255.2,411.6,256.7,413.2,256.6,415.1z"/>
			<path class="st4" d="M248.6,444c-0.1,1.6-1.4,2.8-3,2.8c-1.6-0.1-2.8-1.4-2.8-3c0.1-1.6,1.4-2.8,3-2.8
				C247.4,441.1,248.6,442.4,248.6,444z"/>
		</g>
		<g>
			
				<ellipse transform="matrix(3.300387e-02 -0.9995 0.9995 3.300387e-02 26.2478 528.545)" class="st3" cx="286.3" cy="250.7" rx="19.5" ry="19.5"/>
			<path class="st3" d="M311.4,241.1c1.8-1.1,2.5-3.4,1.4-5.3s-3.4-2.5-5.3-1.4c-1.4,0.8-2.1,2.5-1.9,4l-14.2,8.2l1.3,2.3l14.2-8.2
				C308.2,241.7,310,241.9,311.4,241.1z"/>
			<path class="st3" d="M309,259c1.7,0.3,3.4-0.8,3.8-2.5c0.3-1.7-0.8-3.4-2.5-3.8c-1.4-0.3-2.7,0.4-3.4,1.5l-13.4-2.7l-0.4,2.1
				l13.4,2.7C306.7,257.7,307.7,258.8,309,259z"/>
			<path class="st3" d="M275.8,227.6c-0.8-1.6-2.7-2.2-4.3-1.4c-1.6,0.8-2.2,2.7-1.4,4.3c0.6,1.2,1.9,1.9,3.3,1.7l6.2,12.2l1.9-1
				l-6.2-12.2C276.1,230.2,276.4,228.8,275.8,227.6z"/>
			<path class="st3" d="M289.7,273c0.5,1.3,2,2,3.3,1.6c1.3-0.5,2-2,1.6-3.3c-0.4-1.1-1.4-1.7-2.4-1.7l-3.8-10.4l-1.7,0.6l3.8,10.4
				C289.7,270.8,289.3,272,289.7,273z"/>
			<path class="st3" d="M300.2,231.2c0.7-1.3,0.2-2.8-1.1-3.5c-1.3-0.7-2.8-0.2-3.5,1.1c-0.5,1-0.3,2.2,0.4,3l-5.2,9.8l1.6,0.8
				l5.2-9.8C298.6,232.7,299.7,232.2,300.2,231.2z"/>
			<path class="st3" d="M261.9,252.3c-1.4,0.2-2.4,1.5-2.3,2.9c0.2,1.4,1.5,2.4,2.9,2.3c1.1-0.1,2-1,2.2-2l11-1.4l-0.2-1.8l-11,1.4
				C264.1,252.8,263.1,252.2,261.9,252.3z"/>
			<path class="st3" d="M268,267.4c-1.1,0.9-1.3,2.5-0.4,3.6c0.9,1.1,2.5,1.3,3.6,0.4c0.9-0.7,1.2-1.9,0.8-2.9l8.7-6.9l-1.1-1.4
				l-8.7,6.9C270.1,266.7,268.9,266.7,268,267.4z"/>
			<path class="st3" d="M278.9,275c-0.1,1.6,1.1,3.1,2.7,3.2c1.6,0.1,3.1-1.1,3.2-2.7c0.1-1.3-0.6-2.4-1.7-2.9l1.1-12.6l-2-0.2
				l-1.1,12.6C279.9,272.8,279,273.8,278.9,275z"/>
			<path class="st3" d="M266.7,239.3c-1.4-0.9-3.2-0.4-4.1,1c-0.9,1.4-0.4,3.2,1,4.1c1.1,0.7,2.4,0.5,3.4-0.2l10.7,6.6l1.1-1.7
				l-10.7-6.6C268.3,241.2,267.8,240,266.7,239.3z"/>
			<path class="st3" d="M290.3,224.7c0-1.6-1.3-3-2.9-3c-1.6,0-3,1.3-3,2.9c0,1.3,0.8,2.4,1.9,2.8l-0.1,12.6l2,0l0.1-12.6
				C289.5,227.1,290.3,226,290.3,224.7z"/>
			<path class="st3" d="M301.9,271c1.3,1.4,3.5,1.5,4.9,0.2c1.4-1.3,1.5-3.5,0.2-4.9c-1-1.1-2.6-1.4-3.9-0.8L293,254.5l-1.7,1.6
				l10.1,10.9C300.7,268.3,300.9,269.9,301.9,271z"/>
			<path class="st4" d="M295.7,251.3c-0.7,0.4-1.6,0.2-2-0.5c-0.4-0.7-0.2-1.6,0.5-2c0.7-0.4,1.6-0.2,2,0.5
				C296.6,250,296.4,250.9,295.7,251.3z"/>
			<path class="st4" d="M291.8,264.9c-1.4,0.8-3.2,0.3-4-1.1c-0.8-1.4-0.3-3.2,1.1-4c1.4-0.8,3.2-0.3,4,1.1S293.2,264.1,291.8,264.9
				z"/>
			<path class="st4" d="M286,254.5c-1.5,0.9-3.5,0.4-4.3-1.2c-0.9-1.5-0.4-3.5,1.2-4.3c1.5-0.9,3.5-0.4,4.3,1.2
				C288.1,251.7,287.5,253.6,286,254.5z"/>
			
				<ellipse transform="matrix(0.2589 -0.9659 0.9659 0.2589 -19.9132 450.9263)" class="st4" cx="283.9" cy="238.4" rx="3.9" ry="3.9"/>
			<path class="st4" d="M299.1,259.7c-0.6,0.4-1.4,0.1-1.8-0.5c-0.4-0.6-0.1-1.4,0.5-1.8c0.6-0.4,1.4-0.1,1.8,0.5
				C300,258.6,299.7,259.4,299.1,259.7z"/>
			<path class="st4" d="M279.8,264.9c-0.6,0.3-1.3,0.1-1.6-0.4c-0.3-0.6-0.1-1.3,0.4-1.6c0.6-0.3,1.3-0.1,1.6,0.4
				C280.6,263.8,280.4,264.6,279.8,264.9z"/>
			<path class="st4" d="M298.2,244.4c-1.4,0.8-3.1,0.3-3.9-1.1c-0.8-1.4-0.3-3.1,1.1-3.9c1.4-0.8,3.1-0.3,3.9,1.1
				C300.1,241.9,299.6,243.6,298.2,244.4z"/>
			<path class="st4" d="M274.2,251.5c-1.2,0.7-2.6,0.3-3.3-0.9c-0.7-1.2-0.3-2.6,0.9-3.3c1.2-0.7,2.6-0.3,3.3,0.9
				C275.8,249.3,275.4,250.8,274.2,251.5z"/>
		</g>
		<g>
			
				<ellipse transform="matrix(0.3027 -0.9531 0.9531 0.3027 112.2751 390.2808)" class="st3" cx="322.9" cy="118.4" rx="26.8" ry="26.8"/>
			<path class="st3" d="M328.7,82c0-2.9-2.3-5.3-5.3-5.3c-2.9,0-5.3,2.3-5.3,5.3c0,2.3,1.4,4.2,3.5,5l-0.1,22.5l3.6,0l0.1-22.5
				C327.3,86.2,328.7,84.3,328.7,82z"/>
			<path class="st3" d="M348.4,97.2c1.6-1.8,1.4-4.6-0.4-6.2c-1.8-1.6-4.6-1.4-6.2,0.4c-1.3,1.4-1.4,3.4-0.6,5l-12.4,14l2.2,2
				l12.4-14C345.2,99,347.1,98.6,348.4,97.2z"/>
			<path class="st3" d="M288.2,114.9c-2.4-0.1-4.5,1.7-4.6,4.1c-0.1,2.4,1.7,4.5,4.1,4.6c1.9,0.1,3.6-1,4.3-2.7l18.7,1l0.2-3
				l-18.7-1C291.6,116.3,290.1,115,288.2,114.9z"/>
			<path class="st3" d="M351.7,129.7c1.9,0.4,3.8-0.9,4.1-2.9c0.4-1.9-0.9-3.8-2.9-4.1c-1.5-0.3-3,0.5-3.7,1.7l-14.9-2.7l-0.4,2.4
				l14.9,2.7C349,128.2,350.1,129.4,351.7,129.7z"/>
			<path class="st3" d="M309.3,88.4c-1-1.7-3.2-2.2-4.9-1.2c-1.7,1-2.2,3.2-1.2,4.9c0.8,1.3,2.3,1.9,3.8,1.6l8,12.9l2.1-1.3l-8-12.9
				C310,91.4,310.1,89.8,309.3,88.4z"/>
			<path class="st3" d="M308.1,148.3c-0.8,1.8,0.1,3.9,1.9,4.7c1.8,0.8,3.9-0.1,4.7-1.9c0.6-1.4,0.2-3-0.9-4l5.9-14l-2.2-0.9
				l-5.9,14C310.1,146.1,308.7,146.9,308.1,148.3z"/>
			<path class="st3" d="M330.1,151.5c0.3,1.9,2.1,3.3,4,3c1.9-0.3,3.3-2.1,3-4c-0.2-1.5-1.4-2.7-2.8-3l-2.2-15l-2.4,0.3l2.2,15
				C330.7,148.6,329.9,150,330.1,151.5z"/>
			<path class="st3" d="M346.6,143.9c1.8,1.3,4.4,0.8,5.6-1c1.3-1.8,0.8-4.4-1-5.6c-1.4-1-3.3-1-4.6,0l-14.1-9.9l-1.6,2.3l14.1,9.9
				C344.6,141.1,345.2,142.9,346.6,143.9z"/>
			<path class="st3" d="M295.9,133.7c-2,1.1-2.7,3.5-1.6,5.5c1.1,2,3.5,2.7,5.5,1.6c1.5-0.8,2.3-2.5,2.1-4.2l15.2-8.2l-1.3-2.4
				l-15.2,8.2C299.3,133.2,297.5,132.9,295.9,133.7z"/>
			<path class="st3" d="M294.9,95.7c-1.9-1.1-4.4-0.5-5.5,1.4c-1.1,1.9-0.5,4.4,1.4,5.5c1.5,0.9,3.4,0.7,4.6-0.4l14.8,8.8l1.4-2.4
				l-14.8-8.8C297.1,98.3,296.4,96.6,294.9,95.7z"/>
			<path class="st3" d="M357.7,113.9c2.6-0.6,4.2-3.1,3.6-5.7c-0.6-2.6-3.1-4.2-5.7-3.6c-2,0.5-3.4,2.1-3.7,4.1l-19.9,4.5l0.7,3.2
				l19.9-4.5C353.7,113.4,355.7,114.3,357.7,113.9z"/>
			<path class="st4" d="M330,107.6c0,1.1-0.9,2-2,2c-1.1,0-2-0.9-2-2c0-1.1,0.9-2,2-2C329.1,105.6,330,106.5,330,107.6z"/>
			<path class="st4" d="M343.5,121.6c0,2.2-1.8,4-4,4c-2.2,0-4-1.8-4-4c0-2.2,1.8-4,4-4C341.8,117.6,343.5,119.4,343.5,121.6z"/>
			<path class="st4" d="M327.2,121.3c0,2.4-2,4.3-4.4,4.3c-2.4,0-4.3-2-4.3-4.4c0-2.4,2-4.3,4.4-4.3S327.2,118.9,327.2,121.3z"/>
			<path class="st4" d="M312,112.8c0,2.9-2.4,5.3-5.3,5.3s-5.3-2.4-5.3-5.3c0-2.9,2.4-5.3,5.3-5.3C309.6,107.5,312,109.9,312,112.8z
				"/>
			<path class="st4" d="M342.4,109.4c0,1-0.8,1.8-1.8,1.8c-1,0-1.8-0.8-1.8-1.8c0-1,0.8-1.8,1.8-1.8
				C341.6,107.6,342.4,108.4,342.4,109.4z"/>
			<path class="st4" d="M335.2,135.8c0,0.9-0.7,1.6-1.7,1.6c-0.9,0-1.6-0.7-1.6-1.7c0-0.9,0.7-1.6,1.7-1.6
				C334.5,134.2,335.2,134.9,335.2,135.8z"/>
			<path class="st4" d="M323.7,99.9c0,2.2-1.8,3.9-4,3.9c-2.2,0-3.9-1.8-3.9-4c0-2.2,1.8-3.9,4-3.9
				C321.9,95.9,323.7,97.7,323.7,99.9z"/>
			<path class="st4" d="M315.5,133.2c0,1.8-1.5,3.3-3.3,3.3c-1.8,0-3.3-1.5-3.3-3.3c0-1.8,1.5-3.3,3.3-3.3S315.5,131.3,315.5,133.2z
				"/>
		</g>
		<g>
			
				<ellipse transform="matrix(0.9971 -7.549658e-02 7.549658e-02 0.9971 -13.7485 31.1047)" class="st3" cx="404.5" cy="197.4" rx="26.2" ry="26.2"/>
			<path class="st3" d="M369.2,190c-2.8-0.1-5.3,2-5.4,4.9c-0.1,2.8,2,5.3,4.9,5.4c2.2,0.1,4.2-1.2,5-3.2l22,1.1l0.2-3.5l-22-1.1
				C373.2,191.6,371.4,190.1,369.2,190z"/>
			<path class="st3" d="M384.9,171.5c-1.7-1.7-4.4-1.6-6.1,0.1c-1.7,1.7-1.6,4.4,0.1,6.1c1.3,1.3,3.3,1.5,4.9,0.8l13.2,12.8l2-2.1
				l-13.2-12.8C386.6,174.7,386.3,172.8,384.9,171.5z"/>
			<path class="st3" d="M399.5,231.1c-0.2,2.4,1.5,4.5,3.8,4.7c2.4,0.2,4.5-1.5,4.7-3.8c0.2-1.9-0.8-3.5-2.4-4.3l1.9-18.2l-2.9-0.3
				l-1.9,18.2C401.1,227.8,399.7,229.3,399.5,231.1z"/>
			<path class="st3" d="M416.9,169.8c0.4-1.9-0.7-3.7-2.6-4.2c-1.9-0.4-3.7,0.7-4.2,2.6c-0.3,1.5,0.3,2.9,1.5,3.7l-3.3,14.5l2.3,0.5
				l3.3-14.5C415.3,172.3,416.6,171.2,416.9,169.8z"/>
			<path class="st3" d="M374.6,209.3c-1.7,0.9-2.3,3.1-1.4,4.7c0.9,1.7,3.1,2.3,4.7,1.4c1.3-0.7,2-2.2,1.7-3.6l13-7.2l-1.2-2.1
				l-13,7.2C377.5,208.7,375.9,208.5,374.6,209.3z"/>
			<path class="st3" d="M433.1,213.2c1.7,0.8,3.8,0.1,4.6-1.6c0.8-1.7,0.1-3.8-1.6-4.6c-1.4-0.7-2.9-0.3-3.9,0.7l-13.4-6.4l-1,2.1
				l13.4,6.4C431,211.2,431.8,212.6,433.1,213.2z"/>
			<path class="st3" d="M437.3,191.8c1.9-0.2,3.3-1.9,3.1-3.8c-0.2-1.9-1.9-3.3-3.8-3.1c-1.5,0.1-2.7,1.2-3,2.6l-14.8,1.4l0.2,2.4
				l14.8-1.4C434.4,191.1,435.8,192,437.3,191.8z"/>
			<path class="st3" d="M430.6,175.4c1.3-1.7,1-4.2-0.7-5.6c-1.7-1.3-4.2-1-5.6,0.7c-1.1,1.4-1.1,3.2-0.2,4.5l-10.4,13.4l2.1,1.7
				l10.4-13.4C427.8,177.2,429.5,176.7,430.6,175.4z"/>
			<path class="st3" d="M418.3,224.5c0.9,2,3.3,2.8,5.3,1.9c2-0.9,2.8-3.3,1.9-5.3c-0.7-1.5-2.4-2.4-4-2.2l-7.3-15.3l-2.4,1.2
				L419,220C417.9,221.1,417.5,222.9,418.3,224.5z"/>
			<path class="st3" d="M381.1,223.7c-1.2,1.8-0.7,4.3,1.1,5.5c1.8,1.2,4.3,0.7,5.5-1.1c0.9-1.4,0.8-3.2-0.1-4.5l9.3-14.1l-2.2-1.5
				l-9.3,14.1C383.7,221.7,382,222.3,381.1,223.7z"/>
			<path class="st3" d="M401.7,163.1c-0.4-2.5-2.9-4.2-5.4-3.8c-2.5,0.4-4.2,2.9-3.8,5.4c0.4,2,1.9,3.5,3.8,3.8l3.5,19.6l3.1-0.6
				l-3.5-19.6C401.1,167.1,402.1,165.1,401.7,163.1z"/>
			<path class="st4" d="M394.3,189.9c1.1,0.1,1.9,1,1.9,2.1c-0.1,1.1-1,1.9-2.1,1.9c-1.1-0.1-1.9-1-1.9-2.1
				C392.3,190.7,393.3,189.8,394.3,189.9z"/>
			<path class="st4" d="M408.6,177.3c2.2,0.1,3.8,1.9,3.7,4.1c-0.1,2.2-1.9,3.8-4.1,3.7c-2.2-0.1-3.8-1.9-3.7-4.1
				S406.4,177.2,408.6,177.3z"/>
			<path class="st4" d="M407.6,193.3c2.4,0.1,4.2,2.1,4,4.5c-0.1,2.4-2.1,4.2-4.5,4c-2.4-0.1-4.2-2.1-4-4.5
				C403.2,195,405.2,193.2,407.6,193.3z"/>
			<path class="st4" d="M398.5,207.8c2.9,0.1,5.1,2.6,4.9,5.4c-0.1,2.9-2.6,5.1-5.4,4.9c-2.9-0.1-5.1-2.6-4.9-5.4
				C393.3,209.8,395.7,207.6,398.5,207.8z"/>
			<path class="st4" d="M396.6,177.9c1,0,1.7,0.9,1.6,1.8c0,1-0.9,1.7-1.8,1.6c-1,0-1.7-0.9-1.6-1.8
				C394.8,178.6,395.6,177.9,396.6,177.9z"/>
			<path class="st4" d="M422.1,186.1c0.9,0,1.6,0.8,1.5,1.7s-0.8,1.6-1.7,1.5c-0.9,0-1.6-0.8-1.5-1.7
				C420.5,186.8,421.2,186.1,422.1,186.1z"/>
			<path class="st4" d="M386.5,195.8c2.1,0.1,3.8,1.9,3.7,4.1c-0.1,2.1-1.9,3.8-4.1,3.7c-2.1-0.1-3.8-1.9-3.7-4.1
				S384.3,195.7,386.5,195.8z"/>
			<path class="st4" d="M418.6,205.3c1.8,0.1,3.1,1.6,3.1,3.4c-0.1,1.8-1.6,3.1-3.4,3.1c-1.8-0.1-3.1-1.6-3.1-3.4
				C415.3,206.6,416.9,205.2,418.6,205.3z"/>
		</g>
		<path class="st2" d="M246.1,238.7c-0.8-0.2-1.6,0.2-2,0.9l-0.8-0.2c0.4-2.3,0.1-4.7-0.9-6.9l1.8-1.1c0.7,0.6,1.8,0.7,2.6,0.2
			c1.1-0.6,1.5-2,0.8-3.1c-0.6-1.1-2-1.5-3.1-0.8c-0.9,0.5-1.3,1.5-1.1,2.4l-1.8,1c-1-1.5-2.2-2.7-3.6-3.6l0.5-1
			c0.6,0.1,1.3-0.2,1.6-0.8c0.4-0.8,0.1-1.7-0.6-2.1c-0.8-0.4-1.7-0.1-2.1,0.6c-0.3,0.6-0.2,1.3,0.2,1.8l-0.5,1
			c-1.3-0.7-2.7-1.1-4.1-1.2l0-2.3c0.7-0.2,1.2-0.9,1.2-1.7c0-1-0.8-1.8-1.8-1.8c-1,0-1.8,0.8-1.8,1.8c0,0.8,0.5,1.4,1.2,1.7l0,2.2
			c-2,0-4,0.5-5.8,1.6l-0.8-1.5c0.5-0.6,0.7-1.4,0.3-2.2c-0.5-0.9-1.6-1.3-2.6-0.8c-0.9,0.5-1.3,1.6-0.8,2.6c0.4,0.7,1.2,1.1,1.9,1
			l0.8,1.7c-1.7,1.2-2.9,2.8-3.7,4.6l-0.2-0.1c0.1-0.7-0.2-1.5-0.8-1.9c-0.8-0.5-1.9-0.3-2.4,0.6c-0.5,0.8-0.3,1.9,0.6,2.4
			c0.7,0.4,1.5,0.3,2-0.1l0.4,0.3c-0.6,1.7-0.7,3.5-0.5,5.3l-1.4,0.2c-0.3-0.6-0.9-0.9-1.6-0.8c-0.9,0.1-1.5,0.9-1.3,1.7
			c0.1,0.9,0.9,1.5,1.7,1.3c0.7-0.1,1.2-0.6,1.3-1.2l1.5-0.2c0.3,1.1,0.7,2.1,1.3,3.2c0.7,1.1,1.5,2.1,2.4,3l-1.4,1.1
			c-0.5-0.3-1.3-0.3-1.8,0.1c-0.7,0.5-0.8,1.5-0.3,2.2c0.5,0.7,1.5,0.8,2.2,0.3c0.5-0.4,0.7-1.1,0.5-1.7l1.6-1.3
			c1.2,0.9,2.5,1.5,3.9,1.8l-0.1,1.7c-0.7,0.2-1.2,0.8-1.3,1.6c-0.1,1,0.6,1.8,1.6,1.9c1,0.1,1.8-0.6,1.9-1.6c0.1-0.8-0.4-1.5-1-1.8
			l0.1-1.6c1.4,0.2,2.8,0.2,4.2-0.1l0.1,0.2c-0.5,0.4-0.7,1.1-0.5,1.7c0.3,0.8,1.2,1.2,2,0.9c0.8-0.3,1.2-1.2,0.9-2
			c-0.2-0.6-0.8-1-1.5-1l0-0.1c0.8-0.3,1.6-0.6,2.4-1c0.8-0.4,1.5-1,2.1-1.5l1.1,1.2c-0.4,0.8-0.3,1.7,0.3,2.4
			c0.8,0.8,2.1,0.9,2.9,0.1c0.8-0.8,0.9-2.1,0.1-2.9c-0.6-0.7-1.6-0.8-2.3-0.5l-1.2-1.2c1.1-1.3,1.9-2.8,2.3-4.4l0.9,0.2
			c0.1,0.8,0.7,1.4,1.5,1.6c1,0.2,2.1-0.5,2.3-1.5C247.8,240,247.2,239,246.1,238.7z"/>
		<path class="st2" d="M201.7,382.3c-0.7-0.1-1.4,0.2-1.8,0.8l-0.7-0.1c0.3-2,0.1-4.2-0.8-6.2l1.6-0.9c0.6,0.5,1.6,0.7,2.4,0.2
			c1-0.6,1.3-1.8,0.8-2.8c-0.6-1-1.8-1.3-2.8-0.8c-0.8,0.4-1.1,1.3-1,2.1l-1.6,0.9c-0.9-1.3-2-2.4-3.2-3.2l0.5-0.9
			c0.6,0.1,1.1-0.2,1.4-0.7c0.4-0.7,0.1-1.5-0.6-1.9c-0.7-0.4-1.5-0.1-1.9,0.6c-0.3,0.5-0.2,1.2,0.2,1.6l-0.5,0.9
			c-1.1-0.6-2.4-0.9-3.7-1.1l0-2c0.6-0.2,1.1-0.8,1.1-1.5c0-0.9-0.7-1.6-1.6-1.6c-0.9,0-1.6,0.7-1.6,1.6c0,0.7,0.4,1.3,1,1.5l0,2
			c-1.8,0-3.6,0.4-5.2,1.4l-0.7-1.4c0.5-0.5,0.6-1.3,0.3-1.9c-0.4-0.8-1.5-1.2-2.3-0.8c-0.8,0.4-1.2,1.5-0.8,2.3
			c0.3,0.7,1,1,1.7,0.9l0.8,1.5c-1.5,1.1-2.6,2.5-3.3,4.1l-0.2-0.1c0.1-0.6-0.1-1.3-0.7-1.7c-0.7-0.5-1.7-0.2-2.2,0.5
			c-0.5,0.7-0.2,1.7,0.5,2.2c0.6,0.4,1.3,0.3,1.8-0.1l0.4,0.2c-0.5,1.5-0.7,3.1-0.4,4.7l-1.2,0.2c-0.3-0.5-0.8-0.8-1.4-0.7
			c-0.8,0.1-1.3,0.8-1.2,1.6c0.1,0.8,0.8,1.3,1.6,1.2c0.6-0.1,1.1-0.5,1.2-1.1l1.3-0.2c0.2,1,0.6,1.9,1.1,2.8c0.6,1,1.3,1.9,2.2,2.6
			l-1.3,1c-0.5-0.3-1.1-0.3-1.6,0.1c-0.6,0.5-0.7,1.4-0.2,2c0.5,0.6,1.4,0.7,2,0.2c0.5-0.4,0.6-1,0.5-1.5l1.4-1.1
			c1.1,0.8,2.2,1.3,3.5,1.7l-0.1,1.5c-0.6,0.2-1.1,0.7-1.2,1.4c-0.1,0.9,0.6,1.6,1.4,1.7c0.9,0.1,1.6-0.6,1.7-1.4
			c0.1-0.7-0.3-1.3-0.9-1.6l0.1-1.4c1.2,0.2,2.5,0.2,3.8-0.1l0.1,0.2c-0.4,0.4-0.6,1-0.4,1.5c0.3,0.7,1.1,1.1,1.8,0.8
			c0.7-0.3,1.1-1.1,0.8-1.8c-0.2-0.6-0.7-0.9-1.3-0.9l0-0.1c0.7-0.2,1.4-0.5,2.1-0.9c0.7-0.4,1.3-0.9,1.9-1.4l1,1.1
			c-0.3,0.7-0.3,1.5,0.3,2.1c0.7,0.8,1.9,0.8,2.6,0.1c0.8-0.7,0.8-1.9,0.1-2.6c-0.5-0.6-1.4-0.7-2.1-0.4l-1-1.1
			c1-1.1,1.7-2.5,2.1-3.9l0.8,0.2c0.1,0.7,0.6,1.3,1.4,1.4c0.9,0.2,1.8-0.4,2-1.3C203.2,383.4,202.6,382.5,201.7,382.3z"/>
		<path class="st2" d="M112.7,162.1c-0.7-0.1-1.3,0.2-1.7,0.7l-0.7-0.1c0.3-1.9,0.1-3.9-0.8-5.7l1.5-0.9c0.6,0.5,1.5,0.6,2.2,0.2
			c0.9-0.5,1.2-1.7,0.7-2.6c-0.5-0.9-1.7-1.2-2.6-0.7c-0.7,0.4-1.1,1.2-0.9,2l-1.5,0.9c-0.8-1.2-1.8-2.2-3-3l0.4-0.8
			c0.5,0.1,1.1-0.2,1.3-0.7c0.3-0.6,0.1-1.4-0.5-1.7c-0.6-0.3-1.4-0.1-1.7,0.5c-0.3,0.5-0.2,1.1,0.2,1.5l-0.4,0.8
			c-1.1-0.5-2.2-0.9-3.4-1l0-1.9c0.6-0.2,1-0.7,1-1.4c0-0.8-0.6-1.5-1.5-1.5c-0.8,0-1.5,0.6-1.5,1.5c0,0.6,0.4,1.2,1,1.4l0,1.9
			c-1.6,0-3.3,0.4-4.9,1.3l-0.6-1.3c0.4-0.5,0.6-1.2,0.3-1.8c-0.4-0.8-1.4-1.1-2.1-0.7c-0.8,0.4-1.1,1.4-0.7,2.1
			c0.3,0.6,1,0.9,1.6,0.9l0.7,1.4c-1.4,1-2.4,2.3-3.1,3.8l-0.2-0.1c0.1-0.6-0.1-1.2-0.7-1.5c-0.7-0.4-1.6-0.2-2,0.5
			c-0.4,0.7-0.2,1.6,0.5,2c0.5,0.3,1.2,0.3,1.7-0.1l0.3,0.2c-0.5,1.4-0.6,2.9-0.4,4.4l-1.2,0.1c-0.2-0.5-0.8-0.8-1.3-0.7
			c-0.7,0.1-1.2,0.7-1.1,1.4c0.1,0.7,0.7,1.2,1.4,1.1c0.6-0.1,1-0.5,1.1-1l1.2-0.2c0.2,0.9,0.6,1.8,1,2.6c0.5,0.9,1.2,1.8,2,2.4
			l-1.2,0.9c-0.4-0.3-1-0.3-1.5,0.1c-0.6,0.4-0.7,1.3-0.2,1.8c0.4,0.6,1.3,0.7,1.8,0.2c0.4-0.3,0.6-0.9,0.4-1.4l1.3-1.1
			c1,0.7,2.1,1.2,3.2,1.5l-0.1,1.4c-0.6,0.2-1,0.7-1.1,1.3c-0.1,0.8,0.5,1.5,1.3,1.6c0.8,0.1,1.5-0.5,1.6-1.3
			c0.1-0.6-0.3-1.2-0.8-1.5l0.1-1.3c1.2,0.2,2.3,0.2,3.5-0.1l0.1,0.2c-0.4,0.3-0.6,0.9-0.4,1.4c0.2,0.7,1,1,1.7,0.8
			c0.7-0.2,1-1,0.8-1.7c-0.2-0.5-0.7-0.9-1.2-0.9l0-0.1c0.7-0.2,1.3-0.5,2-0.9c0.6-0.4,1.2-0.8,1.7-1.3l0.9,1
			c-0.3,0.6-0.2,1.4,0.3,2c0.7,0.7,1.7,0.7,2.4,0.1c0.7-0.7,0.7-1.7,0.1-2.4c-0.5-0.6-1.3-0.7-1.9-0.4l-1-1c0.9-1.1,1.6-2.3,1.9-3.6
			l0.7,0.1c0.1,0.6,0.6,1.2,1.3,1.3c0.9,0.2,1.7-0.4,1.9-1.3C114.2,163.1,113.6,162.3,112.7,162.1z"/>
		<path class="st2" d="M81.3,344c0,0.8,0.4,1.5,1.1,1.7l0,0.8c-2.2,0-4.4,0.6-6.3,1.8l-1.2-1.5c0.5-0.8,0.4-1.7-0.1-2.5
			c-0.7-0.9-2.1-1.1-3-0.3c-0.9,0.7-1.1,2.1-0.3,3c0.6,0.7,1.5,1,2.4,0.7l1.2,1.5c-1.2,1.1-2.2,2.4-2.8,3.8l-1-0.3
			c0-0.6-0.4-1.2-1-1.4c-0.8-0.3-1.6,0.1-1.9,0.9c-0.3,0.8,0.1,1.6,0.9,1.9c0.6,0.2,1.2,0,1.6-0.4l1,0.3c-0.4,1.3-0.6,2.6-0.6,4
			l-2.1,0.3c-0.3-0.6-1-1-1.7-0.9c-0.9,0.1-1.5,1-1.4,1.9c0.1,0.9,1,1.5,1.9,1.4c0.7-0.1,1.2-0.6,1.4-1.3l2.1-0.3
			c0.3,1.8,1,3.6,2.2,5.2l-1.3,0.9c-0.6-0.4-1.4-0.4-2.1,0c-0.8,0.6-1,1.7-0.4,2.5c0.6,0.8,1.7,1,2.5,0.4c0.6-0.5,0.9-1.2,0.7-1.9
			l1.4-1c1.4,1.4,3,2.3,4.8,2.8l-0.1,0.2c-0.7,0-1.3,0.3-1.6,1c-0.4,0.8,0,1.8,0.9,2.2c0.8,0.4,1.8,0,2.2-0.9
			c0.3-0.7,0.1-1.4-0.4-1.9l0.2-0.4c1.6,0.3,3.4,0.2,5-0.3l0.4,1.3c-0.5,0.3-0.7,1-0.6,1.6c0.2,0.8,1,1.2,1.8,1c0.8-0.2,1.2-1,1-1.8
			c-0.2-0.6-0.7-1-1.3-1.1l-0.4-1.3c1-0.4,1.9-0.9,2.8-1.6c1-0.8,1.8-1.7,2.4-2.6l1.2,1.2c-0.2,0.5-0.1,1.2,0.3,1.6
			c0.6,0.5,1.5,0.5,2.1-0.1c0.5-0.6,0.5-1.5-0.1-2.1c-0.5-0.4-1.1-0.5-1.7-0.2l-1.4-1.3c0.6-1.2,1-2.5,1.2-3.9l1.6-0.1
			c0.3,0.6,0.9,1,1.6,1c0.9-0.1,1.6-0.8,1.5-1.8c-0.1-0.9-0.8-1.6-1.8-1.5c-0.7,0-1.3,0.5-1.5,1.2l-1.5,0.1c0-1.3-0.2-2.6-0.7-3.9
			l0.2-0.1c0.4,0.4,1.1,0.5,1.7,0.2c0.7-0.4,1-1.3,0.6-2c-0.4-0.7-1.3-1-2-0.6c-0.6,0.3-0.8,0.9-0.7,1.5l-0.1,0.1
			c-0.3-0.7-0.8-1.4-1.3-2c-0.5-0.6-1.1-1.2-1.7-1.7l0.9-1.2c0.8,0.3,1.6,0,2.2-0.6c0.7-0.8,0.5-2.1-0.3-2.7
			c-0.8-0.7-2.1-0.5-2.7,0.3c-0.5,0.7-0.6,1.6-0.1,2.2l-1,1.2c-1.3-0.8-2.8-1.3-4.4-1.5l0-0.8c0.7-0.2,1.2-0.9,1.3-1.6
			c0-1-0.7-1.8-1.7-1.9C82.2,342.3,81.4,343,81.3,344z"/>
		<g>
			
				<ellipse transform="matrix(0.7908 -0.6121 0.6121 0.7908 -74.0473 258.5548)" class="st3" cx="341.2" cy="237.6" rx="12.6" ry="12.6"/>
			<path class="st3" d="M357.4,231.4c1.2-0.7,1.6-2.2,0.9-3.4c-0.7-1.2-2.2-1.6-3.4-0.9c-0.9,0.5-1.4,1.6-1.2,2.6l-9.2,5.3l0.8,1.5
				l9.2-5.3C355.3,231.8,356.5,231.9,357.4,231.4z"/>
			<path class="st3" d="M355.9,243c1.1,0.2,2.2-0.5,2.4-1.6c0.2-1.1-0.5-2.2-1.6-2.4c-0.9-0.2-1.7,0.2-2.2,1l-8.6-1.7l-0.3,1.4
				l8.6,1.7C354.4,242.1,355,242.8,355.9,243z"/>
			<path class="st3" d="M334.4,222.7c-0.5-1-1.8-1.4-2.8-0.9c-1,0.5-1.4,1.8-0.9,2.8c0.4,0.8,1.3,1.2,2.1,1.1l4,7.9l1.3-0.6l-4-7.9
				C334.7,224.4,334.8,223.5,334.4,222.7z"/>
			<path class="st3" d="M343.4,252c0.3,0.9,1.3,1.3,2.1,1c0.9-0.3,1.3-1.3,1-2.1c-0.2-0.7-0.9-1.1-1.6-1.1l-2.4-6.7l-1.1,0.4
				l2.4,6.7C343.4,250.6,343.2,251.3,343.4,252z"/>
			<path class="st3" d="M350.2,225c0.4-0.8,0.1-1.8-0.7-2.3c-0.8-0.4-1.8-0.1-2.3,0.7c-0.3,0.6-0.2,1.4,0.2,1.9l-3.4,6.3l1,0.5
				l3.4-6.3C349.2,226,349.9,225.6,350.2,225z"/>
			<path class="st3" d="M325.5,238.7c-0.9,0.1-1.6,1-1.5,1.9c0.1,0.9,1,1.6,1.9,1.5c0.7-0.1,1.3-0.6,1.4-1.3l7.1-0.9l-0.1-1.1
				l-7.1,0.9C326.9,238.9,326.2,238.6,325.5,238.7z"/>
			<path class="st3" d="M329.5,248.4c-0.7,0.6-0.8,1.6-0.3,2.4c0.6,0.7,1.6,0.8,2.4,0.3c0.6-0.5,0.8-1.2,0.5-1.8l5.6-4.4l-0.7-0.9
				l-5.6,4.4C330.8,247.9,330,247.9,329.5,248.4z"/>
			<path class="st3" d="M336.4,253.3c-0.1,1,0.7,2,1.7,2.1c1,0.1,2-0.7,2.1-1.7c0.1-0.8-0.4-1.6-1.1-1.9l0.7-8.1l-1.3-0.1l-0.7,8.1
				C337.1,251.8,336.5,252.5,336.4,253.3z"/>
			<path class="st3" d="M328.6,230.3c-0.9-0.6-2.1-0.3-2.6,0.6c-0.6,0.9-0.3,2.1,0.6,2.6c0.7,0.4,1.6,0.4,2.2-0.1l6.9,4.3l0.7-1.1
				l-6.9-4.3C329.6,231.5,329.3,230.7,328.6,230.3z"/>
			<path class="st3" d="M343.8,220.8c0-1.1-0.8-1.9-1.9-1.9c-1.1,0-1.9,0.8-1.9,1.9c0,0.8,0.5,1.5,1.2,1.8l-0.1,8.1l1.3,0l0.1-8.1
				C343.3,222.4,343.8,221.7,343.8,220.8z"/>
			<path class="st3" d="M351.3,250.7c0.8,0.9,2.3,1,3.2,0.1c0.9-0.8,1-2.3,0.1-3.2c-0.7-0.7-1.7-0.9-2.5-0.5l-6.5-7l-1.1,1l6.5,7
				C350.5,249,350.6,250,351.3,250.7z"/>
			<path class="st4" d="M347.3,238c-0.5,0.3-1,0.1-1.3-0.3c-0.3-0.5-0.1-1,0.3-1.3c0.5-0.3,1-0.1,1.3,0.3
				C347.9,237.1,347.7,237.7,347.3,238z"/>
			<path class="st4" d="M344.8,246.8c-0.9,0.5-2.1,0.2-2.6-0.7c-0.5-0.9-0.2-2.1,0.7-2.6c0.9-0.5,2.1-0.2,2.6,0.7
				C346,245.1,345.7,246.2,344.8,246.8z"/>
			<path class="st4" d="M341,240c-1,0.6-2.2,0.2-2.8-0.8c-0.6-1-0.2-2.2,0.8-2.8c1-0.6,2.2-0.2,2.8,0.8
				C342.4,238.2,342,239.5,341,240z"/>
			<path class="st4" d="M340.9,231.8c-1.2,0.7-2.7,0.3-3.4-0.9c-0.7-1.2-0.3-2.7,0.9-3.4c1.2-0.7,2.7-0.3,3.4,0.9
				C342.5,229.6,342.1,231.2,340.9,231.8z"/>
			<path class="st4" d="M349.5,243.4c-0.4,0.2-0.9,0.1-1.1-0.3c-0.2-0.4-0.1-0.9,0.3-1.1c0.4-0.2,0.9-0.1,1.1,0.3
				C350,242.7,349.9,243.2,349.5,243.4z"/>
			<path class="st4" d="M337,246.7c-0.4,0.2-0.8,0.1-1.1-0.3c-0.2-0.4-0.1-0.8,0.3-1.1c0.4-0.2,0.8-0.1,1.1,0.3
				C337.5,246.1,337.4,246.5,337,246.7z"/>
			<path class="st4" d="M348.9,233.5c-0.9,0.5-2,0.2-2.5-0.7c-0.5-0.9-0.2-2,0.7-2.5c0.9-0.5,2-0.2,2.5,0.7
				C350.1,231.9,349.8,233,348.9,233.5z"/>
			<path class="st4" d="M333.5,238.1c-0.7,0.4-1.7,0.2-2.1-0.6c-0.4-0.7-0.2-1.7,0.6-2.1c0.7-0.4,1.7-0.2,2.1,0.6
				C334.4,236.7,334.2,237.7,333.5,238.1z"/>
		</g>
		<g>
			<path class="st3" d="M396.7,279.3c0.8,5.8-3.1,11.1-8.9,12c-5.8,0.8-11.1-3.1-12-8.9c-0.8-5.8,3.1-11.1,8.9-12
				C390.5,269.5,395.9,273.5,396.7,279.3z"/>
			<path class="st3" d="M386.4,266.3c-0.2-1.1-1.2-1.9-2.4-1.8c-1.1,0.2-1.9,1.2-1.8,2.4c0.1,0.9,0.8,1.6,1.6,1.7l1.3,8.8l1.4-0.2
				l-1.3-8.8C386.1,268,386.6,267.2,386.4,266.3z"/>
			<path class="st3" d="M395,271c0.5-0.8,0.3-1.9-0.5-2.4c-0.8-0.5-1.9-0.3-2.4,0.5c-0.4,0.6-0.4,1.4,0.1,2l-4,6.2l1,0.6l4-6.2
				C393.8,271.9,394.6,271.7,395,271z"/>
			<path class="st3" d="M372.6,281.5c-1,0.1-1.7,0.9-1.6,1.9c0.1,1,0.9,1.7,1.9,1.6c0.7-0.1,1.3-0.6,1.5-1.3l7.4-0.7l-0.1-1.2
				l-7.4,0.7C374,281.8,373.3,281.4,372.6,281.5z"/>
			<path class="st3" d="M398.2,283.5c0.8,0,1.4-0.6,1.4-1.4c0-0.8-0.6-1.4-1.4-1.4c-0.6,0-1.1,0.4-1.3,0.9l-6-0.2l0,1l6,0.2
				C397.1,283.1,397.6,283.5,398.2,283.5z"/>
			<path class="st3" d="M379.3,269.9c-0.5-0.6-1.4-0.7-2-0.2c-0.6,0.5-0.7,1.4-0.2,2c0.4,0.5,1,0.6,1.6,0.4l3.9,4.6l0.7-0.6
				l-3.9-4.6C379.7,271,379.6,270.4,379.3,269.9z"/>
			<path class="st3" d="M382.3,293.3c-0.2,0.8,0.3,1.5,1,1.7c0.8,0.2,1.5-0.3,1.7-1c0.2-0.6-0.1-1.2-0.6-1.5l1.5-5.8l-0.9-0.2
				l-1.5,5.8C382.9,292.4,382.4,292.8,382.3,293.3z"/>
			<path class="st3" d="M391.1,293.3c0.2,0.7,1,1.2,1.7,0.9c0.7-0.2,1.2-1,0.9-1.7c-0.2-0.6-0.7-1-1.3-1l-1.7-5.7l-0.9,0.3l1.7,5.7
				C391.1,292.1,390.9,292.7,391.1,293.3z"/>
			<path class="st3" d="M397,289.4c0.8,0.4,1.7,0.1,2.1-0.7c0.4-0.8,0.1-1.7-0.7-2.1c-0.6-0.3-1.3-0.2-1.8,0.3l-6.1-3l-0.5,1l6.1,3
				C396.1,288.4,396.4,289,397,289.4z"/>
			<path class="st3" d="M376.7,288.4c-0.7,0.5-0.8,1.5-0.3,2.2c0.5,0.7,1.5,0.8,2.2,0.3c0.6-0.4,0.8-1.1,0.6-1.7l5.4-4.1l-0.7-0.9
				l-5.4,4.1C378,287.9,377.2,287.9,376.7,288.4z"/>
			<path class="st3" d="M374,273.6c-0.8-0.3-1.7,0.1-2.1,0.9c-0.3,0.8,0.1,1.7,0.9,2.1c0.6,0.3,1.3,0.1,1.8-0.4l6.3,2.6l0.4-1
				l-6.3-2.6C375.1,274.5,374.7,273.9,374,273.6z"/>
			<path class="st3" d="M399.6,277c1-0.4,1.4-1.5,1.1-2.4c-0.4-1-1.5-1.4-2.4-1.1c-0.8,0.3-1.2,1-1.2,1.8l-7.5,2.9l0.5,1.2l7.5-2.9
				C398,277.1,398.8,277.3,399.6,277z"/>
			<path class="st4" d="M388.4,276.2c0.1,0.4-0.2,0.8-0.7,0.9c-0.4,0.1-0.8-0.2-0.9-0.7c-0.1-0.4,0.2-0.8,0.7-0.9
				C388,275.5,388.4,275.8,388.4,276.2z"/>
			<path class="st4" d="M394.5,280.8c0.1,0.9-0.5,1.7-1.3,1.8c-0.9,0.1-1.7-0.5-1.8-1.3c-0.1-0.9,0.5-1.7,1.3-1.8
				C393.6,279.4,394.4,280,394.5,280.8z"/>
			<path class="st4" d="M388.1,281.7c0.1,0.9-0.5,1.8-1.4,1.9c-0.9,0.1-1.8-0.5-1.9-1.4c-0.1-0.9,0.5-1.8,1.4-1.9
				C387.1,280.1,388,280.7,388.1,281.7z"/>
			<path class="st4" d="M381.7,279.3c0.2,1.1-0.6,2.2-1.8,2.4c-1.1,0.2-2.2-0.6-2.4-1.8c-0.2-1.1,0.6-2.2,1.8-2.4
				C380.5,277.3,381.6,278.1,381.7,279.3z"/>
			<path class="st4" d="M393.4,276.1c0.1,0.4-0.2,0.7-0.6,0.8c-0.4,0.1-0.7-0.2-0.8-0.6c-0.1-0.4,0.2-0.7,0.6-0.8
				C393,275.5,393.3,275.8,393.4,276.1z"/>
			<path class="st4" d="M392.1,286.9c0.1,0.4-0.2,0.7-0.5,0.7c-0.4,0.1-0.7-0.2-0.7-0.5c-0.1-0.4,0.2-0.7,0.5-0.7
				C391.7,286.3,392.1,286.5,392.1,286.9z"/>
			<path class="st4" d="M385.5,273.5c0.1,0.9-0.5,1.6-1.3,1.8s-1.6-0.5-1.8-1.3c-0.1-0.9,0.5-1.6,1.3-1.8S385.4,272.7,385.5,273.5z"
				/>
			<path class="st4" d="M384.3,287c0.1,0.7-0.4,1.4-1.1,1.5c-0.7,0.1-1.4-0.4-1.5-1.1c-0.1-0.7,0.4-1.4,1.1-1.5
				C383.5,285.8,384.2,286.3,384.3,287z"/>
		</g>
		<g>
			<path class="st3" d="M192.2,327.9c1,7-3.8,13.5-10.8,14.5c-7,1-13.5-3.8-14.5-10.8c-1-7,3.8-13.5,10.8-14.5
				C184.7,316.1,191.2,320.9,192.2,327.9z"/>
			<path class="st3" d="M179.8,312.2c-0.2-1.4-1.5-2.3-2.8-2.1c-1.4,0.2-2.3,1.5-2.1,2.8c0.2,1.1,1,1.9,2,2.1l1.6,10.6l1.7-0.2
				l-1.6-10.6C179.4,314.3,180,313.3,179.8,312.2z"/>
			<path class="st3" d="M190.2,318c0.6-1,0.3-2.3-0.6-2.9c-1-0.6-2.3-0.3-2.9,0.6c-0.5,0.8-0.4,1.7,0.1,2.4l-4.8,7.5l1.2,0.8
				l4.8-7.5C188.8,319,189.7,318.7,190.2,318z"/>
			<path class="st3" d="M163,330.6c-1.2,0.1-2,1.1-1.9,2.3c0.1,1.2,1.1,2,2.3,1.9c0.9-0.1,1.6-0.7,1.8-1.6l8.9-0.8L174,331l-8.9,0.8
				C164.8,331,163.9,330.5,163,330.6z"/>
			<path class="st3" d="M194,333.1c0.9,0,1.7-0.7,1.7-1.6c0-0.9-0.7-1.7-1.6-1.7c-0.7,0-1.4,0.4-1.6,1.1l-7.2-0.2l0,1.2l7.2,0.2
				C192.7,332.5,193.3,333,194,333.1z"/>
			<path class="st3" d="M171.1,316.6c-0.6-0.7-1.7-0.8-2.4-0.2c-0.7,0.6-0.8,1.7-0.2,2.4c0.5,0.6,1.2,0.7,1.9,0.5l4.7,5.5l0.9-0.7
				l-4.7-5.5C171.6,317.9,171.6,317.2,171.1,316.6z"/>
			<path class="st3" d="M174.8,344.9c-0.2,0.9,0.3,1.8,1.2,2.1c0.9,0.2,1.8-0.3,2.1-1.2c0.2-0.7-0.1-1.4-0.7-1.8l1.8-7l-1.1-0.3
				l-1.8,7C175.6,343.7,175,344.2,174.8,344.9z"/>
			<path class="st3" d="M185.4,344.9c0.3,0.9,1.2,1.4,2.1,1.1c0.9-0.3,1.4-1.2,1.1-2.1c-0.2-0.7-0.8-1.2-1.5-1.2l-2.1-6.9l-1.1,0.3
				l2.1,6.9C185.5,343.4,185.2,344.2,185.4,344.9z"/>
			<path class="st3" d="M192.6,340.1c1,0.5,2.1,0.1,2.6-0.9c0.5-1,0.1-2.1-0.9-2.6c-0.7-0.4-1.6-0.2-2.2,0.3l-7.4-3.7l-0.6,1.2
				l7.4,3.7C191.5,338.9,191.9,339.7,192.6,340.1z"/>
			<path class="st3" d="M168,338.9c-0.9,0.6-1,1.8-0.4,2.7c0.6,0.9,1.8,1,2.7,0.4c0.7-0.5,0.9-1.4,0.7-2.1l6.6-4.9l-0.8-1.1
				l-6.6,4.9C169.6,338.4,168.7,338.4,168,338.9z"/>
			<path class="st3" d="M164.8,321.1c-1-0.4-2.1,0.1-2.5,1.1c-0.4,1,0.1,2.1,1.1,2.5c0.8,0.3,1.6,0.1,2.2-0.5l7.6,3.1l0.5-1.2
				l-7.6-3.1C166,322.1,165.6,321.4,164.8,321.1z"/>
			<path class="st3" d="M195.7,325.2c1.2-0.5,1.8-1.8,1.3-2.9c-0.5-1.2-1.8-1.8-2.9-1.3c-0.9,0.4-1.5,1.2-1.4,2.2l-9.1,3.5l0.6,1.4
				l9.1-3.5C193.8,325.2,194.8,325.5,195.7,325.2z"/>
			<path class="st4" d="M182.2,324.2c0.1,0.5-0.3,1-0.8,1.1c-0.5,0.1-1-0.3-1.1-0.8c-0.1-0.5,0.3-1,0.8-1.1
				C181.7,323.3,182.2,323.7,182.2,324.2z"/>
			<path class="st4" d="M189.6,329.8c0.2,1-0.6,2-1.6,2.2c-1,0.2-2-0.6-2.2-1.6c-0.2-1,0.6-2,1.6-2.2
				C188.5,328,189.4,328.8,189.6,329.8z"/>
			<path class="st4" d="M181.9,330.8c0.2,1.1-0.6,2.2-1.8,2.4c-1.1,0.2-2.2-0.6-2.4-1.8c-0.2-1.1,0.6-2.2,1.8-2.4
				C180.6,328.9,181.7,329.7,181.9,330.8z"/>
			<path class="st4" d="M174.1,327.9c0.2,1.4-0.8,2.7-2.1,2.9c-1.4,0.2-2.7-0.8-2.9-2.1s0.8-2.7,2.1-2.9
				C172.6,325.6,173.9,326.5,174.1,327.9z"/>
			<path class="st4" d="M188.2,324.1c0.1,0.5-0.3,0.9-0.7,1c-0.5,0.1-0.9-0.3-1-0.7c-0.1-0.5,0.3-0.9,0.7-1S188.1,323.7,188.2,324.1
				z"/>
			<path class="st4" d="M186.7,337.1c0.1,0.4-0.2,0.8-0.7,0.9c-0.4,0.1-0.8-0.2-0.9-0.7c-0.1-0.4,0.2-0.8,0.7-0.9
				C186.2,336.4,186.6,336.7,186.7,337.1z"/>
			<path class="st4" d="M178.7,321c0.2,1-0.6,2-1.6,2.1c-1,0.2-2-0.6-2.1-1.6c-0.2-1,0.6-2,1.6-2.1C177.6,319.2,178.5,320,178.7,321
				z"/>
			<path class="st4" d="M177.2,337.3c0.1,0.9-0.5,1.7-1.3,1.8c-0.9,0.1-1.7-0.5-1.8-1.3c-0.1-0.9,0.5-1.7,1.3-1.8
				C176.3,335.8,177.1,336.4,177.2,337.3z"/>
		</g>
		<g>
			<path class="st3" d="M440.1,302.1c7,0.3,12.5,6.3,12.2,13.3c-0.3,7-6.3,12.5-13.3,12.2c-7-0.3-12.5-6.3-12.2-13.3
				C427.1,307.2,433.1,301.8,440.1,302.1z"/>
			<path class="st3" d="M422.3,311.3c-1.4-0.1-2.6,1-2.6,2.4c-0.1,1.4,1,2.6,2.4,2.6c1.1,0,2-0.6,2.4-1.6l10.7,0.5l0.1-1.7
				l-10.7-0.5C424.3,312.1,423.4,311.4,422.3,311.3z"/>
			<path class="st3" d="M429.9,302.3c-0.8-0.8-2.2-0.8-3,0.1c-0.8,0.8-0.8,2.2,0.1,3c0.7,0.6,1.6,0.7,2.4,0.4l6.5,6.2l1-1l-6.5-6.2
				C430.8,303.8,430.6,302.9,429.9,302.3z"/>
			<path class="st3" d="M437.2,331.3c-0.1,1.2,0.7,2.2,1.9,2.3s2.2-0.7,2.3-1.9c0.1-0.9-0.4-1.7-1.2-2.1l0.9-8.9l-1.4-0.1l-0.9,8.9
				C438,329.7,437.3,330.4,437.2,331.3z"/>
			<path class="st3" d="M445.5,301.3c0.2-0.9-0.4-1.8-1.3-2c-0.9-0.2-1.8,0.4-2,1.3c-0.2,0.7,0.2,1.4,0.7,1.8l-1.6,7.1l1.1,0.3
				l1.6-7.1C444.7,302.6,445.3,302,445.5,301.3z"/>
			<path class="st3" d="M425,320.7c-0.8,0.5-1.1,1.5-0.6,2.3c0.5,0.8,1.5,1.1,2.3,0.6c0.6-0.4,1-1.1,0.8-1.8l6.3-3.6l-0.6-1
				l-6.3,3.6C426.4,320.4,425.7,320.3,425,320.7z"/>
			<path class="st3" d="M453.5,322.5c0.8,0.4,1.9,0,2.3-0.8c0.4-0.8,0-1.9-0.8-2.3c-0.7-0.3-1.4-0.2-1.9,0.3l-6.5-3.1l-0.5,1
				l6.5,3.1C452.5,321.5,452.9,322.1,453.5,322.5z"/>
			<path class="st3" d="M455.5,312c0.9-0.1,1.6-0.9,1.5-1.9c-0.1-0.9-0.9-1.6-1.9-1.5c-0.7,0.1-1.3,0.6-1.5,1.3l-7.2,0.8l0.1,1.1
				l7.2-0.8C454.1,311.7,454.7,312.1,455.5,312z"/>
			<path class="st3" d="M452.2,304c0.6-0.8,0.5-2.1-0.4-2.7c-0.8-0.6-2.1-0.5-2.7,0.4c-0.5,0.7-0.5,1.5-0.1,2.2l-5,6.5l1,0.8l5-6.5
				C450.8,304.9,451.7,304.7,452.2,304z"/>
			<path class="st3" d="M446.3,328c0.5,1,1.6,1.4,2.6,0.9c1-0.5,1.4-1.6,0.9-2.6c-0.4-0.8-1.2-1.2-1.9-1.1l-3.6-7.4l-1.2,0.6
				l3.6,7.4C446.1,326.3,446,327.2,446.3,328z"/>
			<path class="st3" d="M428.2,327.7c-0.6,0.9-0.3,2.1,0.6,2.7c0.9,0.6,2.1,0.3,2.7-0.6c0.5-0.7,0.4-1.6-0.1-2.2l4.5-6.9l-1.1-0.7
				l-4.5,6.9C429.5,326.7,428.7,327,428.2,327.7z"/>
			<path class="st3" d="M438.1,298.2c-0.2-1.2-1.4-2.1-2.6-1.8c-1.2,0.2-2.1,1.4-1.8,2.6c0.2,1,0.9,1.7,1.9,1.8l1.7,9.6l1.5-0.3
				l-1.7-9.6C437.8,300.1,438.3,299.1,438.1,298.2z"/>
			<path class="st4" d="M434.6,311.2c0.5,0,0.9,0.5,0.9,1c0,0.5-0.5,0.9-1,0.9c-0.5,0-0.9-0.5-0.9-1
				C433.6,311.6,434,311.2,434.6,311.2z"/>
			<path class="st4" d="M441.5,305c1.1,0,1.9,0.9,1.8,2c0,1.1-0.9,1.9-2,1.8c-1.1,0-1.9-0.9-1.8-2C439.5,305.8,440.4,305,441.5,305z
				"/>
			<path class="st4" d="M441,312.8c1.1,0.1,2,1,2,2.2c-0.1,1.1-1,2-2.2,2c-1.1-0.1-2-1-2-2.2C438.9,313.7,439.9,312.8,441,312.8z"/>
			<path class="st4" d="M436.7,319.9c1.4,0.1,2.5,1.2,2.4,2.6c-0.1,1.4-1.2,2.5-2.6,2.4c-1.4-0.1-2.5-1.2-2.4-2.6
				C434.1,320.9,435.3,319.8,436.7,319.9z"/>
			<path class="st4" d="M435.6,305.4c0.5,0,0.8,0.4,0.8,0.9c0,0.5-0.4,0.8-0.9,0.8c-0.5,0-0.8-0.4-0.8-0.9
				C434.8,305.7,435.2,305.3,435.6,305.4z"/>
			<path class="st4" d="M448.1,309.3c0.4,0,0.8,0.4,0.8,0.8c0,0.4-0.4,0.8-0.8,0.8c-0.4,0-0.8-0.4-0.8-0.8
				C447.3,309.6,447.7,309.3,448.1,309.3z"/>
			<path class="st4" d="M430.8,314.1c1,0,1.8,0.9,1.8,2c0,1-0.9,1.8-2,1.8c-1,0-1.8-0.9-1.8-2C428.8,314.9,429.7,314,430.8,314.1z"
				/>
			<path class="st4" d="M446.5,318.6c0.9,0,1.5,0.8,1.5,1.6c0,0.9-0.8,1.5-1.6,1.5c-0.9,0-1.5-0.8-1.5-1.6
				C444.9,319.3,445.6,318.6,446.5,318.6z"/>
		</g>
		<g>
			
				<ellipse transform="matrix(0.9326 -0.3608 0.3608 0.9326 -106.3593 55.5609)" class="st3" cx="95.6" cy="312.7" rx="22.2" ry="22.2"/>
			<path class="st3" d="M69.7,296.3c-2.2-1-4.8,0.1-5.8,2.3c-1,2.2,0.1,4.8,2.3,5.8c1.7,0.7,3.7,0.3,4.9-1l17.2,7.4l1.2-2.7
				l-17.2-7.4C72.4,298.8,71.4,297.1,69.7,296.3z"/>
			<path class="st3" d="M87.7,286.2c-0.9-1.8-3-2.6-4.9-1.7c-1.8,0.9-2.6,3-1.7,4.9c0.7,1.4,2.2,2.2,3.7,2.1l6.7,14.1l2.2-1.1
				L87,290.3C88,289.3,88.4,287.6,87.7,286.2z"/>
			<path class="st3" d="M81.7,338c-0.9,1.8-0.1,4,1.7,4.9c1.8,0.9,4,0.1,4.9-1.7c0.7-1.4,0.4-3.1-0.6-4.1l6.9-14l-2.2-1.1l-6.9,14
				C83.9,335.8,82.4,336.6,81.7,338z"/>
			<path class="st3" d="M113.6,294.3c0.9-1.4,0.5-3.2-0.8-4.1c-1.4-0.9-3.2-0.5-4.1,0.8c-0.7,1.1-0.6,2.4,0.1,3.4l-6.9,10.5l1.7,1.1
				l6.9-10.5C111.7,295.8,112.9,295.4,113.6,294.3z"/>
			<path class="st3" d="M68.3,313.3c-1.6,0.2-2.7,1.8-2.5,3.4c0.2,1.6,1.8,2.7,3.4,2.5c1.3-0.2,2.2-1.2,2.4-2.4l12.5-1.9l-0.3-2
				l-12.5,1.9C70.8,313.7,69.6,313.1,68.3,313.3z"/>
			<path class="st3" d="M113.7,333.7c1.1,1.2,3,1.2,4.2,0.1c1.2-1.1,1.2-3,0.1-4.2c-0.9-0.9-2.2-1.1-3.3-0.6l-8.8-9.1l-1.4,1.4
				l8.8,9.1C112.7,331.4,112.8,332.8,113.7,333.7z"/>
			<path class="st3" d="M123.3,317.9c1.6,0.4,3.2-0.5,3.6-2.1c0.4-1.6-0.5-3.2-2.1-3.6c-1.2-0.3-2.5,0.2-3.2,1.2l-12.2-3.2l-0.5,1.9
				l12.2,3.2C121.2,316.5,122.1,317.5,123.3,317.9z"/>
			<path class="st3" d="M122.9,302.8c1.6-1,2.1-3.1,1.1-4.6c-1-1.6-3.1-2.1-4.6-1.1c-1.2,0.8-1.8,2.2-1.5,3.6l-12.2,7.6l1.2,1.9
				l12.2-7.6C120.1,303.4,121.6,303.6,122.9,302.8z"/>
			<path class="st3" d="M98.6,338.2c0.2,1.9,1.8,3.2,3.7,3c1.9-0.2,3.2-1.8,3-3.7c-0.1-1.4-1.2-2.6-2.5-2.9l-1.3-14.3l-2.3,0.2
				l1.3,14.3C99.3,335.5,98.4,336.8,98.6,338.2z"/>
			<path class="st3" d="M69.2,326.7c-1.5,1.1-1.8,3.2-0.7,4.7c1.1,1.5,3.2,1.8,4.7,0.7c1.2-0.9,1.6-2.3,1.2-3.7L86,320l-1.4-1.8
				L73,326.6C71.9,325.8,70.3,325.8,69.2,326.7z"/>
			<path class="st3" d="M103.5,284.5c0.4-2.2-1-4.2-3.2-4.6c-2.2-0.4-4.2,1-4.6,3.2c-0.3,1.7,0.5,3.3,1.9,4.1l-3,16.7l2.7,0.5
				l3-16.7C101.8,287.5,103.2,286.2,103.5,284.5z"/>
			<path class="st4" d="M89.7,303.7c0.8,0.4,1.2,1.3,0.9,2.2c-0.4,0.8-1.3,1.2-2.2,0.9c-0.8-0.4-1.2-1.3-0.9-2.2
				C87.9,303.7,88.9,303.3,89.7,303.7z"/>
			<path class="st4" d="M104.8,297.9c1.7,0.7,2.5,2.7,1.7,4.4c-0.7,1.7-2.7,2.5-4.4,1.7c-1.7-0.7-2.5-2.7-1.7-4.4
				C101.1,297.9,103.1,297.1,104.8,297.9z"/>
			<path class="st4" d="M99.2,310.3c1.8,0.8,2.7,2.9,1.9,4.8c-0.8,1.8-2.9,2.7-4.8,1.9c-1.8-0.8-2.7-2.9-1.9-4.8
				C95.3,310.4,97.4,309.5,99.2,310.3z"/>
			<path class="st4" d="M87.8,319.1c2.2,1,3.3,3.5,2.3,5.8c-1,2.2-3.5,3.3-5.8,2.3c-2.2-1-3.3-3.5-2.3-5.8
				C83,319.2,85.6,318.2,87.8,319.1z"/>
			<path class="st4" d="M95.1,294.8c0.7,0.3,1.1,1.2,0.8,1.9c-0.3,0.7-1.2,1.1-1.9,0.8c-0.7-0.3-1.1-1.2-0.8-1.9
				C93.5,294.8,94.3,294.5,95.1,294.8z"/>
			<path class="st4" d="M113,308.9c0.7,0.3,1,1.1,0.7,1.8c-0.3,0.7-1.1,1-1.8,0.7c-0.7-0.3-1-1.1-0.7-1.8
				C111.5,308.9,112.3,308.6,113,308.9z"/>
			<path class="st4" d="M81.7,306c1.7,0.7,2.4,2.6,1.7,4.3c-0.7,1.7-2.6,2.4-4.3,1.7c-1.7-0.7-2.4-2.6-1.7-4.3
				C78.1,306.1,80.1,305.3,81.7,306z"/>
			<path class="st4" d="M104.5,323.1c1.4,0.6,2,2.2,1.4,3.6c-0.6,1.4-2.2,2-3.6,1.4c-1.4-0.6-2-2.2-1.4-3.6
				C101.5,323.2,103.1,322.5,104.5,323.1z"/>
		</g>
		<path class="st5" d="M157.7,362.7c0,3.9-3.2,7.1-7.1,7.1c-3.9,0-7.1-3.2-7.1-7.1s3.2-7.1,7.1-7.1
			C154.6,355.6,157.7,358.8,157.7,362.7z"/>
		
			<ellipse transform="matrix(0.1598 -0.9871 0.9871 0.1598 40.3057 464.9902)" class="st5" cx="293.3" cy="208.8" rx="7.3" ry="7.3"/>
		<circle class="st5" cx="419.6" cy="279.7" r="7.3"/>
		<path class="st5" d="M303.2,395.3c0,3.1-2.6,5.7-5.7,5.7c-3.1,0-5.7-2.6-5.7-5.7c0-3.1,2.6-5.7,5.7-5.7
			C300.7,389.6,303.2,392.1,303.2,395.3z"/>
		<path class="st5" d="M182.5,420.7c0,3.1-2.6,5.7-5.7,5.7c-3.1,0-5.7-2.6-5.7-5.7c0-3.1,2.6-5.7,5.7-5.7
			C179.9,415,182.5,417.5,182.5,420.7z"/>
		<circle class="st5" cx="344.9" cy="173.6" r="7.3"/>
		<path class="st5" d="M216.6,142.9c0,3.2-2.6,5.8-5.8,5.8c-3.2,0-5.8-2.6-5.8-5.8c0-3.2,2.6-5.8,5.8-5.8
			C214,137.1,216.6,139.7,216.6,142.9z"/>
		<path class="st5" d="M356.4,68.1c0,3.2-2.6,5.8-5.8,5.8s-5.8-2.6-5.8-5.8c0-3.2,2.6-5.8,5.8-5.8S356.4,64.9,356.4,68.1z"/>
		<circle class="st5" cx="48.3" cy="299.7" r="4.9"/>
		<circle class="st5" cx="367.7" cy="321.5" r="7.3"/>
		<circle class="st5" cx="134.1" cy="124.3" r="5.3"/>
		<path class="st5" d="M371.7,267.5c0,2.7-2.2,4.8-4.8,4.8c-2.7,0-4.8-2.2-4.8-4.8c0-2.7,2.2-4.8,4.8-4.8
			C369.6,262.7,371.7,264.8,371.7,267.5z"/>
		<path class="st5" d="M232.8,193.2c0,2.7-2.2,4.8-4.8,4.8c-2.7,0-4.8-2.2-4.8-4.8c0-2.7,2.2-4.8,4.8-4.8
			C230.7,188.4,232.8,190.5,232.8,193.2z"/>
		<path class="st5" d="M245.7,278.8c0,2.7-2.2,4.8-4.8,4.8s-4.8-2.2-4.8-4.8c0-2.7,2.2-4.8,4.8-4.8S245.7,276.1,245.7,278.8z"/>
		<circle class="st5" cx="209" cy="90.7" r="4.8"/>
		<g>
			
				<ellipse transform="matrix(0.7561 -0.6545 0.6545 0.7561 -62.6034 89.1862)" class="st3" cx="88.4" cy="128.6" rx="21.2" ry="21.2"/>
			<path class="st3" d="M59.8,122.6c-2.3-0.1-4.3,1.7-4.4,4c-0.1,2.3,1.7,4.3,4,4.4c1.8,0.1,3.4-1,4-2.5l17.8,0.9l0.1-2.8l-17.8-0.9
				C63.1,123.9,61.6,122.7,59.8,122.6z"/>
			<path class="st3" d="M72.5,107.6c-1.4-1.3-3.6-1.3-4.9,0.1c-1.3,1.4-1.3,3.6,0.1,4.9c1.1,1,2.7,1.2,3.9,0.6l10.6,10.3l1.6-1.7
				l-10.6-10.3C73.8,110.2,73.6,108.7,72.5,107.6z"/>
			<path class="st3" d="M84.3,155.8c-0.2,1.9,1.2,3.6,3.1,3.8c1.9,0.2,3.6-1.2,3.8-3.1c0.2-1.5-0.7-2.9-1.9-3.5l1.5-14.7l-2.3-0.2
				l-1.5,14.7C85.5,153.2,84.5,154.3,84.3,155.8z"/>
			<path class="st3" d="M98.3,106.2c0.3-1.5-0.6-3-2.1-3.4c-1.5-0.3-3,0.6-3.4,2.1c-0.3,1.2,0.2,2.4,1.2,3l-2.7,11.7l1.9,0.4
				l2.7-11.7C97.1,108.3,98.1,107.4,98.3,106.2z"/>
			<path class="st3" d="M64.2,138.2c-1.4,0.8-1.8,2.5-1.1,3.8c0.8,1.4,2.5,1.8,3.8,1.1c1.1-0.6,1.6-1.8,1.4-2.9l10.5-5.8l-0.9-1.7
				l-10.5,5.8C66.5,137.7,65.2,137.6,64.2,138.2z"/>
			<path class="st3" d="M111.5,141.4c1.4,0.7,3.1,0.1,3.8-1.3c0.7-1.4,0.1-3.1-1.3-3.8c-1.1-0.5-2.4-0.3-3.2,0.5l-10.8-5.2l-0.8,1.7
				l10.8,5.2C109.8,139.7,110.4,140.9,111.5,141.4z"/>
			<path class="st3" d="M114.8,124.1c1.5-0.2,2.7-1.5,2.5-3.1c-0.2-1.5-1.5-2.7-3.1-2.5c-1.2,0.1-2.2,1-2.5,2.1l-12,1.2l0.2,1.9
				l12-1.2C112.5,123.5,113.6,124.2,114.8,124.1z"/>
			<path class="st3" d="M109.4,110.8c1.1-1.4,0.8-3.4-0.6-4.5c-1.4-1.1-3.4-0.8-4.5,0.6c-0.8,1.1-0.9,2.6-0.2,3.7l-8.4,10.8l1.7,1.3
				l8.4-10.8C107.1,112.3,108.5,111.9,109.4,110.8z"/>
			<path class="st3" d="M99.4,150.4c0.8,1.6,2.7,2.3,4.3,1.5c1.6-0.8,2.3-2.7,1.5-4.3c-0.6-1.3-1.9-1.9-3.2-1.8l-5.9-12.3l-2,0.9
				l5.9,12.3C99.1,147.8,98.8,149.2,99.4,150.4z"/>
			<path class="st3" d="M69.4,149.9c-1,1.5-0.6,3.5,0.9,4.4c1.5,1,3.5,0.6,4.4-0.9c0.8-1.2,0.7-2.6-0.1-3.7l7.5-11.4l-1.8-1.2
				l-7.5,11.4C71.5,148.2,70.1,148.7,69.4,149.9z"/>
			<path class="st3" d="M86.1,100.9c-0.4-2.1-2.3-3.4-4.4-3.1c-2.1,0.4-3.4,2.3-3.1,4.4c0.3,1.6,1.5,2.8,3.1,3.1l2.8,15.9l2.5-0.4
				l-2.8-15.9C85.6,104.1,86.3,102.5,86.1,100.9z"/>
			<path class="st4" d="M80.1,122.5c0.9,0,1.5,0.8,1.5,1.7c0,0.9-0.8,1.5-1.7,1.5c-0.9,0-1.5-0.8-1.5-1.7
				C78.5,123.1,79.2,122.5,80.1,122.5z"/>
			<path class="st4" d="M91.6,112.4c1.7,0.1,3.1,1.6,3,3.3c-0.1,1.7-1.6,3.1-3.3,3c-1.7-0.1-3.1-1.6-3-3.3
				C88.4,113.6,89.9,112.3,91.6,112.4z"/>
			<path class="st4" d="M90.8,125.3c1.9,0.1,3.4,1.7,3.3,3.6c-0.1,1.9-1.7,3.4-3.6,3.3c-1.9-0.1-3.4-1.7-3.3-3.6
				C87.3,126.7,88.9,125.2,90.8,125.3z"/>
			<path class="st4" d="M83.5,137c2.3,0.1,4.1,2.1,4,4.4c-0.1,2.3-2.1,4.1-4.4,4c-2.3-0.1-4.1-2.1-4-4.4
				C79.2,138.6,81.2,136.8,83.5,137z"/>
			<path class="st4" d="M81.9,112.8c0.8,0,1.4,0.7,1.3,1.5c0,0.8-0.7,1.4-1.5,1.3c-0.8,0-1.4-0.7-1.3-1.5
				C80.5,113.4,81.2,112.8,81.9,112.8z"/>
			<path class="st4" d="M102.6,119.5c0.7,0,1.3,0.6,1.2,1.4c0,0.7-0.6,1.3-1.4,1.2c-0.7,0-1.3-0.6-1.2-1.4
				C101.2,120,101.9,119.4,102.6,119.5z"/>
			<path class="st4" d="M73.8,127.3c1.7,0.1,3.1,1.6,3,3.3c-0.1,1.7-1.6,3.1-3.3,3c-1.7-0.1-3.1-1.6-3-3.3
				C70.6,128.5,72,127.2,73.8,127.3z"/>
			<path class="st4" d="M99.7,135c1.4,0.1,2.5,1.3,2.5,2.7c-0.1,1.4-1.3,2.5-2.7,2.5c-1.4-0.1-2.5-1.3-2.5-2.7
				C97.1,136,98.3,134.9,99.7,135z"/>
		</g>
		<g>
			<path class="st3" d="M124.2,411.3c-2.1,8.3-10.5,13.3-18.8,11.2c-8.3-2.1-13.3-10.5-11.2-18.8c2.1-8.3,10.5-13.3,18.8-11.2
				C121.3,394.6,126.3,403,124.2,411.3z"/>
			<path class="st3" d="M117.6,387.9c0.4-1.6-0.6-3.3-2.2-3.7c-1.6-0.4-3.3,0.6-3.7,2.2c-0.3,1.3,0.2,2.6,1.2,3.3l-3.2,12.6l2,0.5
				l3.2-12.6C116.2,390.1,117.2,389.2,117.6,387.9z"/>
			<path class="st3" d="M126.5,399.1c1.2-0.8,1.4-2.4,0.7-3.5c-0.8-1.2-2.4-1.4-3.5-0.7c-0.9,0.6-1.3,1.7-1,2.7l-8.9,6.1l1,1.4
				l8.9-6.1C124.4,399.7,125.6,399.8,126.5,399.1z"/>
			<path class="st3" d="M90.3,400.7c-1.3-0.4-2.8,0.3-3.2,1.7c-0.4,1.3,0.3,2.8,1.7,3.2c1,0.3,2.1-0.1,2.8-0.9l10.3,3.2l0.5-1.6
				L92,403C92,401.9,91.3,401,90.3,400.7z"/>
			<path class="st3" d="M123.7,417.8c1,0.5,2.3,0,2.7-1c0.5-1,0-2.3-1-2.7c-0.8-0.4-1.7-0.2-2.3,0.4l-8-3.6l-0.6,1.3l8,3.6
				C122.5,416.6,122.9,417.5,123.7,417.8z"/>
			<path class="st3" d="M105.8,388.8c-0.3-1.1-1.5-1.7-2.6-1.3c-1.1,0.3-1.7,1.5-1.3,2.6c0.3,0.8,1,1.4,1.9,1.4l2.7,8.3l1.3-0.4
				l-2.7-8.3C105.8,390.5,106.1,389.6,105.8,388.8z"/>
			<path class="st3" d="M96.7,422.2c-0.7,0.9-0.5,2.2,0.4,2.9c0.9,0.7,2.2,0.5,2.9-0.4c0.5-0.7,0.5-1.7,0.1-2.4l5.3-7l-1.1-0.8
				l-5.3,7C98.1,421.2,97.2,421.5,96.7,422.2z"/>
			<path class="st3" d="M108.6,427c-0.1,1.1,0.7,2.1,1.8,2.3c1.1,0.1,2.1-0.7,2.3-1.8c0.1-0.9-0.4-1.7-1.2-2.1l0.9-8.7l-1.4-0.1
				l-0.9,8.7C109.3,425.5,108.7,426.1,108.6,427z"/>
			<path class="st3" d="M118.9,425.1c0.8,1,2.3,1.1,3.3,0.2c1-0.8,1.1-2.3,0.2-3.3c-0.7-0.8-1.7-1-2.6-0.7l-6.5-7.5l-1.2,1l6.5,7.5
				C118.2,423.2,118.2,424.3,118.9,425.1z"/>
			<path class="st3" d="M92,412.3c-1.3,0.3-2,1.6-1.7,2.8c0.3,1.3,1.6,2,2.8,1.7c1-0.2,1.7-1.1,1.7-2l9.7-2.5l-0.4-1.5l-9.7,2.5
				C93.9,412.4,92.9,412,92,412.3z"/>
			<path class="st3" d="M96.7,390.8c-0.9-0.9-2.4-0.9-3.3,0c-0.9,0.9-0.9,2.4,0,3.3c0.7,0.7,1.8,0.9,2.6,0.5l7.1,7l1.1-1.1l-7.1-7
				C97.6,392.6,97.4,391.6,96.7,390.8z"/>
			<path class="st3" d="M129.3,409.8c1.5,0,2.8-1.2,2.8-2.7c0-1.5-1.2-2.8-2.7-2.8c-1.2,0-2.2,0.7-2.6,1.8l-11.8-0.3l0,1.9l11.8,0.3
				C127.1,409,128.1,409.8,129.3,409.8z"/>
			<path class="st4" d="M114.7,402.4c-0.2,0.6-0.8,1-1.4,0.8c-0.6-0.2-1-0.8-0.8-1.4c0.2-0.6,0.8-1,1.4-0.8
				C114.5,401.2,114.9,401.8,114.7,402.4z"/>
			<path class="st4" d="M120.3,412.1c-0.3,1.2-1.6,2-2.8,1.7c-1.2-0.3-2-1.6-1.7-2.8c0.3-1.2,1.6-2,2.8-1.7S120.6,410.9,120.3,412.1
				z"/>
			<path class="st4" d="M111.2,409.7c-0.3,1.3-1.7,2.2-3.1,1.8c-1.3-0.3-2.2-1.7-1.8-3.1s1.7-2.2,3.1-1.8
				C110.7,407,111.5,408.3,111.2,409.7z"/>
			<path class="st4" d="M103.9,402.8c-0.4,1.6-2.1,2.6-3.7,2.2c-1.6-0.4-2.6-2.1-2.2-3.7c0.4-1.6,2.1-2.6,3.7-2.2
				C103.3,399.5,104.3,401.2,103.9,402.8z"/>
			<path class="st4" d="M121.4,405.1c-0.1,0.5-0.7,0.9-1.2,0.7s-0.9-0.7-0.7-1.2c0.1-0.5,0.7-0.9,1.2-0.7
				C121.2,404,121.5,404.6,121.4,405.1z"/>
			<path class="st4" d="M113.7,419c-0.1,0.5-0.6,0.8-1.2,0.7c-0.5-0.1-0.8-0.6-0.7-1.2c0.1-0.5,0.6-0.8,1.2-0.7
				C113.5,417.9,113.8,418.4,113.7,419z"/>
			<path class="st4" d="M112.2,397.2c-0.3,1.2-1.6,2-2.8,1.7c-1.2-0.3-2-1.6-1.7-2.8c0.3-1.2,1.6-2,2.8-1.7
				C111.8,394.7,112.5,396,112.2,397.2z"/>
			<path class="st4" d="M103,414.7c-0.3,1-1.3,1.6-2.3,1.4c-1-0.3-1.6-1.3-1.4-2.3c0.3-1,1.3-1.6,2.3-1.4
				C102.6,412.6,103.2,413.7,103,414.7z"/>
		</g>
		<g>
			
				<ellipse transform="matrix(0.7071 -0.7071 0.7071 0.7071 24.0334 197.8867)" class="st3" cx="250.9" cy="69.9" rx="19.8" ry="19.8"/>
			<path class="st3" d="M224.2,64.3c-2.1-0.1-4,1.5-4.1,3.7c-0.1,2.1,1.5,4,3.7,4.1c1.7,0.1,3.2-0.9,3.8-2.4l16.6,0.8l0.1-2.6
				l-16.6-0.8C227.3,65.6,225.9,64.4,224.2,64.3z"/>
			<path class="st3" d="M236.1,50.4c-1.3-1.2-3.3-1.2-4.6,0.1c-1.2,1.3-1.2,3.3,0.1,4.6c1,1,2.5,1.2,3.7,0.6l9.9,9.6l1.5-1.6
				l-9.9-9.6C237.3,52.8,237.1,51.3,236.1,50.4z"/>
			<path class="st3" d="M247.1,95.4c-0.2,1.8,1.1,3.4,2.9,3.6c1.8,0.2,3.4-1.1,3.6-2.9c0.1-1.4-0.6-2.7-1.8-3.3l1.4-13.8l-2.2-0.2
				l-1.4,13.8C248.3,92.9,247.3,94,247.1,95.4z"/>
			<path class="st3" d="M260.2,49.1c0.3-1.4-0.6-2.8-2-3.2c-1.4-0.3-2.8,0.6-3.2,2c-0.3,1.1,0.2,2.2,1.1,2.8l-2.5,10.9l1.7,0.4
				l2.5-10.9C259,51,260,50.2,260.2,49.1z"/>
			<path class="st3" d="M228.3,78.9c-1.3,0.7-1.7,2.3-1,3.6c0.7,1.3,2.3,1.7,3.6,1c1-0.6,1.5-1.7,1.3-2.7l9.8-5.5l-0.9-1.6l-9.8,5.5
				C230.5,78.5,229.3,78.3,228.3,78.9z"/>
			<path class="st3" d="M272.5,81.9c1.3,0.6,2.9,0.1,3.5-1.2c0.6-1.3,0.1-2.9-1.2-3.5c-1-0.5-2.2-0.3-3,0.5l-10.1-4.8l-0.8,1.6
				l10.1,4.8C270.9,80.3,271.4,81.4,272.5,81.9z"/>
			<path class="st3" d="M275.6,65.7c1.4-0.1,2.5-1.4,2.4-2.9c-0.1-1.4-1.4-2.5-2.9-2.4c-1.1,0.1-2,0.9-2.3,2l-11.2,1.1l0.2,1.8
				l11.2-1.1C273.4,65.2,274.4,65.8,275.6,65.7z"/>
			<path class="st3" d="M270.5,53.3c1-1.3,0.8-3.2-0.5-4.2c-1.3-1-3.2-0.8-4.2,0.5c-0.8,1-0.8,2.4-0.2,3.4l-7.8,10.1l1.6,1.2
				l7.8-10.1C268.4,54.7,269.7,54.3,270.5,53.3z"/>
			<path class="st3" d="M261.2,90.3c0.7,1.5,2.5,2.1,4,1.4c1.5-0.7,2.1-2.5,1.4-4c-0.6-1.2-1.8-1.8-3-1.7l-5.5-11.5l-1.8,0.9
				l5.5,11.5C261,87.8,260.7,89.2,261.2,90.3z"/>
			<path class="st3" d="M233.2,89.8c-0.9,1.4-0.5,3.2,0.8,4.1c1.4,0.9,3.2,0.5,4.1-0.8c0.7-1.1,0.6-2.5-0.1-3.4l7-10.6l-1.7-1.1
				l-7,10.6C235.2,88.3,233.9,88.7,233.2,89.8z"/>
			<path class="st3" d="M248.7,44.1c-0.3-1.9-2.2-3.2-4.1-2.9c-1.9,0.3-3.2,2.2-2.9,4.1c0.3,1.5,1.4,2.6,2.9,2.9l2.6,14.8l2.4-0.4
				L247,47.8C248.3,47,249,45.6,248.7,44.1z"/>
			<path class="st4" d="M243.2,64.3c0.8,0,1.4,0.7,1.4,1.6c0,0.8-0.7,1.4-1.6,1.4c-0.8,0-1.4-0.7-1.4-1.6
				C241.7,64.9,242.4,64.2,243.2,64.3z"/>
			<path class="st4" d="M254,54.8c1.6,0.1,2.9,1.5,2.8,3.1s-1.5,2.9-3.1,2.8c-1.6-0.1-2.9-1.5-2.8-3.1C250.9,56,252.3,54.7,254,54.8
				z"/>
			<path class="st4" d="M253.2,66.9c1.8,0.1,3.1,1.6,3,3.4c-0.1,1.8-1.6,3.1-3.4,3s-3.1-1.6-3-3.4C249.9,68.1,251.4,66.8,253.2,66.9
				z"/>
			<path class="st4" d="M246.4,77.8c2.2,0.1,3.8,1.9,3.7,4.1c-0.1,2.2-1.9,3.8-4.1,3.7c-2.2-0.1-3.8-1.9-3.7-4.1
				C242.4,79.3,244.2,77.6,246.4,77.8z"/>
			<path class="st4" d="M244.9,55.2c0.7,0,1.3,0.6,1.2,1.4c0,0.7-0.6,1.3-1.4,1.2c-0.7,0-1.3-0.6-1.2-1.4
				C243.6,55.7,244.2,55.2,244.9,55.2z"/>
			<path class="st4" d="M264.2,61.4c0.7,0,1.2,0.6,1.2,1.3c0,0.7-0.6,1.2-1.3,1.2c-0.7,0-1.2-0.6-1.2-1.3
				C262.9,61.9,263.5,61.4,264.2,61.4z"/>
			<path class="st4" d="M237.3,68.7c1.6,0.1,2.9,1.5,2.8,3.1c-0.1,1.6-1.5,2.9-3.1,2.8c-1.6-0.1-2.9-1.5-2.8-3.1
				C234.3,69.9,235.6,68.6,237.3,68.7z"/>
			<path class="st4" d="M261.5,75.9c1.3,0.1,2.4,1.2,2.3,2.6c-0.1,1.3-1.2,2.4-2.6,2.3c-1.3-0.1-2.4-1.2-2.3-2.6
				C259,76.9,260.2,75.8,261.5,75.9z"/>
		</g>
		<g>
			<rect x="0.9" y="236.4" class="st6" width="500.1" height="36.2"/>
			<rect x="0.9" y="223.9" class="st7" width="500.1" height="36.2"/>
			<polygon class="st8" points="17.7,260 0.9,260 28.8,223.9 45.6,223.9 			"/>
			<polygon class="st8" points="70.1,260 53.3,260 81.2,223.9 98,223.9 			"/>
			<polygon class="st8" points="122.5,260 105.6,260 133.6,223.9 150.4,223.9 			"/>
			<polygon class="st8" points="174.8,260 158,260 185.9,223.9 202.7,223.9 			"/>
			<polygon class="st8" points="314.7,260 297.9,260 325.8,223.9 342.7,223.9 			"/>
			<polygon class="st8" points="367.1,260 350.3,260 378.2,223.9 395,223.9 			"/>
			<polygon class="st8" points="419.5,260 402.6,260 430.6,223.9 447.4,223.9 			"/>
			<polygon class="st8" points="471.8,260 455,260 482.9,223.9 499.8,223.9 			"/>
			<rect x="0.9" y="227.2" class="st9" width="500.1" height="11.7"/>
		</g>
		<g>
			
				<ellipse transform="matrix(0.3116 -0.9502 0.9502 0.3116 -55.3859 409.1021)" class="st6" cx="254.7" cy="242.8" rx="80.9" ry="80.9"/>
			
				<ellipse transform="matrix(0.3209 -0.9471 0.9471 0.3209 -56.1799 394.7549)" class="st7" cx="247.2" cy="236.6" rx="80.9" ry="80.9"/>
			<g>
				<path class="st10" d="M247.2,309c-39.9,0-72.4-32.5-72.4-72.4c0-39.9,32.5-72.4,72.4-72.4c39.9,0,72.4,32.5,72.4,72.4
					C319.6,276.5,287.1,309,247.2,309z M247.2,169c-37.3,0-67.6,30.3-67.6,67.6c0,37.3,30.3,67.6,67.6,67.6s67.6-30.3,67.6-67.6
					C314.8,199.3,284.5,169,247.2,169z"/>
			</g>
		</g>
	</g>
</g>
</svg>
