<?xml version="1.0" encoding="utf-8"?>
<!-- Generator: Adobe Illustrator 23.1.0, SVG Export Plug-In . SVG Version: 6.00 Build 0)  -->
<svg version="1.1" xmlns="http://www.w3.org/2000/svg" xmlns:xlink="http://www.w3.org/1999/xlink" x="0px" y="0px"
	 viewBox="0 0 570 370" style="enable-background:new 0 0 570 370;" xml:space="preserve">
<style type="text/css">
	.st0{fill:#51AE33;}
	.st1{fill:#B7D9A8;}
	.st2{fill:#198DB6;}
	.st3{fill:#5A8585;}
	.st4{fill:#2C496B;}
	.st5{fill:#E2E2E2;}
	.st6{fill:#F0F0F0;}
	.st7{fill:#959595;}
	.st8{fill:#006987;}
	.st9{fill:#D4C510;}
	.st10{fill:#F9F9F9;}
	.st11{opacity:0.75;fill:#198D86;}
</style>
<g id="BG">
</g>
<g id="Objects">
	<g>
		<g>
			<path class="st0" d="M528.9,248.8c-1.4-0.1-2.8-0.1-4.2-0.1c-10.6,0.5-22.7,3.3-30.3,9.7c-6.4,5.4-10.4,12.5-18.8,16.1
				c-17.4,7.5-33.7,1.1-45.7-10c-5.8-5.4-11.6-11.3-19.5-14.4c-9.1-3.5-20.4-2.6-28.5,2.2c-5,3-8.6,7.1-12.7,10.9
				c-6.9,6.4-16.7,10.2-27.1,10.1c-11.7,0-22.3-4.8-33.4-7.3c-3.8-0.9-43.4-8.7-43.4-4c0,0,0,71.4,0,71.4h263.5V248.8z"/>
			<path class="st1" d="M529.2,333.9H265v-71.8c0-0.3,0.1-0.6,0.5-1c4.2-3.6,43,4.5,43.3,4.6c3.6,0.8,7.2,1.9,10.6,2.9
				c7.3,2.1,14.8,4.4,22.7,4.4c0,0,0,0,0.1,0c10.2,0,20-3.7,26.8-10.1c1-0.9,1.9-1.8,2.9-2.8c3-2.9,6.1-5.9,9.9-8.2
				c8.3-4.9,19.6-5.8,28.8-2.3c7.3,2.8,12.7,7.9,18,12.9c0.6,0.5,1.1,1,1.7,1.6c8.1,7.5,24.7,18.9,45.3,9.9
				c5.4-2.3,9.1-6.3,12.7-10.1c1.9-2,3.8-4.1,6-6c6.7-5.6,17.8-9.2,30.5-9.8c1.6-0.1,3-0.1,4.2,0.1l0.3,0V333.9z M265.7,333.2h262.8
				v-84c-1.1-0.1-2.3-0.1-3.8,0c-12.6,0.6-23.5,4.1-30.1,9.6c-2.2,1.8-4.1,3.9-6,5.9c-3.6,3.9-7.4,7.9-12.9,10.3
				c-21,9.1-37.8-2.4-46-10.1c-0.6-0.5-1.1-1-1.7-1.6c-5.2-4.9-10.6-10-17.7-12.7c-8.9-3.4-20.2-2.5-28.2,2.2
				c-3.7,2.2-6.8,5.2-9.7,8.1c-1,0.9-1.9,1.9-2.9,2.8c-7,6.5-16.9,10.2-27.3,10.2c0,0,0,0-0.1,0c-8,0-15.6-2.2-22.9-4.4
				c-3.5-1-7-2.1-10.6-2.9c-4.5-1-39.1-7.8-42.7-4.7c-0.2,0.2-0.2,0.3-0.2,0.4V333.2z"/>
		</g>
		<g>
			<path class="st2" d="M528.9,257.2c-5.9-0.9-11.5,2.6-15.7,6.3c-10.5,9.5-18.1,21.9-31.7,28c-9.4,4.1-20.9,4.6-30.7,1.2
				c-10.8-3.7-18.9-11.5-29.8-15.1c-12.5-4.1-26.8-1.8-39.1,2.7c-12.3,4.5-23.4,11-35.6,15.8c-8.6,3.4-18.6,6-27.6,3.3
				c-10.9-3.2-17.6-13.3-28.8-15.9c-7.2-1.7-14.9,0.2-21.1,3.4c-1.2,0.6-2.3,1.2-3.4,1.9v44.7h263.5V257.2z"/>
			<path class="st3" d="M529.2,333.9H265v-45.3l0.2-0.1c1.1-0.7,2.3-1.3,3.4-1.9c4.2-2.2,12.5-5.5,21.4-3.4
				c5.9,1.4,10.6,4.8,15.1,8.2c4.2,3.1,8.5,6.2,13.7,7.8c7.4,2.2,16.3,1.1,27.4-3.3c5.5-2.2,10.9-4.8,16.2-7.3
				c6.2-3,12.7-6.1,19.4-8.5c10.3-3.7,25.4-7.2,39.3-2.7c5.6,1.8,10.5,4.8,15.3,7.7c4.6,2.8,9.3,5.6,14.5,7.4
				c9.8,3.4,21.1,2.9,30.5-1.2c9.2-4.1,15.7-11.2,22.1-18.1c3-3.3,6.2-6.7,9.6-9.8c3.8-3.5,9.7-7.4,15.9-6.4l0.3,0V333.9z
				 M265.7,333.2h262.8v-75.6c-5.8-0.8-11.4,2.9-15.1,6.2c-3.4,3-6.5,6.5-9.5,9.8c-6.4,7-13,14.1-22.3,18.3
				c-9.5,4.2-21.1,4.7-31,1.3c-5.3-1.8-10.1-4.7-14.7-7.5c-4.7-2.9-9.6-5.8-15.1-7.6c-13.7-4.5-28.7-1-38.9,2.7
				c-6.7,2.4-13.1,5.5-19.3,8.5c-5.2,2.5-10.7,5.1-16.2,7.3c-11.2,4.4-20.3,5.5-27.8,3.3c-5.3-1.6-9.7-4.8-13.9-7.9
				c-4.5-3.3-9.1-6.7-14.9-8c-8.6-2-16.8,1.3-20.9,3.4c-1.1,0.6-2.2,1.2-3.2,1.8V333.2z"/>
		</g>
		<g>
			<path class="st4" d="M528.9,291.3c-5.2,0.3-10.2,1.7-14.4,3.2c-13.8,4.7-25.8,10.6-41.6,14c-7.8,1.7-17.1,2.7-25.3,1.4
				c-16.3-2.5-21.1-12.3-37.3-14.9c-10.8-1.7-23,0.5-31.6,3.8c-8.5,3.3-14.6,7.6-22.4,11.2c-7.8,3.6-18.4,6.7-29.9,6.3
				c-5.3-0.2-10.3-1.1-15.1-2c-5.9-1.1-11.9-2.2-17.8-3.3c-8.7-1.6-18.9-1.9-28-0.8v23.4h263.5V291.3z"/>
			<path d="M529.2,333.9H265v-24.1l0.3,0c9.2-1.1,19.4-0.9,28.1,0.8l17.8,3.3c4.8,0.9,9.8,1.8,15.1,2c13.1,0.5,24.3-3.7,29.7-6.2
				c3.2-1.5,6.1-3.1,9-4.6c4.1-2.3,8.4-4.6,13.5-6.6c7.9-3,20.3-5.6,31.7-3.8c8.1,1.3,13.5,4.4,18.6,7.5c5.2,3,10.5,6.2,18.6,7.4
				c8.9,1.4,18.7,0,25.2-1.4c10.9-2.3,20.1-5.9,29.1-9.3c4-1.6,8.2-3.2,12.5-4.6c3.5-1.2,8.9-2.9,14.5-3.2l0.4,0V333.9z
				 M265.7,333.2h262.8v-41.4c-5.4,0.4-10.5,2-14,3.1c-4.3,1.5-8.4,3.1-12.5,4.6c-9,3.4-18.3,7-29.2,9.4c-6.6,1.4-16.4,2.8-25.5,1.5
				c-8.3-1.3-13.7-4.4-18.9-7.5c-5.1-3-10.4-6.1-18.4-7.4c-11.3-1.8-23.6,0.8-31.4,3.8c-5,1.9-9.3,4.3-13.4,6.5
				c-2.9,1.6-5.8,3.2-9,4.7c-5.5,2.6-16.8,6.8-30.1,6.3c-5.4-0.2-10.4-1.1-15.2-2l-17.8-3.3c-8.5-1.6-18.6-1.9-27.6-0.8V333.2z"/>
		</g>
		<g>
			<path class="st5" d="M529.2,333.9H265V179.5h264.2V333.9z M265.7,333.2h262.8V180.3H265.7V333.2z"/>
		</g>
	</g>
	<g>
		<rect x="56.2" y="47.2" class="st6" width="264.2" height="20.7"/>
		<g>
			<path class="st7" d="M63.1,78.6c0,3.5-1.3,5.4-3.6,5.4c-2,0-3.4-1.9-3.4-5.3c0-3.4,1.5-5.3,3.6-5.3
				C61.9,73.4,63.1,75.3,63.1,78.6z M57.6,78.7c0,2.7,0.8,4.2,2.1,4.2c1.4,0,2.1-1.7,2.1-4.3c0-2.5-0.6-4.2-2.1-4.2
				C58.4,74.5,57.6,75.9,57.6,78.7z"/>
		</g>
		<g>
			<path class="st7" d="M187,74.7H183l-0.4,2.6c0.2,0,0.5-0.1,0.8-0.1c0.8,0,1.6,0.2,2.2,0.6c0.8,0.5,1.5,1.3,1.5,2.6
				c0,2-1.6,3.5-3.8,3.5c-1.1,0-2.1-0.3-2.6-0.6l0.3-1.1c0.4,0.3,1.3,0.6,2.2,0.6c1.3,0,2.4-0.9,2.4-2.2c0-1.3-0.9-2.3-3-2.3
				c-0.6,0-1,0.1-1.4,0.1l0.7-4.9h4.9V74.7z"/>
			<path class="st7" d="M195.8,78.6c0,3.5-1.3,5.4-3.6,5.4c-2,0-3.4-1.9-3.4-5.3c0-3.4,1.5-5.3,3.6-5.3
				C194.5,73.4,195.8,75.3,195.8,78.6z M190.2,78.7c0,2.7,0.8,4.2,2.1,4.2c1.4,0,2.1-1.7,2.1-4.3c0-2.5-0.6-4.2-2.1-4.2
				C191.1,74.5,190.2,75.9,190.2,78.7z"/>
		</g>
		<g>
			<path class="st7" d="M300.4,74.9L300.4,74.9l-1.8,1l-0.3-1.1l2.2-1.2h1.2v10.3h-1.3V74.9z"/>
			<path class="st7" d="M312.3,78.6c0,3.5-1.3,5.4-3.6,5.4c-2,0-3.4-1.9-3.4-5.3c0-3.4,1.5-5.3,3.6-5.3
				C311.1,73.4,312.3,75.3,312.3,78.6z M306.7,78.7c0,2.7,0.8,4.2,2.1,4.2c1.4,0,2.1-1.7,2.1-4.3c0-2.5-0.6-4.2-2.1-4.2
				C307.6,74.5,306.7,75.9,306.7,78.7z"/>
			<path class="st7" d="M320.4,78.6c0,3.5-1.3,5.4-3.6,5.4c-2,0-3.4-1.9-3.4-5.3c0-3.4,1.5-5.3,3.6-5.3
				C319.2,73.4,320.4,75.3,320.4,78.6z M314.8,78.7c0,2.7,0.8,4.2,2.1,4.2c1.4,0,2.1-1.7,2.1-4.3c0-2.5-0.6-4.2-2.1-4.2
				C315.7,74.5,314.8,75.9,314.8,78.7z"/>
		</g>
		<rect x="56.2" y="47.2" class="st0" width="191.3" height="20.7"/>
	</g>
	<g>
		<rect x="56.2" y="95.6" class="st6" width="264.2" height="20.7"/>
		<g>
			<path class="st7" d="M63.1,126.9c0,3.5-1.3,5.4-3.6,5.4c-2,0-3.4-1.9-3.4-5.3c0-3.4,1.5-5.3,3.6-5.3
				C61.9,121.7,63.1,123.7,63.1,126.9z M57.6,127.1c0,2.7,0.8,4.2,2.1,4.2c1.4,0,2.1-1.7,2.1-4.3c0-2.5-0.6-4.2-2.1-4.2
				C58.4,122.8,57.6,124.3,57.6,127.1z"/>
		</g>
		<g>
			<path class="st7" d="M187,123.1H183l-0.4,2.6c0.2,0,0.5-0.1,0.8-0.1c0.8,0,1.6,0.2,2.2,0.6c0.8,0.5,1.5,1.3,1.5,2.6
				c0,2-1.6,3.5-3.8,3.5c-1.1,0-2.1-0.3-2.6-0.6l0.3-1.1c0.4,0.3,1.3,0.6,2.2,0.6c1.3,0,2.4-0.9,2.4-2.2c0-1.3-0.9-2.3-3-2.3
				c-0.6,0-1,0.1-1.4,0.1l0.7-4.9h4.9V123.1z"/>
			<path class="st7" d="M195.8,126.9c0,3.5-1.3,5.4-3.6,5.4c-2,0-3.4-1.9-3.4-5.3c0-3.4,1.5-5.3,3.6-5.3
				C194.5,121.7,195.8,123.7,195.8,126.9z M190.2,127.1c0,2.7,0.8,4.2,2.1,4.2c1.4,0,2.1-1.7,2.1-4.3c0-2.5-0.6-4.2-2.1-4.2
				C191.1,122.8,190.2,124.3,190.2,127.1z"/>
		</g>
		<g>
			<path class="st7" d="M300.4,123.2L300.4,123.2l-1.8,1l-0.3-1.1l2.2-1.2h1.2v10.3h-1.3V123.2z"/>
			<path class="st7" d="M312.3,126.9c0,3.5-1.3,5.4-3.6,5.4c-2,0-3.4-1.9-3.4-5.3c0-3.4,1.5-5.3,3.6-5.3
				C311.1,121.7,312.3,123.7,312.3,126.9z M306.7,127.1c0,2.7,0.8,4.2,2.1,4.2c1.4,0,2.1-1.7,2.1-4.3c0-2.5-0.6-4.2-2.1-4.2
				C307.6,122.8,306.7,124.3,306.7,127.1z"/>
			<path class="st7" d="M320.4,126.9c0,3.5-1.3,5.4-3.6,5.4c-2,0-3.4-1.9-3.4-5.3c0-3.4,1.5-5.3,3.6-5.3
				C319.2,121.7,320.4,123.7,320.4,126.9z M314.8,127.1c0,2.7,0.8,4.2,2.1,4.2c1.4,0,2.1-1.7,2.1-4.3c0-2.5-0.6-4.2-2.1-4.2
				C315.7,122.8,314.8,124.3,314.8,127.1z"/>
		</g>
		<rect x="56.2" y="95.6" class="st8" width="113.3" height="20.7"/>
	</g>
	<g>
		
			<ellipse transform="matrix(0.9239 -0.3827 0.3827 0.9239 -9.3233 163.7119)" class="st9" cx="406.9" cy="105.3" rx="36.2" ry="36.2"/>
		
			<ellipse transform="matrix(0.3827 -0.9239 0.9239 0.3827 218.438 438.8341)" class="st0" cx="437.6" cy="56" rx="36.2" ry="36.2"/>
		
			<ellipse transform="matrix(0.7071 -0.7071 0.7071 0.7071 62.0727 360.4401)" class="st8" cx="466.1" cy="105.3" rx="36.2" ry="36.2"/>
	</g>
	<g>
		<rect x="46.5" y="177.7" class="st10" width="189.2" height="155.9"/>
		<g>
			<g>
				<path class="st6" d="M236,333.9H46.1V177.3H236V333.9z M46.8,333.2h188.5V178H46.8V333.2z"/>
			</g>
			<g>
				<rect x="46.5" y="322.8" class="st6" width="189.2" height="0.7"/>
			</g>
			<g>
				<rect x="46.5" y="312.5" class="st6" width="189.2" height="0.7"/>
			</g>
			<g>
				<rect x="46.5" y="302.1" class="st6" width="189.2" height="0.7"/>
			</g>
			<g>
				<rect x="46.5" y="291.7" class="st6" width="189.2" height="0.7"/>
			</g>
			<g>
				<rect x="46.5" y="281.3" class="st6" width="189.2" height="0.7"/>
			</g>
			<g>
				<rect x="46.5" y="270.9" class="st6" width="189.2" height="0.7"/>
			</g>
			<g>
				<rect x="46.5" y="260.5" class="st6" width="189.2" height="0.7"/>
			</g>
			<g>
				<rect x="46.5" y="250.1" class="st6" width="189.2" height="0.7"/>
			</g>
			<g>
				<rect x="46.5" y="239.7" class="st6" width="189.2" height="0.7"/>
			</g>
			<g>
				<rect x="46.5" y="229.3" class="st6" width="189.2" height="0.7"/>
			</g>
			<g>
				<rect x="46.5" y="218.9" class="st6" width="189.2" height="0.7"/>
			</g>
			<g>
				<rect x="46.5" y="208.5" class="st6" width="189.2" height="0.7"/>
			</g>
			<g>
				<rect x="46.5" y="198.1" class="st6" width="189.2" height="0.7"/>
			</g>
			<g>
				<rect x="46.5" y="187.7" class="st6" width="189.2" height="0.7"/>
			</g>
			<g>
				<rect x="222.7" y="177.7" class="st6" width="0.7" height="155.9"/>
			</g>
			<g>
				<rect x="210.1" y="177.7" class="st6" width="0.7" height="155.9"/>
			</g>
			<g>
				<rect x="197.5" y="177.7" class="st6" width="0.7" height="155.9"/>
			</g>
			<g>
				<rect x="184.8" y="177.7" class="st6" width="0.7" height="155.9"/>
			</g>
			<g>
				<rect x="172.2" y="177.7" class="st6" width="0.7" height="155.9"/>
			</g>
			<g>
				<rect x="159.6" y="177.7" class="st6" width="0.7" height="155.9"/>
			</g>
			<g>
				<rect x="147" y="177.7" class="st6" width="0.7" height="155.9"/>
			</g>
			<g>
				<rect x="134.4" y="177.7" class="st6" width="0.7" height="155.9"/>
			</g>
			<g>
				<rect x="121.8" y="177.7" class="st6" width="0.7" height="155.9"/>
			</g>
			<g>
				<rect x="109.2" y="177.7" class="st6" width="0.7" height="155.9"/>
			</g>
			<g>
				<rect x="96.6" y="177.7" class="st6" width="0.7" height="155.9"/>
			</g>
			<g>
				<rect x="84" y="177.7" class="st6" width="0.7" height="155.9"/>
			</g>
			<g>
				<rect x="71.3" y="177.7" class="st6" width="0.7" height="155.9"/>
			</g>
			<g>
				<rect x="58.7" y="177.7" class="st6" width="0.7" height="155.9"/>
			</g>
		</g>
		<g>
			<path class="st7" d="M37.9,183.7c0.3,0.4,0.5,0.9,0.5,1.6c0,0.8-0.2,1.4-0.5,1.8c-0.3,0.4-0.7,0.6-1.3,0.6c-0.3,0-0.5,0-0.8-0.1
				c-0.3-0.1-0.5-0.2-0.7-0.4l0.2-0.4c0.2,0.2,0.4,0.3,0.6,0.4c0.2,0.1,0.4,0.1,0.6,0.1c0.4,0,0.7-0.2,0.9-0.5
				c0.2-0.4,0.3-0.8,0.3-1.5v-0.1c-0.1,0.2-0.3,0.4-0.5,0.6c-0.2,0.1-0.5,0.2-0.8,0.2c-0.3,0-0.5-0.1-0.7-0.2
				c-0.2-0.1-0.4-0.3-0.5-0.5c-0.1-0.2-0.2-0.5-0.2-0.8c0-0.3,0.1-0.5,0.2-0.8c0.1-0.2,0.3-0.4,0.5-0.5c0.2-0.1,0.5-0.2,0.8-0.2
				C37.2,183.1,37.6,183.3,37.9,183.7z M37.4,185.3c0.2-0.2,0.3-0.4,0.3-0.7c0-0.3-0.1-0.6-0.3-0.7c-0.2-0.2-0.4-0.3-0.7-0.3
				c-0.3,0-0.5,0.1-0.7,0.3c-0.2,0.2-0.3,0.4-0.3,0.7c0,0.3,0.1,0.5,0.3,0.7c0.2,0.2,0.4,0.3,0.7,0.3
				C37,185.6,37.2,185.5,37.4,185.3z"/>
			<path class="st7" d="M39.5,187.2c-0.3-0.4-0.4-1-0.4-1.7c0-0.8,0.1-1.3,0.4-1.7c0.3-0.4,0.7-0.6,1.2-0.6c0.5,0,0.9,0.2,1.2,0.6
				c0.3,0.4,0.4,1,0.4,1.7c0,0.8-0.1,1.4-0.4,1.7c-0.3,0.4-0.7,0.6-1.2,0.6C40.1,187.8,39.7,187.6,39.5,187.2z M41.5,186.9
				c0.2-0.3,0.3-0.8,0.3-1.4c0-0.6-0.1-1.1-0.3-1.4c-0.2-0.3-0.4-0.5-0.8-0.5c-0.4,0-0.6,0.2-0.8,0.5c-0.2,0.3-0.3,0.8-0.3,1.4
				c0,0.6,0.1,1.1,0.3,1.4c0.2,0.3,0.4,0.5,0.8,0.5C41,187.3,41.3,187.2,41.5,186.9z"/>
			<path class="st7" d="M38.2,203.3c0.2,0.2,0.2,0.4,0.2,0.7c0,0.4-0.1,0.7-0.4,0.9c-0.3,0.2-0.7,0.3-1.2,0.3
				c-0.5,0-0.9-0.1-1.2-0.3c-0.3-0.2-0.4-0.5-0.4-0.9c0-0.3,0.1-0.5,0.3-0.7c0.2-0.2,0.4-0.3,0.7-0.4c-0.3-0.1-0.5-0.2-0.6-0.4
				c-0.1-0.2-0.2-0.4-0.2-0.7c0-0.2,0.1-0.5,0.2-0.6c0.1-0.2,0.3-0.3,0.5-0.4c0.2-0.1,0.5-0.2,0.8-0.2c0.3,0,0.6,0.1,0.8,0.2
				c0.2,0.1,0.4,0.2,0.5,0.4c0.1,0.2,0.2,0.4,0.2,0.6c0,0.3-0.1,0.5-0.2,0.7c-0.1,0.2-0.4,0.3-0.6,0.4C37.8,203,38,203.1,38.2,203.3
				z M37.6,204.7c0.2-0.1,0.3-0.4,0.3-0.6c0-0.3-0.1-0.5-0.3-0.6c-0.2-0.2-0.5-0.2-0.8-0.3c-0.3,0-0.6,0.1-0.8,0.3
				c-0.2,0.2-0.3,0.4-0.3,0.6c0,0.3,0.1,0.5,0.3,0.6c0.2,0.1,0.5,0.2,0.8,0.2C37.2,204.9,37.4,204.8,37.6,204.7z M36.1,202.5
				c0.2,0.2,0.4,0.2,0.7,0.3c0.3,0,0.6-0.1,0.7-0.3c0.2-0.2,0.3-0.4,0.3-0.6c0-0.3-0.1-0.5-0.3-0.6c-0.2-0.1-0.4-0.2-0.7-0.2
				c-0.3,0-0.6,0.1-0.7,0.2c-0.2,0.1-0.3,0.3-0.3,0.6C35.8,202.1,35.9,202.3,36.1,202.5z"/>
			<path class="st7" d="M39.5,204.7c-0.3-0.4-0.4-1-0.4-1.7c0-0.8,0.1-1.3,0.4-1.7c0.3-0.4,0.7-0.6,1.2-0.6c0.5,0,0.9,0.2,1.2,0.6
				c0.3,0.4,0.4,1,0.4,1.7c0,0.8-0.1,1.4-0.4,1.7c-0.3,0.4-0.7,0.6-1.2,0.6C40.1,205.3,39.7,205.1,39.5,204.7z M41.5,204.4
				c0.2-0.3,0.3-0.8,0.3-1.4c0-0.6-0.1-1.1-0.3-1.4c-0.2-0.3-0.4-0.5-0.8-0.5c-0.4,0-0.6,0.2-0.8,0.5c-0.2,0.3-0.3,0.8-0.3,1.4
				c0,0.6,0.1,1.1,0.3,1.4c0.2,0.3,0.4,0.5,0.8,0.5C41,204.9,41.3,204.7,41.5,204.4z"/>
			<path class="st7" d="M35.3,218.2h3v0.4l-2.1,4.2h-0.6l2.1-4.1h-2.4V218.2z"/>
			<path class="st7" d="M39.5,222.3c-0.3-0.4-0.4-1-0.4-1.7c0-0.8,0.1-1.3,0.4-1.7c0.3-0.4,0.7-0.6,1.2-0.6c0.5,0,0.9,0.2,1.2,0.6
				c0.3,0.4,0.4,1,0.4,1.7c0,0.8-0.1,1.4-0.4,1.7c-0.3,0.4-0.7,0.6-1.2,0.6C40.1,222.9,39.7,222.7,39.5,222.3z M41.5,222
				c0.2-0.3,0.3-0.8,0.3-1.4c0-0.6-0.1-1.1-0.3-1.4c-0.2-0.3-0.4-0.5-0.8-0.5c-0.4,0-0.6,0.2-0.8,0.5c-0.2,0.3-0.3,0.8-0.3,1.4
				c0,0.6,0.1,1.1,0.3,1.4c0.2,0.3,0.4,0.5,0.8,0.5C41,222.4,41.3,222.3,41.5,222z"/>
			<path class="st7" d="M37.7,237.7c0.2,0.1,0.4,0.3,0.5,0.5c0.1,0.2,0.2,0.5,0.2,0.8c0,0.3-0.1,0.5-0.2,0.8
				c-0.1,0.2-0.3,0.4-0.5,0.5c-0.2,0.1-0.5,0.2-0.8,0.2c-0.6,0-1-0.2-1.3-0.6c-0.3-0.4-0.5-0.9-0.5-1.6c0-0.5,0.1-1,0.2-1.3
				c0.1-0.4,0.3-0.6,0.6-0.8c0.3-0.2,0.6-0.3,0.9-0.3c0.3,0,0.5,0,0.8,0.1c0.3,0.1,0.5,0.2,0.7,0.4l-0.2,0.4
				c-0.2-0.2-0.4-0.3-0.6-0.4c-0.2-0.1-0.4-0.1-0.6-0.1c-0.4,0-0.7,0.2-0.9,0.5c-0.2,0.4-0.3,0.8-0.3,1.5v0.1
				c0.1-0.2,0.3-0.4,0.5-0.6c0.2-0.1,0.5-0.2,0.8-0.2C37.3,237.5,37.5,237.6,37.7,237.7z M37.6,239.7c0.2-0.2,0.3-0.4,0.3-0.7
				c0-0.3-0.1-0.6-0.3-0.7c-0.2-0.2-0.4-0.3-0.7-0.3c-0.3,0-0.5,0.1-0.7,0.3c-0.2,0.2-0.3,0.4-0.3,0.7c0,0.3,0.1,0.6,0.3,0.7
				c0.2,0.2,0.4,0.3,0.7,0.3C37.2,240,37.4,239.9,37.6,239.7z"/>
			<path class="st7" d="M39.5,239.8c-0.3-0.4-0.4-1-0.4-1.7c0-0.8,0.1-1.3,0.4-1.7c0.3-0.4,0.7-0.6,1.2-0.6c0.5,0,0.9,0.2,1.2,0.6
				c0.3,0.4,0.4,1,0.4,1.7c0,0.8-0.1,1.4-0.4,1.7c-0.3,0.4-0.7,0.6-1.2,0.6C40.1,240.4,39.7,240.2,39.5,239.8z M41.5,239.5
				c0.2-0.3,0.3-0.8,0.3-1.4c0-0.6-0.1-1.1-0.3-1.4c-0.2-0.3-0.4-0.5-0.8-0.5c-0.4,0-0.6,0.2-0.8,0.5c-0.2,0.3-0.3,0.8-0.3,1.4
				c0,0.6,0.1,1.1,0.3,1.4c0.2,0.3,0.4,0.5,0.8,0.5C41,240,41.3,239.8,41.5,239.5z"/>
			<path class="st7" d="M37.7,255.2c0.2,0.1,0.4,0.3,0.5,0.5c0.1,0.2,0.2,0.5,0.2,0.8c0,0.3-0.1,0.5-0.2,0.8
				c-0.1,0.2-0.3,0.4-0.5,0.5c-0.2,0.1-0.5,0.2-0.8,0.2c-0.3,0-0.6-0.1-0.8-0.2c-0.3-0.1-0.5-0.2-0.7-0.4l0.2-0.4
				c0.4,0.4,0.9,0.5,1.3,0.5c0.3,0,0.6-0.1,0.8-0.3c0.2-0.2,0.3-0.4,0.3-0.7c0-0.3-0.1-0.6-0.3-0.7c-0.2-0.2-0.4-0.3-0.7-0.3
				c-0.4,0-0.8,0.2-1,0.5h-0.4v-2.7h2.7v0.4H36v1.6c0.3-0.2,0.6-0.4,1-0.4C37.3,255,37.5,255.1,37.7,255.2z"/>
			<path class="st7" d="M39.5,257.4c-0.3-0.4-0.4-1-0.4-1.7c0-0.8,0.1-1.3,0.4-1.7s0.7-0.6,1.2-0.6c0.5,0,0.9,0.2,1.2,0.6
				c0.3,0.4,0.4,1,0.4,1.7c0,0.8-0.1,1.4-0.4,1.7c-0.3,0.4-0.7,0.6-1.2,0.6C40.1,258,39.7,257.8,39.5,257.4z M41.5,257.1
				c0.2-0.3,0.3-0.8,0.3-1.4c0-0.6-0.1-1.1-0.3-1.4c-0.2-0.3-0.4-0.5-0.8-0.5c-0.4,0-0.6,0.2-0.8,0.5c-0.2,0.3-0.3,0.8-0.3,1.4
				c0,0.6,0.1,1.1,0.3,1.4c0.2,0.3,0.4,0.5,0.8,0.5C41,257.5,41.3,257.4,41.5,257.1z"/>
			<path class="st7" d="M38.5,274v0.4h-0.7v1h-0.5v-1h-2.1v-0.4l2.2-3.2h0.4v3.1H38.5z M35.7,274h1.6v-2.3L35.7,274z"/>
			<path class="st7" d="M39.5,274.9c-0.3-0.4-0.4-1-0.4-1.7c0-0.8,0.1-1.3,0.4-1.7c0.3-0.4,0.7-0.6,1.2-0.6c0.5,0,0.9,0.2,1.2,0.6
				c0.3,0.4,0.4,1,0.4,1.7c0,0.8-0.1,1.4-0.4,1.7c-0.3,0.4-0.7,0.6-1.2,0.6C40.1,275.5,39.7,275.3,39.5,274.9z M41.5,274.6
				c0.2-0.3,0.3-0.8,0.3-1.4c0-0.6-0.1-1.1-0.3-1.4c-0.2-0.3-0.4-0.5-0.8-0.5c-0.4,0-0.6,0.2-0.8,0.5c-0.2,0.3-0.3,0.8-0.3,1.4
				c0,0.6,0.1,1.1,0.3,1.4c0.2,0.3,0.4,0.5,0.8,0.5C41,275.1,41.3,274.9,41.5,274.6z"/>
			<path class="st7" d="M38,291.1c0.1,0.2,0.2,0.4,0.2,0.7c0,0.4-0.1,0.7-0.4,0.9c-0.3,0.2-0.6,0.3-1.1,0.3c-0.3,0-0.6,0-0.9-0.1
				c-0.3-0.1-0.5-0.2-0.7-0.4l0.2-0.4c0.4,0.4,0.9,0.5,1.3,0.5c0.3,0,0.6-0.1,0.7-0.2c0.2-0.1,0.3-0.4,0.3-0.6
				c0-0.6-0.4-0.8-1.1-0.8h-0.5v-0.4h0.4c0.3,0,0.6-0.1,0.8-0.2c0.2-0.2,0.3-0.4,0.3-0.6c0-0.2-0.1-0.4-0.2-0.6
				c-0.1-0.1-0.4-0.2-0.6-0.2c-0.4,0-0.9,0.2-1.3,0.5l-0.2-0.4c0.2-0.2,0.4-0.3,0.7-0.4c0.3-0.1,0.5-0.2,0.8-0.2
				c0.4,0,0.7,0.1,1,0.3c0.2,0.2,0.4,0.5,0.4,0.8c0,0.3-0.1,0.5-0.2,0.7c-0.1,0.2-0.3,0.3-0.5,0.4C37.7,290.7,37.9,290.9,38,291.1z"
				/>
			<path class="st7" d="M39.5,292.5c-0.3-0.4-0.4-1-0.4-1.7c0-0.8,0.1-1.3,0.4-1.7c0.3-0.4,0.7-0.6,1.2-0.6c0.5,0,0.9,0.2,1.2,0.6
				c0.3,0.4,0.4,1,0.4,1.7c0,0.8-0.1,1.4-0.4,1.7c-0.3,0.4-0.7,0.6-1.2,0.6C40.1,293.1,39.7,292.9,39.5,292.5z M41.5,292.2
				c0.2-0.3,0.3-0.8,0.3-1.4c0-0.6-0.1-1.1-0.3-1.4c-0.2-0.3-0.4-0.5-0.8-0.5c-0.4,0-0.6,0.2-0.8,0.5c-0.2,0.3-0.3,0.8-0.3,1.4
				c0,0.6,0.1,1.1,0.3,1.4c0.2,0.3,0.4,0.5,0.8,0.5C41,292.6,41.3,292.5,41.5,292.2z"/>
			<path class="st7" d="M38.3,310.1v0.4h-2.9v-0.4l1.6-1.8c0.2-0.2,0.4-0.5,0.5-0.6c0.1-0.2,0.1-0.4,0.1-0.6c0-0.3-0.1-0.4-0.2-0.6
				c-0.1-0.1-0.4-0.2-0.6-0.2c-0.4,0-0.9,0.2-1.3,0.5l-0.2-0.4c0.2-0.2,0.4-0.3,0.7-0.4c0.3-0.1,0.6-0.2,0.8-0.2
				c0.4,0,0.8,0.1,1,0.3c0.2,0.2,0.4,0.5,0.4,0.9c0,0.3-0.1,0.5-0.2,0.8c-0.1,0.2-0.3,0.5-0.6,0.8l-1.3,1.4H38.3z"/>
			<path class="st7" d="M39.5,310c-0.3-0.4-0.4-1-0.4-1.7c0-0.8,0.1-1.3,0.4-1.7c0.3-0.4,0.7-0.6,1.2-0.6c0.5,0,0.9,0.2,1.2,0.6
				c0.3,0.4,0.4,1,0.4,1.7c0,0.8-0.1,1.4-0.4,1.7c-0.3,0.4-0.7,0.6-1.2,0.6C40.1,310.6,39.7,310.4,39.5,310z M41.5,309.7
				c0.2-0.3,0.3-0.8,0.3-1.4c0-0.6-0.1-1.1-0.3-1.4c-0.2-0.3-0.4-0.5-0.8-0.5c-0.4,0-0.6,0.2-0.8,0.5c-0.2,0.3-0.3,0.8-0.3,1.4
				c0,0.6,0.1,1.1,0.3,1.4c0.2,0.3,0.4,0.5,0.8,0.5C41,310.2,41.3,310,41.5,309.7z"/>
			<path class="st7" d="M37.2,327.7h1v0.4h-2.6v-0.4h1v-3.5l-0.9,0.6v-0.5l1.2-0.7h0.3V327.7z"/>
			<path class="st7" d="M39.5,327.6c-0.3-0.4-0.4-1-0.4-1.7c0-0.8,0.1-1.3,0.4-1.7c0.3-0.4,0.7-0.6,1.2-0.6c0.5,0,0.9,0.2,1.2,0.6
				c0.3,0.4,0.4,1,0.4,1.7c0,0.8-0.1,1.4-0.4,1.7c-0.3,0.4-0.7,0.6-1.2,0.6C40.1,328.1,39.7,328,39.5,327.6z M41.5,327.2
				c0.2-0.3,0.3-0.8,0.3-1.4c0-0.6-0.1-1.1-0.3-1.4c-0.2-0.3-0.4-0.5-0.8-0.5c-0.4,0-0.6,0.2-0.8,0.5c-0.2,0.3-0.3,0.8-0.3,1.4
				c0,0.6,0.1,1.1,0.3,1.4c0.2,0.3,0.4,0.5,0.8,0.5C41,327.7,41.3,327.6,41.5,327.2z"/>
		</g>
		<path class="st11" d="M227.1,234.7c-1.1,2.4-2.8,5.2-5.4,5.2c-2.3,0-3.9-2.2-5.2-4.1c-1.4-1.8-3.6-3.7-5.7-2.9
			c-1,0.4-1.7,1.3-2.3,2.2c-1.3,1.8-2.6,3.8-4.4,5.1c-1.8,1.3-4.4,2-6.4,0.9c-2.4-1.3-3-4.3-3.5-7c-1.9-10.5-5-21.2-9.3-31
			c-0.8-1.8-1.6-3.5-3.1-4.8c-5.2-4.5-9.3,2.4-10.6,6.7c-2.4,8.5-5.1,17-8.2,25.3c-2.5,6.9-4.7,16.1-9.6,21.9
			c-4.5,5.3-10.2-2.3-12.7-5.9c-2-2.9-5.3-12-9.4-12.3c-1.3-0.1-2.4,0.8-3.4,1.6c-1.2,1.1-2.3,2.3-3.3,3.5c-1.4,1.8-2.8,3.6-5.4,3.4
			c-1.6-0.1-3-0.9-4.3-2c-4.8-4.1-6-10.5-7.8-16.2c-2.3-7.3-5.4-14.4-9.2-21c-0.6-1-1.2-2.1-2.2-2.7c-3.8-2.5-7.8,3.2-9.3,6
			c-1.9,3.7-2.5,7.8-3.5,11.8c-1.9,7.4-5.2,14.4-9.8,20.4c-1,1.4-2.3,2.8-4,2.9c-2.9,0.2-4.4-3.4-5.1-6.2c-0.8-3.5-1.6-7-2.3-10.4
			c-1-4.3-3.6-8.6-7.9-10.3c-3.1-1.3-5.5-1.3-7.4-0.4v119.3h189.2V216.1C231.1,220.4,229.1,230.3,227.1,234.7z"/>
		<g>
			<path class="st5" d="M236,333.9H46.1V177.3H236V333.9z M46.8,333.2h188.5V178H46.8V333.2z"/>
		</g>
	</g>
</g>
</svg>
