<svg xmlns="http://www.w3.org/2000/svg" xmlns:xlink="http://www.w3.org/1999/xlink" viewBox="0 0 462.16 312.58"><defs><clipPath id="clip-path"><path d="M385.34,184.64a9.83,9.83,0,0,1-9.84,9.84h-89a9.83,9.83,0,0,1-9.84-9.84V118.77a9.84,9.84,0,0,1,9.84-9.84h74.69a9.84,9.84,0,0,1,9.83,9.84Z" style="fill:none"/></clipPath></defs><title>Element 2</title><g style="isolation:isolate"><g id="Ebene_2" data-name="Ebene 2"><g id="OBJECTS"><path d="M197.08,109.41A18.92,18.92,0,0,1,223.38,94a22.8,22.8,0,0,1,20.68-13.19c.39,0,.78,0,1.16,0a18.92,18.92,0,0,1,35.59,6.48A18.89,18.89,0,0,1,303.19,98a13.44,13.44,0,0,1,4.46-.77,13.6,13.6,0,0,1,13.51,12.14Z" style="fill:#fff;opacity:0.2"/><g style="opacity:0.2"><path d="M44.67,188.58h-23a1,1,0,1,1,0-2h23a1,1,0,0,1,0,2Z" style="fill:#898989"/><path d="M40,209.58H17a1,1,0,0,1,0-2H40a1,1,0,0,1,0,2Z" style="fill:#898989"/><path d="M24,197.58H1a1,1,0,0,1,0-2H24a1,1,0,0,1,0,2Z" style="fill:#898989"/><path d="M41,197.58H31a1,1,0,0,1,0-2H41a1,1,0,0,1,0,2Z" style="fill:#898989"/><path d="M43,219.58H33a1,1,0,0,1,0-2H43a1,1,0,1,1,0,2Z" style="fill:#898989"/></g><rect x="18.43" y="303.39" width="437" height="9.19" transform="translate(473.86 615.97) rotate(180)" style="fill:#b2b2b2;opacity:0.2;mix-blend-mode:multiply"/><g style="opacity:0.2"><rect x="286.01" y="224.74" width="110.01" height="45.99" style="fill:#858585"/><path d="M283,257.52a13,13,0,0,1-13.05,13.05H58.29a13,13,0,0,1-13-13.05h0a13,13,0,0,1,13-13H269.92a13,13,0,0,1,13.05,13Z" style="fill:#858585"/><path d="M264.61,247.34V121.57a21,21,0,0,0-21.06-21H71.72a21.05,21.05,0,0,0-21.06,21V247.34Z" style="fill:#858585"/><path d="M58.59,129.5a21.06,21.06,0,0,1,21.06-21.06H251.48a21,21,0,0,1,10.39,2.74,21,21,0,0,0-18.32-10.66H71.72a21.05,21.05,0,0,0-21.06,21V247.34h7.93Z" style="fill:#ababab"/><path d="M401.78,209.13a14.23,14.23,0,0,1-14.23,14.22h-109a14.22,14.22,0,0,1-14.22-14.22V113.86a14.22,14.22,0,0,1,14.22-14.22h88.33a14.22,14.22,0,0,1,14.22,14.22Z" style="fill:#b5b5b5"/><path d="M278.55,105.23h88.33a14.23,14.23,0,0,1,14.22,14.23l20.22,93.17a13.94,13.94,0,0,0,.46-3.5L381.1,113.86a14.22,14.22,0,0,0-14.22-14.22H278.55a14.22,14.22,0,0,0-14.22,14.22v5.6A14.23,14.23,0,0,1,278.55,105.23Z" style="fill:#ccc"/><path d="M431.87,265.52c0,4.11-1.28,5.22-9.14,5.22h-44a36.37,36.37,0,0,0-72.52,0H264.18V206.07H413.53c7.86,0,9.14,5.55,9.14,9.65Z" style="fill:#b5b5b5"/><path d="M439.23,259.39c0-1.26-.39-3-2.81-3H399.13l3.73,19.91h36.39c2.42,0,2.82-.34,2.82-1.6Z" style="fill:#181818"/><path d="M38.37,259.39c0-1.26.39-3,2.81-3H78.47l-3.73,19.91H38.35c-2.42,0-2.82-.34-2.82-1.6Z" style="fill:#181818"/><path d="M421.18,232c1,10.23-1.87,18.9-6.44,19.35s-9.12-7.47-10.13-17.7,1.86-18.9,6.44-19.35S420.16,221.75,421.18,232Z" style="fill:#858585"/><path d="M395.93,253c0,2.95-.91,3.75-6.56,3.75H374.84a36.39,36.39,0,0,0-64.46,0h-34.9V210.33H382.76c5.65,0,6.56,4,6.56,6.93Z" style="fill:#ccc"/><path d="M385.34,184.64a9.83,9.83,0,0,1-9.84,9.84h-89a9.83,9.83,0,0,1-9.84-9.84V118.77a9.84,9.84,0,0,1,9.84-9.84h74.69a9.84,9.84,0,0,1,9.83,9.84Z" style="fill:#fff"/><g style="clip-path:url(#clip-path)"><path d="M333.27,154.87l-.85,0c-9.32-.49-12.85-6-13-6.22l-4-4.85a.33.33,0,0,1,0-.47.34.34,0,0,1,.48,0l4,4.88c.06.09,3.54,5.47,12.49,5.94,6.19.33,9.17-3.23,9.2-3.26a.34.34,0,0,1,.48,0,.34.34,0,0,1,0,.48C342.06,151.49,339.22,154.87,333.27,154.87Z" style="fill:#fff"/><path d="M357.79,203.16c-12.72-10.29-28-12.09-29.44-12.24a108.14,108.14,0,0,0-10.73-15.59l-11.36,4.14a38.89,38.89,0,0,0,18.56,22,13.77,13.77,0,0,0,4.51,1.62c4.7,1.92,11.82,3.07,18.12,5.24C354.94,210.91,363.53,207.8,357.79,203.16Zm-29.14-11.79,0,0-.09-.17Z" style="fill:#a8a8a8"/><path d="M324,217.88a1.86,1.86,0,0,1,0,.67c-.53,3.32-9,1.54-17.25-.43-4.29-1-8.53-2.07-11.62-2.51-.36,0,1.14-15.93,3.15-30h0c.28-1.5.59-2.93.91-4.28,0,0,5.39-13.23,10.07-14.16h0a13,13,0,0,1,1.58.21,16.27,16.27,0,0,1,1.79.46c2.21.7,4.64.64,6.84,1.42a3.14,3.14,0,0,1,1.24.89c2.11,2.23,4.07,7.83,4.52,11.76,1.15,10.18-1,24.22-1.22,30.34-.05,1.44-.09,4.55,0,5.5h0C324,217.79,324,217.84,324,217.88Z" style="fill:#a8a8a8"/><path d="M347.45,204.27c-6.3-2.16-13.42-3.31-18.12-5.23a13.84,13.84,0,0,1-4.51-1.63A38.7,38.7,0,0,1,307.63,179l-1.37.5a38.89,38.89,0,0,0,18.56,22,13.77,13.77,0,0,0,4.51,1.62c4.7,1.92,11.82,3.07,18.12,5.24,7.11,2.44,15.21-.24,11.1-4.49C356.45,205.35,351.77,205.76,347.45,204.27Z" style="fill:#929292"/><path d="M344.05,156.39c-1.35,4-3.39,7.49-5.73,9.27l-.48.34c-3,1.93-8.32,2.4-13.44,1.72-4.76-.63-9.33-2.26-11.61-4.65-5.36-5.61-5.57-23.86.94-28.08,5.17-3.36,21.18-1.89,27.81,2l.51,13,.08.81h0a6.35,6.35,0,0,1,1-.06l.49,0a10.26,10.26,0,0,1,1.76.21l-.06.33a2,2,0,0,1,.88,1.47A3.51,3.51,0,0,1,344.05,156.39Z" style="fill:#cdcdcd"/><path d="M330.55,152.62c-.08.61,1.46,1.29,3.42,1.52s3.61-.08,3.68-.69-1.46-1.29-3.42-1.52-3.61.08-3.68.69" style="fill:#9a9a9a"/><path d="M313.87,164.64a15.07,15.07,0,0,1-3.35,3.27,9.93,9.93,0,0,0,8.74,6.82,16,16,0,0,1,.57-2.17,16.86,16.86,0,0,1,1.16-2.65,15.49,15.49,0,0,1,3.68-4.51c.33-.28.64-.51.91-.7l-8.73-6.81c-.11.5-.26,1.09-.46,1.73a16.87,16.87,0,0,1-1.73,3.85c-.24.39-.51.78-.79,1.17" style="fill:#cdcdcd"/><path d="M321.12,161.22l-4.27-3.33c-.11.5-.26,1.09-.46,1.73a16.44,16.44,0,0,1-1.73,3.85c-.24.38-.51.78-.79,1.17a15.37,15.37,0,0,1-3.35,3.28,10.43,10.43,0,0,0,3.64,5,23.62,23.62,0,0,1,7-11.66" style="fill:#b2b2b2"/><path d="M316.39,159.63a40.47,40.47,0,0,1-3,5.61c1.21,2.87,2.31,10.33,5.57,11,.27-.83,1.52-5.46,2-6.38a15.34,15.34,0,0,1,3.68-4.51V164c0-.36,0-.57,0-.57l-1.76-.81Z" style="fill:#b2b2b2"/><path d="M328.44,167.11a21.73,21.73,0,0,1-14-13.56c-1.87.3-3.31,1-5.18.82.59,3.63,1.8,6.85,3.56,8.7,3.58,3.74,12.76,5.63,19.52,4.72a19.62,19.62,0,0,1-3.87-.68" style="fill:#b2b2b2"/><path d="M341.54,137c-5.09-3-15.72-4.58-22.71-3.63a19.43,19.43,0,0,0-2,3.93c-.24,1.28,1.36,6.49,1.36,6.49s5.14-1.68,6.16-4.35c0,0,10.85,2.79,17.4,3Z" style="fill:#b2b2b2"/><path d="M343.27,140a7.39,7.39,0,0,0,6.83-7.91c0-.07-.38-4.28-.45-4.29-10.16-1.58-18.8-8.08-33.48.9a5.15,5.15,0,0,0-5.76-.1c-3.15,1.94-3.57,9.72-1.48,12.63L317,136s15.91,4.91,26.26,4" style="fill:#181818"/><path d="M311.82,127.92c-9.67,4.2-5.29,32.29-.33,31.37,8.46-1.58,1.71-3,2.22-11s3.91-1.93,3.91-1.93.35-8,2.32-9.53.3-2.7,0-2.78-8.15-6.11-8.15-6.11" style="fill:#181818"/><path d="M323.77,137.72l1.13-4a16.28,16.28,0,0,0-5,1.23c-2.61,1.49-4.29,7.93-4.29,7.93l.22,3.11s.12,6,.61,7,1.73,2,1.47,1.36.9-9.1,1-10.8,2.09-.92,4.79-5.86l.06,0" style="fill:#181818"/><path d="M313.78,129.42l-2-1.5c-9.67,4.2-5.29,32.29-.33,31.37a19.53,19.53,0,0,0,2.54-.61C310.21,155,307.72,135.73,313.78,129.42Z" style="fill:#3e3e3e"/><path d="M305.73,141.12s23.08-7.55,31.07-9.76l16-4.44s.88-3.11-4.44-2.22a30,30,0,0,1-9.77,0l-7.43-5.29s-5.44-4.92-13.87-.48a92.32,92.32,0,0,0-9.15,5.44,16.05,16.05,0,0,0-2.93,8.81C305.19,140,305.73,141.12,305.73,141.12Z" style="fill:#b5b5b5"/><path d="M310.15,133.18a16.05,16.05,0,0,1,2.93-8.81,93.37,93.37,0,0,1,9.16-5.44,16.22,16.22,0,0,1,4.4-1.6,13.71,13.71,0,0,0-9.37,1.6,92.32,92.32,0,0,0-9.15,5.44,16.05,16.05,0,0,0-2.93,8.81c0,6.77.54,7.94.54,7.94l4.68-1.52A59.52,59.52,0,0,1,310.15,133.18Z" style="fill:#d5d5d5"/><path d="M348.34,124.7a30,30,0,0,1-9.77,0l-.52-.38c-1.72,2.77-3.48,5.52-5.3,8.22,1.56-.47,2.95-.88,4.05-1.18l16-4.44S353.66,123.81,348.34,124.7Z" style="fill:#878787"/><path d="M332.86,145a.71.71,0,0,1-.47-.18.69.69,0,0,1,0-1,3.73,3.73,0,0,1,4.91-.31.68.68,0,1,1-.76,1.12,2.36,2.36,0,0,0-3.16.12A.67.67,0,0,1,332.86,145Z" style="fill:#434343"/><path d="M334.61,148.24c-.13,1,.17,1.92.67,2s1-.74,1.11-1.78-.18-1.92-.68-2-1,.74-1.1,1.78" style="fill:#434343"/><path d="M316.05,144.3c-.29-1-3.15-1.73-5.06-.76s-.87,6.6.86,7.61c1.44.83,4.35-.06,3.68.55" style="fill:#cdcdcd"/><path d="M314.2,147c.17,1.14-.09,2.13-.57,2.2s-.26-.94-.43-2.09-.66-2-.17-2.07,1,.81,1.17,2" style="fill:#434343"/><path d="M344.05,156.39c-1.35,4-3.39,7.49-5.73,9.27l-.48.34c-3,1.93-5.91,2.87-11,2.19a12.22,12.22,0,0,1-4-6.21c-.66-2.62-2.66-12-2.44-12.65a31,31,0,0,0,3.77,2.81c9.14,4.23,13.31,2.07,19-1.36l.49,0a10.26,10.26,0,0,1,1.76.21l-.06.33a2,2,0,0,1,.88,1.47A3.51,3.51,0,0,1,344.05,156.39Z" style="fill:#a8a8a8"/><path d="M345.78,151.75a4.42,4.42,0,0,1-1.73,1.48c-1.35,4-3.39,7.49-5.73,9.27l-.48.34c-3,1.93-5.91,2.87-11,2.19a12.22,12.22,0,0,1-4-6.21c-.41-1.64-1.35-5.94-1.95-9.08l-.49-.41c-.22.67,1.78,10,2.44,12.65a12.22,12.22,0,0,0,4,6.21c5.12.68,8.05-.26,11-2.19l.48-.34c2.34-1.78,4.38-5.3,5.73-9.27a3.51,3.51,0,0,0,2.18-3.58A2.06,2.06,0,0,0,345.78,151.75Z" style="fill:#929292"/><path d="M343.29,157a.33.33,0,0,1-.32-.25.34.34,0,0,1,.23-.42c.12,0,3-.89,2.68-3.52a1.62,1.62,0,0,0-.65-1.18,4.76,4.76,0,0,0-3-.5.34.34,0,0,1-.39-.26,12.06,12.06,0,0,1-.12-2,.34.34,0,0,1,.34-.34.37.37,0,0,1,.34.34c0,.78,0,1.25.06,1.53a4.94,4.94,0,0,1,3.21.67,2.27,2.27,0,0,1,.92,1.63c.4,3.22-3.13,4.26-3.17,4.26Z" style="fill:#434343"/><path d="M324,218.55c-1.67.28-7.16-1.44-6.82-.14a30.26,30.26,0,0,1-10.43-.29c-4.3-.72-8.51-1.85-11.62-2.27-.47-.07.66-17.28,3.15-30.25h0c.28-1.5.59-2.93.91-4.28,0,0,5.39-13.23,10.07-14.16h0a2.29,2.29,0,0,1,1.58.21,1.83,1.83,0,0,1,.3.18s-6.94,8.06-.48,13.86c2.63,2.35,5.43,7.38,5.43,7.38s-9.32-.66-11.67,2.13-5.6,14.76-3.44,18.16c3.07,4.8,17.79,5,23,8.66h0l.47.37C324.52,218.36,324.34,218.51,324,218.55Z" style="fill:#929292"/><path d="M368.08,200.8s.58-.14,1.28.75a1.85,1.85,0,0,1,.35,1.74,2.19,2.19,0,0,1,1.71,1.29,1.3,1.3,0,0,1-.54,1.85s-.73-.59-3.82-1a6.22,6.22,0,0,0-7.44,5.53v0s1.95,2,1.89,3.2-.94,1.79-1.52.86-3.83-5.4-3.83-5.4h0c-1.85-2.07-.66-6.91,1.09-7.9,4.66-2.65,8.64-3,9.89-2.5s.92,1.53.92,1.53" style="fill:#cdcdcd"/><path d="M337.68,278.46s-.21-.22-.39.63.11,4.31.74,5,14.79,1,15.24-.4S342,276.84,342,276.84Z" style="fill:#202020"/><path d="M342.35,274.94l.42,2.74a5.19,5.19,0,0,1-5.09.78l-.42-2.75Z" style="fill:#d1d1d1"/><path d="M316.17,216.52l-20.91-1.11s-2.33,9.42,4.85,16.77c3.46,3.55,14.93,4.69,18.94,5a78.36,78.36,0,0,0,11.38.11L336.29,276s6.62-.08,7.59-2.75l-1.36-43.77-.25-.08C342.22,223.41,335.46,218.43,316.17,216.52Z" style="fill:#6d6d6d"/><path d="M337.34,273.16,331.93,234a79.94,79.94,0,0,1-11.39-.11c-4-.29-15.48-1.43-18.94-5a18.51,18.51,0,0,1-5.2-13.44l-1.14-.06s-2.33,9.42,4.85,16.77c3.46,3.55,14.93,4.69,18.94,5a78.36,78.36,0,0,0,11.38.11l5.41,39.16s7.3.38,8.26-2.29l-.45-1.06C341.65,274.52,337.34,273.16,337.34,273.16Z" style="fill:#5c5c5c"/><path d="M342,158c-3.12,3.17-8.9,3.51-13.07,3.06-.44,0-.43.63,0,.68,4.34.46,10.3,0,13.56-3.26A.34.34,0,0,0,342,158Z" style="fill:#929292"/><path d="M334.44,156.32c-3,1-6,0-8.77-1.32-.39-.19-.73.4-.34.59,2.9,1.41,6.11,2.46,9.29,1.39C335,156.84,334.85,156.18,334.44,156.32Z" style="fill:#bfbfbf"/><path d="M319.53,184.3c-3-4-4.49-10.33-10.62-10.15a.34.34,0,0,0,0,.67c5.79-.16,7.17,6.05,10,9.82C319.2,185,319.79,184.65,319.53,184.3Z" style="fill:#bfbfbf"/><path d="M347.77,198.54c-5.58-1.84-11.16-5-17.19-4.76-.44,0-.44.7,0,.68,6-.25,11.5,2.91,17,4.73C348,199.33,348.18,198.67,347.77,198.54Z" style="fill:#bfbfbf"/><path d="M356,209.48a1.7,1.7,0,0,1-2.05,1.24h0a1.7,1.7,0,0,1-1.24-2.06l1.89-7.55a1.68,1.68,0,0,1,2-1.23h0a1.69,1.69,0,0,1,1.23,2.05Z" style="fill:#b5b5b5"/><path d="M357.39,200.29s0,.07,0,.11L355.49,208a1.69,1.69,0,0,1-2.05,1.23,1.63,1.63,0,0,1-.74-.41,1.69,1.69,0,0,0,3.3.7l1.88-7.55A1.67,1.67,0,0,0,357.39,200.29Z" style="fill:#a5a5a5"/><path d="M304.82,217s-.45,5.87,9.93,7.22,17.61.91,20.32,4.07,4.8,45.2,4.8,45.2" style="fill:none;stroke:#ededed;stroke-linecap:round;stroke-linejoin:round;stroke-dasharray:3"/><path d="M371.05,200.15a4.66,4.66,0,0,1-3.78,5.4h0a4.66,4.66,0,0,1-5.4-3.78L358.21,181a4.66,4.66,0,0,1,3.78-5.4h0a4.66,4.66,0,0,1,5.4,3.78Z" style="fill:#181818"/></g><path d="M409.67,182.88a3.73,3.73,0,0,1-2.88,4.43h0a3.73,3.73,0,0,1-4.42-2.88l-3.51-16.57a3.74,3.74,0,0,1,2.88-4.42h0a3.73,3.73,0,0,1,4.43,2.88Z" style="fill:#181818"/><path d="M402.23,176l-6.84,2.48s-5,.63-5,5,3.11,13.67,3.11,13.67" style="fill:none;stroke:#181818;stroke-linecap:round;stroke-linejoin:round;stroke-width:3px"/><path d="M397.88,197.7a3.73,3.73,0,1,1-3.73-3.73A3.73,3.73,0,0,1,397.88,197.7Z" style="fill:#181818"/><path d="M417.84,232.31c.61,6.11-1.12,11.28-3.85,11.56s-5.44-4.47-6-10.57,1.11-11.29,3.84-11.56S417.23,226.2,417.84,232.31Z" style="fill:#fff"/><circle cx="343.19" cy="273.53" r="32.63" transform="translate(66 613.77) rotate(-89.39)" style="fill:#181818"/><path d="M314.29,273.53A32.61,32.61,0,0,1,345.05,241c-.61,0-1.24-.06-1.86-.06a32.63,32.63,0,1,0,0,65.26c.62,0,1.25,0,1.86-.06A32.62,32.62,0,0,1,314.29,273.53Z" style="fill:#2d2d2d"/><circle cx="343.19" cy="273.53" r="16.47" style="fill:#b2b2b2"/><path d="M350.34,273.53a7.15,7.15,0,1,1-7.15-7.15A7.15,7.15,0,0,1,350.34,273.53Z" style="fill:#b2b2b2;mix-blend-mode:multiply"/><path d="M378.61,217.9a1.63,1.63,0,0,1-1.7,1.56H289a1.64,1.64,0,0,1-1.71-1.56h0a1.64,1.64,0,0,1,1.71-1.55h88a1.63,1.63,0,0,1,1.7,1.55Z" style="fill:#b5b5b5"/><path d="M314.6,228.78a3.73,3.73,0,0,1-3.73,3.73h-18a3.73,3.73,0,0,1-3.73-3.73h0a3.73,3.73,0,0,1,3.73-3.73h18a3.73,3.73,0,0,1,3.73,3.73Z" style="fill:#858585"/><path d="M250.35,245.94V137a18.26,18.26,0,0,0-18.25-18.26H83.18A18.26,18.26,0,0,0,64.93,137v109Z" style="fill:#ababab"/><circle cx="149.27" cy="273.53" r="32.63" transform="translate(-126 419.56) rotate(-89.32)" style="fill:#181818"/><path d="M120.37,273.53A32.62,32.62,0,0,1,151.14,241c-.62,0-1.24-.06-1.87-.06a32.63,32.63,0,0,0,0,65.26c.63,0,1.25,0,1.87-.06A32.62,32.62,0,0,1,120.37,273.53Z" style="fill:#2d2d2d"/><circle cx="149.27" cy="273.53" r="16.47" style="fill:#b2b2b2"/><path d="M156.42,273.53a7.15,7.15,0,1,1-7.15-7.15A7.15,7.15,0,0,1,156.42,273.53Z" style="fill:#b2b2b2;mix-blend-mode:multiply"/><path d="M333,154.91a16.86,16.86,0,0,1-3.6-.41c-7.27-1.59-14-7.35-15.2-11.45a.38.38,0,0,1,.72-.21c1.12,3.89,7.62,9.39,14.64,10.93,3.39.74,8.14.79,11.58-3.2a.38.38,0,0,1,.57.49A11,11,0,0,1,333,154.91Z" style="fill:#fff"/></g><g style="opacity:0.2"><path d="M191.31,212.38a2.78,2.78,0,0,1-1.62-.51,2.81,2.81,0,0,1-1.19-2.17l-1.41-31.62a2.81,2.81,0,0,1,2-2.81l27.62-8.6a2.8,2.8,0,0,1,3.64,2.56l1.42,31.61a2.82,2.82,0,0,1-2,2.81l-27.62,8.61A2.92,2.92,0,0,1,191.31,212.38ZM192.8,180,194,205.8,216,198.93l-1.15-25.81Z" style="fill:#ccc"/><path d="M191.37,212.65h0a2.83,2.83,0,0,1-1.49-.43l-22.64-14.15a2.8,2.8,0,0,1-1.31-2.26l-1.42-31.61a2.81,2.81,0,0,1,4.3-2.51l22.63,14.15a2.79,2.79,0,0,1,1.32,2.25l1.4,31.26a2.59,2.59,0,0,1,0,.48A2.81,2.81,0,0,1,191.37,212.65Zm-19.91-18.56,16.84,10.53-1.11-24.8-16.84-10.53Z" style="fill:#ccc"/><path d="M189.85,181a2.81,2.81,0,0,1-1.49-.43l-22.64-14.15a2.81,2.81,0,0,1,.65-5.06l27.6-8.73a2.8,2.8,0,0,1,2.34.3l22.63,14.14a2.82,2.82,0,0,1-.64,5.07l-27.61,8.73A2.68,2.68,0,0,1,189.85,181Zm-16-16.12,16.37,10.24,20.56-6.51-16.37-10.23Z" style="fill:#ccc"/><path d="M169.46,164.87a2.57,2.57,0,0,1-2.25,2.81H107.63a2.58,2.58,0,0,1-2.25-2.81h0a2.57,2.57,0,0,1,2.25-2.81h59.58a2.57,2.57,0,0,1,2.25,2.81Z" style="fill:#ccc"/><path d="M169.46,195.22a2.57,2.57,0,0,1-2.25,2.81H107.63a2.58,2.58,0,0,1-2.25-2.81h0a2.58,2.58,0,0,1,2.25-2.81h59.58a2.57,2.57,0,0,1,2.25,2.81Z" style="fill:#ccc"/><path d="M116.34,180.89a2.57,2.57,0,0,1-2.25,2.81H88.24A2.58,2.58,0,0,1,86,180.89h0a2.57,2.57,0,0,1,2.25-2.81h25.85a2.57,2.57,0,0,1,2.25,2.81Z" style="fill:#ccc"/><path d="M157.94,180.89a2.58,2.58,0,0,1-2.25,2.81H129.83a2.57,2.57,0,0,1-2.24-2.81h0a2.57,2.57,0,0,1,2.24-2.81h25.86a2.57,2.57,0,0,1,2.25,2.81Z" style="fill:#ccc"/></g><g style="opacity:0.2"><path d="M35.91,104.6a7.2,7.2,0,1,0-8-6.34A7.2,7.2,0,0,0,35.91,104.6Z" style="fill:#898989"/><path d="M25.44,94.2a2,2,0,1,0-2.21-1.75A2,2,0,0,0,25.44,94.2Z" style="fill:#898989"/><path d="M30,108.63a2,2,0,1,0-2.2-1.75A2,2,0,0,0,30,108.63Z" style="fill:#898989"/><path d="M38.42,109.24a2,2,0,1,0-2.2-1.75A2,2,0,0,0,38.42,109.24Z" style="fill:#898989"/><path d="M44.68,95.16a2,2,0,1,0-2.2-1.75A2,2,0,0,0,44.68,95.16Z" style="fill:#898989"/><path d="M39.83,89.42a2,2,0,1,0-2.2-1.75A2,2,0,0,0,39.83,89.42Z" style="fill:#898989"/><path d="M47.8,106.42a2.86,2.86,0,0,0-.65-5.68,2.86,2.86,0,1,0,.65,5.68Z" style="fill:#898989"/><path d="M24.18,103.87A2.86,2.86,0,1,0,21,101.36,2.86,2.86,0,0,0,24.18,103.87Z" style="fill:#898989"/><path d="M30.41,89.53A2.86,2.86,0,1,0,27.24,87,2.85,2.85,0,0,0,30.41,89.53Z" style="fill:#898989"/><rect x="23.35" y="96.25" width="22.9" height="1.56" transform="translate(-67.37 83.34) rotate(-62.64)" style="fill:#898989"/><rect x="35.01" y="85.06" width="1.56" height="25.28" transform="translate(-67.28 83.43) rotate(-61.99)" style="fill:#898989"/><rect x="23.72" y="96.2" width="21.76" height="1.56" transform="translate(-33.95 20.15) rotate(-22.11)" style="fill:#898989"/><rect x="33.64" y="85.74" width="1.56" height="21.76" transform="translate(-33.78 20.01) rotate(-22.07)" style="fill:#898989"/><path d="M425.75,134.41a5.36,5.36,0,1,0,3.93,6.49A5.36,5.36,0,0,0,425.75,134.41Z" style="fill:#898989"/><path d="M430.38,144.38a1.48,1.48,0,1,0,1.08,1.8A1.48,1.48,0,0,0,430.38,144.38Z" style="fill:#898989"/><path d="M431,133.13a1.48,1.48,0,1,0,1.08,1.79A1.47,1.47,0,0,0,431,133.13Z" style="fill:#898989"/><path d="M425.19,130.51a1.48,1.48,0,1,0,1.09,1.8A1.48,1.48,0,0,0,425.19,130.51Z" style="fill:#898989"/><path d="M417.17,138.74a1.48,1.48,0,0,0-.71,2.88,1.48,1.48,0,1,0,.71-2.88Z" style="fill:#898989"/><path d="M419.08,144a1.48,1.48,0,1,0,1.08,1.79A1.47,1.47,0,0,0,419.08,144Z" style="fill:#898989"/><path d="M417.91,130.05a2.13,2.13,0,1,0,1.56,2.58A2.13,2.13,0,0,0,417.91,130.05Z" style="fill:#898989"/><path d="M433.76,138a2.13,2.13,0,1,0,1.56,2.58A2.14,2.14,0,0,0,433.76,138Z" style="fill:#898989"/><path d="M425.69,146.36a2.13,2.13,0,1,0,1.56,2.58A2.12,2.12,0,0,0,425.69,146.36Z" style="fill:#898989"/><rect x="416.03" y="139.4" width="17.07" height="1.16" transform="translate(16.27 322.05) rotate(-42.28)" style="fill:#898989"/><polygon points="417.34 132.6 429.88 146.68 430.74 145.91 418.21 131.83 417.34 132.6" style="fill:#898989"/><rect x="416.58" y="139.49" width="16.23" height="1.17" transform="translate(-4.04 12.89) rotate(-1.73)" style="fill:#898989"/><rect x="424.14" y="132.25" width="1.16" height="16.23" transform="translate(-4.11 13.1) rotate(-1.76)" style="fill:#898989"/><path d="M300.43,55.78A7.55,7.55,0,1,0,311,54.19,7.56,7.56,0,0,0,300.43,55.78Z" style="fill:#898989"/><path d="M315.89,55.17a2.08,2.08,0,1,0,2.92-.44A2.09,2.09,0,0,0,315.89,55.17Z" style="fill:#898989"/><path d="M301.59,48.34a2.08,2.08,0,1,0,2.91-.44A2.09,2.09,0,0,0,301.59,48.34Z" style="fill:#898989"/><path d="M295.08,54.39A2.08,2.08,0,1,0,298,54,2.08,2.08,0,0,0,295.08,54.39Z" style="fill:#898989"/><path d="M301.41,69.26a2.09,2.09,0,1,0,2.92-.44A2.1,2.1,0,0,0,301.41,69.26Z" style="fill:#898989"/><path d="M309.28,69.64a2.09,2.09,0,1,0,2.92-.44A2.09,2.09,0,0,0,309.28,69.64Z" style="fill:#898989"/><path d="M290.54,63.61a3,3,0,1,0,4.19-.63A3,3,0,0,0,290.54,63.61Z" style="fill:#898989"/><path d="M309.37,47.3a3,3,0,1,0,4.19-.64A3,3,0,0,0,309.37,47.3Z" style="fill:#898989"/><path d="M315.93,62.32a3,3,0,1,0,4.19-.63A3,3,0,0,0,315.93,62.32Z" style="fill:#898989"/><rect x="306.21" y="48.33" width="1.64" height="24.01" transform="translate(-2.46 106.43) rotate(-19.59)" style="fill:#898989"/><polygon points="293.54 65.72 318.6 57.07 318.07 55.52 293 64.17 293.54 65.72" style="fill:#898989"/><rect x="295.8" y="59.4" width="22.82" height="1.64" transform="translate(141.28 325.69) rotate(-69.08)" style="fill:#898989"/><rect x="306.79" y="48.93" width="1.64" height="22.82" transform="translate(141.61 326.25) rotate(-69.12)" style="fill:#898989"/><path d="M438.14,212a8.12,8.12,0,1,0,8.12-8.11A8.13,8.13,0,0,0,438.14,212Z" style="fill:#898989"/><circle cx="453.36" cy="201.58" r="2.24" style="fill:#898989"/><path d="M434.39,204.81a2.24,2.24,0,1,0,2.24-2.24A2.24,2.24,0,0,0,434.39,204.81Z" style="fill:#898989"/><path d="M432.63,214.21a2.24,2.24,0,1,0,2.24-2.24A2.24,2.24,0,0,0,432.63,214.21Z" style="fill:#898989"/><path d="M447.6,223a2.24,2.24,0,1,0,2.24-2.25A2.24,2.24,0,0,0,447.6,223Z" style="fill:#898989"/><path d="M454.64,218.32a2.25,2.25,0,1,0,2.24-2.24A2.24,2.24,0,0,0,454.64,218.32Z" style="fill:#898989"/><path d="M434.58,225.07a3.22,3.22,0,1,0,3.22-3.22A3.22,3.22,0,0,0,434.58,225.07Z" style="fill:#898989"/><path d="M440.45,198.94a3.22,3.22,0,1,0,3.22-3.22A3.22,3.22,0,0,0,440.45,198.94Z" style="fill:#898989"/><path d="M455.72,207.75a3.22,3.22,0,1,0,3.22-3.22A3.22,3.22,0,0,0,455.72,207.75Z" style="fill:#898989"/><rect x="445.88" y="198.81" width="1.76" height="25.81" transform="translate(21.85 464.44) rotate(-56.1)" style="fill:#898989"/><rect x="431.63" y="211.86" width="28.5" height="1.76" transform="translate(17.95 459.6) rotate(-55.49)" style="fill:#898989"/><rect x="445.96" y="199.23" width="1.76" height="24.53" transform="translate(-40.43 128.03) rotate(-15.61)" style="fill:#898989"/><rect x="434.99" y="210.46" width="24.53" height="1.76" transform="translate(-40.31 127.77) rotate(-15.57)" style="fill:#898989"/><path d="M203.68,69.25a5.36,5.36,0,1,0,3.93,6.49A5.36,5.36,0,0,0,203.68,69.25Z" style="fill:#898989"/><path d="M208.31,79.23A1.48,1.48,0,1,0,209.39,81,1.47,1.47,0,0,0,208.31,79.23Z" style="fill:#898989"/><path d="M208.88,68A1.48,1.48,0,1,0,210,69.76,1.49,1.49,0,0,0,208.88,68Z" style="fill:#898989"/><path d="M203.12,65.35a1.48,1.48,0,1,0,1.09,1.8A1.48,1.48,0,0,0,203.12,65.35Z" style="fill:#898989"/><path d="M195.1,73.58a1.48,1.48,0,0,0-.71,2.88,1.48,1.48,0,1,0,.71-2.88Z" style="fill:#898989"/><path d="M197,78.85a1.48,1.48,0,1,0,1.08,1.79A1.49,1.49,0,0,0,197,78.85Z" style="fill:#898989"/><path d="M195.84,64.9a2.13,2.13,0,1,0,1.56,2.57A2.12,2.12,0,0,0,195.84,64.9Z" style="fill:#898989"/><path d="M211.69,72.79a2.13,2.13,0,1,0,1.56,2.58A2.14,2.14,0,0,0,211.69,72.79Z" style="fill:#898989"/><path d="M203.62,81.21a2.13,2.13,0,1,0,1.56,2.57A2.13,2.13,0,0,0,203.62,81.21Z" style="fill:#898989"/><rect x="193.96" y="74.24" width="17.07" height="1.16" transform="translate(2.34 155.7) rotate(-42.28)" style="fill:#898989"/><polygon points="195.27 67.44 207.81 81.52 208.67 80.75 196.14 66.67 195.27 67.44" style="fill:#898989"/><rect x="194.51" y="74.33" width="16.23" height="1.17" transform="translate(-2.17 6.15) rotate(-1.73)" style="fill:#898989"/><rect x="202.07" y="67.09" width="1.16" height="16.23" transform="translate(-2.21 6.25) rotate(-1.76)" style="fill:#898989"/><path d="M375,11.22a3.78,3.78,0,1,0-2.05-5A3.78,3.78,0,0,0,375,11.22Z" style="fill:#898989"/><path d="M372.84,3.77a1,1,0,1,0-.56-1.37A1,1,0,0,0,372.84,3.77Z" style="fill:#898989"/><path d="M371.24,11.55a1,1,0,0,0,1.37-.56,1,1,0,1,0-1.93-.8A1,1,0,0,0,371.24,11.55Z" style="fill:#898989"/><path d="M375,14a1,1,0,1,0-.56-1.36A1,1,0,0,0,375,14Z" style="fill:#898989"/><path d="M381.45,9.12a1,1,0,1,0-.57-1.37A1,1,0,0,0,381.45,9.12Z" style="fill:#898989"/><path d="M380.68,5.24a1,1,0,1,0,.8-1.93,1,1,0,0,0-.8,1.93Z" style="fill:#898989"/><path d="M380,15.09a1.51,1.51,0,1,0-.81-2A1.51,1.51,0,0,0,380,15.09Z" style="fill:#898989"/><path d="M369.8,7.89a1.5,1.5,0,1,0-.81-2A1.49,1.49,0,0,0,369.8,7.89Z" style="fill:#898989"/><path d="M376.32,2.89a1.5,1.5,0,1,0-.81-2A1.5,1.5,0,0,0,376.32,2.89Z" style="fill:#898989"/><polygon points="381.67 4.47 381.21 3.79 371.19 10.45 371.64 11.13 381.67 4.47" style="fill:#898989"/><rect x="376.3" y="1.38" width="0.82" height="13.29" transform="translate(56.26 206.22) rotate(-32.96)" style="fill:#898989"/><rect x="375.94" y="1.66" width="0.82" height="11.44" transform="translate(323.44 380.07) rotate(-83.04)" style="fill:#898989"/><rect x="370.64" y="6.77" width="11.44" height="0.82" transform="translate(323.61 379.89) rotate(-83.04)" style="fill:#898989"/><path d="M120.35,62.72a3.78,3.78,0,1,0-2-4.94A3.79,3.79,0,0,0,120.35,62.72Z" style="fill:#898989"/><path d="M118.18,55.27a1,1,0,1,0,.8-1.93,1,1,0,0,0-.8,1.93Z" style="fill:#898989"/><path d="M116.58,63.06a1,1,0,1,0-.56-1.37A1,1,0,0,0,116.58,63.06Z" style="fill:#898989"/><path d="M120.31,65.5a1.05,1.05,0,1,0-.56-1.37A1.05,1.05,0,0,0,120.31,65.5Z" style="fill:#898989"/><path d="M126.79,60.62a1,1,0,0,0,.8-1.93,1,1,0,1,0-.8,1.93Z" style="fill:#898989"/><path d="M126,56.75a1,1,0,1,0,.8-1.94,1,1,0,0,0-.8,1.94Z" style="fill:#898989"/><path d="M125.34,66.59a1.5,1.5,0,1,0-.81-2A1.5,1.5,0,0,0,125.34,66.59Z" style="fill:#898989"/><path d="M115.14,59.4a1.5,1.5,0,1,0-.81-2A1.5,1.5,0,0,0,115.14,59.4Z" style="fill:#898989"/><path d="M121.66,54.39a1.5,1.5,0,1,0-.81-2A1.49,1.49,0,0,0,121.66,54.39Z" style="fill:#898989"/><rect x="115.75" y="58.55" width="12.04" height="0.82" transform="translate(-12.3 77.1) rotate(-33.54)" style="fill:#898989"/><rect x="121.64" y="52.88" width="0.82" height="13.29" transform="translate(-12.74 75.98) rotate(-32.96)" style="fill:#898989"/><rect x="121.28" y="53.17" width="0.82" height="11.44" transform="translate(48.5 172.55) rotate(-83.05)" style="fill:#898989"/><rect x="115.98" y="58.27" width="11.44" height="0.82" transform="translate(48.7 172.37) rotate(-83.04)" style="fill:#898989"/><path d="M288,130.75a3.78,3.78,0,1,0-2.05-5A3.78,3.78,0,0,0,288,130.75Z" style="fill:#898989"/><path d="M285.87,123.3a1,1,0,1,0-.56-1.37A1,1,0,0,0,285.87,123.3Z" style="fill:#898989"/><path d="M284.27,131.08a1,1,0,1,0-.56-1.36A1,1,0,0,0,284.27,131.08Z" style="fill:#898989"/><path d="M288,133.52a1,1,0,1,0-.56-1.37A1,1,0,0,0,288,133.52Z" style="fill:#898989"/><path d="M294.47,128.65a1.05,1.05,0,0,0,1.37-.57,1,1,0,0,0-1.93-.8A1.06,1.06,0,0,0,294.47,128.65Z" style="fill:#898989"/><path d="M293.71,124.77a1,1,0,1,0,.8-1.93,1,1,0,0,0-.8,1.93Z" style="fill:#898989"/><path d="M293,134.62a1.51,1.51,0,1,0-.81-2A1.51,1.51,0,0,0,293,134.62Z" style="fill:#898989"/><path d="M282.83,127.42a1.5,1.5,0,1,0-.81-2A1.49,1.49,0,0,0,282.83,127.42Z" style="fill:#898989"/><path d="M289.35,122.42a1.5,1.5,0,1,0-.81-2A1.5,1.5,0,0,0,289.35,122.42Z" style="fill:#898989"/><polygon points="294.69 124 294.24 123.32 284.22 129.98 284.67 130.66 294.69 124" style="fill:#898989"/><rect x="289.33" y="120.91" width="0.82" height="13.29" transform="translate(-22.76 178.16) rotate(-32.96)" style="fill:#898989"/><rect x="288.96" y="121.19" width="0.82" height="11.44" transform="translate(128.35 398.78) rotate(-83.04)" style="fill:#898989"/><rect x="283.67" y="126.3" width="11.44" height="0.82" transform="translate(128.54 398.6) rotate(-83.04)" style="fill:#898989"/></g><path d="M238.78,228.61a2,2,0,0,1-2,2h-158a2,2,0,0,1-2-2h0a2,2,0,0,1,2-2h158a2,2,0,0,1,2,2Z" style="fill:#b5b5b5;opacity:0.2"/><path d="M238.78,134.61a2,2,0,0,1-2,2h-158a2,2,0,0,1-2-2h0a2,2,0,0,1,2-2h158a2,2,0,0,1,2,2Z" style="fill:#b5b5b5;opacity:0.2"/></g></g></g></svg>