<?xml version="1.0" encoding="utf-8"?>
<!-- Generator: Adobe Illustrator 23.1.0, SVG Export Plug-In . SVG Version: 6.00 Build 0)  -->
<svg version="1.1" xmlns="http://www.w3.org/2000/svg" xmlns:xlink="http://www.w3.org/1999/xlink" x="0px" y="0px"
	 viewBox="0 0 733.5 457.7" style="enable-background:new 0 0 733.5 457.7;" xml:space="preserve">
<style type="text/css">
	.st0{fill:#FFFFFF;}
	.st1{opacity:0.2;fill:#FFFFFF;}
	.st2{opacity:0.2;}
	.st3{fill:#898989;}
	.st4{opacity:0.2;fill:#B2B2B2;}
	.st5{fill:#858585;}
	.st6{fill:#ABABAB;}
	.st7{fill:#B5B5B5;}
	.st8{fill:#CCCCCC;}
	.st9{fill:#181818;}
	.st10{clip-path:url(#SVGID_2_);}
	.st11{fill:#A8A8A8;}
	.st12{fill:#929292;}
	.st13{fill:#CDCDCD;}
	.st14{fill:#9A9A9A;}
	.st15{fill:#B2B2B2;}
	.st16{fill:#3E3E3E;}
	.st17{fill:#D5D5D5;}
	.st18{fill:#878787;}
	.st19{fill:#434343;}
	.st20{fill:#202020;}
	.st21{fill:#D1D1D1;}
	.st22{fill:#6D6D6D;}
	.st23{fill:#5C5C5C;}
	.st24{fill:#BFBFBF;}
	.st25{fill:#A5A5A5;}
	.st26{fill:none;stroke:#EDEDED;stroke-linecap:round;stroke-linejoin:round;stroke-miterlimit:10;stroke-dasharray:3;}
	.st27{clip-path:url(#SVGID_2_);fill:#181818;}
	.st28{fill:none;stroke:#181818;stroke-width:3;stroke-linecap:round;stroke-linejoin:round;stroke-miterlimit:10;}
	.st29{fill:#2D2D2D;}
	.st30{opacity:0.2;fill:#B5B5B5;}
</style>
<g id="BACKGROUND">
	<rect x="-579.5" y="-136.4" class="st0" width="500" height="500"/>
</g>
<g id="OBJECTS">
	<path class="st1" d="M405.1,163.2c1-9.5,9-17,18.8-17c2.7,0,5.2,0.6,7.5,1.5c3.6-7.8,11.5-13.2,20.7-13.2c0.4,0,0.8,0,1.2,0
		c3.2-6.1,9.5-10.2,16.8-10.2c9.7,0,17.7,7.3,18.8,16.7c1.6-0.4,3.3-0.7,5-0.7c7.8,0,14.5,4.7,17.4,11.4c1.4-0.5,2.9-0.8,4.5-0.8
		c7,0,12.8,5.3,13.5,12.1H405.1z"/>
	<g class="st2">
		<path class="st3" d="M252.7,242.4h-23c-0.6,0-1-0.4-1-1c0-0.6,0.4-1,1-1h23c0.6,0,1,0.4,1,1C253.7,241.9,253.3,242.4,252.7,242.4z
			"/>
		<path class="st3" d="M248,263.4h-23c-0.6,0-1-0.4-1-1s0.4-1,1-1h23c0.6,0,1,0.4,1,1S248.6,263.4,248,263.4z"/>
		<path class="st3" d="M232,251.4h-23c-0.6,0-1-0.4-1-1c0-0.6,0.4-1,1-1h23c0.6,0,1,0.4,1,1C233,250.9,232.6,251.4,232,251.4z"/>
		<path class="st3" d="M249,251.4h-10c-0.6,0-1-0.4-1-1c0-0.6,0.4-1,1-1h10c0.6,0,1,0.4,1,1C250,250.9,249.6,251.4,249,251.4z"/>
		<path class="st3" d="M251,273.4h-10c-0.6,0-1-0.4-1-1s0.4-1,1-1h10c0.6,0,1,0.4,1,1S251.6,273.4,251,273.4z"/>
	</g>
	
		<rect x="226.5" y="357.2" transform="matrix(-1 -1.224647e-16 1.224647e-16 -1 889.9252 723.5294)" class="st4" width="437" height="9.2"/>
	<g class="st2">
		<g>
			<rect x="494" y="278.5" class="st5" width="110" height="46"/>
			<g>
				<path class="st5" d="M491,311.3c0,7.2-5.8,13.1-13.1,13.1H266.3c-7.2,0-13.1-5.8-13.1-13.1l0,0c0-7.2,5.8-13.1,13.1-13.1H478
					C485.2,298.2,491,304.1,491,311.3L491,311.3z"/>
				<g>
					<path class="st5" d="M472.6,301.1V175.4c0-11.6-9.4-21.1-21.1-21.1H279.8c-11.6,0-21.1,9.4-21.1,21.1v125.8H472.6z"/>
					<path class="st6" d="M266.6,183.3c0-11.6,9.4-21.1,21.1-21.1h171.8c3.8,0,7.3,1,10.4,2.7c-3.6-6.4-10.5-10.7-18.3-10.7H279.8
						c-11.6,0-21.1,9.4-21.1,21.1v125.8h7.9V183.3z"/>
					<g>
						<path class="st7" d="M609.8,262.9c0,7.9-6.4,14.2-14.2,14.2h-109c-7.9,0-14.2-6.4-14.2-14.2v-95.3c0-7.9,6.4-14.2,14.2-14.2
							h88.3c7.9,0,14.2,6.4,14.2,14.2L609.8,262.9z"/>
						<path class="st8" d="M486.6,159h88.3c7.9,0,14.2,6.4,14.2,14.2l20.2,93.2c0.3-1.1,0.5-2.3,0.5-3.5l-20.7-95.3
							c0-7.9-6.4-14.2-14.2-14.2h-88.3c-7.9,0-14.2,6.4-14.2,14.2v5.6C472.4,165.4,478.7,159,486.6,159z"/>
						<path class="st7" d="M639.9,319.3c0,4.1-1.3,5.2-9.1,5.2h-44c-0.4-5.1-1.8-9.8-4-14.1c-6.1-11.6-18.2-19.5-32.2-19.5
							c-14,0-26.1,7.9-32.2,19.5c-2.2,4.3-3.6,9-4,14.1h-42.1v-64.7h149.4c7.9,0,9.1,5.5,9.1,9.6L639.9,319.3z"/>
						<path class="st9" d="M647.3,313.2c0-1.3-0.4-3-2.8-3h-37.3l3.7,19.9h36.4c2.4,0,2.8-0.3,2.8-1.6L647.3,313.2z"/>
						<path class="st9" d="M246.4,313.2c0-1.3,0.4-3,2.8-3h37.3l-3.7,19.9h-36.4c-2.4,0-2.8-0.3-2.8-1.6L246.4,313.2z"/>
						<path class="st5" d="M629.2,285.8c1,10.2-1.9,18.9-6.4,19.4c-4.6,0.5-9.1-7.5-10.1-17.7c-1-10.2,1.9-18.9,6.4-19.4
							C623.7,267.6,628.2,275.5,629.2,285.8z"/>
						<path class="st8" d="M604,306.8c0,2.9-0.9,3.7-6.6,3.7h-14.5c-6.1-11.6-18.2-19.5-32.2-19.5c-14,0-26.1,7.9-32.2,19.5h-34.9
							v-46.4h107.3c5.6,0,6.6,4,6.6,6.9L604,306.8z"/>
						<g>
							<path class="st0" d="M593.4,238.4c0,5.4-4.4,9.8-9.8,9.8h-89c-5.4,0-9.8-4.4-9.8-9.8v-65.9c0-5.4,4.4-9.8,9.8-9.8h74.7
								c5.4,0,9.8,4.4,9.8,9.8L593.4,238.4z"/>
							<g>
								<defs>
									<path id="SVGID_1_" d="M593.4,238.4c0,5.4-4.4,9.8-9.8,9.8h-89c-5.4,0-9.8-4.4-9.8-9.8v-65.9c0-5.4,4.4-9.8,9.8-9.8h74.7
										c5.4,0,9.8,4.4,9.8,9.8L593.4,238.4z"/>
								</defs>
								<clipPath id="SVGID_2_">
									<use xlink:href="#SVGID_1_"  style="overflow:visible;"/>
								</clipPath>
								<g class="st10">
									<g>
										<path class="st0" d="M541.3,208.6c-0.3,0-0.6,0-0.8,0c-9.3-0.5-12.9-6-13-6.2l-4-4.8c-0.1-0.1-0.1-0.4,0-0.5
											c0.1-0.1,0.4-0.1,0.5,0l4,4.9c0.1,0.1,3.5,5.5,12.5,5.9c6.2,0.3,9.2-3.2,9.2-3.3c0.1-0.1,0.3-0.2,0.5,0
											c0.1,0.1,0.2,0.3,0,0.5C550.1,205.3,547.3,208.6,541.3,208.6z"/>
										<g>
											<g>
												<path class="st11" d="M565.8,256.9c-12.7-10.3-28-12.1-29.4-12.2c-2.7-4.9-6.6-10.6-10.7-15.6l-11.4,4.1
													c0,0,4.1,14.5,18.6,22c1.9,1,3.4,1.5,4.5,1.6c4.7,1.9,11.8,3.1,18.1,5.2C563,264.7,571.6,261.6,565.8,256.9z
													 M536.7,245.1C536.7,245.1,536.7,245.2,536.7,245.1c-0.1,0-0.1-0.1-0.1-0.1L536.7,245.1z"/>
												<path class="st11" d="M532,271.7c0,0.2,0,0.5,0,0.7c-0.5,3.3-9,1.5-17.3-0.4c-4.3-1-8.5-2.1-11.6-2.5
													c-0.4,0,1.1-15.9,3.2-30c0,0,0,0,0,0c0.3-1.5,0.6-2.9,0.9-4.3c0,0,5.4-13.2,10.1-14.2c0,0,0,0,0,0c0.5,0,1,0.1,1.6,0.2
													c0.6,0.1,1.2,0.3,1.8,0.5c2.2,0.7,4.6,0.6,6.8,1.4c0.4,0.1,0.8,0.4,1.2,0.9c2.1,2.2,4.1,7.8,4.5,11.8
													c1.2,10.2-1,24.2-1.2,30.3c-0.1,1.4-0.1,4.6,0,5.5v0C532,271.6,532,271.6,532,271.7z"/>
												<path class="st12" d="M555.5,258.1c-6.3-2.2-13.4-3.3-18.1-5.2c-1.1-0.1-2.6-0.6-4.5-1.6c-10-5.2-15-13.7-17.2-18.4
													l-1.4,0.5c0,0,4.1,14.5,18.6,22c1.9,1,3.4,1.5,4.5,1.6c4.7,1.9,11.8,3.1,18.1,5.2c7.1,2.4,15.2-0.2,11.1-4.5
													C564.5,259.1,559.8,259.5,555.5,258.1z"/>
												<g>
													<path class="st13" d="M552.1,210.2c-1.4,4-3.4,7.5-5.7,9.3c-0.2,0.1-0.3,0.2-0.5,0.3c-3,1.9-8.3,2.4-13.4,1.7
														c-4.8-0.6-9.3-2.3-11.6-4.7c-5.4-5.6-5.6-23.9,0.9-28.1c5.2-3.4,21.2-1.9,27.8,2l0.5,13l0.1,0.8c0,0,0,0,0,0
														c0.1,0,0.5-0.1,1-0.1c0.2,0,0.3,0,0.5,0c0.5,0,1.2,0.1,1.8,0.2c0,0.1,0,0.2-0.1,0.3c0.4,0.3,0.8,0.8,0.9,1.5
														C554.5,208.6,553,209.7,552.1,210.2z"/>
													<path class="st14" d="M538.6,206.4c-0.1,0.6,1.5,1.3,3.4,1.5c2,0.2,3.6-0.1,3.7-0.7c0.1-0.6-1.5-1.3-3.4-1.5
														C540.3,205.5,538.7,205.8,538.6,206.4"/>
													<path class="st13" d="M521.9,218.4c-1.1,1.5-2.4,2.6-3.3,3.3c2.5,6.7,8.7,6.8,8.7,6.8c0.1-0.6,0.3-1.4,0.6-2.2
														c0.3-0.8,0.7-1.7,1.2-2.7c1.1-2.1,2.5-3.6,3.7-4.5c0.3-0.3,0.6-0.5,0.9-0.7l-8.7-6.8c-0.1,0.5-0.3,1.1-0.5,1.7
														c-0.4,1.1-0.9,2.5-1.7,3.8C522.5,217.6,522.2,218,521.9,218.4"/>
													<path class="st15" d="M529.2,215l-4.3-3.3c-0.1,0.5-0.3,1.1-0.5,1.7c-0.4,1.1-0.9,2.5-1.7,3.8
														c-0.2,0.4-0.5,0.8-0.8,1.2c-1.1,1.5-2.4,2.6-3.3,3.3c0.9,2.4,2.3,4,3.6,5C523.4,222.1,525.8,218.1,529.2,215"/>
													<path class="st15" d="M524.4,213.4c-0.4,1.1-2.2,4.3-3,5.6c1.2,2.9,2.3,10.3,5.6,11c0.3-0.8,1.5-5.5,2-6.4
														c1.1-2.1,2.5-3.6,3.7-4.5c0-0.6,0-1.1,0-1.4c0-0.4,0-0.6,0-0.6l-1.8-0.8L524.4,213.4z"/>
													<path class="st15" d="M536.5,220.9c-6.7-1.9-11.9-7.5-14-13.6c-1.9,0.3-3.3,1-5.2,0.8c0.6,3.6,1.8,6.9,3.6,8.7
														c3.6,3.7,12.8,5.6,19.5,4.7C539,221.5,537.7,221.3,536.5,220.9"/>
													<path class="st15" d="M549.6,190.8c-5.1-3-15.7-4.6-22.7-3.6c-1.1,1.8-1.9,3.4-2,3.9c-0.2,1.3,1.4,6.5,1.4,6.5
														s5.1-1.7,6.2-4.4c0,0,10.9,2.8,17.4,3L549.6,190.8z"/>
													<path class="st9" d="M551.3,193.7c4-0.4,7.3-3.9,6.8-7.9c0-0.1-0.4-4.3-0.5-4.3c-10.2-1.6-18.8-8.1-33.5,0.9
														c0,0-2.6-2-5.8-0.1c-3.2,1.9-3.6,9.7-1.5,12.6l8.1-5.2C525,189.8,541,194.7,551.3,193.7"/>
													<path class="st9" d="M519.9,181.7c-9.7,4.2-5.3,32.3-0.3,31.4c8.5-1.6,1.7-3,2.2-11c0.5-8,3.9-1.9,3.9-1.9
														s0.4-8,2.3-9.5c2-1.6,0.3-2.7,0-2.8C527.7,187.7,519.9,181.7,519.9,181.7"/>
													<path class="st9" d="M531.8,191.5l1.1-4c-2.4,0.3-4.2,0.8-5,1.2c-2.6,1.5-4.3,7.9-4.3,7.9l0.2,3.1c0,0,0.1,6.1,0.6,7
														c0.5,0.9,1.7,2,1.5,1.4c-0.3-0.6,0.9-9.1,1-10.8C527,195.6,529,196.4,531.8,191.5C531.7,191.5,531.8,191.5,531.8,191.5
														"/>
													<path class="st16" d="M521.8,183.2c-1.1-0.9-2-1.5-2-1.5c-9.7,4.2-5.3,32.3-0.3,31.4c1.1-0.2,1.9-0.4,2.5-0.6
														C518.2,208.7,515.8,189.5,521.8,183.2z"/>
													<path class="st7" d="M513.8,194.9c0,0,23.1-7.5,31.1-9.8c8-2.2,16-4.4,16-4.4s0.9-3.1-4.4-2.2c-5.3,0.9-9.8,0-9.8,0
														l-7.4-5.3c0,0-5.4-4.9-13.9-0.5c-5.6,3-9.2,5.4-9.2,5.4s-2.9,3.8-2.9,8.8C513.2,193.7,513.8,194.9,513.8,194.9z"/>
													<path class="st17" d="M518.2,187c0-5,2.9-8.8,2.9-8.8s3.5-2.5,9.2-5.4c1.6-0.8,3.1-1.3,4.4-1.6
														c-2.4-0.5-5.6-0.4-9.4,1.6c-5.6,3-9.2,5.4-9.2,5.4s-2.9,3.8-2.9,8.8c0,6.8,0.5,7.9,0.5,7.9s1.9-0.6,4.7-1.5
														C518.3,192.2,518.2,190.3,518.2,187z"/>
													<path class="st18" d="M556.4,178.5c-5.3,0.9-9.8,0-9.8,0l-0.5-0.4c-1.7,2.8-3.5,5.5-5.3,8.2c1.6-0.5,3-0.9,4-1.2
														c8-2.2,16-4.4,16-4.4S561.7,177.6,556.4,178.5z"/>
													<path class="st19" d="M540.9,198.8c-0.2,0-0.3-0.1-0.5-0.2c-0.3-0.3-0.3-0.7,0-1c0.7-0.8,2.7-1.8,4.9-0.3
														c0.3,0.2,0.4,0.6,0.2,0.9c-0.2,0.3-0.6,0.4-0.9,0.2c-1.8-1.3-3.1,0.1-3.2,0.1C541.3,198.7,541.1,198.8,540.9,198.8z"/>
													<path class="st19" d="M542.6,202c-0.1,1,0.2,1.9,0.7,2c0.5,0.1,1-0.7,1.1-1.8c0.1-1-0.2-1.9-0.7-2
														C543.3,200.2,542.8,201,542.6,202"/>
													<path class="st13" d="M524.1,198.1"/>
													<path class="st13" d="M524.1,198.1c-0.3-1-3.2-1.7-5.1-0.8c-1.9,1-0.9,6.6,0.9,7.6c1.4,0.8,4.4-0.1,3.7,0.6"/>
													<path class="st19" d="M522.2,200.8c0.2,1.1-0.1,2.1-0.6,2.2c-0.5,0.1-0.3-0.9-0.4-2.1c-0.2-1.1-0.7-2-0.2-2.1
														C521.5,198.8,522.1,199.7,522.2,200.8"/>
													<path class="st11" d="M552.1,210.2c-1.4,4-3.4,7.5-5.7,9.3c-0.2,0.1-0.3,0.2-0.5,0.3c-3,1.9-5.9,2.9-11,2.2
														c-0.7-0.6-3.1-2.7-4-6.2c-0.7-2.6-2.7-12-2.4-12.6c0,0,2.7,2.3,3.8,2.8c9.1,4.2,13.3,2.1,19-1.4c0.2,0,0.3,0,0.5,0
														c0.5,0,1.2,0.1,1.8,0.2c0,0.1,0,0.2-0.1,0.3c0.4,0.3,0.8,0.8,0.9,1.5C554.5,208.6,553,209.7,552.1,210.2z"/>
													<path class="st12" d="M553.8,205.5c-0.5,0.7-1.2,1.2-1.7,1.5c-1.4,4-3.4,7.5-5.7,9.3c-0.2,0.1-0.3,0.2-0.5,0.3
														c-3,1.9-5.9,2.9-11,2.2c-0.7-0.6-3.1-2.7-4-6.2c-0.4-1.6-1.4-5.9-1.9-9.1c-0.3-0.2-0.5-0.4-0.5-0.4
														c-0.2,0.7,1.8,10,2.4,12.6c0.9,3.6,3.3,5.6,4,6.2c5.1,0.7,8-0.3,11-2.2c0.1-0.1,0.3-0.2,0.5-0.3
														c2.3-1.8,4.4-5.3,5.7-9.3c1-0.5,2.4-1.6,2.2-3.6C554.2,206.1,554,205.8,553.8,205.5z"/>
													<path class="st19" d="M551.3,210.8c-0.1,0-0.3-0.1-0.3-0.2c-0.1-0.2,0.1-0.4,0.2-0.4c0.1,0,3-0.9,2.7-3.5
														c-0.1-0.5-0.3-0.9-0.7-1.2c-1.1-0.8-3-0.5-3-0.5c-0.2,0-0.3-0.1-0.4-0.3c-0.1-0.3-0.1-1-0.1-2c0-0.2,0.1-0.3,0.3-0.3
														c0.2,0,0.3,0.2,0.3,0.3c0,0.8,0,1.3,0.1,1.5c0.7-0.1,2.2-0.1,3.2,0.7c0.5,0.4,0.8,0.9,0.9,1.6
														C555,209.8,551.5,210.8,551.3,210.8C551.4,210.8,551.4,210.8,551.3,210.8z"/>
												</g>
												<path class="st12" d="M532,272.3c-1.7,0.3-7.2-1.4-6.8-0.1c-3.2,0.6-6.8,0.3-10.4-0.3c-4.3-0.7-8.5-1.8-11.6-2.3
													c-0.5-0.1,0.7-17.3,3.2-30.2c0,0,0,0,0,0c0.3-1.5,0.6-2.9,0.9-4.3c0,0,5.4-13.2,10.1-14.2c0,0,0,0,0,0
													c0.5-0.1,1.1-0.1,1.6,0.2c0.1,0,0.2,0.1,0.3,0.2c0,0-6.9,8.1-0.5,13.9c2.6,2.4,5.4,7.4,5.4,7.4s-9.3-0.7-11.7,2.1
													c-2.3,2.8-5.6,14.8-3.4,18.2c3.1,4.8,17.8,5,23,8.7v0c0.2,0.1,0.3,0.2,0.5,0.4C532.6,272.1,532.4,272.3,532,272.3z"/>
											</g>
											<g>
												<path class="st13" d="M576.1,254.6c0,0,0.6-0.1,1.3,0.7c0.7,0.9,0.3,1.7,0.3,1.7s1,0,1.7,1.3c0.7,1.3-0.5,1.8-0.5,1.8
													s-0.7-0.6-3.8-1c-3.1-0.4-4.8,1-4.8,1s-2.5,1.7-2.6,4.5l0,0c0,0,2,2,1.9,3.2c-0.1,1.2-0.9,1.8-1.5,0.9
													c-0.6-0.9-3.8-5.4-3.8-5.4l0,0c-1.8-2.1-0.7-6.9,1.1-7.9c4.7-2.6,8.6-3,9.9-2.5C576.4,253.6,576.1,254.6,576.1,254.6"/>
												<g>
													<g>
														<path class="st20" d="M545.7,332.2c0,0-0.2-0.2-0.4,0.6c-0.2,0.9,0.1,4.3,0.7,5c0.6,0.7,14.8,1,15.2-0.4
															c0.4-1.3-11.3-6.8-11.3-6.8L545.7,332.2z"/>
														<path class="st21" d="M550.4,328.7l0.4,2.7c0,0-2,1.8-5.1,0.8l-0.4-2.7L550.4,328.7z"/>
													</g>
													<path class="st22" d="M524.2,270.3l-20.9-1.1c0,0-2.3,9.4,4.8,16.8c3.5,3.5,14.9,4.7,18.9,5c3.6,0.3,7.6,0.4,11.4,0.1
														l5.9,38.8c0,0,6.6-0.1,7.6-2.7l-1.4-43.8c0,0-0.1,0-0.2-0.1C550.3,277.2,543.5,272.2,524.2,270.3z"/>
													<path class="st23" d="M545.4,326.9l-5.4-39.2c-3.7,0.3-7.8,0.1-11.4-0.1c-4-0.3-15.5-1.4-18.9-5
														c-4.5-4.6-5.3-10-5.2-13.4l-1.1-0.1c0,0-2.3,9.4,4.8,16.8c3.5,3.5,14.9,4.7,18.9,5c3.6,0.3,7.6,0.4,11.4,0.1l5.4,39.2
														c0,0,7.3,0.4,8.3-2.3l-0.4-1.1C549.7,328.3,545.4,326.9,545.4,326.9z"/>
												</g>
											</g>
										</g>
									</g>
									<path class="st12" d="M550,211.8c-3.1,3.2-8.9,3.5-13.1,3.1c-0.4,0-0.4,0.6,0,0.7c4.3,0.5,10.3,0,13.6-3.3
										C550.8,211.9,550.3,211.5,550,211.8z"/>
									<path class="st24" d="M542.5,210.1c-3,1-6,0-8.8-1.3c-0.4-0.2-0.7,0.4-0.3,0.6c2.9,1.4,6.1,2.5,9.3,1.4
										C543.1,210.6,542.9,210,542.5,210.1z"/>
									<path class="st24" d="M527.6,238.1c-3-4-4.5-10.3-10.6-10.2c-0.4,0-0.4,0.7,0,0.7c5.8-0.2,7.2,6,10,9.8
										C527.2,238.8,527.8,238.4,527.6,238.1z"/>
									<path class="st24" d="M555.8,252.3c-5.6-1.8-11.2-5-17.2-4.8c-0.4,0-0.4,0.7,0,0.7c6-0.2,11.5,2.9,17,4.7
										C556,253.1,556.2,252.4,555.8,252.3z"/>
									<path class="st7" d="M564,263.3c-0.2,0.9-1.1,1.5-2.1,1.2l0,0c-0.9-0.2-1.5-1.1-1.2-2.1l1.9-7.6c0.2-0.9,1.1-1.5,2.1-1.2
										l0,0c0.9,0.2,1.5,1.1,1.2,2.1L564,263.3z"/>
									<path class="st25" d="M565.4,254.1c0,0,0,0.1,0,0.1l-1.9,7.6c-0.2,0.9-1.1,1.5-2.1,1.2c-0.3-0.1-0.5-0.2-0.7-0.4
										c-0.2,0.9,0.4,1.7,1.3,1.9c0.9,0.2,1.8-0.3,2.1-1.2l1.9-7.6C566.1,255.1,565.9,254.5,565.4,254.1z"/>
									<path class="st26" d="M512.9,270.7c0,0-0.5,5.9,9.9,7.2c10.4,1.4,17.6,0.9,20.3,4.1c2.7,3.2,4.8,45.2,4.8,45.2"/>
								</g>
								<path class="st27" d="M579.1,253.9c0.4,2.5-1.2,5-3.8,5.4l0,0c-2.5,0.4-5-1.2-5.4-3.8l-3.7-20.8c-0.4-2.5,1.2-5,3.8-5.4l0,0
									c2.5-0.4,5,1.2,5.4,3.8L579.1,253.9z"/>
							</g>
						</g>
						<path class="st9" d="M617.7,236.7c0.4,2-0.9,4-2.9,4.4l0,0c-2,0.4-4-0.9-4.4-2.9l-3.5-16.6c-0.4-2,0.9-4,2.9-4.4l0,0
							c2-0.4,4,0.9,4.4,2.9L617.7,236.7z"/>
						<path class="st28" d="M610.3,229.7l-6.8,2.5c0,0-5,0.6-5,5c0,4.4,3.1,13.7,3.1,13.7"/>
						<path class="st9" d="M605.9,251.5c0,2.1-1.7,3.7-3.7,3.7c-2.1,0-3.7-1.7-3.7-3.7c0-2.1,1.7-3.7,3.7-3.7
							C604.2,247.8,605.9,249.4,605.9,251.5z"/>
						<path class="st0" d="M625.9,286.1c0.6,6.1-1.1,11.3-3.8,11.6c-2.7,0.3-5.4-4.5-6-10.6c-0.6-6.1,1.1-11.3,3.8-11.6
							C622.6,275.2,625.3,280,625.9,286.1z"/>
						<g>
							
								<ellipse transform="matrix(1.069660e-02 -0.9999 0.9999 1.069660e-02 218.0363 874.9945)" class="st9" cx="551.2" cy="327.3" rx="32.6" ry="32.6"/>
							<path class="st29" d="M522.3,327.3c0-17.4,13.6-31.6,30.8-32.6c-0.6,0-1.2-0.1-1.9-0.1c-18,0-32.6,14.6-32.6,32.6
								c0,18,14.6,32.6,32.6,32.6c0.6,0,1.2,0,1.9-0.1C535.9,358.9,522.3,344.7,522.3,327.3z"/>
							<circle class="st15" cx="551.2" cy="327.3" r="16.5"/>
							<path class="st15" d="M558.4,327.3c0,3.9-3.2,7.1-7.1,7.1s-7.1-3.2-7.1-7.1c0-3.9,3.2-7.1,7.1-7.1S558.4,323.4,558.4,327.3z"
								/>
						</g>
						<path class="st7" d="M586.6,271.7c0,0.9-0.8,1.6-1.7,1.6h-88c-0.9,0-1.7-0.7-1.7-1.6l0,0c0-0.9,0.8-1.6,1.7-1.6h88
							C585.9,270.1,586.6,270.8,586.6,271.7L586.6,271.7z"/>
						<path class="st5" d="M522.6,282.6c0,2.1-1.7,3.7-3.7,3.7h-18c-2.1,0-3.7-1.7-3.7-3.7l0,0c0-2.1,1.7-3.7,3.7-3.7h18
							C521,278.8,522.6,280.5,522.6,282.6L522.6,282.6z"/>
						<path class="st6" d="M458.4,299.7v-109c0-10.1-8.2-18.3-18.3-18.3H291.2c-10.1,0-18.3,8.2-18.3,18.3v109H458.4z"/>
						<g>
							
								<ellipse transform="matrix(1.179669e-02 -0.9999 0.9999 1.179669e-02 25.8054 680.725)" class="st9" cx="357.3" cy="327.3" rx="32.6" ry="32.6"/>
							<path class="st29" d="M328.4,327.3c0-17.4,13.6-31.6,30.8-32.6c-0.6,0-1.2-0.1-1.9-0.1c-18,0-32.6,14.6-32.6,32.6
								c0,18,14.6,32.6,32.6,32.6c0.6,0,1.2,0,1.9-0.1C342,358.9,328.4,344.7,328.4,327.3z"/>
							<circle class="st15" cx="357.3" cy="327.3" r="16.5"/>
							<path class="st15" d="M364.5,327.3c0,3.9-3.2,7.1-7.1,7.1c-3.9,0-7.1-3.2-7.1-7.1c0-3.9,3.2-7.1,7.1-7.1
								C361.3,320.2,364.5,323.4,364.5,327.3z"/>
						</g>
					</g>
				</g>
			</g>
		</g>
		<path class="st0" d="M541,208.7c-1.3,0-2.5-0.2-3.6-0.4c-7.3-1.6-14-7.4-15.2-11.5c-0.1-0.2,0.1-0.4,0.3-0.5
			c0.2-0.1,0.4,0.1,0.5,0.3c1.1,3.9,7.6,9.4,14.6,10.9c3.4,0.7,8.1,0.8,11.6-3.2c0.1-0.2,0.4-0.2,0.5,0c0.2,0.1,0.2,0.4,0,0.5
			C547.2,207.8,544,208.7,541,208.7z"/>
	</g>
	<g class="st2">
		<g>
			<g>
				<path class="st8" d="M399.3,266.2c-0.6,0-1.1-0.2-1.6-0.5c-0.7-0.5-1.2-1.3-1.2-2.2l-1.4-31.6c-0.1-1.3,0.8-2.4,2-2.8l27.6-8.6
					c0.8-0.3,1.7-0.1,2.5,0.4c0.7,0.5,1.2,1.3,1.2,2.2l1.4,31.6c0.1,1.3-0.8,2.4-2,2.8l-27.6,8.6
					C399.9,266.1,399.6,266.2,399.3,266.2z M400.8,233.8l1.2,25.8l22.1-6.9l-1.2-25.8L400.8,233.8z"/>
				<path class="st8" d="M399.4,266.4C399.4,266.4,399.4,266.4,399.4,266.4c-0.5,0-1.1-0.1-1.5-0.4l-22.6-14.1
					c-0.8-0.5-1.3-1.3-1.3-2.3l-1.4-31.6c0-1,0.5-2,1.4-2.6c0.9-0.5,2-0.5,2.9,0l22.6,14.1c0.8,0.5,1.3,1.3,1.3,2.3l1.4,31.3
					c0,0.2,0,0.3,0,0.5C402.2,265.2,401,266.4,399.4,266.4z M379.5,247.9l16.8,10.5l-1.1-24.8l-16.8-10.5L379.5,247.9z"/>
				<path class="st8" d="M397.9,234.8c-0.5,0-1-0.1-1.5-0.4l-22.6-14.1c-0.9-0.6-1.4-1.6-1.3-2.7c0.1-1.1,0.9-2,1.9-2.3l27.6-8.7
					c0.8-0.2,1.6-0.1,2.3,0.3l22.6,14.1c0.9,0.6,1.4,1.7,1.3,2.7c-0.1,1.1-0.9,2-1.9,2.3l-27.6,8.7
					C398.5,234.7,398.2,234.8,397.9,234.8z M381.9,218.7l16.4,10.2l20.6-6.5l-16.4-10.2L381.9,218.7z"/>
			</g>
		</g>
		<path class="st8" d="M377.5,218.6c0,1.6-1,2.8-2.2,2.8h-59.6c-1.2,0-2.3-1.3-2.3-2.8l0,0c0-1.6,1-2.8,2.3-2.8h59.6
			C376.5,215.8,377.5,217.1,377.5,218.6L377.5,218.6z"/>
		<path class="st8" d="M377.5,249c0,1.6-1,2.8-2.2,2.8h-59.6c-1.2,0-2.3-1.3-2.3-2.8l0,0c0-1.6,1-2.8,2.3-2.8h59.6
			C376.5,246.2,377.5,247.4,377.5,249L377.5,249z"/>
		<path class="st8" d="M324.4,234.7c0,1.6-1,2.8-2.3,2.8h-25.9c-1.2,0-2.2-1.3-2.2-2.8l0,0c0-1.6,1-2.8,2.2-2.8h25.9
			C323.4,231.9,324.4,233.1,324.4,234.7L324.4,234.7z"/>
		<path class="st8" d="M366,234.7c0,1.6-1,2.8-2.2,2.8h-25.9c-1.2,0-2.2-1.3-2.2-2.8l0,0c0-1.6,1-2.8,2.2-2.8h25.9
			C365,231.9,366,233.1,366,234.7L366,234.7z"/>
	</g>
	<g class="st2">
		<g>
			<path class="st3" d="M243.9,158.4c3.9-0.5,6.8-4,6.3-8c-0.4-3.9-4-6.8-8-6.3c-3.9,0.5-6.8,4-6.3,8
				C236.4,156,240,158.8,243.9,158.4z"/>
			<path class="st3" d="M233.5,148c1.1-0.1,1.9-1.1,1.8-2.2c-0.1-1.1-1.1-1.9-2.2-1.8c-1.1,0.1-1.9,1.1-1.8,2.2
				C231.4,147.3,232.4,148.1,233.5,148z"/>
			<path class="st3" d="M238,162.4c1.1-0.1,1.9-1.1,1.8-2.2c-0.1-1.1-1.1-1.9-2.2-1.8c-1.1,0.1-1.9,1.1-1.8,2.2
				C235.9,161.7,236.9,162.5,238,162.4z"/>
			<path class="st3" d="M246.5,163c1.1-0.1,1.9-1.1,1.8-2.2c-0.1-1.1-1.1-1.9-2.2-1.8c-1.1,0.1-1.9,1.1-1.8,2.2
				C244.4,162.4,245.4,163.1,246.5,163z"/>
			<path class="st3" d="M252.7,148.9c1.1-0.1,1.9-1.1,1.8-2.2c-0.1-1.1-1.1-1.9-2.2-1.8c-1.1,0.1-1.9,1.1-1.8,2.2
				C250.6,148.3,251.6,149.1,252.7,148.9z"/>
			<path class="st3" d="M247.9,143.2c1.1-0.1,1.9-1.1,1.8-2.2c-0.1-1.1-1.1-1.9-2.2-1.8c-1.1,0.1-1.9,1.1-1.8,2.2
				C245.8,142.5,246.8,143.3,247.9,143.2z"/>
			<path class="st3" d="M255.8,160.2c1.6-0.2,2.7-1.6,2.5-3.2c-0.2-1.6-1.6-2.7-3.2-2.5c-1.6,0.2-2.7,1.6-2.5,3.2
				C252.8,159.3,254.3,160.4,255.8,160.2z"/>
			<path class="st3" d="M232.2,157.7c1.6-0.2,2.7-1.6,2.5-3.2c-0.2-1.6-1.6-2.7-3.2-2.5c-1.6,0.2-2.7,1.6-2.5,3.2
				C229.2,156.7,230.6,157.8,232.2,157.7z"/>
			<path class="st3" d="M238.4,143.3c1.6-0.2,2.7-1.6,2.5-3.2c-0.2-1.6-1.6-2.7-3.2-2.5c-1.6,0.2-2.7,1.6-2.5,3.2
				C235.5,142.4,236.9,143.5,238.4,143.3z"/>
			
				<rect x="231.4" y="150" transform="matrix(0.4596 -0.8881 0.8881 0.4596 -2.7167 297.1587)" class="st3" width="22.9" height="1.6"/>
			
				<rect x="243" y="138.8" transform="matrix(0.4696 -0.8829 0.8829 0.4696 -4.4152 295.6189)" class="st3" width="1.6" height="25.3"/>
			
				<rect x="231.8" y="150" transform="matrix(0.9265 -0.3764 0.3764 0.9265 -38.8991 102.3991)" class="st3" width="21.8" height="1.6"/>
			
				<rect x="241.7" y="139.5" transform="matrix(0.9268 -0.3757 0.3757 0.9268 -38.7434 102.1023)" class="st3" width="1.6" height="21.8"/>
		</g>
		<g>
			<path class="st3" d="M633.8,188.2c-2.9-0.7-5.8,1.1-6.5,3.9c-0.7,2.9,1.1,5.8,3.9,6.5c2.9,0.7,5.8-1.1,6.5-3.9
				C638.4,191.8,636.7,188.9,633.8,188.2z"/>
			<path class="st3" d="M638.4,198.2c-0.8-0.2-1.6,0.3-1.8,1.1c-0.2,0.8,0.3,1.6,1.1,1.8c0.8,0.2,1.6-0.3,1.8-1.1
				C639.7,199.2,639.2,198.4,638.4,198.2z"/>
			<path class="st3" d="M639,186.9c-0.8-0.2-1.6,0.3-1.8,1.1c-0.2,0.8,0.3,1.6,1.1,1.8c0.8,0.2,1.6-0.3,1.8-1.1
				C640.3,187.9,639.8,187.1,639,186.9z"/>
			<path class="st3" d="M633.2,184.3c-0.8-0.2-1.6,0.3-1.8,1.1c-0.2,0.8,0.3,1.6,1.1,1.8c0.8,0.2,1.6-0.3,1.8-1.1
				C634.5,185.3,634,184.5,633.2,184.3z"/>
			<path class="st3" d="M625.2,192.5c-0.8-0.2-1.6,0.3-1.8,1.1c-0.2,0.8,0.3,1.6,1.1,1.8c0.8,0.2,1.6-0.3,1.8-1.1
				C626.5,193.5,626,192.7,625.2,192.5z"/>
			<path class="st3" d="M627.1,197.8c-0.8-0.2-1.6,0.3-1.8,1.1c-0.2,0.8,0.3,1.6,1.1,1.8c0.8,0.2,1.6-0.3,1.8-1.1
				C628.4,198.8,627.9,198,627.1,197.8z"/>
			<path class="st3" d="M625.9,183.8c-1.1-0.3-2.3,0.4-2.6,1.6c-0.3,1.1,0.4,2.3,1.6,2.6c1.1,0.3,2.3-0.4,2.6-1.6
				C627.8,185.3,627.1,184.1,625.9,183.8z"/>
			<path class="st3" d="M641.8,191.7c-1.1-0.3-2.3,0.4-2.6,1.6c-0.3,1.1,0.4,2.3,1.6,2.6c1.1,0.3,2.3-0.4,2.6-1.6
				C643.6,193.2,642.9,192,641.8,191.7z"/>
			<path class="st3" d="M633.7,200.1c-1.1-0.3-2.3,0.4-2.6,1.6c-0.3,1.1,0.4,2.3,1.6,2.6c1.1,0.3,2.3-0.4,2.6-1.6
				C635.6,201.6,634.9,200.4,633.7,200.1z"/>
			
				<rect x="624.1" y="193.2" transform="matrix(0.7399 -0.6728 0.6728 0.7399 34.2112 475.9952)" class="st3" width="17.1" height="1.2"/>
			<polygon class="st3" points="625.4,186.4 637.9,200.5 638.8,199.7 626.2,185.6 			"/>
			
				<rect x="624.6" y="193.3" transform="matrix(0.9995 -3.019822e-02 3.019822e-02 0.9995 -5.5653 19.1955)" class="st3" width="16.2" height="1.2"/>
			
				<rect x="632.2" y="186" transform="matrix(0.9995 -3.069064e-02 3.069064e-02 0.9995 -5.6603 19.511)" class="st3" width="1.2" height="16.2"/>
		</g>
		<g>
			<path class="st3" d="M508.5,109.6c-2.5,3.4-1.8,8.1,1.6,10.6c3.4,2.5,8.1,1.8,10.6-1.6c2.5-3.4,1.8-8.1-1.6-10.6
				C515.7,105.5,510.9,106.2,508.5,109.6z"/>
			<path class="st3" d="M523.9,108.9c-0.7,0.9-0.5,2.2,0.4,2.9c0.9,0.7,2.2,0.5,2.9-0.4c0.7-0.9,0.5-2.2-0.4-2.9
				C525.9,107.8,524.6,108,523.9,108.9z"/>
			<path class="st3" d="M509.6,102.1c-0.7,0.9-0.5,2.2,0.4,2.9c0.9,0.7,2.2,0.5,2.9-0.4c0.7-0.9,0.5-2.2-0.4-2.9
				C511.6,101,510.3,101.2,509.6,102.1z"/>
			<path class="st3" d="M503.1,108.2c-0.7,0.9-0.5,2.2,0.4,2.9c0.9,0.7,2.2,0.5,2.9-0.4c0.7-0.9,0.5-2.2-0.4-2.9
				C505.1,107,503.8,107.2,503.1,108.2z"/>
			<path class="st3" d="M509.4,123c-0.7,0.9-0.5,2.2,0.4,2.9c0.9,0.7,2.2,0.5,2.9-0.4c0.7-0.9,0.5-2.2-0.4-2.9
				C511.4,121.9,510.1,122.1,509.4,123z"/>
			<path class="st3" d="M517.3,123.4c-0.7,0.9-0.5,2.2,0.4,2.9c0.9,0.7,2.2,0.5,2.9-0.4c0.7-0.9,0.5-2.2-0.4-2.9
				C519.3,122.3,518,122.5,517.3,123.4z"/>
			<path class="st3" d="M498.6,117.4c-1,1.3-0.7,3.2,0.6,4.2c1.3,1,3.2,0.7,4.2-0.6c1-1.3,0.7-3.2-0.6-4.2
				C501.4,115.8,499.6,116.1,498.6,117.4z"/>
			<path class="st3" d="M517.4,101.1c-1,1.3-0.7,3.2,0.6,4.2c1.3,1,3.2,0.7,4.2-0.6c1-1.3,0.7-3.2-0.6-4.2
				C520.3,99.5,518.4,99.7,517.4,101.1z"/>
			<path class="st3" d="M524,116.1c-1,1.3-0.7,3.2,0.6,4.2c1.3,1,3.2,0.7,4.2-0.6c1-1.3,0.7-3.2-0.6-4.2
				C526.8,114.5,524.9,114.8,524,116.1z"/>
			
				<rect x="514.2" y="102.1" transform="matrix(0.9421 -0.3353 0.3353 0.9421 -8.4482 179.2963)" class="st3" width="1.6" height="24"/>
			<polygon class="st3" points="501.6,119.5 526.6,110.8 526.1,109.3 501,118 			"/>
			
				<rect x="503.8" y="113.2" transform="matrix(0.357 -0.9341 0.9341 0.357 224.8099 554.5903)" class="st3" width="22.8" height="1.6"/>
			
				<rect x="514.8" y="102.7" transform="matrix(0.3564 -0.9343 0.9343 0.3564 225.2629 555.2431)" class="st3" width="1.6" height="22.8"/>
		</g>
		<g>
			<path class="st3" d="M646.2,265.8c0,4.5,3.6,8.1,8.1,8.1c4.5,0,8.1-3.6,8.1-8.1s-3.6-8.1-8.1-8.1
				C649.8,257.7,646.2,261.3,646.2,265.8z"/>
			<circle class="st3" cx="661.4" cy="255.4" r="2.2"/>
			<path class="st3" d="M642.4,258.6c0,1.2,1,2.2,2.2,2.2c1.2,0,2.2-1,2.2-2.2c0-1.2-1-2.2-2.2-2.2
				C643.4,256.4,642.4,257.4,642.4,258.6z"/>
			<path class="st3" d="M640.7,268c0,1.2,1,2.2,2.2,2.2c1.2,0,2.2-1,2.2-2.2c0-1.2-1-2.2-2.2-2.2C641.7,265.7,640.7,266.7,640.7,268
				z"/>
			<path class="st3" d="M655.6,276.8c0,1.2,1,2.2,2.2,2.2c1.2,0,2.2-1,2.2-2.2c0-1.2-1-2.2-2.2-2.2
				C656.6,274.6,655.6,275.6,655.6,276.8z"/>
			<path class="st3" d="M662.7,272.1c0,1.2,1,2.2,2.2,2.2c1.2,0,2.2-1,2.2-2.2c0-1.2-1-2.2-2.2-2.2
				C663.7,269.9,662.7,270.9,662.7,272.1z"/>
			<path class="st3" d="M642.6,278.8c0,1.8,1.4,3.2,3.2,3.2c1.8,0,3.2-1.4,3.2-3.2c0-1.8-1.4-3.2-3.2-3.2
				C644.1,275.6,642.6,277.1,642.6,278.8z"/>
			<path class="st3" d="M648.5,252.7c0,1.8,1.4,3.2,3.2,3.2s3.2-1.4,3.2-3.2c0-1.8-1.4-3.2-3.2-3.2S648.5,250.9,648.5,252.7z"/>
			<path class="st3" d="M663.8,261.5c0,1.8,1.4,3.2,3.2,3.2c1.8,0,3.2-1.4,3.2-3.2s-1.4-3.2-3.2-3.2
				C665.2,258.3,663.8,259.7,663.8,261.5z"/>
			
				<rect x="653.9" y="252.6" transform="matrix(0.5578 -0.83 0.83 0.5578 69.2148 660.8852)" class="st3" width="1.8" height="25.8"/>
			
				<rect x="639.7" y="265.6" transform="matrix(0.5666 -0.824 0.824 0.5666 63.7948 654.3257)" class="st3" width="28.5" height="1.8"/>
			
				<rect x="654" y="253" transform="matrix(0.9631 -0.2691 0.2691 0.9631 -47.2243 185.9818)" class="st3" width="1.8" height="24.5"/>
			
				<rect x="643" y="264.2" transform="matrix(0.9633 -0.2683 0.2683 0.9633 -47.1095 185.563)" class="st3" width="24.5" height="1.8"/>
		</g>
		<g>
			<path class="st3" d="M411.7,123c-2.9-0.7-5.8,1.1-6.5,3.9c-0.7,2.9,1.1,5.8,3.9,6.5c2.9,0.7,5.8-1.1,6.5-3.9
				C416.3,126.6,414.6,123.7,411.7,123z"/>
			<path class="st3" d="M416.3,133c-0.8-0.2-1.6,0.3-1.8,1.1c-0.2,0.8,0.3,1.6,1.1,1.8c0.8,0.2,1.6-0.3,1.8-1.1
				C417.6,134,417.1,133.2,416.3,133z"/>
			<path class="st3" d="M416.9,121.7c-0.8-0.2-1.6,0.3-1.8,1.1c-0.2,0.8,0.3,1.6,1.1,1.8c0.8,0.2,1.6-0.3,1.8-1.1
				C418.2,122.7,417.7,121.9,416.9,121.7z"/>
			<path class="st3" d="M411.2,119.1c-0.8-0.2-1.6,0.3-1.8,1.1c-0.2,0.8,0.3,1.6,1.1,1.8c0.8,0.2,1.6-0.3,1.8-1.1
				C412.4,120.1,411.9,119.3,411.2,119.1z"/>
			<path class="st3" d="M403.1,127.4c-0.8-0.2-1.6,0.3-1.8,1.1c-0.2,0.8,0.3,1.6,1.1,1.8c0.8,0.2,1.6-0.3,1.8-1.1
				C404.4,128.4,403.9,127.6,403.1,127.4z"/>
			<path class="st3" d="M405,132.6c-0.8-0.2-1.6,0.3-1.8,1.1c-0.2,0.8,0.3,1.6,1.1,1.8c0.8,0.2,1.6-0.3,1.8-1.1
				C406.3,133.6,405.8,132.8,405,132.6z"/>
			<path class="st3" d="M403.9,118.7c-1.1-0.3-2.3,0.4-2.6,1.6c-0.3,1.1,0.4,2.3,1.6,2.6c1.1,0.3,2.3-0.4,2.6-1.6
				C405.7,120.1,405,119,403.9,118.7z"/>
			<path class="st3" d="M419.7,126.6c-1.1-0.3-2.3,0.4-2.6,1.6c-0.3,1.1,0.4,2.3,1.6,2.6c1.1,0.3,2.3-0.4,2.6-1.6
				C421.6,128,420.9,126.8,419.7,126.6z"/>
			<path class="st3" d="M411.7,135c-1.1-0.3-2.3,0.4-2.6,1.6c-0.3,1.1,0.4,2.3,1.6,2.6c1.1,0.3,2.3-0.4,2.6-1.6
				C413.5,136.4,412.8,135.3,411.7,135z"/>
			
				<rect x="402" y="128" transform="matrix(0.7399 -0.6728 0.6728 0.7399 20.2768 309.6429)" class="st3" width="17.1" height="1.2"/>
			<polygon class="st3" points="403.3,121.2 415.8,135.3 416.7,134.5 404.2,120.4 			"/>
			
				<rect x="402.5" y="128.1" transform="matrix(0.9995 -3.019822e-02 3.019822e-02 0.9995 -3.699 12.4597)" class="st3" width="16.2" height="1.2"/>
			
				<rect x="410.1" y="120.9" transform="matrix(0.9995 -3.069083e-02 3.069083e-02 0.9995 -3.7652 12.6649)" class="st3" width="1.2" height="16.2"/>
		</g>
		<g>
			<path class="st3" d="M583,65c1.9,0.8,4.1-0.1,4.9-2c0.8-1.9-0.1-4.1-2-4.9c-1.9-0.8-4.1,0.1-4.9,2C580.2,62,581.1,64.2,583,65z"
				/>
			<path class="st3" d="M580.9,57.5c0.5,0.2,1.1,0,1.4-0.6c0.2-0.5,0-1.1-0.6-1.4c-0.5-0.2-1.1,0-1.4,0.6
				C580.1,56.7,580.3,57.3,580.9,57.5z"/>
			<path class="st3" d="M579.3,65.3c0.5,0.2,1.1,0,1.4-0.6c0.2-0.5,0-1.1-0.6-1.4s-1.1,0-1.4,0.6C578.5,64.5,578.7,65.1,579.3,65.3z
				"/>
			<path class="st3" d="M583,67.8c0.5,0.2,1.1,0,1.4-0.6c0.2-0.5,0-1.1-0.6-1.4c-0.5-0.2-1.1,0-1.4,0.6
				C582.2,66.9,582.5,67.5,583,67.8z"/>
			<path class="st3" d="M589.5,62.9c0.5,0.2,1.1,0,1.4-0.6c0.2-0.5,0-1.1-0.6-1.4c-0.5-0.2-1.1,0-1.4,0.6
				C588.7,62.1,588.9,62.7,589.5,62.9z"/>
			<path class="st3" d="M588.7,59c0.5,0.2,1.1,0,1.4-0.6c0.2-0.5,0-1.1-0.6-1.4c-0.5-0.2-1.1,0-1.4,0.6
				C587.9,58.2,588.2,58.8,588.7,59z"/>
			<path class="st3" d="M588,68.9c0.8,0.3,1.6,0,2-0.8c0.3-0.8,0-1.6-0.8-2c-0.8-0.3-1.6,0-2,0.8C586.9,67.7,587.3,68.5,588,68.9z"
				/>
			<path class="st3" d="M577.8,61.7c0.8,0.3,1.6,0,2-0.8c0.3-0.8,0-1.6-0.8-2c-0.8-0.3-1.6,0-2,0.8
				C576.7,60.5,577.1,61.4,577.8,61.7z"/>
			<path class="st3" d="M584.4,56.7c0.8,0.3,1.6,0,2-0.8c0.3-0.8,0-1.6-0.8-2c-0.8-0.3-1.6,0-2,0.8
				C583.2,55.5,583.6,56.3,584.4,56.7z"/>
			<polygon class="st3" points="589.7,58.2 589.2,57.6 579.2,64.2 579.7,64.9 			"/>
			
				<rect x="584.3" y="55.2" transform="matrix(0.8391 -0.544 0.544 0.8391 60.477 328.0497)" class="st3" width="0.8" height="13.3"/>
			
				<rect x="584" y="55.4" transform="matrix(0.1211 -0.9926 0.9926 0.1211 452.8998 633.8329)" class="st3" width="0.8" height="11.4"/>
			
				<rect x="578.7" y="60.5" transform="matrix(0.1212 -0.9926 0.9926 0.1212 453.0484 633.6472)" class="st3" width="11.4" height="0.8"/>
		</g>
		<g>
			<path class="st3" d="M328.4,116.5c1.9,0.8,4.1-0.1,4.9-2c0.8-1.9-0.1-4.1-2-4.9c-1.9-0.8-4.1,0.1-4.9,2
				C325.5,113.5,326.4,115.7,328.4,116.5z"/>
			<path class="st3" d="M326.2,109.1c0.5,0.2,1.1,0,1.4-0.6c0.2-0.5,0-1.1-0.6-1.4c-0.5-0.2-1.1,0-1.4,0.6
				C325.4,108.2,325.7,108.8,326.2,109.1z"/>
			<path class="st3" d="M324.6,116.8c0.5,0.2,1.1,0,1.4-0.6c0.2-0.5,0-1.1-0.6-1.4c-0.5-0.2-1.1,0-1.4,0.6
				C323.8,116,324.1,116.6,324.6,116.8z"/>
			<path class="st3" d="M328.3,119.3c0.5,0.2,1.1,0,1.4-0.6c0.2-0.5,0-1.1-0.6-1.4c-0.5-0.2-1.1,0-1.4,0.6
				C327.6,118.4,327.8,119.1,328.3,119.3z"/>
			<path class="st3" d="M334.8,114.4c0.5,0.2,1.1,0,1.4-0.6c0.2-0.5,0-1.1-0.6-1.4c-0.5-0.2-1.1,0-1.4,0.6
				C334,113.6,334.3,114.2,334.8,114.4z"/>
			<path class="st3" d="M334.1,110.5c0.5,0.2,1.1,0,1.4-0.6c0.2-0.5,0-1.1-0.6-1.4c-0.5-0.2-1.1,0-1.4,0.6
				C333.3,109.7,333.5,110.3,334.1,110.5z"/>
			<path class="st3" d="M333.4,120.4c0.8,0.3,1.6,0,2-0.8c0.3-0.8,0-1.6-0.8-2c-0.8-0.3-1.6,0-2,0.8
				C332.2,119.2,332.6,120.1,333.4,120.4z"/>
			<path class="st3" d="M323.2,113.2c0.8,0.3,1.6,0,2-0.8c0.3-0.8,0-1.6-0.8-2c-0.8-0.3-1.6,0-2,0.8
				C322,112,322.4,112.9,323.2,113.2z"/>
			<path class="st3" d="M329.7,108.2c0.8,0.3,1.6,0,2-0.8c0.3-0.8,0-1.6-0.8-2c-0.8-0.3-1.6,0-2,0.8
				C328.6,107,328.9,107.9,329.7,108.2z"/>
			
				<rect x="323.8" y="112.3" transform="matrix(0.8335 -0.5526 0.5526 0.8335 -7.3753 201.0083)" class="st3" width="12" height="0.8"/>
			
				<rect x="329.7" y="106.7" transform="matrix(0.8391 -0.544 0.544 0.8391 -8.5207 197.8007)" class="st3" width="0.8" height="13.3"/>
			
				<rect x="329.3" y="106.9" transform="matrix(0.1211 -0.9926 0.9926 0.1211 177.9627 426.3167)" class="st3" width="0.8" height="11.4"/>
			
				<rect x="324" y="112" transform="matrix(0.1212 -0.9926 0.9926 0.1212 178.1368 426.1266)" class="st3" width="11.4" height="0.8"/>
		</g>
		<g>
			<path class="st3" d="M496.1,184.5c1.9,0.8,4.1-0.1,4.9-2c0.8-1.9-0.1-4.1-2-4.9c-1.9-0.8-4.1,0.1-4.9,2
				C493.2,181.5,494.1,183.7,496.1,184.5z"/>
			<path class="st3" d="M493.9,177.1c0.5,0.2,1.1,0,1.4-0.6c0.2-0.5,0-1.1-0.6-1.4c-0.5-0.2-1.1,0-1.4,0.6
				C493.1,176.2,493.4,176.9,493.9,177.1z"/>
			<path class="st3" d="M492.3,184.9c0.5,0.2,1.1,0,1.4-0.6c0.2-0.5,0-1.1-0.6-1.4c-0.5-0.2-1.1,0-1.4,0.6
				C491.5,184,491.8,184.6,492.3,184.9z"/>
			<path class="st3" d="M496,187.3c0.5,0.2,1.1,0,1.4-0.6c0.2-0.5,0-1.1-0.6-1.4c-0.5-0.2-1.1,0-1.4,0.6
				C495.3,186.5,495.5,187.1,496,187.3z"/>
			<path class="st3" d="M502.5,182.4c0.5,0.2,1.1,0,1.4-0.6c0.2-0.5,0-1.1-0.6-1.4c-0.5-0.2-1.1,0-1.4,0.6
				C501.7,181.6,502,182.2,502.5,182.4z"/>
			<path class="st3" d="M501.7,178.5c0.5,0.2,1.1,0,1.4-0.6c0.2-0.5,0-1.1-0.6-1.4c-0.5-0.2-1.1,0-1.4,0.6
				C501,177.7,501.2,178.3,501.7,178.5z"/>
			<path class="st3" d="M501.1,188.4c0.8,0.3,1.6,0,2-0.8c0.3-0.8,0-1.6-0.8-2c-0.8-0.3-1.6,0-2,0.8
				C499.9,187.2,500.3,188.1,501.1,188.4z"/>
			<path class="st3" d="M490.9,181.2c0.8,0.3,1.6,0,2-0.8c0.3-0.8,0-1.6-0.8-2c-0.8-0.3-1.6,0-2,0.8
				C489.7,180,490.1,180.9,490.9,181.2z"/>
			<path class="st3" d="M497.4,176.2c0.8,0.3,1.6,0,2-0.8c0.3-0.8,0-1.6-0.8-2c-0.8-0.3-1.6,0-2,0.8
				C496.3,175,496.6,175.9,497.4,176.2z"/>
			<polygon class="st3" points="502.7,177.8 502.3,177.1 492.2,183.8 492.7,184.4 			"/>
			
				<rect x="497.4" y="174.7" transform="matrix(0.8391 -0.544 0.544 0.8391 -18.5384 299.9927)" class="st3" width="0.8" height="13.3"/>
			
				<rect x="497" y="175" transform="matrix(0.1211 -0.9926 0.9926 0.1211 257.7977 652.5496)" class="st3" width="0.8" height="11.4"/>
			
				<rect x="491.7" y="180.1" transform="matrix(0.1212 -0.9926 0.9926 0.1212 257.976 652.3607)" class="st3" width="11.4" height="0.8"/>
		</g>
	</g>
	<path class="st30" d="M446.8,282.4c0,1.1-0.9,2-2,2h-158c-1.1,0-2-0.9-2-2l0,0c0-1.1,0.9-2,2-2h158
		C445.9,280.4,446.8,281.3,446.8,282.4L446.8,282.4z"/>
	<path class="st30" d="M446.8,188.4c0,1.1-0.9,2-2,2h-158c-1.1,0-2-0.9-2-2l0,0c0-1.1,0.9-2,2-2h158
		C445.9,186.4,446.8,187.3,446.8,188.4L446.8,188.4z"/>
</g>
</svg>
