<?xml version="1.0" encoding="utf-8"?>
<!-- Generator: Adobe Illustrator 23.1.0, SVG Export Plug-In . SVG Version: 6.00 Build 0)  -->
<svg version="1.1" id="Ebene_1" xmlns="http://www.w3.org/2000/svg" xmlns:xlink="http://www.w3.org/1999/xlink" x="0px" y="0px"
	 viewBox="0 0 406.6 456.2" style="enable-background:new 0 0 406.6 456.2;" xml:space="preserve">
<style type="text/css">
	.st0{fill:url(#SVGID_1_);}
	.st1{fill:url(#SVGID_2_);}
	.st2{fill:url(#SVGID_3_);}
	.st3{fill:url(#SVGID_4_);}
	.st4{fill:url(#SVGID_5_);}
	.st5{fill:url(#SVGID_6_);}
	.st6{fill:#020203;}
	.st7{fill:#FFFFFF;stroke:#000000;stroke-miterlimit:10;}
	.st8{fill:url(#SVGID_7_);}
	.st9{fill:url(#SVGID_8_);}
	.st10{fill:url(#SVGID_9_);}
	.st11{fill:url(#SVGID_10_);}
	.st12{fill:url(#SVGID_11_);}
	.st13{fill:url(#SVGID_12_);}
	.st14{fill:url(#SVGID_13_);}
	.st15{fill:url(#SVGID_14_);}
	.st16{opacity:0.5;fill:url(#SVGID_15_);}
	.st17{fill:url(#SVGID_16_);}
	.st18{fill:url(#SVGID_17_);}
	.st19{fill:url(#SVGID_18_);}
	.st20{fill:#086B88;}
</style>
<radialGradient id="SVGID_1_" cx="82.8191" cy="17.6761" r="78.0018" gradientTransform="matrix(2.2154 0 0 0.1022 14.1943 424.2151)" gradientUnits="userSpaceOnUse">
	<stop  offset="0" style="stop-color:#6E6F70"/>
	<stop  offset="0.1772" style="stop-color:#7D7C7E;stop-opacity:0.8228"/>
	<stop  offset="0.5213" style="stop-color:#A5A4A6;stop-opacity:0.4787"/>
	<stop  offset="0.9947" style="stop-color:#F0F0F1;stop-opacity:5.315602e-03"/>
	<stop  offset="1" style="stop-color:#F1F1F2;stop-opacity:0"/>
</radialGradient>
<ellipse class="st0" cx="197.7" cy="426" rx="172.8" ry="8"/>
<linearGradient id="SVGID_2_" gradientUnits="userSpaceOnUse" x1="294.902" y1="119.2624" x2="294.902" y2="167.425">
	<stop  offset="0" style="stop-color:#231F20"/>
	<stop  offset="0.1576" style="stop-color:#434143"/>
	<stop  offset="0.3588" style="stop-color:#6E6D70"/>
	<stop  offset="0.4531" style="stop-color:#808284"/>
	<stop  offset="0.528" style="stop-color:#77777A"/>
	<stop  offset="0.6678" style="stop-color:#605F61"/>
	<stop  offset="0.8558" style="stop-color:#3E3B3D"/>
	<stop  offset="1" style="stop-color:#231F20"/>
</linearGradient>
<path class="st1" d="M292.9,167.2h2.1c1.1,0,2-0.9,2-2V121c0-1.1-0.9-2-2-2h-2.1V167.2z"/>
<linearGradient id="SVGID_3_" gradientUnits="userSpaceOnUse" x1="100.4413" y1="81.4337" x2="100.4413" y2="97.6329">
	<stop  offset="0" style="stop-color:#231F20"/>
	<stop  offset="0.1576" style="stop-color:#434143"/>
	<stop  offset="0.3588" style="stop-color:#6E6D70"/>
	<stop  offset="0.4531" style="stop-color:#808284"/>
	<stop  offset="0.528" style="stop-color:#77777A"/>
	<stop  offset="0.6678" style="stop-color:#605F61"/>
	<stop  offset="0.8558" style="stop-color:#3E3B3D"/>
	<stop  offset="1" style="stop-color:#231F20"/>
</linearGradient>
<path class="st2" d="M102.5,97.7h-2.1c-1.1,0-2-0.9-2-2V83.5c0-1.1,0.9-2,2-2h2.1V97.7z"/>
<linearGradient id="SVGID_4_" gradientUnits="userSpaceOnUse" x1="100.4413" y1="108.8975" x2="100.4413" y2="139.0617">
	<stop  offset="0" style="stop-color:#231F20"/>
	<stop  offset="0.1576" style="stop-color:#434143"/>
	<stop  offset="0.3588" style="stop-color:#6E6D70"/>
	<stop  offset="0.4531" style="stop-color:#808284"/>
	<stop  offset="0.528" style="stop-color:#77777A"/>
	<stop  offset="0.6678" style="stop-color:#605F61"/>
	<stop  offset="0.8558" style="stop-color:#3E3B3D"/>
	<stop  offset="1" style="stop-color:#231F20"/>
</linearGradient>
<path class="st3" d="M102.5,139.1h-2.1c-1.1,0-2-0.9-2-2v-26.5c0-1.1,0.9-2,2-2h2.1V139.1z"/>
<linearGradient id="SVGID_5_" gradientUnits="userSpaceOnUse" x1="100.4413" y1="146.1366" x2="100.4413" y2="176.9521">
	<stop  offset="0" style="stop-color:#231F20"/>
	<stop  offset="0.1576" style="stop-color:#434143"/>
	<stop  offset="0.3588" style="stop-color:#6E6D70"/>
	<stop  offset="0.4531" style="stop-color:#808284"/>
	<stop  offset="0.528" style="stop-color:#77777A"/>
	<stop  offset="0.6678" style="stop-color:#605F61"/>
	<stop  offset="0.8558" style="stop-color:#3E3B3D"/>
	<stop  offset="1" style="stop-color:#231F20"/>
</linearGradient>
<path class="st4" d="M102.5,176.5h-2.1c-1.1,0-2-0.9-2-2v-26.5c0-1.1,0.9-2,2-2h2.1V176.5z"/>
<linearGradient id="SVGID_6_" gradientUnits="userSpaceOnUse" x1="100.71" y1="226.4274" x2="294.9021" y2="226.4274">
	<stop  offset="0" style="stop-color:#231F20"/>
	<stop  offset="0.1576" style="stop-color:#434143"/>
	<stop  offset="0.3588" style="stop-color:#6E6D70"/>
	<stop  offset="0.4531" style="stop-color:#808284"/>
	<stop  offset="0.528" style="stop-color:#77777A"/>
	<stop  offset="0.6678" style="stop-color:#605F61"/>
	<stop  offset="0.8558" style="stop-color:#3E3B3D"/>
	<stop  offset="1" style="stop-color:#231F20"/>
</linearGradient>
<path class="st5" d="M266.7,424.4H128.9c-15.6,0-28.2-12.6-28.2-28.2V56.7c0-15.6,12.6-28.2,28.2-28.2h137.8
	c15.6,0,28.2,12.6,28.2,28.2v339.4C294.9,411.7,282.3,424.4,266.7,424.4z"/>
<path class="st6" d="M104.4,396.4V56.5c0-13.4,10.9-24.3,24.3-24.3h138.2c13.4,0,24.3,10.9,24.3,24.3v339.9
	c0,13.4-10.9,24.3-24.3,24.3H128.7C115.3,420.6,104.4,409.8,104.4,396.4z"/>
<path class="st7" d="M108.2,396.6V56.3c0-11.2,9.1-20.3,20.3-20.3h138.6c11.2,0,20.3,9.1,20.3,20.3v340.3c0,11.2-9.1,20.3-20.3,20.3
	H128.5C117.3,416.9,108.2,407.8,108.2,396.6z"/>
<linearGradient id="SVGID_7_" gradientUnits="userSpaceOnUse" x1="287.6848" y1="226.9383" x2="291.95" y2="226.9383">
	<stop  offset="0" style="stop-color:#020203;stop-opacity:0"/>
	<stop  offset="0.1808" style="stop-color:#25252B;stop-opacity:0.1808"/>
	<stop  offset="0.4799" style="stop-color:#706D73;stop-opacity:0.4799"/>
	<stop  offset="0.7256" style="stop-color:#B7B5B8;stop-opacity:0.7256"/>
	<stop  offset="0.9053" style="stop-color:#EAE9EB;stop-opacity:0.9053"/>
	<stop  offset="1" style="stop-color:#FFFFFF"/>
</linearGradient>
<path class="st8" d="M288.4,400.1V53.8c0-7.3-3.4-13.8-8.7-18c6.8,4,11.4,11.4,11.4,19.8v342.6c0,8.5-4.6,15.9-11.4,19.8
	C285,413.8,288.4,407.4,288.4,400.1z"/>
<linearGradient id="SVGID_8_" gradientUnits="userSpaceOnUse" x1="7748.5322" y1="226.9383" x2="7752.7974" y2="226.9383" gradientTransform="matrix(-1 0 0 1 7856.4595 0)">
	<stop  offset="0" style="stop-color:#020203;stop-opacity:0"/>
	<stop  offset="0.1808" style="stop-color:#25252B;stop-opacity:0.1808"/>
	<stop  offset="0.4799" style="stop-color:#706D73;stop-opacity:0.4799"/>
	<stop  offset="0.7256" style="stop-color:#B7B5B8;stop-opacity:0.7256"/>
	<stop  offset="0.9053" style="stop-color:#EAE9EB;stop-opacity:0.9053"/>
	<stop  offset="1" style="stop-color:#FFFFFF"/>
</linearGradient>
<path class="st9" d="M107.2,400.1V53.8c0-7.3,3.4-13.8,8.7-18c-6.8,4-11.4,11.4-11.4,19.8v342.6c0,8.5,4.6,15.9,11.4,19.8
	C110.6,413.8,107.2,407.4,107.2,400.1z"/>
<path class="st6" d="M146.3,36.5c1.2,0.8,3.2,2.6,3.6,5.7c0.5,4.5,2.2,9.9,9.6,9.9h31.9c7.3,0,12.9,0,12.9,0h31.9
	c7.3,0,9.1-5.5,9.6-9.9c0.3-3.1,2.4-4.9,3.6-5.7H146.3z"/>
<linearGradient id="SVGID_9_" gradientUnits="userSpaceOnUse" x1="197.806" y1="44.8928" x2="197.806" y2="41.8202">
	<stop  offset="0" style="stop-color:#4E4D4D"/>
	<stop  offset="8.943182e-02" style="stop-color:#404042"/>
	<stop  offset="0.2769" style="stop-color:#28292C"/>
	<stop  offset="0.4641" style="stop-color:#16181C"/>
	<stop  offset="0.6484" style="stop-color:#090B0D"/>
	<stop  offset="0.8286" style="stop-color:#030405"/>
	<stop  offset="1" style="stop-color:#020203"/>
</linearGradient>
<path class="st10" d="M208.9,44.8h-22.2c-0.6,0-1.1-0.5-1.1-1.1V43c0-0.6,0.5-1.1,1.1-1.1h22.2c0.6,0,1.1,0.5,1.1,1.1v0.6
	C210,44.3,209.5,44.8,208.9,44.8z"/>
<g>
	<path class="st6" d="M221.6,43.2c0,1.4-1.2,2.6-2.6,2.6c-1.4,0-2.6-1.2-2.6-2.6c0-1.4,1.2-2.6,2.6-2.6
		C220.4,40.6,221.6,41.8,221.6,43.2z"/>
	<linearGradient id="SVGID_10_" gradientUnits="userSpaceOnUse" x1="221.9391" y1="46.1585" x2="216.3926" y2="40.612">
		<stop  offset="0" style="stop-color:#4E4D4D"/>
		<stop  offset="1" style="stop-color:#020203"/>
	</linearGradient>
	<path class="st11" d="M222.7,43.2c0,2.1-1.7,3.7-3.7,3.7c-2.1,0-3.7-1.7-3.7-3.7c0-2.1,1.7-3.7,3.7-3.7
		C221.1,39.5,222.7,41.2,222.7,43.2z"/>
	<linearGradient id="SVGID_11_" gradientUnits="userSpaceOnUse" x1="221.4069" y1="45.6263" x2="216.8697" y2="41.0891">
		<stop  offset="0" style="stop-color:#020203"/>
		<stop  offset="1" style="stop-color:#4E4D4D"/>
	</linearGradient>
	<circle class="st12" cx="219" cy="43.2" r="3"/>
	<linearGradient id="SVGID_12_" gradientUnits="userSpaceOnUse" x1="217.1077" y1="41.3271" x2="221.2574" y2="45.4768">
		<stop  offset="0" style="stop-color:#325BA7"/>
		<stop  offset="0.6936" style="stop-color:#020203;stop-opacity:0"/>
	</linearGradient>
	<path class="st13" d="M221.6,43.2c0,1.4-1.2,2.6-2.6,2.6c-1.4,0-2.6-1.2-2.6-2.6c0-1.4,1.2-2.6,2.6-2.6
		C220.4,40.6,221.6,41.8,221.6,43.2z"/>
	<radialGradient id="SVGID_13_" cx="219.2305" cy="45.8246" r="2.5942" gradientUnits="userSpaceOnUse">
		<stop  offset="0" style="stop-color:#325BA7"/>
		<stop  offset="0.8599" style="stop-color:#020203;stop-opacity:0"/>
	</radialGradient>
	<path class="st14" d="M221.6,43.2c0,1.4-1.2,2.6-2.6,2.6c-1.4,0-2.6-1.2-2.6-2.6c0-1.4,1.2-2.6,2.6-2.6
		C220.4,40.6,221.6,41.8,221.6,43.2z"/>
	<radialGradient id="SVGID_14_" cx="221.4732" cy="42.4184" r="1.7031" gradientUnits="userSpaceOnUse">
		<stop  offset="0" style="stop-color:#325BA7"/>
		<stop  offset="0.7042" style="stop-color:#020203;stop-opacity:0"/>
	</radialGradient>
	<path class="st15" d="M221.6,43.2c0,1.4-1.2,2.6-2.6,2.6c-1.4,0-2.6-1.2-2.6-2.6c0-1.4,1.2-2.6,2.6-2.6
		C220.4,40.6,221.6,41.8,221.6,43.2z"/>
	<radialGradient id="SVGID_15_" cx="217.4195" cy="44.1095" r="2.5832" gradientUnits="userSpaceOnUse">
		<stop  offset="0" style="stop-color:#FFFFFF"/>
		<stop  offset="0.136" style="stop-color:#ADABAF;stop-opacity:0.8466"/>
		<stop  offset="0.2832" style="stop-color:#6C696F;stop-opacity:0.6807"/>
		<stop  offset="0.4262" style="stop-color:#3F3E43;stop-opacity:0.5194"/>
		<stop  offset="0.5613" style="stop-color:#222227;stop-opacity:0.367"/>
		<stop  offset="0.6868" style="stop-color:#0E0F13;stop-opacity:0.2255"/>
		<stop  offset="0.799" style="stop-color:#040406;stop-opacity:9.897780e-02"/>
		<stop  offset="0.8868" style="stop-color:#020203;stop-opacity:0"/>
	</radialGradient>
	<path class="st16" d="M221.6,43.2c0,1.4-1.2,2.6-2.6,2.6c-1.4,0-2.6-1.2-2.6-2.6c0-1.4,1.2-2.6,2.6-2.6
		C220.4,40.6,221.6,41.8,221.6,43.2z"/>
</g>
<g>
	<g>
		
			<linearGradient id="SVGID_16_" gradientUnits="userSpaceOnUse" x1="250.1686" y1="358.9724" x2="242.6494" y2="367.3969" gradientTransform="matrix(1 0 0 -1 0 463.5728)">
			<stop  offset="0" style="stop-color:#008DB7"/>
			<stop  offset="0.9138" style="stop-color:#086B88"/>
		</linearGradient>
		<polygon class="st17" points="241.5,98.8 248.1,106.1 255,106.1 245,95 		"/>
		
			<linearGradient id="SVGID_17_" gradientUnits="userSpaceOnUse" x1="230.0843" y1="381.545" x2="237.8931" y2="373.489" gradientTransform="matrix(1 0 0 -1 0 463.5728)">
			<stop  offset="0" style="stop-color:#008DB7"/>
			<stop  offset="0.7576" style="stop-color:#086B88"/>
		</linearGradient>
		<polygon class="st18" points="237.2,85.8 232.9,81.1 226,81.1 233.8,89.7 		"/>
		
			<linearGradient id="SVGID_18_" gradientUnits="userSpaceOnUse" x1="234.5619" y1="365.9352" x2="254.6525" y2="388.2339" gradientTransform="matrix(1 0 0 -1 0 463.5728)">
			<stop  offset="0" style="stop-color:#35A4C6"/>
			<stop  offset="0.7085" style="stop-color:#55AF33"/>
		</linearGradient>
		<path class="st19" d="M244.8,78.3l2.7,1.2l-22.4,23.8h8.8L251.3,83l1.5,2.4l2.4-10.6L244.8,78.3z M231.2,102h-1.4l2.1-2.4h1.4
			L231.2,102z M235.5,97.3h-1.4l2.1-2.4h1.4L235.5,97.3z M239.7,92.6h-1.4l2.1-2.4h1.4L239.7,92.6z M244,87.9h-1.4l2.1-2.4h1.4
			L244,87.9z M248.2,83.2h-1.4l2.1-2.4h1.4L248.2,83.2z"/>
	</g>
	<g>
		<path class="st20" d="M144.3,85.9c-0.5-0.1-1.1-0.2-1.8-0.2s-1.1,0.1-1.4,0.4c-0.2,0.3-0.3,0.7-0.3,1.3v0.3h2.7l-0.2,1.7h-2.5
			v10.6l-2.5-0.2V89.4l-1.7-0.1v-1.5l1.7-0.1v-0.5c0-1.2,0.3-2.1,1-2.7c0.7-0.6,1.7-0.8,3.1-0.8c0.7,0,1.5,0.1,2.4,0.4L144.3,85.9z"
			/>
		<path class="st20" d="M152.6,96.5c-0.6,0.3-1.3,0.5-2,0.5s-1.2-0.3-1.6-0.8c-0.7,0.6-1.5,0.8-2.4,0.8c-0.9,0-1.6-0.2-2.1-0.7
			s-0.7-1.1-0.7-1.9c0-0.5,0.1-1,0.3-1.4c0.2-0.4,0.5-0.7,0.9-0.8c0.6-0.3,1.3-0.5,2-0.5s1.3,0,1.7,0.1v-0.9c0-0.6-0.1-1-0.4-1.2
			c-0.2-0.2-0.7-0.3-1.3-0.3c-0.6,0-1.3,0.1-2,0.4l-0.5-1.6c0.4-0.3,1-0.5,1.6-0.6c0.6-0.1,1.2-0.2,1.6-0.2c1.2,0,2.1,0.3,2.6,0.8
			s0.8,1.4,0.8,2.6v3.7c0,0.3,0.2,0.5,0.4,0.5c0.2,0,0.4,0,0.7-0.1L152.6,96.5z M147.3,95.4c0.5,0,1-0.2,1.5-0.5V93
			c-0.3,0-0.6,0-0.9,0c-1.2,0-1.8,0.4-1.8,1.1C146.2,94.9,146.6,95.4,147.3,95.4z"/>
		<path class="st20" d="M156.7,89.5c-0.8,0-1.2,0.3-1.2,0.8c0,0.3,0.1,0.5,0.4,0.7s0.6,0.4,1,0.5s0.8,0.3,1.1,0.5
			c0.4,0.2,0.7,0.4,1,0.8c0.3,0.3,0.4,0.8,0.4,1.3c0,0.9-0.3,1.6-0.9,2.1c-0.6,0.5-1.5,0.8-2.7,0.8c-0.5,0-1.1-0.1-1.7-0.2
			s-1-0.3-1.3-0.4l0.6-1.8c0.9,0.3,1.7,0.5,2.5,0.5c0.7,0,1.1-0.3,1.1-0.9c0-0.2-0.1-0.5-0.4-0.7c-0.3-0.2-0.6-0.4-1-0.6
			c-0.4-0.2-0.8-0.4-1.1-0.6c-0.4-0.2-0.7-0.5-1-0.8c-0.3-0.4-0.4-0.8-0.4-1.3c0-0.9,0.3-1.6,0.9-2.1c0.6-0.5,1.5-0.7,2.6-0.7
			c1.1,0,2,0.2,2.6,0.5l-0.6,1.8C157.9,89.6,157.2,89.5,156.7,89.5z"/>
		<path class="st20" d="M161.8,93.9v-4.4l-1.6-0.1v-1.5l1.6-0.1v-2.1l2.5-0.2v2.3h2.6l-0.1,1.7h-2.5v4.7c0,0.3,0.1,0.6,0.2,0.7
			c0.1,0.2,0.3,0.2,0.7,0.2s0.7-0.1,1.1-0.2l0.4,1.8c-0.6,0.2-1.2,0.4-1.8,0.4c-0.6,0-1,0-1.3-0.1s-0.5-0.2-0.7-0.2
			c-0.2-0.1-0.4-0.2-0.5-0.4s-0.2-0.3-0.3-0.5s-0.1-0.3-0.2-0.6C161.8,94.8,161.8,94.4,161.8,93.9z"/>
		<path class="st20" d="M177,84.4v3.9c0.2-0.2,0.6-0.4,1-0.5s0.8-0.2,1.3-0.2c1,0,1.8,0.4,2.4,1.1s0.9,1.8,0.9,3.2
			c0,1.7-0.3,3-1,3.9s-1.8,1.3-3.3,1.3c-0.6,0-1.3-0.1-2.1-0.2c-0.7-0.1-1.3-0.3-1.7-0.4v-12H177z M177.9,95c0.8,0,1.4-0.2,1.7-0.7
			c0.3-0.5,0.5-1.2,0.5-2.2c0-0.9-0.1-1.6-0.4-2s-0.6-0.6-1.2-0.6c-0.5,0-1,0.2-1.6,0.5v4.9C177.3,95,177.6,95,177.9,95z"/>
		<path class="st20" d="M190.5,95.9c-0.7,0.8-1.7,1.1-2.9,1.1c-1.2,0-2.1-0.4-2.8-1.1c-0.7-0.8-1.1-1.9-1.1-3.6
			c0-1.6,0.4-2.8,1.1-3.6c0.7-0.8,1.7-1.1,2.9-1.1c2.6,0,3.9,1.6,3.9,4.7C191.6,93.9,191.3,95.1,190.5,95.9z M189.2,92.2
			c0-1.1-0.1-1.8-0.4-2.2c-0.3-0.4-0.6-0.6-1.1-0.6c-0.5,0-0.9,0.2-1.1,0.6c-0.3,0.4-0.4,1.1-0.4,2.2c0,1.9,0.5,2.8,1.5,2.8
			c0.5,0,0.9-0.2,1.1-0.6C189.1,94.1,189.2,93.3,189.2,92.2z"/>
		<path class="st20" d="M197.6,89.5c-1,0-1.6,0.3-2,0.8v6.4h-2.5v-9.1h2.1l0.2,1.1c0.7-0.9,1.6-1.3,2.6-1.3c0.3,0,0.6,0,0.8,0.1
			l-0.4,2C198.2,89.6,197.9,89.5,197.6,89.5z"/>
		<path class="st20" d="M199.2,92.5c0-3.3,1.3-4.9,3.8-4.9c0.6,0,1.2,0.1,1.6,0.3v-3.6h2.5v12.7h-2.1l-0.1-0.7
			c-0.7,0.5-1.4,0.7-2.4,0.7c-1.1,0-1.9-0.4-2.5-1.2C199.5,94.9,199.2,93.8,199.2,92.5z M203.3,89.5c-1.1,0-1.7,1-1.7,2.9
			c0,1.8,0.5,2.7,1.6,2.7c0.5,0,1-0.1,1.5-0.4v-4.9C204.3,89.6,203.8,89.5,203.3,89.5z"/>
		<path class="st20" d="M211,92.5c0,1.8,0.8,2.7,2.3,2.7c0.7,0,1.4-0.1,2.1-0.4l0.4,1.7c-0.9,0.4-1.9,0.6-3,0.6
			c-2.8,0-4.2-1.6-4.2-4.9c0-1.3,0.3-2.4,1-3.2c0.7-0.9,1.7-1.3,3-1.3c1.1,0,1.9,0.3,2.4,0.8c0.6,0.6,0.9,1.3,0.9,2.3
			c0,0.6-0.1,1.2-0.2,1.8L211,92.5L211,92.5z M214,91.2V91c0-1.2-0.4-1.8-1.2-1.8c-1,0-1.6,0.6-1.8,1.9H214z"/>
		<path class="st20" d="M222,89.5c-1,0-1.6,0.3-2,0.8v6.4h-2.5v-9.1h2.1l0.2,1.1c0.7-0.9,1.6-1.3,2.6-1.3c0.3,0,0.6,0,0.8,0.1
			l-0.4,2C222.5,89.6,222.2,89.5,222,89.5z"/>
	</g>
</g>
<rect x="118.8" y="128.9" class="st20" width="118.9" height="9.8"/>
<rect x="118.8" y="146.1" class="st20" width="154.3" height="9.8"/>
<rect x="118.8" y="162.3" class="st20" width="154.3" height="9.8"/>
<rect x="118.8" y="178.4" class="st20" width="154.3" height="9.8"/>
<rect x="118.8" y="214.2" class="st20" width="118.4" height="9.8"/>
<rect x="118.8" y="231.4" class="st20" width="154.3" height="9.8"/>
<rect x="118.9" y="247.6" class="st20" width="154.3" height="9.8"/>
<rect x="118.9" y="263.7" class="st20" width="154.3" height="9.8"/>
<rect x="118.7" y="295.9" class="st20" width="118.4" height="9.8"/>
<rect x="118.7" y="313.2" class="st20" width="154.3" height="9.8"/>
<rect x="118.8" y="329.3" class="st20" width="154.3" height="9.8"/>
<rect x="118.8" y="345.4" class="st20" width="154.3" height="9.8"/>
</svg>
