<?xml version="1.0" encoding="utf-8"?>
<!-- Generator: Adobe Illustrator 23.1.0, SVG Export Plug-In . SVG Version: 6.00 Build 0)  -->
<svg version="1.1" id="Ebene_1" xmlns="http://www.w3.org/2000/svg" xmlns:xlink="http://www.w3.org/1999/xlink" x="0px" y="0px"
	 viewBox="0 0 431.9 448.1" style="enable-background:new 0 0 431.9 448.1;" xml:space="preserve">
<style type="text/css">
	.st0{fill:url(#SVGID_1_);}
	.st1{fill:url(#SVGID_2_);}
	.st2{fill:url(#SVGID_3_);}
	.st3{fill:url(#SVGID_4_);}
	.st4{fill:url(#SVGID_5_);}
	.st5{fill:url(#SVGID_6_);}
	.st6{fill:#020203;}
	.st7{fill:#FFFFFF;stroke:#000000;stroke-miterlimit:10;}
	.st8{fill:url(#SVGID_7_);}
	.st9{fill:url(#SVGID_8_);}
	.st10{fill:url(#SVGID_9_);}
	.st11{fill:url(#SVGID_10_);}
	.st12{fill:url(#SVGID_11_);}
	.st13{fill:url(#SVGID_12_);}
	.st14{fill:url(#SVGID_13_);}
	.st15{fill:url(#SVGID_14_);}
	.st16{opacity:0.5;fill:url(#SVGID_15_);}
	.st17{fill:#343434;}
	.st18{font-family:'Aileron-Bold';}
	.st19{font-size:5.7975px;}
</style>
<radialGradient id="SVGID_1_" cx="102.326" cy="12.0086" r="78.0018" gradientTransform="matrix(2.2154 0 0 0.1022 -9.2343 419.1269)" gradientUnits="userSpaceOnUse">
	<stop  offset="0" style="stop-color:#6E6F70"/>
	<stop  offset="0.1772" style="stop-color:#7D7C7E;stop-opacity:0.8228"/>
	<stop  offset="0.5213" style="stop-color:#A5A4A6;stop-opacity:0.4787"/>
	<stop  offset="0.9947" style="stop-color:#F0F0F1;stop-opacity:5.315602e-03"/>
	<stop  offset="1" style="stop-color:#F1F1F2;stop-opacity:0"/>
</radialGradient>
<ellipse class="st0" cx="217.5" cy="420.4" rx="172.8" ry="8"/>
<linearGradient id="SVGID_2_" gradientUnits="userSpaceOnUse" x1="314.6891" y1="113.595" x2="314.6891" y2="161.7576">
	<stop  offset="0" style="stop-color:#231F20"/>
	<stop  offset="0.1576" style="stop-color:#434143"/>
	<stop  offset="0.3588" style="stop-color:#6E6D70"/>
	<stop  offset="0.4531" style="stop-color:#808284"/>
	<stop  offset="0.528" style="stop-color:#77777A"/>
	<stop  offset="0.6678" style="stop-color:#605F61"/>
	<stop  offset="0.8558" style="stop-color:#3E3B3D"/>
	<stop  offset="1" style="stop-color:#231F20"/>
</linearGradient>
<path class="st1" d="M312.6,161.5h2.1c1.1,0,2-0.9,2-2v-44.2c0-1.1-0.9-2-2-2h-2.1V161.5z"/>
<linearGradient id="SVGID_3_" gradientUnits="userSpaceOnUse" x1="120.2284" y1="75.7663" x2="120.2284" y2="91.9655">
	<stop  offset="0" style="stop-color:#231F20"/>
	<stop  offset="0.1576" style="stop-color:#434143"/>
	<stop  offset="0.3588" style="stop-color:#6E6D70"/>
	<stop  offset="0.4531" style="stop-color:#808284"/>
	<stop  offset="0.528" style="stop-color:#77777A"/>
	<stop  offset="0.6678" style="stop-color:#605F61"/>
	<stop  offset="0.8558" style="stop-color:#3E3B3D"/>
	<stop  offset="1" style="stop-color:#231F20"/>
</linearGradient>
<path class="st2" d="M122.3,92h-2.1c-1.1,0-2-0.9-2-2V77.8c0-1.1,0.9-2,2-2h2.1V92z"/>
<linearGradient id="SVGID_4_" gradientUnits="userSpaceOnUse" x1="120.2284" y1="103.2301" x2="120.2284" y2="133.3943">
	<stop  offset="0" style="stop-color:#231F20"/>
	<stop  offset="0.1576" style="stop-color:#434143"/>
	<stop  offset="0.3588" style="stop-color:#6E6D70"/>
	<stop  offset="0.4531" style="stop-color:#808284"/>
	<stop  offset="0.528" style="stop-color:#77777A"/>
	<stop  offset="0.6678" style="stop-color:#605F61"/>
	<stop  offset="0.8558" style="stop-color:#3E3B3D"/>
	<stop  offset="1" style="stop-color:#231F20"/>
</linearGradient>
<path class="st3" d="M122.3,133.5h-2.1c-1.1,0-2-0.9-2-2V105c0-1.1,0.9-2,2-2h2.1V133.5z"/>
<linearGradient id="SVGID_5_" gradientUnits="userSpaceOnUse" x1="120.2284" y1="140.4692" x2="120.2284" y2="171.2847">
	<stop  offset="0" style="stop-color:#231F20"/>
	<stop  offset="0.1576" style="stop-color:#434143"/>
	<stop  offset="0.3588" style="stop-color:#6E6D70"/>
	<stop  offset="0.4531" style="stop-color:#808284"/>
	<stop  offset="0.528" style="stop-color:#77777A"/>
	<stop  offset="0.6678" style="stop-color:#605F61"/>
	<stop  offset="0.8558" style="stop-color:#3E3B3D"/>
	<stop  offset="1" style="stop-color:#231F20"/>
</linearGradient>
<path class="st4" d="M122.3,170.9h-2.1c-1.1,0-2-0.9-2-2v-26.5c0-1.1,0.9-2,2-2h2.1V170.9z"/>
<linearGradient id="SVGID_6_" gradientUnits="userSpaceOnUse" x1="120.497" y1="221.2706" x2="314.6891" y2="221.2706">
	<stop  offset="0" style="stop-color:#231F20"/>
	<stop  offset="0.1576" style="stop-color:#434143"/>
	<stop  offset="0.3588" style="stop-color:#6E6D70"/>
	<stop  offset="0.4531" style="stop-color:#808284"/>
	<stop  offset="0.528" style="stop-color:#77777A"/>
	<stop  offset="0.6678" style="stop-color:#605F61"/>
	<stop  offset="0.8558" style="stop-color:#3E3B3D"/>
	<stop  offset="1" style="stop-color:#231F20"/>
</linearGradient>
<path class="st5" d="M286.5,419.2H148.7c-15.6,0-28.2-12.6-28.2-28.2V51.6c0-15.6,12.6-28.2,28.2-28.2h137.8
	c15.6,0,28.2,12.6,28.2,28.2V391C314.7,406.6,302.1,419.2,286.5,419.2z"/>
<path class="st6" d="M124.2,391.2V51.3c0-13.4,10.9-24.3,24.3-24.3h138.2c13.4,0,24.3,10.9,24.3,24.3v339.9
	c0,13.4-10.9,24.3-24.3,24.3H148.5C135.1,415.5,124.2,404.6,124.2,391.2z"/>
<path class="st7" d="M127.9,391.4V51.1c0-11.2,9.1-20.3,20.3-20.3h138.6c11.2,0,20.3,9.1,20.3,20.3v340.3c0,11.2-9.1,20.3-20.3,20.3
	H148.3C137,411.8,127.9,402.7,127.9,391.4z"/>
<linearGradient id="SVGID_7_" gradientUnits="userSpaceOnUse" x1="307.4718" y1="221.2709" x2="311.737" y2="221.2709">
	<stop  offset="0" style="stop-color:#020203;stop-opacity:0"/>
	<stop  offset="0.1808" style="stop-color:#25252B;stop-opacity:0.1808"/>
	<stop  offset="0.4799" style="stop-color:#706D73;stop-opacity:0.4799"/>
	<stop  offset="0.7256" style="stop-color:#B7B5B8;stop-opacity:0.7256"/>
	<stop  offset="0.9053" style="stop-color:#EAE9EB;stop-opacity:0.9053"/>
	<stop  offset="1" style="stop-color:#FFFFFF"/>
</linearGradient>
<path class="st8" d="M308.2,394.4V48.1c0-7.3-3.4-13.8-8.7-18c6.8,4,11.4,11.4,11.4,19.8v342.6c0,8.5-4.6,15.9-11.4,19.8
	C304.8,408.2,308.2,401.7,308.2,394.4z"/>
<linearGradient id="SVGID_8_" gradientUnits="userSpaceOnUse" x1="7767.2979" y1="221.2709" x2="7771.5635" y2="221.2709" gradientTransform="matrix(-1 0 0 1 7895.0122 0)">
	<stop  offset="0" style="stop-color:#020203;stop-opacity:0"/>
	<stop  offset="0.1808" style="stop-color:#25252B;stop-opacity:0.1808"/>
	<stop  offset="0.4799" style="stop-color:#706D73;stop-opacity:0.4799"/>
	<stop  offset="0.7256" style="stop-color:#B7B5B8;stop-opacity:0.7256"/>
	<stop  offset="0.9053" style="stop-color:#EAE9EB;stop-opacity:0.9053"/>
	<stop  offset="1" style="stop-color:#FFFFFF"/>
</linearGradient>
<path class="st9" d="M127,394.4V48.1c0-7.3,3.4-13.8,8.7-18c-6.8,4-11.4,11.4-11.4,19.8v342.6c0,8.5,4.6,15.9,11.4,19.8
	C130.4,408.2,127,401.7,127,394.4z"/>
<path class="st6" d="M166.1,31.3c1.2,0.8,3.2,2.6,3.6,5.7c0.5,4.5,2.2,9.9,9.6,9.9h31.9c7.3,0,12.9,0,12.9,0h31.9
	c7.3,0,9.1-5.5,9.6-9.9c0.3-3.1,2.4-4.9,3.6-5.7H166.1z"/>
<linearGradient id="SVGID_9_" gradientUnits="userSpaceOnUse" x1="217.5931" y1="39.2254" x2="217.5931" y2="36.1528">
	<stop  offset="0" style="stop-color:#4E4D4D"/>
	<stop  offset="8.943182e-02" style="stop-color:#404042"/>
	<stop  offset="0.2769" style="stop-color:#28292C"/>
	<stop  offset="0.4641" style="stop-color:#16181C"/>
	<stop  offset="0.6484" style="stop-color:#090B0D"/>
	<stop  offset="0.8286" style="stop-color:#030405"/>
	<stop  offset="1" style="stop-color:#020203"/>
</linearGradient>
<path class="st10" d="M228.7,39.1h-22.2c-0.6,0-1.1-0.5-1.1-1.1v-0.6c0-0.6,0.5-1.1,1.1-1.1h22.2c0.6,0,1.1,0.5,1.1,1.1V38
	C229.8,38.6,229.3,39.1,228.7,39.1z"/>
<g>
	<path class="st6" d="M241.4,38.1c0,1.4-1.2,2.6-2.6,2.6c-1.4,0-2.6-1.2-2.6-2.6s1.2-2.6,2.6-2.6C240.2,35.5,241.4,36.6,241.4,38.1z
		"/>
	<linearGradient id="SVGID_10_" gradientUnits="userSpaceOnUse" x1="241.7261" y1="41.0017" x2="236.1797" y2="35.4552">
		<stop  offset="0" style="stop-color:#4E4D4D"/>
		<stop  offset="1" style="stop-color:#020203"/>
	</linearGradient>
	<path class="st11" d="M242.5,38.1c0,2.1-1.7,3.7-3.7,3.7c-2.1,0-3.7-1.7-3.7-3.7c0-2.1,1.7-3.7,3.7-3.7
		C240.9,34.4,242.5,36,242.5,38.1z"/>
	<linearGradient id="SVGID_11_" gradientUnits="userSpaceOnUse" x1="241.194" y1="40.4695" x2="236.6567" y2="35.9323">
		<stop  offset="0" style="stop-color:#020203"/>
		<stop  offset="1" style="stop-color:#4E4D4D"/>
	</linearGradient>
	<circle class="st12" cx="238.8" cy="38.1" r="3"/>
	<linearGradient id="SVGID_12_" gradientUnits="userSpaceOnUse" x1="236.8947" y1="36.1703" x2="241.0444" y2="40.32">
		<stop  offset="0" style="stop-color:#325BA7"/>
		<stop  offset="0.6936" style="stop-color:#020203;stop-opacity:0"/>
	</linearGradient>
	<path class="st13" d="M241.4,38.1c0,1.4-1.2,2.6-2.6,2.6c-1.4,0-2.6-1.2-2.6-2.6s1.2-2.6,2.6-2.6C240.2,35.5,241.4,36.6,241.4,38.1
		z"/>
	<radialGradient id="SVGID_13_" cx="239.0175" cy="40.6678" r="2.5942" gradientUnits="userSpaceOnUse">
		<stop  offset="0" style="stop-color:#325BA7"/>
		<stop  offset="0.8599" style="stop-color:#020203;stop-opacity:0"/>
	</radialGradient>
	<path class="st14" d="M241.4,38.1c0,1.4-1.2,2.6-2.6,2.6c-1.4,0-2.6-1.2-2.6-2.6s1.2-2.6,2.6-2.6C240.2,35.5,241.4,36.6,241.4,38.1
		z"/>
	<radialGradient id="SVGID_14_" cx="241.2602" cy="37.2616" r="1.7031" gradientUnits="userSpaceOnUse">
		<stop  offset="0" style="stop-color:#325BA7"/>
		<stop  offset="0.7042" style="stop-color:#020203;stop-opacity:0"/>
	</radialGradient>
	<path class="st15" d="M241.4,38.1c0,1.4-1.2,2.6-2.6,2.6c-1.4,0-2.6-1.2-2.6-2.6s1.2-2.6,2.6-2.6C240.2,35.5,241.4,36.6,241.4,38.1
		z"/>
	<radialGradient id="SVGID_15_" cx="237.2066" cy="38.9527" r="2.5832" gradientUnits="userSpaceOnUse">
		<stop  offset="0" style="stop-color:#FFFFFF"/>
		<stop  offset="0.136" style="stop-color:#ADABAF;stop-opacity:0.8466"/>
		<stop  offset="0.2832" style="stop-color:#6C696F;stop-opacity:0.6807"/>
		<stop  offset="0.4262" style="stop-color:#3F3E43;stop-opacity:0.5194"/>
		<stop  offset="0.5613" style="stop-color:#222227;stop-opacity:0.367"/>
		<stop  offset="0.6868" style="stop-color:#0E0F13;stop-opacity:0.2255"/>
		<stop  offset="0.799" style="stop-color:#040406;stop-opacity:9.897780e-02"/>
		<stop  offset="0.8868" style="stop-color:#020203;stop-opacity:0"/>
	</radialGradient>
	<path class="st16" d="M241.4,38.1c0,1.4-1.2,2.6-2.6,2.6c-1.4,0-2.6-1.2-2.6-2.6s1.2-2.6,2.6-2.6C240.2,35.5,241.4,36.6,241.4,38.1
		z"/>
</g>
<g>
	<text transform="matrix(1 0 0 1 151.0207 45.6531)" class="st17 st18 st19">8:30</text>
	<g>
		<rect x="269.3" y="43.9" class="st17" width="1.2" height="1.9"/>
		<rect x="271" y="43.2" class="st17" width="1.2" height="2.7"/>
		<rect x="272.7" y="42.4" class="st17" width="1.2" height="3.5"/>
		<rect x="274.3" y="41.5" class="st17" width="1.2" height="4.3"/>
	</g>
	<g>
		<path class="st17" d="M278.1,43.7c0.7-0.7,1.6-1.1,2.6-1.1c1,0,1.9,0.4,2.6,1.1l0.8-0.8c-0.9-0.9-2.1-1.4-3.4-1.4
			s-2.5,0.5-3.4,1.4L278.1,43.7z"/>
		<path class="st17" d="M279.2,44.8c0.4-0.4,1-0.6,1.6-0.6c0.6,0,1.2,0.2,1.6,0.6l0.8-0.8c-0.6-0.6-1.4-1-2.4-1
			c-0.9,0-1.8,0.4-2.4,1L279.2,44.8z"/>
		<path class="st17" d="M280.2,45.9c0.1-0.1,0.3-0.2,0.5-0.2c0.2,0,0.4,0.1,0.5,0.2l0.8-0.8c-0.3-0.3-0.8-0.5-1.3-0.5
			c-0.5,0-1,0.2-1.3,0.5L280.2,45.9z"/>
	</g>
	<g>
		<path class="st17" d="M293.1,45.3H286c-0.1,0-0.2-0.1-0.2-0.2v-2.8c0-0.1,0.1-0.2,0.2-0.2h7.1c0.1,0,0.2,0.1,0.2,0.2v2.8
			C293.3,45.2,293.2,45.3,293.1,45.3z"/>
		<path class="st17" d="M293.9,44.4h-0.2c-0.1,0-0.2-0.1-0.2-0.2v-1c0-0.1,0.1-0.2,0.2-0.2h0.2c0.1,0,0.2,0.1,0.2,0.2v1
			C294.1,44.3,294,44.4,293.9,44.4z"/>
	</g>
</g>
</svg>
