<?xml version="1.0" encoding="utf-8"?>
<!-- Generator: Adobe Illustrator 23.1.0, SVG Export Plug-In . SVG Version: 6.00 Build 0)  -->
<svg version="1.1" id="Layer_1" xmlns="http://www.w3.org/2000/svg" xmlns:xlink="http://www.w3.org/1999/xlink" x="0px" y="0px"
	 viewBox="0 0 985.4 990" style="enable-background:new 0 0 985.4 990;" xml:space="preserve">
<style type="text/css">
	.st0{fill:none;}
</style>
<g transform="translate(60,60)">
	<g transform="translate(240,0) scale(0.3,0.3)">
		<g transform="">
			<rect x="0" y="0" width="100" height="100"/>
		</g>
	</g>
	<g transform="translate(300,0) scale(0.3,0.3)">
		<g transform="">
			<rect x="0" y="0" width="100" height="100"/>
		</g>
	</g>
	<g transform="translate(330,0) scale(0.3,0.3)">
		<g transform="">
			<rect x="0" y="0" width="100" height="100"/>
		</g>
	</g>
	<g transform="translate(390,0) scale(0.3,0.3)">
		<g transform="">
			<rect x="0" y="0" width="100" height="100"/>
		</g>
	</g>
	<g transform="translate(420,0) scale(0.3,0.3)">
		<g transform="">
			<rect x="0" y="0" width="100" height="100"/>
		</g>
	</g>
	<g transform="translate(450,0) scale(0.3,0.3)">
		<g transform="">
			<rect x="0" y="0" width="100" height="100"/>
		</g>
	</g>
	<g transform="translate(540,0) scale(0.3,0.3)">
		<g transform="">
			<rect x="0" y="0" width="100" height="100"/>
		</g>
	</g>
	<g transform="translate(570,0) scale(0.3,0.3)">
		<g transform="">
			<rect x="0" y="0" width="100" height="100"/>
		</g>
	</g>
	<g transform="translate(600,0) scale(0.3,0.3)">
		<g transform="">
			<rect x="0" y="0" width="100" height="100"/>
		</g>
	</g>
	<g transform="translate(240,30) scale(0.3,0.3)">
		<g transform="">
			<rect x="0" y="0" width="100" height="100"/>
		</g>
	</g>
	<g transform="translate(270,30) scale(0.3,0.3)">
		<g transform="">
			<rect x="0" y="0" width="100" height="100"/>
		</g>
	</g>
	<g transform="translate(390,30) scale(0.3,0.3)">
		<g transform="">
			<rect x="0" y="0" width="100" height="100"/>
		</g>
	</g>
	<g transform="translate(480,30) scale(0.3,0.3)">
		<g transform="">
			<rect x="0" y="0" width="100" height="100"/>
		</g>
	</g>
	<g transform="translate(600,30) scale(0.3,0.3)">
		<g transform="">
			<rect x="0" y="0" width="100" height="100"/>
		</g>
	</g>
	<g transform="translate(270,60) scale(0.3,0.3)">
		<g transform="">
			<rect x="0" y="0" width="100" height="100"/>
		</g>
	</g>
	<g transform="translate(330,60) scale(0.3,0.3)">
		<g transform="">
			<rect x="0" y="0" width="100" height="100"/>
		</g>
	</g>
	<g transform="translate(480,60) scale(0.3,0.3)">
		<g transform="">
			<rect x="0" y="0" width="100" height="100"/>
		</g>
	</g>
	<g transform="translate(540,60) scale(0.3,0.3)">
		<g transform="">
			<rect x="0" y="0" width="100" height="100"/>
		</g>
	</g>
	<g transform="translate(240,90) scale(0.3,0.3)">
		<g transform="">
			<rect x="0" y="0" width="100" height="100"/>
		</g>
	</g>
	<g transform="translate(270,90) scale(0.3,0.3)">
		<g transform="">
			<rect x="0" y="0" width="100" height="100"/>
		</g>
	</g>
	<g transform="translate(330,90) scale(0.3,0.3)">
		<g transform="">
			<rect x="0" y="0" width="100" height="100"/>
		</g>
	</g>
	<g transform="translate(360,90) scale(0.3,0.3)">
		<g transform="">
			<rect x="0" y="0" width="100" height="100"/>
		</g>
	</g>
	<g transform="translate(420,90) scale(0.3,0.3)">
		<g transform="">
			<rect x="0" y="0" width="100" height="100"/>
		</g>
	</g>
	<g transform="translate(450,90) scale(0.3,0.3)">
		<g transform="">
			<rect x="0" y="0" width="100" height="100"/>
		</g>
	</g>
	<g transform="translate(510,90) scale(0.3,0.3)">
		<g transform="">
			<rect x="0" y="0" width="100" height="100"/>
		</g>
	</g>
	<g transform="translate(600,90) scale(0.3,0.3)">
		<g transform="">
			<rect x="0" y="0" width="100" height="100"/>
		</g>
	</g>
	<g transform="translate(270,120) scale(0.3,0.3)">
		<g transform="">
			<rect x="0" y="0" width="100" height="100"/>
		</g>
	</g>
	<g transform="translate(300,120) scale(0.3,0.3)">
		<g transform="">
			<rect x="0" y="0" width="100" height="100"/>
		</g>
	</g>
	<g transform="translate(360,120) scale(0.3,0.3)">
		<g transform="">
			<rect x="0" y="0" width="100" height="100"/>
		</g>
	</g>
	<g transform="translate(420,120) scale(0.3,0.3)">
		<g transform="">
			<rect x="0" y="0" width="100" height="100"/>
		</g>
	</g>
	<g transform="translate(480,120) scale(0.3,0.3)">
		<g transform="">
			<rect x="0" y="0" width="100" height="100"/>
		</g>
	</g>
	<g transform="translate(510,120) scale(0.3,0.3)">
		<g transform="">
			<rect x="0" y="0" width="100" height="100"/>
		</g>
	</g>
	<g transform="translate(540,120) scale(0.3,0.3)">
		<g transform="">
			<rect x="0" y="0" width="100" height="100"/>
		</g>
	</g>
	<g transform="translate(570,120) scale(0.3,0.3)">
		<g transform="">
			<rect x="0" y="0" width="100" height="100"/>
		</g>
	</g>
	<g transform="translate(270,150) scale(0.3,0.3)">
		<g transform="">
			<rect x="0" y="0" width="100" height="100"/>
		</g>
	</g>
	<g transform="translate(360,150) scale(0.3,0.3)">
		<g transform="">
			<rect x="0" y="0" width="100" height="100"/>
		</g>
	</g>
	<g transform="translate(390,150) scale(0.3,0.3)">
		<g transform="">
			<rect x="0" y="0" width="100" height="100"/>
		</g>
	</g>
	<g transform="translate(450,150) scale(0.3,0.3)">
		<g transform="">
			<rect x="0" y="0" width="100" height="100"/>
		</g>
	</g>
	<g transform="translate(480,150) scale(0.3,0.3)">
		<g transform="">
			<rect x="0" y="0" width="100" height="100"/>
		</g>
	</g>
	<g transform="translate(510,150) scale(0.3,0.3)">
		<g transform="">
			<rect x="0" y="0" width="100" height="100"/>
		</g>
	</g>
	<g transform="translate(570,150) scale(0.3,0.3)">
		<g transform="">
			<rect x="0" y="0" width="100" height="100"/>
		</g>
	</g>
	<g transform="translate(600,150) scale(0.3,0.3)">
		<g transform="">
			<rect x="0" y="0" width="100" height="100"/>
		</g>
	</g>
	<g transform="translate(240,180) scale(0.3,0.3)">
		<g transform="">
			<rect x="0" y="0" width="100" height="100"/>
		</g>
	</g>
	<g transform="translate(300,180) scale(0.3,0.3)">
		<g transform="">
			<rect x="0" y="0" width="100" height="100"/>
		</g>
	</g>
	<g transform="translate(360,180) scale(0.3,0.3)">
		<g transform="">
			<rect x="0" y="0" width="100" height="100"/>
		</g>
	</g>
	<g transform="translate(420,180) scale(0.3,0.3)">
		<g transform="">
			<rect x="0" y="0" width="100" height="100"/>
		</g>
	</g>
	<g transform="translate(480,180) scale(0.3,0.3)">
		<g transform="">
			<rect x="0" y="0" width="100" height="100"/>
		</g>
	</g>
	<g transform="translate(540,180) scale(0.3,0.3)">
		<g transform="">
			<rect x="0" y="0" width="100" height="100"/>
		</g>
	</g>
	<g transform="translate(600,180) scale(0.3,0.3)">
		<g transform="">
			<rect x="0" y="0" width="100" height="100"/>
		</g>
	</g>
	<g transform="translate(240,210) scale(0.3,0.3)">
		<g transform="">
			<rect x="0" y="0" width="100" height="100"/>
		</g>
	</g>
	<g transform="translate(300,210) scale(0.3,0.3)">
		<g transform="">
			<rect x="0" y="0" width="100" height="100"/>
		</g>
	</g>
	<g transform="translate(450,210) scale(0.3,0.3)">
		<g transform="">
			<rect x="0" y="0" width="100" height="100"/>
		</g>
	</g>
	<g transform="translate(480,210) scale(0.3,0.3)">
		<g transform="">
			<rect x="0" y="0" width="100" height="100"/>
		</g>
	</g>
	<g transform="translate(510,210) scale(0.3,0.3)">
		<g transform="">
			<rect x="0" y="0" width="100" height="100"/>
		</g>
	</g>
	<g transform="translate(0,240) scale(0.3,0.3)">
		<g transform="">
			<rect x="0" y="0" width="100" height="100"/>
		</g>
	</g>
	<g transform="translate(60,240) scale(0.3,0.3)">
		<g transform="">
			<rect x="0" y="0" width="100" height="100"/>
		</g>
	</g>
	<g transform="translate(90,240) scale(0.3,0.3)">
		<g transform="">
			<rect x="0" y="0" width="100" height="100"/>
		</g>
	</g>
	<g transform="translate(150,240) scale(0.3,0.3)">
		<g transform="">
			<rect x="0" y="0" width="100" height="100"/>
		</g>
	</g>
	<g transform="translate(180,240) scale(0.3,0.3)">
		<g transform="">
			<rect x="0" y="0" width="100" height="100"/>
		</g>
	</g>
	<g transform="translate(210,240) scale(0.3,0.3)">
		<g transform="">
			<rect x="0" y="0" width="100" height="100"/>
		</g>
	</g>
	<g transform="translate(270,240) scale(0.3,0.3)">
		<g transform="">
			<rect x="0" y="0" width="100" height="100"/>
		</g>
	</g>
	<g transform="translate(300,240) scale(0.3,0.3)">
		<g transform="">
			<rect x="0" y="0" width="100" height="100"/>
		</g>
	</g>
	<g transform="translate(330,240) scale(0.3,0.3)">
		<g transform="">
			<rect x="0" y="0" width="100" height="100"/>
		</g>
	</g>
	<g transform="translate(360,240) scale(0.3,0.3)">
		<g transform="">
			<rect x="0" y="0" width="100" height="100"/>
		</g>
	</g>
	<g transform="translate(390,240) scale(0.3,0.3)">
		<g transform="">
			<rect x="0" y="0" width="100" height="100"/>
		</g>
	</g>
	<g transform="translate(450,240) scale(0.3,0.3)">
		<g transform="">
			<rect x="0" y="0" width="100" height="100"/>
		</g>
	</g>
	<g transform="translate(480,240) scale(0.3,0.3)">
		<g transform="">
			<rect x="0" y="0" width="100" height="100"/>
		</g>
	</g>
	<g transform="translate(510,240) scale(0.3,0.3)">
		<g transform="">
			<rect x="0" y="0" width="100" height="100"/>
		</g>
	</g>
	<g transform="translate(540,240) scale(0.3,0.3)">
		<g transform="">
			<rect x="0" y="0" width="100" height="100"/>
		</g>
	</g>
	<g transform="translate(570,240) scale(0.3,0.3)">
		<g transform="">
			<rect x="0" y="0" width="100" height="100"/>
		</g>
	</g>
	<g transform="translate(660,240) scale(0.3,0.3)">
		<g transform="">
			<rect x="0" y="0" width="100" height="100"/>
		</g>
	</g>
	<g transform="translate(750,240) scale(0.3,0.3)">
		<g transform="">
			<rect x="0" y="0" width="100" height="100"/>
		</g>
	</g>
	<g transform="translate(810,240) scale(0.3,0.3)">
		<g transform="">
			<rect x="0" y="0" width="100" height="100"/>
		</g>
	</g>
	<g transform="translate(840,240) scale(0.3,0.3)">
		<g transform="">
			<rect x="0" y="0" width="100" height="100"/>
		</g>
	</g>
	<g transform="translate(30,270) scale(0.3,0.3)">
		<g transform="">
			<rect x="0" y="0" width="100" height="100"/>
		</g>
	</g>
	<g transform="translate(60,270) scale(0.3,0.3)">
		<g transform="">
			<rect x="0" y="0" width="100" height="100"/>
		</g>
	</g>
	<g transform="translate(120,270) scale(0.3,0.3)">
		<g transform="">
			<rect x="0" y="0" width="100" height="100"/>
		</g>
	</g>
	<g transform="translate(150,270) scale(0.3,0.3)">
		<g transform="">
			<rect x="0" y="0" width="100" height="100"/>
		</g>
	</g>
	<g transform="translate(300,270) scale(0.3,0.3)">
		<g transform="">
			<rect x="0" y="0" width="100" height="100"/>
		</g>
	</g>
	<g transform="translate(390,270) scale(0.3,0.3)">
		<g transform="">
			<rect x="0" y="0" width="100" height="100"/>
		</g>
	</g>
	<g transform="translate(420,270) scale(0.3,0.3)">
		<g transform="">
			<rect x="0" y="0" width="100" height="100"/>
		</g>
	</g>
	<g transform="translate(450,270) scale(0.3,0.3)">
		<g transform="">
			<rect x="0" y="0" width="100" height="100"/>
		</g>
	</g>
	<g transform="translate(510,270) scale(0.3,0.3)">
		<g transform="">
			<rect x="0" y="0" width="100" height="100"/>
		</g>
	</g>
	<g transform="translate(540,270) scale(0.3,0.3)">
		<g transform="">
			<rect x="0" y="0" width="100" height="100"/>
		</g>
	</g>
	<g transform="translate(570,270) scale(0.3,0.3)">
		<g transform="">
			<rect x="0" y="0" width="100" height="100"/>
		</g>
	</g>
	<g transform="translate(600,270) scale(0.3,0.3)">
		<g transform="">
			<rect x="0" y="0" width="100" height="100"/>
		</g>
	</g>
	<g transform="translate(630,270) scale(0.3,0.3)">
		<g transform="">
			<rect x="0" y="0" width="100" height="100"/>
		</g>
	</g>
	<g transform="translate(660,270) scale(0.3,0.3)">
		<g transform="">
			<rect x="0" y="0" width="100" height="100"/>
		</g>
	</g>
	<g transform="translate(690,270) scale(0.3,0.3)">
		<g transform="">
			<rect x="0" y="0" width="100" height="100"/>
		</g>
	</g>
	<g transform="translate(720,270) scale(0.3,0.3)">
		<g transform="">
			<rect x="0" y="0" width="100" height="100"/>
		</g>
	</g>
	<g transform="translate(840,270) scale(0.3,0.3)">
		<g transform="">
			<rect x="0" y="0" width="100" height="100"/>
		</g>
	</g>
	<g transform="translate(0,300) scale(0.3,0.3)">
		<g transform="">
			<rect x="0" y="0" width="100" height="100"/>
		</g>
	</g>
	<g transform="translate(90,300) scale(0.3,0.3)">
		<g transform="">
			<rect x="0" y="0" width="100" height="100"/>
		</g>
	</g>
	<g transform="translate(120,300) scale(0.3,0.3)">
		<g transform="">
			<rect x="0" y="0" width="100" height="100"/>
		</g>
	</g>
	<g transform="translate(150,300) scale(0.3,0.3)">
		<g transform="">
			<rect x="0" y="0" width="100" height="100"/>
		</g>
	</g>
	<g transform="translate(180,300) scale(0.3,0.3)">
		<g transform="">
			<rect x="0" y="0" width="100" height="100"/>
		</g>
	</g>
	<g transform="translate(300,300) scale(0.3,0.3)">
		<g transform="">
			<rect x="0" y="0" width="100" height="100"/>
		</g>
	</g>
	<g transform="translate(330,300) scale(0.3,0.3)">
		<g transform="">
			<rect x="0" y="0" width="100" height="100"/>
		</g>
	</g>
	<g transform="translate(390,300) scale(0.3,0.3)">
		<g transform="">
			<rect x="0" y="0" width="100" height="100"/>
		</g>
	</g>
	<g transform="translate(480,300) scale(0.3,0.3)">
		<g transform="">
			<rect x="0" y="0" width="100" height="100"/>
		</g>
	</g>
	<g transform="translate(540,300) scale(0.3,0.3)">
		<g transform="">
			<rect x="0" y="0" width="100" height="100"/>
		</g>
	</g>
	<g transform="translate(600,300) scale(0.3,0.3)">
		<g transform="">
			<rect x="0" y="0" width="100" height="100"/>
		</g>
	</g>
	<g transform="translate(630,300) scale(0.3,0.3)">
		<g transform="">
			<rect x="0" y="0" width="100" height="100"/>
		</g>
	</g>
	<g transform="translate(690,300) scale(0.3,0.3)">
		<g transform="">
			<rect x="0" y="0" width="100" height="100"/>
		</g>
	</g>
	<g transform="translate(720,300) scale(0.3,0.3)">
		<g transform="">
			<rect x="0" y="0" width="100" height="100"/>
		</g>
	</g>
	<g transform="translate(780,300) scale(0.3,0.3)">
		<g transform="">
			<rect x="0" y="0" width="100" height="100"/>
		</g>
	</g>
	<g transform="translate(810,300) scale(0.3,0.3)">
		<g transform="">
			<rect x="0" y="0" width="100" height="100"/>
		</g>
	</g>
	<g transform="translate(0,330) scale(0.3,0.3)">
		<g transform="">
			<rect x="0" y="0" width="100" height="100"/>
		</g>
	</g>
	<g transform="translate(90,330) scale(0.3,0.3)">
		<g transform="">
			<rect x="0" y="0" width="100" height="100"/>
		</g>
	</g>
	<g transform="translate(120,330) scale(0.3,0.3)">
		<g transform="">
			<rect x="0" y="0" width="100" height="100"/>
		</g>
	</g>
	<g transform="translate(210,330) scale(0.3,0.3)">
		<g transform="">
			<rect x="0" y="0" width="100" height="100"/>
		</g>
	</g>
	<g transform="translate(300,330) scale(0.3,0.3)">
		<g transform="">
			<rect x="0" y="0" width="100" height="100"/>
		</g>
	</g>
	<g transform="translate(450,330) scale(0.3,0.3)">
		<g transform="">
			<rect x="0" y="0" width="100" height="100"/>
		</g>
	</g>
	<g transform="translate(540,330) scale(0.3,0.3)">
		<g transform="">
			<rect x="0" y="0" width="100" height="100"/>
		</g>
	</g>
	<g transform="translate(570,330) scale(0.3,0.3)">
		<g transform="">
			<rect x="0" y="0" width="100" height="100"/>
		</g>
	</g>
	<g transform="translate(600,330) scale(0.3,0.3)">
		<g transform="">
			<rect x="0" y="0" width="100" height="100"/>
		</g>
	</g>
	<g transform="translate(690,330) scale(0.3,0.3)">
		<g transform="">
			<rect x="0" y="0" width="100" height="100"/>
		</g>
	</g>
	<g transform="translate(720,330) scale(0.3,0.3)">
		<g transform="">
			<rect x="0" y="0" width="100" height="100"/>
		</g>
	</g>
	<g transform="translate(840,330) scale(0.3,0.3)">
		<g transform="">
			<rect x="0" y="0" width="100" height="100"/>
		</g>
	</g>
	<g transform="translate(60,360) scale(0.3,0.3)">
		<g transform="">
			<rect x="0" y="0" width="100" height="100"/>
		</g>
	</g>
	<g transform="translate(90,360) scale(0.3,0.3)">
		<g transform="">
			<rect x="0" y="0" width="100" height="100"/>
		</g>
	</g>
	<g transform="translate(120,360) scale(0.3,0.3)">
		<g transform="">
			<rect x="0" y="0" width="100" height="100"/>
		</g>
	</g>
	<g transform="translate(150,360) scale(0.3,0.3)">
		<g transform="">
			<rect x="0" y="0" width="100" height="100"/>
		</g>
	</g>
	<g transform="translate(180,360) scale(0.3,0.3)">
		<g transform="">
			<rect x="0" y="0" width="100" height="100"/>
		</g>
	</g>
	<g transform="translate(240,360) scale(0.3,0.3)">
		<g transform="">
			<rect x="0" y="0" width="100" height="100"/>
		</g>
	</g>
	<g transform="translate(300,360) scale(0.3,0.3)">
		<g transform="">
			<rect x="0" y="0" width="100" height="100"/>
		</g>
	</g>
	<g transform="translate(330,360) scale(0.3,0.3)">
		<g transform="">
			<rect x="0" y="0" width="100" height="100"/>
		</g>
	</g>
	<g transform="translate(420,360) scale(0.3,0.3)">
		<g transform="">
			<rect x="0" y="0" width="100" height="100"/>
		</g>
	</g>
	<g transform="translate(450,360) scale(0.3,0.3)">
		<g transform="">
			<rect x="0" y="0" width="100" height="100"/>
		</g>
	</g>
	<g transform="translate(510,360) scale(0.3,0.3)">
		<g transform="">
			<rect x="0" y="0" width="100" height="100"/>
		</g>
	</g>
	<g transform="translate(750,360) scale(0.3,0.3)">
		<g transform="">
			<rect x="0" y="0" width="100" height="100"/>
		</g>
	</g>
	<g transform="translate(780,360) scale(0.3,0.3)">
		<g transform="">
			<rect x="0" y="0" width="100" height="100"/>
		</g>
	</g>
	<g transform="translate(30,390) scale(0.3,0.3)">
		<g transform="">
			<rect x="0" y="0" width="100" height="100"/>
		</g>
	</g>
	<g transform="translate(90,390) scale(0.3,0.3)">
		<g transform="">
			<rect x="0" y="0" width="100" height="100"/>
		</g>
	</g>
	<g transform="translate(210,390) scale(0.3,0.3)">
		<g transform="">
			<rect x="0" y="0" width="100" height="100"/>
		</g>
	</g>
	<g transform="translate(270,390) scale(0.3,0.3)">
		<g transform="">
			<rect x="0" y="0" width="100" height="100"/>
		</g>
	</g>
	<g transform="translate(420,390) scale(0.3,0.3)">
		<g transform="">
			<rect x="0" y="0" width="100" height="100"/>
		</g>
	</g>
	<g transform="translate(450,390) scale(0.3,0.3)">
		<g transform="">
			<rect x="0" y="0" width="100" height="100"/>
		</g>
	</g>
	<g transform="translate(480,390) scale(0.3,0.3)">
		<g transform="">
			<rect x="0" y="0" width="100" height="100"/>
		</g>
	</g>
	<g transform="translate(510,390) scale(0.3,0.3)">
		<g transform="">
			<rect x="0" y="0" width="100" height="100"/>
		</g>
	</g>
	<g transform="translate(540,390) scale(0.3,0.3)">
		<g transform="">
			<rect x="0" y="0" width="100" height="100"/>
		</g>
	</g>
	<g transform="translate(570,390) scale(0.3,0.3)">
		<g transform="">
			<rect x="0" y="0" width="100" height="100"/>
		</g>
	</g>
	<g transform="translate(660,390) scale(0.3,0.3)">
		<g transform="">
			<rect x="0" y="0" width="100" height="100"/>
		</g>
	</g>
	<g transform="translate(690,390) scale(0.3,0.3)">
		<g transform="">
			<rect x="0" y="0" width="100" height="100"/>
		</g>
	</g>
	<g transform="translate(780,390) scale(0.3,0.3)">
		<g transform="">
			<rect x="0" y="0" width="100" height="100"/>
		</g>
	</g>
	<g transform="translate(810,390) scale(0.3,0.3)">
		<g transform="">
			<rect x="0" y="0" width="100" height="100"/>
		</g>
	</g>
	<g transform="translate(840,390) scale(0.3,0.3)">
		<g transform="">
			<rect x="0" y="0" width="100" height="100"/>
		</g>
	</g>
	<g transform="translate(0,420) scale(0.3,0.3)">
		<g transform="">
			<rect x="0" width="100" height="100"/>
		</g>
	</g>
	<g transform="translate(30,420) scale(0.3,0.3)">
		<g transform="">
			<rect x="0" width="100" height="100"/>
		</g>
	</g>
	<g transform="translate(60,420) scale(0.3,0.3)">
		<g transform="">
			<rect x="0" width="100" height="100"/>
		</g>
	</g>
	<g transform="translate(120,420) scale(0.3,0.3)">
		<g transform="">
			<rect x="0" width="100" height="100"/>
		</g>
	</g>
	<g transform="translate(180,420) scale(0.3,0.3)">
		<g transform="">
			<rect x="0" width="100" height="100"/>
		</g>
	</g>
	<g transform="translate(210,420) scale(0.3,0.3)">
		<g transform="">
			<rect x="0" width="100" height="100"/>
		</g>
	</g>
	<g transform="translate(240,420) scale(0.3,0.3)">
		<g transform="">
			<rect x="0" width="100" height="100"/>
		</g>
	</g>
	<g transform="translate(270,420) scale(0.3,0.3)">
		<g transform="">
			<rect x="0" width="100" height="100"/>
		</g>
	</g>
	<g transform="translate(300,420) scale(0.3,0.3)">
		<g transform="">
			<rect x="0" width="100" height="100"/>
		</g>
	</g>
	<g transform="translate(360,420) scale(0.3,0.3)">
		<g transform="">
			<rect x="0" width="100" height="100"/>
		</g>
	</g>
	<g transform="translate(390,420) scale(0.3,0.3)">
		<g transform="">
			<rect x="0" width="100" height="100"/>
		</g>
	</g>
	<g transform="translate(480,420) scale(0.3,0.3)">
		<g transform="">
			<rect x="0" width="100" height="100"/>
		</g>
	</g>
	<g transform="translate(510,420) scale(0.3,0.3)">
		<g transform="">
			<rect x="0" width="100" height="100"/>
		</g>
	</g>
	<g transform="translate(570,420) scale(0.3,0.3)">
		<g transform="">
			<rect x="0" width="100" height="100"/>
		</g>
	</g>
	<g transform="translate(660,420) scale(0.3,0.3)">
		<g transform="">
			<rect x="0" width="100" height="100"/>
		</g>
	</g>
	<g transform="translate(690,420) scale(0.3,0.3)">
		<g transform="">
			<rect x="0" width="100" height="100"/>
		</g>
	</g>
	<g transform="translate(720,420) scale(0.3,0.3)">
		<g transform="">
			<rect x="0" width="100" height="100"/>
		</g>
	</g>
	<g transform="translate(780,420) scale(0.3,0.3)">
		<g transform="">
			<rect x="0" width="100" height="100"/>
		</g>
	</g>
	<g transform="translate(810,420) scale(0.3,0.3)">
		<g transform="">
			<rect x="0" width="100" height="100"/>
		</g>
	</g>
	<g transform="translate(840,420) scale(0.3,0.3)">
		<g transform="">
			<rect x="0" width="100" height="100"/>
		</g>
	</g>
	<g transform="translate(30,450) scale(0.3,0.3)">
		<g transform="">
			<rect x="0" y="0" width="100" height="100"/>
		</g>
	</g>
	<g transform="translate(60,450) scale(0.3,0.3)">
		<g transform="">
			<rect x="0" y="0" width="100" height="100"/>
		</g>
	</g>
	<g transform="translate(120,450) scale(0.3,0.3)">
		<g transform="">
			<rect x="0" y="0" width="100" height="100"/>
		</g>
	</g>
	<g transform="translate(210,450) scale(0.3,0.3)">
		<g transform="">
			<rect x="0" y="0" width="100" height="100"/>
		</g>
	</g>
	<g transform="translate(330,450) scale(0.3,0.3)">
		<g transform="">
			<rect x="0" y="0" width="100" height="100"/>
		</g>
	</g>
	<g transform="translate(420,450) scale(0.3,0.3)">
		<g transform="">
			<rect x="0" y="0" width="100" height="100"/>
		</g>
	</g>
	<g transform="translate(570,450) scale(0.3,0.3)">
		<g transform="">
			<rect x="0" y="0" width="100" height="100"/>
		</g>
	</g>
	<g transform="translate(690,450) scale(0.3,0.3)">
		<g transform="">
			<rect x="0" y="0" width="100" height="100"/>
		</g>
	</g>
	<g transform="translate(720,450) scale(0.3,0.3)">
		<g transform="">
			<rect x="0" y="0" width="100" height="100"/>
		</g>
	</g>
	<g transform="translate(810,450) scale(0.3,0.3)">
		<g transform="">
			<rect x="0" y="0" width="100" height="100"/>
		</g>
	</g>
	<g transform="translate(30,480) scale(0.3,0.3)">
		<g transform="">
			<rect x="0" y="0" width="100" height="100"/>
		</g>
	</g>
	<g transform="translate(120,480) scale(0.3,0.3)">
		<g transform="">
			<rect x="0" y="0" width="100" height="100"/>
		</g>
	</g>
	<g transform="translate(180,480) scale(0.3,0.3)">
		<g transform="">
			<rect x="0" y="0" width="100" height="100"/>
		</g>
	</g>
	<g transform="translate(210,480) scale(0.3,0.3)">
		<g transform="">
			<rect x="0" y="0" width="100" height="100"/>
		</g>
	</g>
	<g transform="translate(270,480) scale(0.3,0.3)">
		<g transform="">
			<rect x="0" y="0" width="100" height="100"/>
		</g>
	</g>
	<g transform="translate(330,480) scale(0.3,0.3)">
		<g transform="">
			<rect x="0" y="0" width="100" height="100"/>
		</g>
	</g>
	<g transform="translate(360,480) scale(0.3,0.3)">
		<g transform="">
			<rect x="0" y="0" width="100" height="100"/>
		</g>
	</g>
	<g transform="translate(420,480) scale(0.3,0.3)">
		<g transform="">
			<rect x="0" y="0" width="100" height="100"/>
		</g>
	</g>
	<g transform="translate(480,480) scale(0.3,0.3)">
		<g transform="">
			<rect x="0" y="0" width="100" height="100"/>
		</g>
	</g>
	<g transform="translate(540,480) scale(0.3,0.3)">
		<g transform="">
			<rect x="0" y="0" width="100" height="100"/>
		</g>
	</g>
	<g transform="translate(630,480) scale(0.3,0.3)">
		<g transform="">
			<rect x="0" y="0" width="100" height="100"/>
		</g>
	</g>
	<g transform="translate(720,480) scale(0.3,0.3)">
		<g transform="">
			<rect x="0" y="0" width="100" height="100"/>
		</g>
	</g>
	<g transform="translate(750,480) scale(0.3,0.3)">
		<g transform="">
			<rect x="0" y="0" width="100" height="100"/>
		</g>
	</g>
	<g transform="translate(810,480) scale(0.3,0.3)">
		<g transform="">
			<rect x="0" y="0" width="100" height="100"/>
		</g>
	</g>
	<g transform="translate(30,510) scale(0.3,0.3)">
		<g transform="">
			<rect x="0" y="0" width="100" height="100"/>
		</g>
	</g>
	<g transform="translate(120,510) scale(0.3,0.3)">
		<g transform="">
			<rect x="0" y="0" width="100" height="100"/>
		</g>
	</g>
	<g transform="translate(210,510) scale(0.3,0.3)">
		<g transform="">
			<rect x="0" y="0" width="100" height="100"/>
		</g>
	</g>
	<g transform="translate(240,510) scale(0.3,0.3)">
		<g transform="">
			<rect x="0" y="0" width="100" height="100"/>
		</g>
	</g>
	<g transform="translate(300,510) scale(0.3,0.3)">
		<g transform="">
			<rect x="0" y="0" width="100" height="100"/>
		</g>
	</g>
	<g transform="translate(360,510) scale(0.3,0.3)">
		<g transform="">
			<rect x="0" y="0" width="100" height="100"/>
		</g>
	</g>
	<g transform="translate(420,510) scale(0.3,0.3)">
		<g transform="">
			<rect x="0" y="0" width="100" height="100"/>
		</g>
	</g>
	<g transform="translate(450,510) scale(0.3,0.3)">
		<g transform="">
			<rect x="0" y="0" width="100" height="100"/>
		</g>
	</g>
	<g transform="translate(540,510) scale(0.3,0.3)">
		<g transform="">
			<rect x="0" y="0" width="100" height="100"/>
		</g>
	</g>
	<g transform="translate(600,510) scale(0.3,0.3)">
		<g transform="">
			<rect x="0" y="0" width="100" height="100"/>
		</g>
	</g>
	<g transform="translate(630,510) scale(0.3,0.3)">
		<g transform="">
			<rect x="0" y="0" width="100" height="100"/>
		</g>
	</g>
	<g transform="translate(690,510) scale(0.3,0.3)">
		<g transform="">
			<rect x="0" y="0" width="100" height="100"/>
		</g>
	</g>
	<g transform="translate(750,510) scale(0.3,0.3)">
		<g transform="">
			<rect x="0" y="0" width="100" height="100"/>
		</g>
	</g>
	<g transform="translate(780,510) scale(0.3,0.3)">
		<g transform="">
			<rect x="0" y="0" width="100" height="100"/>
		</g>
	</g>
	<g transform="translate(810,510) scale(0.3,0.3)">
		<g transform="">
			<rect x="0" y="0" width="100" height="100"/>
		</g>
	</g>
	<g transform="translate(0,540) scale(0.3,0.3)">
		<g transform="">
			<rect x="0" y="0" width="100" height="100"/>
		</g>
	</g>
	<g transform="translate(90,540) scale(0.3,0.3)">
		<g transform="">
			<rect x="0" y="0" width="100" height="100"/>
		</g>
	</g>
	<g transform="translate(180,540) scale(0.3,0.3)">
		<g transform="">
			<rect x="0" y="0" width="100" height="100"/>
		</g>
	</g>
	<g transform="translate(240,540) scale(0.3,0.3)">
		<g transform="">
			<rect x="0" y="0" width="100" height="100"/>
		</g>
	</g>
	<g transform="translate(330,540) scale(0.3,0.3)">
		<g transform="">
			<rect x="0" y="0" width="100" height="100"/>
		</g>
	</g>
	<g transform="translate(390,540) scale(0.3,0.3)">
		<g transform="">
			<rect x="0" y="0" width="100" height="100"/>
		</g>
	</g>
	<g transform="translate(420,540) scale(0.3,0.3)">
		<g transform="">
			<rect x="0" y="0" width="100" height="100"/>
		</g>
	</g>
	<g transform="translate(450,540) scale(0.3,0.3)">
		<g transform="">
			<rect x="0" y="0" width="100" height="100"/>
		</g>
	</g>
	<g transform="translate(480,540) scale(0.3,0.3)">
		<g transform="">
			<rect x="0" y="0" width="100" height="100"/>
		</g>
	</g>
	<g transform="translate(510,540) scale(0.3,0.3)">
		<g transform="">
			<rect x="0" y="0" width="100" height="100"/>
		</g>
	</g>
	<g transform="translate(540,540) scale(0.3,0.3)">
		<g transform="">
			<rect x="0" y="0" width="100" height="100"/>
		</g>
	</g>
	<g transform="translate(600,540) scale(0.3,0.3)">
		<g transform="">
			<rect x="0" y="0" width="100" height="100"/>
		</g>
	</g>
	<g transform="translate(630,540) scale(0.3,0.3)">
		<g transform="">
			<rect x="0" y="0" width="100" height="100"/>
		</g>
	</g>
	<g transform="translate(690,540) scale(0.3,0.3)">
		<g transform="">
			<rect x="0" y="0" width="100" height="100"/>
		</g>
	</g>
	<g transform="translate(780,540) scale(0.3,0.3)">
		<g transform="">
			<rect x="0" y="0" width="100" height="100"/>
		</g>
	</g>
	<g transform="translate(120,570) scale(0.3,0.3)">
		<g transform="">
			<rect x="0" y="0" width="100" height="100"/>
		</g>
	</g>
	<g transform="translate(270,570) scale(0.3,0.3)">
		<g transform="">
			<rect x="0" y="0" width="100" height="100"/>
		</g>
	</g>
	<g transform="translate(330,570) scale(0.3,0.3)">
		<g transform="">
			<rect x="0" y="0" width="100" height="100"/>
		</g>
	</g>
	<g transform="translate(360,570) scale(0.3,0.3)">
		<g transform="">
			<rect x="0" y="0" width="100" height="100"/>
		</g>
	</g>
	<g transform="translate(390,570) scale(0.3,0.3)">
		<g transform="">
			<rect x="0" y="0" width="100" height="100"/>
		</g>
	</g>
	<g transform="translate(420,570) scale(0.3,0.3)">
		<g transform="">
			<rect x="0" y="0" width="100" height="100"/>
		</g>
	</g>
	<g transform="translate(450,570) scale(0.3,0.3)">
		<g transform="">
			<rect x="0" y="0" width="100" height="100"/>
		</g>
	</g>
	<g transform="translate(480,570) scale(0.3,0.3)">
		<g transform="">
			<rect x="0" y="0" width="100" height="100"/>
		</g>
	</g>
	<g transform="translate(510,570) scale(0.3,0.3)">
		<g transform="">
			<rect x="0" y="0" width="100" height="100"/>
		</g>
	</g>
	<g transform="translate(540,570) scale(0.3,0.3)">
		<g transform="">
			<rect x="0" y="0" width="100" height="100"/>
		</g>
	</g>
	<g transform="translate(570,570) scale(0.3,0.3)">
		<g transform="">
			<rect x="0" y="0" width="100" height="100"/>
		</g>
	</g>
	<g transform="translate(630,570) scale(0.3,0.3)">
		<g transform="">
			<rect x="0" y="0" width="100" height="100"/>
		</g>
	</g>
	<g transform="translate(660,570) scale(0.3,0.3)">
		<g transform="">
			<rect x="0" y="0" width="100" height="100"/>
		</g>
	</g>
	<g transform="translate(780,570) scale(0.3,0.3)">
		<g transform="">
			<rect x="0" y="0" width="100" height="100"/>
		</g>
	</g>
	<g transform="translate(30,600) scale(0.3,0.3)">
		<g transform="">
			<rect x="0" y="0" width="100" height="100"/>
		</g>
	</g>
	<g transform="translate(90,600) scale(0.3,0.3)">
		<g transform="">
			<rect x="0" y="0" width="100" height="100"/>
		</g>
	</g>
	<g transform="translate(120,600) scale(0.3,0.3)">
		<g transform="">
			<rect x="0" y="0" width="100" height="100"/>
		</g>
	</g>
	<g transform="translate(180,600) scale(0.3,0.3)">
		<g transform="">
			<rect x="0" y="0" width="100" height="100"/>
		</g>
	</g>
	<g transform="translate(210,600) scale(0.3,0.3)">
		<g transform="">
			<rect x="0" y="0" width="100" height="100"/>
		</g>
	</g>
	<g transform="translate(330,600) scale(0.3,0.3)">
		<g transform="">
			<rect x="0" y="0" width="100" height="100"/>
		</g>
	</g>
	<g transform="translate(390,600) scale(0.3,0.3)">
		<g transform="">
			<rect x="0" y="0" width="100" height="100"/>
		</g>
	</g>
	<g transform="translate(420,600) scale(0.3,0.3)">
		<g transform="">
			<rect x="0" y="0" width="100" height="100"/>
		</g>
	</g>
	<g transform="translate(450,600) scale(0.3,0.3)">
		<g transform="">
			<rect x="0" y="0" width="100" height="100"/>
		</g>
	</g>
	<g transform="translate(480,600) scale(0.3,0.3)">
		<g transform="">
			<rect x="0" y="0" width="100" height="100"/>
		</g>
	</g>
	<g transform="translate(510,600) scale(0.3,0.3)">
		<g transform="">
			<rect x="0" y="0" width="100" height="100"/>
		</g>
	</g>
	<g transform="translate(540,600) scale(0.3,0.3)">
		<g transform="">
			<rect x="0" y="0" width="100" height="100"/>
		</g>
	</g>
	<g transform="translate(600,600) scale(0.3,0.3)">
		<g transform="">
			<rect x="0" y="0" width="100" height="100"/>
		</g>
	</g>
	<g transform="translate(630,600) scale(0.3,0.3)">
		<g transform="">
			<rect x="0" y="0" width="100" height="100"/>
		</g>
	</g>
	<g transform="translate(660,600) scale(0.3,0.3)">
		<g transform="">
			<rect x="0" y="0" width="100" height="100"/>
		</g>
	</g>
	<g transform="translate(690,600) scale(0.3,0.3)">
		<g transform="">
			<rect x="0" y="0" width="100" height="100"/>
		</g>
	</g>
	<g transform="translate(720,600) scale(0.3,0.3)">
		<g transform="">
			<rect x="0" y="0" width="100" height="100"/>
		</g>
	</g>
	<g transform="translate(750,600) scale(0.3,0.3)">
		<g transform="">
			<rect x="0" y="0" width="100" height="100"/>
		</g>
	</g>
	<g transform="translate(780,600) scale(0.3,0.3)">
		<g transform="">
			<rect x="0" y="0" width="100" height="100"/>
		</g>
	</g>
	<g transform="translate(240,630) scale(0.3,0.3)">
		<g transform="">
			<rect x="0" y="0" width="100" height="100"/>
		</g>
	</g>
	<g transform="translate(270,630) scale(0.3,0.3)">
		<g transform="">
			<rect x="0" y="0" width="100" height="100"/>
		</g>
	</g>
	<g transform="translate(300,630) scale(0.3,0.3)">
		<g transform="">
			<rect x="0" y="0" width="100" height="100"/>
		</g>
	</g>
	<g transform="translate(480,630) scale(0.3,0.3)">
		<g transform="">
			<rect x="0" y="0" width="100" height="100"/>
		</g>
	</g>
	<g transform="translate(510,630) scale(0.3,0.3)">
		<g transform="">
			<rect x="0" y="0" width="100" height="100"/>
		</g>
	</g>
	<g transform="translate(540,630) scale(0.3,0.3)">
		<g transform="">
			<rect x="0" y="0" width="100" height="100"/>
		</g>
	</g>
	<g transform="translate(600,630) scale(0.3,0.3)">
		<g transform="">
			<rect x="0" y="0" width="100" height="100"/>
		</g>
	</g>
	<g transform="translate(720,630) scale(0.3,0.3)">
		<g transform="">
			<rect x="0" y="0" width="100" height="100"/>
		</g>
	</g>
	<g transform="translate(750,630) scale(0.3,0.3)">
		<g transform="">
			<rect x="0" y="0" width="100" height="100"/>
		</g>
	</g>
	<g transform="translate(780,630) scale(0.3,0.3)">
		<g transform="">
			<rect x="0" y="0" width="100" height="100"/>
		</g>
	</g>
	<g transform="translate(810,630) scale(0.3,0.3)">
		<g transform="">
			<rect x="0" y="0" width="100" height="100"/>
		</g>
	</g>
	<g transform="translate(840,630) scale(0.3,0.3)">
		<g transform="">
			<rect x="0" y="0" width="100" height="100"/>
		</g>
	</g>
	<g transform="translate(240,660) scale(0.3,0.3)">
		<g transform="">
			<rect x="0" y="0" width="100" height="100"/>
		</g>
	</g>
	<g transform="translate(300,660) scale(0.3,0.3)">
		<g transform="">
			<rect x="0" y="0" width="100" height="100"/>
		</g>
	</g>
	<g transform="translate(420,660) scale(0.3,0.3)">
		<g transform="">
			<rect x="0" y="0" width="100" height="100"/>
		</g>
	</g>
	<g transform="translate(510,660) scale(0.3,0.3)">
		<g transform="">
			<rect x="0" y="0" width="100" height="100"/>
		</g>
	</g>
	<g transform="translate(570,660) scale(0.3,0.3)">
		<g transform="">
			<rect x="0" y="0" width="100" height="100"/>
		</g>
	</g>
	<g transform="translate(600,660) scale(0.3,0.3)">
		<g transform="">
			<rect x="0" y="0" width="100" height="100"/>
		</g>
	</g>
	<g transform="translate(660,660) scale(0.3,0.3)">
		<g transform="">
			<rect x="0" y="0" width="100" height="100"/>
		</g>
	</g>
	<g transform="translate(720,660) scale(0.3,0.3)">
		<g transform="">
			<rect x="0" y="0" width="100" height="100"/>
		</g>
	</g>
	<g transform="translate(750,660) scale(0.3,0.3)">
		<g transform="">
			<rect x="0" y="0" width="100" height="100"/>
		</g>
	</g>
	<g transform="translate(810,660) scale(0.3,0.3)">
		<g transform="">
			<rect x="0" y="0" width="100" height="100"/>
		</g>
	</g>
	<g transform="translate(240,690) scale(0.3,0.3)">
		<g transform="">
			<rect x="0" y="0" width="100" height="100"/>
		</g>
	</g>
	<g transform="translate(270,690) scale(0.3,0.3)">
		<g transform="">
			<rect x="0" y="0" width="100" height="100"/>
		</g>
	</g>
	<g transform="translate(300,690) scale(0.3,0.3)">
		<g transform="">
			<rect x="0" y="0" width="100" height="100"/>
		</g>
	</g>
	<g transform="translate(390,690) scale(0.3,0.3)">
		<g transform="">
			<rect x="0" y="0" width="100" height="100"/>
		</g>
	</g>
	<g transform="translate(420,690) scale(0.3,0.3)">
		<g transform="">
			<rect x="0" y="0" width="100" height="100"/>
		</g>
	</g>
	<g transform="translate(450,690) scale(0.3,0.3)">
		<g transform="">
			<rect x="0" y="0" width="100" height="100"/>
		</g>
	</g>
	<g transform="translate(540,690) scale(0.3,0.3)">
		<g transform="">
			<rect x="0" y="0" width="100" height="100"/>
		</g>
	</g>
	<g transform="translate(600,690) scale(0.3,0.3)">
		<g transform="">
			<rect x="0" y="0" width="100" height="100"/>
		</g>
	</g>
	<g transform="translate(720,690) scale(0.3,0.3)">
		<g transform="">
			<rect x="0" y="0" width="100" height="100"/>
		</g>
	</g>
	<g transform="translate(750,690) scale(0.3,0.3)">
		<g transform="">
			<rect x="0" y="0" width="100" height="100"/>
		</g>
	</g>
	<g transform="translate(300,720) scale(0.3,0.3)">
		<g transform="">
			<rect x="0" y="0" width="100" height="100"/>
		</g>
	</g>
	<g transform="translate(510,720) scale(0.3,0.3)">
		<g transform="">
			<rect x="0" y="0" width="100" height="100"/>
		</g>
	</g>
	<g transform="translate(600,720) scale(0.3,0.3)">
		<g transform="">
			<rect x="0" y="0" width="100" height="100"/>
		</g>
	</g>
	<g transform="translate(630,720) scale(0.3,0.3)">
		<g transform="">
			<rect x="0" y="0" width="100" height="100"/>
		</g>
	</g>
	<g transform="translate(660,720) scale(0.3,0.3)">
		<g transform="">
			<rect x="0" y="0" width="100" height="100"/>
		</g>
	</g>
	<g transform="translate(690,720) scale(0.3,0.3)">
		<g transform="">
			<rect x="0" y="0" width="100" height="100"/>
		</g>
	</g>
	<g transform="translate(720,720) scale(0.3,0.3)">
		<g transform="">
			<rect x="0" y="0" width="100" height="100"/>
		</g>
	</g>
	<g transform="translate(780,720) scale(0.3,0.3)">
		<g transform="">
			<rect x="0" y="0" width="100" height="100"/>
		</g>
	</g>
	<g transform="translate(810,720) scale(0.3,0.3)">
		<g transform="">
			<rect x="0" y="0" width="100" height="100"/>
		</g>
	</g>
	<g transform="translate(240,750) scale(0.3,0.3)">
		<g transform="">
			<rect x="0" y="0" width="100" height="100"/>
		</g>
	</g>
	<g transform="translate(270,750) scale(0.3,0.3)">
		<g transform="">
			<rect x="0" y="0" width="100" height="100"/>
		</g>
	</g>
	<g transform="translate(360,750) scale(0.3,0.3)">
		<g transform="">
			<rect x="0" y="0" width="100" height="100"/>
		</g>
	</g>
	<g transform="translate(450,750) scale(0.3,0.3)">
		<g transform="">
			<rect x="0" y="0" width="100" height="100"/>
		</g>
	</g>
	<g transform="translate(630,750) scale(0.3,0.3)">
		<g transform="">
			<rect x="0" y="0" width="100" height="100"/>
		</g>
	</g>
	<g transform="translate(720,750) scale(0.3,0.3)">
		<g transform="">
			<rect x="0" y="0" width="100" height="100"/>
		</g>
	</g>
	<g transform="translate(750,750) scale(0.3,0.3)">
		<g transform="">
			<rect x="0" y="0" width="100" height="100"/>
		</g>
	</g>
	<g transform="translate(840,750) scale(0.3,0.3)">
		<g transform="">
			<rect x="0" y="0" width="100" height="100"/>
		</g>
	</g>
	<g transform="translate(240,780) scale(0.3,0.3)">
		<g transform="">
			<rect x="0" y="0" width="100" height="100"/>
		</g>
	</g>
	<g transform="translate(300,780) scale(0.3,0.3)">
		<g transform="">
			<rect x="0" y="0" width="100" height="100"/>
		</g>
	</g>
	<g transform="translate(330,780) scale(0.3,0.3)">
		<g transform="">
			<rect x="0" y="0" width="100" height="100"/>
		</g>
	</g>
	<g transform="translate(420,780) scale(0.3,0.3)">
		<g transform="">
			<rect x="0" y="0" width="100" height="100"/>
		</g>
	</g>
	<g transform="translate(510,780) scale(0.3,0.3)">
		<g transform="">
			<rect x="0" y="0" width="100" height="100"/>
		</g>
	</g>
	<g transform="translate(540,780) scale(0.3,0.3)">
		<g transform="">
			<rect x="0" y="0" width="100" height="100"/>
		</g>
	</g>
	<g transform="translate(570,780) scale(0.3,0.3)">
		<g transform="">
			<rect x="0" y="0" width="100" height="100"/>
		</g>
	</g>
	<g transform="translate(630,780) scale(0.3,0.3)">
		<g transform="">
			<rect x="0" y="0" width="100" height="100"/>
		</g>
	</g>
	<g transform="translate(690,780) scale(0.3,0.3)">
		<g transform="">
			<rect x="0" y="0" width="100" height="100"/>
		</g>
	</g>
	<g transform="translate(780,780) scale(0.3,0.3)">
		<g transform="">
			<rect x="0" y="0" width="100" height="100"/>
		</g>
	</g>
	<g transform="translate(840,780) scale(0.3,0.3)">
		<g transform="">
			<rect x="0" y="0" width="100" height="100"/>
		</g>
	</g>
	<g transform="translate(390,810) scale(0.3,0.3)">
		<g transform="">
			<rect x="0" y="0" width="100" height="100"/>
		</g>
	</g>
	<g transform="translate(480,810) scale(0.3,0.3)">
		<g transform="">
			<rect x="0" y="0" width="100" height="100"/>
		</g>
	</g>
	<g transform="translate(540,810) scale(0.3,0.3)">
		<g transform="">
			<rect x="0" y="0" width="100" height="100"/>
		</g>
	</g>
	<g transform="translate(600,810) scale(0.3,0.3)">
		<g transform="">
			<rect x="0" y="0" width="100" height="100"/>
		</g>
	</g>
	<g transform="translate(690,810) scale(0.3,0.3)">
		<g transform="">
			<rect x="0" y="0" width="100" height="100"/>
		</g>
	</g>
	<g transform="translate(750,810) scale(0.3,0.3)">
		<g transform="">
			<rect x="0" y="0" width="100" height="100"/>
		</g>
	</g>
	<g transform="translate(810,810) scale(0.3,0.3)">
		<g transform="">
			<rect x="0" y="0" width="100" height="100"/>
		</g>
	</g>
	<g transform="translate(240,840) scale(0.3,0.3)">
		<g transform="">
			<rect x="0" y="0" width="100" height="100"/>
		</g>
	</g>
	<g transform="translate(270,840) scale(0.3,0.3)">
		<g transform="">
			<rect x="0" y="0" width="100" height="100"/>
		</g>
	</g>
	<g transform="translate(300,840) scale(0.3,0.3)">
		<g transform="">
			<rect x="0" y="0" width="100" height="100"/>
		</g>
	</g>
	<g transform="translate(360,840) scale(0.3,0.3)">
		<g transform="">
			<rect x="0" y="0" width="100" height="100"/>
		</g>
	</g>
	<g transform="translate(420,840) scale(0.3,0.3)">
		<g transform="">
			<rect x="0" y="0" width="100" height="100"/>
		</g>
	</g>
	<g transform="translate(540,840) scale(0.3,0.3)">
		<g transform="">
			<rect x="0" y="0" width="100" height="100"/>
		</g>
	</g>
	<g transform="translate(570,840) scale(0.3,0.3)">
		<g transform="">
			<rect x="0" y="0" width="100" height="100"/>
		</g>
	</g>
	<g transform="translate(600,840) scale(0.3,0.3)">
		<g transform="">
			<rect x="0" y="0" width="100" height="100"/>
		</g>
	</g>
	<g transform="translate(750,840) scale(0.3,0.3)">
		<g transform="">
			<rect x="0" y="0" width="100" height="100"/>
		</g>
	</g>
	<g transform="translate(810,840) scale(0.3,0.3)">
		<g transform="">
			<rect x="0" y="0" width="100" height="100"/>
		</g>
	</g>
	<g transform="translate(0,0) scale(2.1, 2.1)">
		<g transform="">
			<g>
				<rect x="15" y="15" class="st0" width="70" height="70"/>
				<path d="M85,0H15H0v15v70v15h15h70h15V85V15V0H85z M85,85H15V15h70V85z"/>
			</g>
		</g>
	</g>
	<g transform="translate(660,0) scale(2.1, 2.1)">
		<g transform="">
			<g>
				<rect x="15" y="15" class="st0" width="70" height="70"/>
				<path d="M85,0H15H0v15v70v15h15h70h15V85V15V0H85z M85,85H15V15h70V85z"/>
			</g>
		</g>
	</g>
	<g transform="translate(0,660) scale(2.1, 2.1)">
		<g transform="">
			<g>
				<rect x="15" y="15" class="st0" width="70" height="70"/>
				<path d="M85,0H15H0v15v70v15h15h70h15V85V15V0H85z M85,85H15V15h70V85z"/>
			</g>
		</g>
	</g>
	<g transform="translate(60,60) scale(0.9, 0.9)">
		<g transform="">
			<rect x="0" y="0" width="100" height="100"/>
		</g>
	</g>
	<g transform="translate(720,60) scale(0.9, 0.9)">
		<g transform="">
			<rect x="0" y="0" width="100" height="100"/>
		</g>
	</g>
	<g transform="translate(60,720) scale(0.9, 0.9)">
		<g transform="">
			<rect x="0" y="0" width="100" height="100"/>
		</g>
	</g>
</g>
</svg>
