<?xml version="1.0" encoding="utf-8"?>
<!-- Generator: Adobe Illustrator 23.1.0, SVG Export Plug-In . SVG Version: 6.00 Build 0)  -->
<svg version="1.1" id="Ebene_1" xmlns="http://www.w3.org/2000/svg" xmlns:xlink="http://www.w3.org/1999/xlink" x="0px" y="0px"
	 viewBox="0 0 97.5 178.5" style="enable-background:new 0 0 97.5 178.5;" xml:space="preserve">
<style type="text/css">
	.st0{fill:#CACACA;}
	.st1{fill:#FFFFFF;}
	.st2{fill:#4CC2F1;}
	.st3{fill:#0097CA;}
	.st4{fill:#1D2342;}
	.st5{fill:#0472A4;}
	.st6{fill:#A0BECE;}
</style>
<g>
	<path class="st0" d="M97,32c0,1.8-1.5,3.3-3.3,3.3l0,0c-1.8,0-3.3-1.5-3.3-3.3V17.9c0-1.8,1.5-3.3,3.3-3.3l0,0
		c1.8,0,3.3,1.5,3.3,3.3V32z"/>
	<path class="st0" d="M97,57.6c0,1.8-1.5,3.3-3.3,3.3l0,0c-1.8,0-3.3-1.5-3.3-3.3V43.4c0-1.8,1.5-3.3,3.3-3.3l0,0
		c1.8,0,3.3,1.5,3.3,3.3V57.6z"/>
	<path class="st0" d="M97,151.6c0,1.8-1.5,3.3-3.3,3.3l0,0c-1.8,0-3.3-1.5-3.3-3.3v-14.1c0-1.8,1.5-3.3,3.3-3.3l0,0
		c1.8,0,3.3,1.5,3.3,3.3V151.6z"/>
	<path class="st0" d="M92.1,170.4c0,4.2-3.4,7.5-7.5,7.5H7.9c-4.2,0-7.5-3.4-7.5-7.5V8c0-4.2,3.4-7.5,7.5-7.5h76.7
		c4.2,0,7.5,3.4,7.5,7.5V170.4z"/>
	<path class="st1" d="M94.9,170.4c0,4.2-3.4,7.5-7.5,7.5H10.7c-4.2,0-7.5-3.4-7.5-7.5V8c0-4.2,3.4-7.5,7.5-7.5h76.7
		c4.2,0,7.5,3.4,7.5,7.5V170.4z"/>
	<g>
		<path class="st0" d="M53.4,9.2c0,0.9-0.7,1.6-1.6,1.6H42c-0.9,0-1.6-0.7-1.6-1.6l0,0c0-0.9,0.7-1.6,1.6-1.6h9.8
			C52.7,7.5,53.4,8.3,53.4,9.2L53.4,9.2z"/>
		<path class="st0" d="M59.4,9.2c0,0.9-0.7,1.6-1.6,1.6c-0.9,0-1.6-0.7-1.6-1.6c0-0.9,0.7-1.6,1.6-1.6C58.7,7.5,59.4,8.3,59.4,9.2z"
			/>
	</g>
	<rect x="7.4" y="17" class="st2" width="83.2" height="137.9"/>
	<rect x="7.4" y="17" class="st3" width="83.2" height="13.6"/>
	<path class="st0" d="M64.2,172.2c0,1-1.2,1.8-2.7,1.8H38.4c-1.5,0-2.7-0.8-2.7-1.8v-11.5c0-1,1.2-1.8,2.7-1.8h23.1
		c1.5,0,2.7,0.8,2.7,1.8V172.2z"/>
	<g>
		<rect x="23.7" y="47.4" class="st1" width="50.3" height="50.3"/>
		<polygon class="st1" points="77.7,88.4 77.7,100.8 64.8,100.8 64.8,103.9 80.5,103.9 80.5,88.4 		"/>
		<polygon class="st1" points="33,43.7 20.6,43.7 20.6,56.7 17.5,56.7 17.5,40.9 33,40.9 		"/>
		<g>
			<path class="st4" d="M37.8,51.9h-9.5v9.5h9.5V51.9z M36.3,59.9h-6.4v-6.4h6.4V59.9z"/>
			<rect x="31" y="54.7" class="st4" width="3.9" height="3.9"/>
			<rect x="41" y="51.9" class="st4" width="3.2" height="3.2"/>
			<polygon class="st4" points="31.4,67.8 28.3,67.8 28.3,70.9 28.3,74.1 31.4,74.1 31.4,70.9 			"/>
			<rect x="34.6" y="67.8" class="st4" width="3.2" height="3.2"/>
			<rect x="31.4" y="64.6" class="st4" width="3.2" height="3.2"/>
			<polygon class="st4" points="63.2,67.8 63.2,64.6 60,64.6 56.8,64.6 56.8,67.8 60,67.8 60,70.9 63.2,70.9 63.2,74.1 60,74.1 
				56.8,74.1 56.8,70.9 56.8,67.8 53.7,67.8 53.7,64.6 56.8,64.6 56.8,61.4 56.8,58.3 53.7,58.3 53.7,55.1 56.8,55.1 56.8,51.9 
				53.7,51.9 50.5,51.9 47.3,51.9 47.3,55.1 50.5,55.1 50.5,58.3 50.5,61.4 47.3,61.4 47.3,64.6 50.5,64.6 50.5,67.8 50.5,70.9 
				47.3,70.9 47.3,74.1 50.5,74.1 50.5,77.3 50.5,80.5 47.3,80.5 47.3,83.6 50.5,83.6 50.5,86.8 50.5,90 47.3,90 47.3,93.1 
				50.5,93.1 53.7,93.1 56.8,93.1 56.8,90 53.7,90 53.7,86.8 56.8,86.8 56.8,83.6 56.8,80.5 53.7,80.5 53.7,77.3 56.8,77.3 60,77.3 
				60,80.5 63.2,80.5 63.2,77.3 66.3,77.3 66.3,80.5 69.5,80.5 69.5,77.3 69.5,74.1 66.3,74.1 66.3,70.9 69.5,70.9 69.5,67.8 
				66.3,67.8 			"/>
			<path class="st4" d="M60,51.9v9.5h9.5v-9.5H60z M68,59.9h-6.4v-6.4H68V59.9z"/>
			<rect x="62.7" y="54.7" class="st4" width="3.9" height="3.9"/>
			<path class="st4" d="M28.3,93.1h9.5v-9.5h-9.5V93.1z M29.8,85.2h6.4v6.4h-6.4V85.2z"/>
			<rect x="31" y="86.4" class="st4" width="3.9" height="3.9"/>
			<polygon class="st4" points="47.3,83.6 44.1,83.6 44.1,80.5 47.3,80.5 47.3,77.3 47.3,74.1 44.1,74.1 44.1,70.9 47.3,70.9 
				47.3,67.8 44.1,67.8 44.1,64.6 44.1,61.4 47.3,61.4 47.3,58.3 47.3,55.1 44.1,55.1 44.1,58.3 41,58.3 41,61.4 41,64.6 37.8,64.6 
				37.8,67.8 41,67.8 41,70.9 37.8,70.9 37.8,74.1 41,74.1 41,77.3 37.8,77.3 37.8,74.1 34.6,74.1 31.4,74.1 31.4,77.3 34.6,77.3 
				34.6,80.5 37.8,80.5 41,80.5 41,83.6 41,86.8 44.1,86.8 44.1,90 47.3,90 47.3,86.8 			"/>
			<rect x="41" y="90" class="st4" width="3.2" height="3.2"/>
			<rect x="28.3" y="77.3" class="st4" width="3.2" height="3.2"/>
			<path class="st4" d="M60,93.1h9.5v-9.5H60V93.1z M61.5,85.2H68v6.4h-6.4V85.2z"/>
			<rect x="62.7" y="86.4" class="st4" width="3.9" height="3.9"/>
		</g>
	</g>
	<g>
		<g>
			<path class="st5" d="M72.6,125.8c0,2.8-2.2,5-5,5H34.6c-2.8,0-5-2.2-5-5v-8.3c0-2.8,2.2-5,5-5h33.1c2.8,0,5,2.2,5,5V125.8z"/>
			<path class="st6" d="M67.6,112.5H34.6c-1.6,0-3.1,0.8-4,2c0.7-0.4,1.6-0.7,2.5-0.7h33.1c2.8,0,5,2.2,5,5v8.3c0,1.1-0.4,2.2-1,3
				c1.5-0.9,2.5-2.5,2.5-4.3v-8.3C72.6,114.7,70.4,112.5,67.6,112.5z"/>
		</g>
		<g>
			<path class="st1" d="M41.4,123l0,0.2l0,0.2l0,0.2l-0.1,0.2l-0.1,0.1l-0.1,0.2l-0.1,0.1l-0.1,0.2l-0.1,0.1l-0.1,0.1l-0.1,0.1
				l-0.2,0.1l-0.1,0.1l-0.2,0.1l-0.1,0.1l-0.2,0.1l-0.3,0.1l-0.2,0l-0.3,0l-0.2,0l-0.2,0l-0.1,0l-0.2,0l-0.5,0h-0.2l-0.1,0l-0.2,0
				l-0.2,0l-0.2,0l-0.2-0.1l-0.2-0.1l-0.1-0.1l-0.2-0.1L36,125l-0.1-0.1l-0.3-0.2l-0.1-0.1l-0.2-0.1l-0.1-0.1l-0.1-0.1l-0.1-0.1
				l0-0.1L35,124l0-0.1l0.1-0.1l0.3-0.3l0.1-0.1l0.2-0.3l0.1-0.1l0.1-0.1l0.1-0.1l0.1,0l0.1,0.1l0.3,0.2l0.2,0.1l0.1,0.1l0.2,0.1
				l0.2,0.1l0.2,0.1l0.2,0l0.2,0l0.2,0l0.6,0l0.2,0l0.1,0l0.2-0.1l0.1-0.1l0.1-0.1l0.1-0.1l0.1-0.2l0-0.2l0-0.1l-0.1-0.1l-0.1-0.1
				l-0.1-0.1l-0.1,0l-0.2-0.1l-0.2,0l-0.2,0l-1-0.1l-0.3-0.1l-0.2,0l-0.2-0.1l-0.2-0.1l-0.2-0.1l-0.3-0.2l-0.1-0.1l-0.2-0.1
				l-0.1-0.1l-0.2-0.1l-0.1-0.1l-0.1-0.2l-0.1-0.2l-0.1-0.2l0-0.2l0-0.2l0-0.3l0-0.2l0-0.2l0-0.2l0-0.1l0.1-0.2l0.1-0.2l0.1-0.1
				l0.1-0.1l0.1-0.1l0.2-0.2l0.1-0.1l0.1-0.1l0.1-0.1l0.2-0.1l0.3-0.1l0.2-0.1l0.2,0l0.2,0l0.3,0l0.2,0l0.2,0l0.2,0h0.2l0.3,0l0.2,0
				l0.1,0l0.2,0l0.3,0.1l0.2,0l0.2,0.1l0.2,0.1l0.2,0.1l0.2,0.1l0.2,0.1l0.2,0.1l0.1,0.1l0.1,0.1l0.1,0.1v0.1l-0.1,0.1l-0.1,0.2
				l-0.1,0.1l-0.4,0.5l-0.1,0.1l-0.1,0.1l-0.1,0l-0.1,0l-0.1-0.1l-0.2-0.1l-0.2-0.1l-0.1,0l-0.2-0.1l-0.1,0l-0.2,0l-0.2-0.1l-0.2,0
				l-0.3,0H38l-0.2,0l-0.2,0l-0.2,0.1l-0.1,0l-0.1,0.1l-0.1,0.1l-0.1,0.1l0,0.2l0,0.1l0.1,0.1l0.1,0.1l0.1,0.1l0.1,0l0.2,0l0.3,0
				l0.3,0l0.2,0l0.3,0.1l0.3,0.1l0.2,0.1l0.2,0l0.3,0.1l0.2,0.1l0.1,0.1l0.1,0.1l0.1,0.1l0.3,0.2l0.1,0.1l0.1,0.1l0.1,0.2l0.1,0.1
				l0.1,0.2l0,0.2l0,0.2l0,0.2L41.4,123z"/>
			<path class="st1" d="M48.9,124.3L48.9,124.3l-0.3,0.2l-0.1,0.1l-0.2,0.1l-0.1,0.1L48,125l-0.1,0.1l-0.2,0.1l-0.2,0.1l-0.2,0.1
				l-0.2,0l-0.3,0.1l-0.4,0l-0.2,0l-0.3,0h-0.5l-0.2,0l-0.2,0l-0.2,0l-0.2,0l-0.2-0.1l-0.5-0.1l-0.2-0.1l-0.1-0.1l-0.2-0.1l-0.1-0.1
				l-0.1-0.1l-0.1-0.1l-0.3-0.2l-0.1-0.1l-0.1-0.1l-0.1-0.2l-0.1-0.1l-0.1-0.1l-0.1-0.1l-0.1-0.2l-0.2-0.4l-0.1-0.2l-0.1-0.3l0-0.2
				l0-0.2l0-0.2l0-0.2v-0.2l0-0.3l0-0.2l0-0.2l0-0.2l0-0.2l0.1-0.2l0.1-0.1l0.1-0.2l0.1-0.1l0.1-0.2l0.1-0.2l0.1-0.2l0.1-0.1
				l0.1-0.1L43,119l0.1-0.1l0.1-0.1l0.1-0.1l0.1-0.1l0.3-0.2l0.1-0.1l0.1-0.1l0.3-0.1l0.2-0.1l0.2-0.1l0.3-0.1l0.2,0l0.2,0l0.3,0
				l0.2,0l0.2,0l0.2,0l0.4,0.1l0.1,0l0.2,0l0.4,0.1l0.1,0.1l0.2,0.1l0.1,0.1l0.3,0.2l0.3,0.2l0.1,0.1l0.1,0.1l0.1,0.1l0,0.1l0,0.1
				l-0.1,0.1l-0.1,0.1l-0.1,0.1l-0.1,0.1l-0.1,0.1l-0.1,0.1l-0.2,0.2l-0.1,0.1l-0.1,0.1l-0.1,0.1l-0.1,0l-0.1,0l-0.1,0l-0.1-0.1
				l-0.2-0.1l-0.1-0.1l-0.2-0.1l-0.1-0.1l-0.2-0.1l-0.2,0l-0.3,0H46l-0.2,0l-0.2,0l-0.2,0.1l-0.2,0.1l-0.1,0.1l-0.2,0.1l-0.1,0.1
				l-0.1,0.1l-0.1,0.1l-0.1,0.1l-0.1,0.1l-0.1,0.1l-0.1,0.2l-0.1,0.2l0,0.2l0,0.2l0,0.3v0.2l0,0.3l0,0.2l0.1,0.2l0.1,0.2l0.1,0.2
				l0.1,0.2l0.2,0.2l0.1,0.1l0.2,0.2l0.1,0.1l0.2,0.1l0.2,0.1l0.2,0.1l0.2,0l0.2,0h0.2l0.1,0l0.1,0l0.2-0.1l0.3-0.1l0.2-0.1l0.2-0.1
				l0.1-0.1l0.2-0.1l0.1-0.1l0.1-0.1l0.1,0l0.1,0l0.1,0.1l0.1,0.1l0,0.1l0.1,0.1l0.2,0.2l0.1,0.1l0.3,0.3l0.1,0.1l0.1,0.1
				L48.9,124.3L48.9,124.3z"/>
			<path class="st1" d="M57.9,125l0,0.1l-0.1,0.1l-0.1,0.1l-0.1,0h-0.1l-0.2,0l-0.2,0h-0.5l-0.6,0l-0.1,0l-0.1-0.1l-0.1-0.1
				l-0.3-0.9l-0.1-0.1l-0.1,0l-0.1,0l-0.6,0h-0.2l-0.8,0l-0.6,0h-0.2l-0.2,0h-0.5l-0.1,0l-0.1,0.1l-0.1,0.1l-0.2,0.7l-0.1,0.2
				l-0.1,0.1l-0.2,0.1l-0.2,0l-0.6,0h-0.2l-0.6,0l-0.1,0l-0.1-0.1l-0.1-0.1l0-0.1l0-0.1l0.1-0.2l0.1-0.3l0.1-0.2l0.3-0.6l0.1-0.1
				l0.3-0.6l0.1-0.2l0.2-0.5l0.1-0.2l0.3-0.6l0.1-0.1l0.4-0.8l0.3-0.6l0.1-0.2l0.2-0.5l0.1-0.2l0.2-0.5l0.1-0.2l0.2-0.4l0.1-0.1
				l0.1-0.1l0.2,0l0.5,0h0.8l0.5,0l0.2,0l0.1,0.1l0.1,0.1l0.1,0.4l0.1,0.2l0.3,0.5l0.1,0.1l0.2,0.5l0.1,0.1l0.2,0.5l0.1,0.1l0.2,0.5
				l0.1,0.1l0.2,0.5l0.1,0.1l0.2,0.5l0.1,0.1l0.3,0.6l0.2,0.5l0.1,0.1l0.3,0.6L57.9,125z M54.5,122.1l0-0.1l-0.2-0.7l-0.1-0.2
				l-0.2-0.6l-0.1-0.1l-0.1-0.1l-0.1,0l-0.1,0l-0.1,0.1l-0.3,0.7l-0.1,0.2l-0.3,0.7l0,0.2l0,0.1l0.1,0.1l0.1,0h0.6l0.5,0l0.1,0
				l0.1-0.1L54.5,122.1z"/>
			<path class="st1" d="M65.9,119.5l0,0.2v1.5l0,0.6v0.2l0,1.3v0.2l0,0.1l0,0.2l0,0.5l0,0.6l0,0.1l0,0.1l-0.1,0.1l-0.1,0.1l-0.1,0
				l-0.1,0l-0.5,0l-0.2,0l-0.3,0h-0.2l-0.1,0l-0.1-0.1l-0.1-0.1l-0.1-0.1l-0.2-0.3l-0.1-0.1l-0.4-0.5l-0.1-0.1l-0.4-0.5l-0.1-0.1
				l-0.4-0.5l-0.1-0.1l-0.4-0.5l-0.1-0.1l-0.4-0.5l-0.1-0.1l-0.1,0l0,0.1l0,0.5v0.2l0,0.5v0.2l0,0.6v0.2l0,0.6l0,0.2l0.1,0.4l0,0.2
				l0,0.1l-0.1,0.1l-0.1,0l-0.1,0l-0.1,0l-0.2,0l-0.5,0H60l-0.4,0h-0.2l-0.2,0l-0.1,0l-0.1-0.1l0-0.1l0-0.1l0-0.1v-0.2l0-0.3l0-0.2
				l0-0.5v-0.2l0-1.2l0-0.2l0-0.5l0-0.2v-0.7l0-0.5v-0.2l0-0.5l0-0.2l0-0.5l0-0.2v-0.2l0-0.2l0-0.2l0-0.1l0-0.1l0.1,0l0.1,0l0.3,0
				l0.3,0h0.8l0.1,0l0.1,0l0.1,0.1l0.4,0.5l0.1,0.1l0.4,0.5l0.1,0.1l0.4,0.5l0.1,0.1l0.4,0.5l0.1,0.1l0.4,0.5l0.1,0.1l0.4,0.5
				l0.1,0.1l0.1,0l0.1-0.1v-0.1l-0.1-0.4l0-0.2l0-0.4v-0.2l0-0.6v-0.2l0-0.6l0-0.2l0-0.4v-0.3l0-0.1l0-0.1l0.1,0l0.1,0h0.1l0.2,0
				l0.5,0H65l0.3,0l0.2,0l0.2,0l0.1,0l0.1,0l0.1,0.1l0,0.1l0,0.1l0,0.2l0,0.3l0,0.2L65.9,119.5z"/>
		</g>
	</g>
	<path class="st1" d="M54.6,23.9c0,2.5-2,4.4-4.4,4.4H13.5c-2.5,0-4.4-2-4.4-4.4l0,0c0-2.5,2-4.4,4.4-4.4h36.6
		C52.6,19.4,54.6,21.4,54.6,23.9L54.6,23.9z"/>
	<path class="st5" d="M88.2,23.9c0,2.5-2,4.4-4.4,4.4c-2.5,0-4.4-2-4.4-4.4c0-2.5,2-4.4,4.4-4.4C86.2,19.4,88.2,21.4,88.2,23.9z"/>
	<path class="st5" d="M77.5,23.9c0,2.5-2,4.4-4.4,4.4c-2.5,0-4.4-2-4.4-4.4c0-2.5,2-4.4,4.4-4.4C75.5,19.4,77.5,21.4,77.5,23.9z"/>
	<path class="st5" d="M66.7,23.9c0,2.5-2,4.4-4.4,4.4c-2.5,0-4.4-2-4.4-4.4c0-2.5,2-4.4,4.4-4.4C64.7,19.4,66.7,21.4,66.7,23.9z"/>
</g>
</svg>
