<?xml version="1.0" encoding="utf-8"?>
<!-- Generator: Adobe Illustrator 23.1.0, SVG Export Plug-In . SVG Version: 6.00 Build 0)  -->
<svg version="1.1" id="Ebene_1" xmlns="http://www.w3.org/2000/svg" xmlns:xlink="http://www.w3.org/1999/xlink" x="0px" y="0px"
	 viewBox="0 0 97.5 178.5" style="enable-background:new 0 0 97.5 178.5;" xml:space="preserve">
<style type="text/css">
	.st0{fill:#CACACA;}
	.st1{fill:#FFFFFF;}
	.st2{fill:#4CC2F1;}
	.st3{fill:#0097CA;}
	.st4{fill:#0472A4;}
</style>
<g>
	<path class="st0" d="M96.6,32.5c0,1.8-1.5,3.3-3.3,3.3l0,0c-1.8,0-3.3-1.5-3.3-3.3V18.4c0-1.8,1.5-3.3,3.3-3.3l0,0
		c1.8,0,3.3,1.5,3.3,3.3V32.5z"/>
	<path class="st0" d="M96.6,58.1c0,1.8-1.5,3.3-3.3,3.3l0,0c-1.8,0-3.3-1.5-3.3-3.3V43.9c0-1.8,1.5-3.3,3.3-3.3l0,0
		c1.8,0,3.3,1.5,3.3,3.3V58.1z"/>
	<path class="st0" d="M96.6,152.1c0,1.8-1.5,3.3-3.3,3.3l0,0c-1.8,0-3.3-1.5-3.3-3.3v-14.1c0-1.8,1.5-3.3,3.3-3.3l0,0
		c1.8,0,3.3,1.5,3.3,3.3V152.1z"/>
	<path class="st0" d="M91.7,170.9c0,4.2-3.4,7.5-7.5,7.5H7.5c-4.2,0-7.5-3.4-7.5-7.5V8.5C0,4.4,3.4,1,7.5,1h76.7
		c4.2,0,7.5,3.4,7.5,7.5V170.9z"/>
	<path class="st1" d="M94.5,170.9c0,4.2-3.4,7.5-7.5,7.5H10.3c-4.2,0-7.5-3.4-7.5-7.5V8.5C2.8,4.4,6.1,1,10.3,1H87
		c4.2,0,7.5,3.4,7.5,7.5V170.9z"/>
	<g>
		<path class="st0" d="M53,9.7c0,0.9-0.7,1.6-1.6,1.6h-9.8c-0.9,0-1.6-0.7-1.6-1.6l0,0C40,8.8,40.7,8,41.6,8h9.8
			C52.3,8,53,8.8,53,9.7L53,9.7z"/>
		<path class="st0" d="M59,9.7c0,0.9-0.7,1.6-1.6,1.6c-0.9,0-1.6-0.7-1.6-1.6c0-0.9,0.7-1.6,1.6-1.6C58.3,8,59,8.8,59,9.7z"/>
	</g>
	<rect x="7" y="17.5" class="st2" width="83.2" height="137.9"/>
	<rect x="7" y="17.5" class="st3" width="83.2" height="13.6"/>
	<path class="st0" d="M63.8,172.7c0,1-1.2,1.8-2.7,1.8H38c-1.5,0-2.7-0.8-2.7-1.8v-11.5c0-1,1.2-1.8,2.7-1.8H61
		c1.5,0,2.7,0.8,2.7,1.8V172.7z"/>
	<g>
	</g>
	<path class="st1" d="M54.2,24.4c0,2.5-2,4.4-4.4,4.4H13.1c-2.5,0-4.4-2-4.4-4.4l0,0c0-2.5,2-4.4,4.4-4.4h36.6
		C52.2,19.9,54.2,21.9,54.2,24.4L54.2,24.4z"/>
	<path class="st4" d="M87.8,24.4c0,2.5-2,4.4-4.4,4.4c-2.5,0-4.4-2-4.4-4.4c0-2.5,2-4.4,4.4-4.4C85.8,19.9,87.8,21.9,87.8,24.4z"/>
	<path class="st4" d="M77,24.4c0,2.5-2,4.4-4.4,4.4c-2.5,0-4.4-2-4.4-4.4c0-2.5,2-4.4,4.4-4.4C75.1,19.9,77,21.9,77,24.4z"/>
	<path class="st4" d="M66.3,24.4c0,2.5-2,4.4-4.4,4.4c-2.5,0-4.4-2-4.4-4.4c0-2.5,2-4.4,4.4-4.4C64.3,19.9,66.3,21.9,66.3,24.4z"/>
</g>
</svg>
