<?xml version="1.0" encoding="utf-8"?>
<!-- Generator: Adobe Illustrator 23.1.0, SVG Export Plug-In . SVG Version: 6.00 Build 0)  -->
<svg version="1.1" id="Ebene_1" xmlns="http://www.w3.org/2000/svg" xmlns:xlink="http://www.w3.org/1999/xlink" x="0px" y="0px"
	 viewBox="0 0 97.5 178.5" style="enable-background:new 0 0 97.5 178.5;" xml:space="preserve">
<style type="text/css">
	.st0{fill:#CACACA;}
	.st1{fill:#FFFFFF;}
	.st2{fill:#4CC2F1;}
	.st3{fill:#0097CA;}
	.st4{fill:#0472A4;}
	.st5{fill:#A9CD73;}
	.st6{opacity:0.1;}
	.st7{fill:#020203;}
	.st8{fill:#A0BECE;}
</style>
<g>
	<path class="st0" d="M97,32c0,1.8-1.5,3.3-3.3,3.3l0,0c-1.8,0-3.3-1.5-3.3-3.3V17.9c0-1.8,1.5-3.3,3.3-3.3l0,0
		c1.8,0,3.3,1.5,3.3,3.3V32z"/>
	<path class="st0" d="M97,57.6c0,1.8-1.5,3.3-3.3,3.3l0,0c-1.8,0-3.3-1.5-3.3-3.3V43.4c0-1.8,1.5-3.3,3.3-3.3l0,0
		c1.8,0,3.3,1.5,3.3,3.3V57.6z"/>
	<path class="st0" d="M97,151.6c0,1.8-1.5,3.3-3.3,3.3l0,0c-1.8,0-3.3-1.5-3.3-3.3v-14.1c0-1.8,1.5-3.3,3.3-3.3l0,0
		c1.8,0,3.3,1.5,3.3,3.3V151.6z"/>
	<path class="st0" d="M92.1,170.4c0,4.2-3.4,7.5-7.5,7.5H7.9c-4.2,0-7.5-3.4-7.5-7.5V8c0-4.2,3.4-7.5,7.5-7.5h76.7
		c4.2,0,7.5,3.4,7.5,7.5V170.4z"/>
	<path class="st1" d="M94.9,170.4c0,4.2-3.4,7.5-7.5,7.5H10.7c-4.2,0-7.5-3.4-7.5-7.5V8c0-4.2,3.4-7.5,7.5-7.5h76.7
		c4.2,0,7.5,3.4,7.5,7.5V170.4z"/>
	<g>
		<path class="st0" d="M53.4,9.2c0,0.9-0.7,1.6-1.6,1.6H42c-0.9,0-1.6-0.7-1.6-1.6l0,0c0-0.9,0.7-1.6,1.6-1.6h9.8
			C52.7,7.5,53.4,8.3,53.4,9.2L53.4,9.2z"/>
		<path class="st0" d="M59.4,9.2c0,0.9-0.7,1.6-1.6,1.6c-0.9,0-1.6-0.7-1.6-1.6c0-0.9,0.7-1.6,1.6-1.6C58.7,7.5,59.4,8.3,59.4,9.2z"
			/>
	</g>
	<rect x="7.4" y="17" class="st2" width="83.2" height="137.9"/>
	<rect x="7.4" y="17" class="st3" width="83.2" height="13.6"/>
	<path class="st0" d="M64.2,172.2c0,1-1.2,1.8-2.7,1.8H38.4c-1.5,0-2.7-0.8-2.7-1.8v-11.5c0-1,1.2-1.8,2.7-1.8h23.1
		c1.5,0,2.7,0.8,2.7,1.8V172.2z"/>
	<path class="st1" d="M54.6,23.9c0,2.5-2,4.4-4.4,4.4H13.5c-2.5,0-4.4-2-4.4-4.4l0,0c0-2.5,2-4.4,4.4-4.4h36.6
		C52.6,19.4,54.6,21.4,54.6,23.9L54.6,23.9z"/>
	<path class="st4" d="M88.2,23.9c0,2.5-2,4.4-4.4,4.4c-2.5,0-4.4-2-4.4-4.4c0-2.5,2-4.4,4.4-4.4C86.2,19.4,88.2,21.4,88.2,23.9z"/>
	<path class="st4" d="M77.5,23.9c0,2.5-2,4.4-4.4,4.4c-2.5,0-4.4-2-4.4-4.4c0-2.5,2-4.4,4.4-4.4C75.5,19.4,77.5,21.4,77.5,23.9z"/>
	<path class="st4" d="M66.7,23.9c0,2.5-2,4.4-4.4,4.4c-2.5,0-4.4-2-4.4-4.4c0-2.5,2-4.4,4.4-4.4C64.7,19.4,66.7,21.4,66.7,23.9z"/>
</g>
<path class="st5" d="M62.8,61.2L45.9,78.1c-0.5,0.5-1.2,0.5-1.6,0L37,70.8l-5.7,5.7l11,11c0.8,0.8,1.8,1.2,2.9,1.2l0,0
	c1.1,0,2.1-0.4,2.9-1.2l20.6-20.6L62.8,61.2z"/>
<g class="st6">
	<path class="st7" d="M66.7,65L44.9,86.8c-0.6,0.6-1.4,1-2.2,1.2c0.7,0.5,1.5,0.7,2.3,0.7l0,0c1.1,0,2.1-0.4,2.9-1.2l20.6-20.6
		L66.7,65z"/>
</g>
<g>
	<g>
		<path class="st4" d="M71.4,125.3c0,2.8-2.2,5-5,5H33.4c-2.8,0-5-2.2-5-5V117c0-2.8,2.2-5,5-5h33.1c2.8,0,5,2.2,5,5V125.3z"/>
		<path class="st8" d="M66.4,112H33.4c-1.6,0-3.1,0.8-4,2c0.7-0.4,1.6-0.7,2.5-0.7h33.1c2.8,0,5,2.2,5,5v8.3c0,1.1-0.4,2.2-1,3
			c1.5-0.9,2.5-2.5,2.5-4.3V117C71.4,114.2,69.2,112,66.4,112z"/>
	</g>
	<g>
		<path class="st1" d="M40.2,122.5l0,0.2l0,0.2l0,0.2l-0.1,0.2l-0.1,0.1l-0.1,0.2l-0.1,0.1l-0.1,0.2l-0.1,0.1l-0.1,0.1l-0.1,0.1
			l-0.2,0.1l-0.1,0.1l-0.2,0.1l-0.1,0.1l-0.2,0.1l-0.3,0.1l-0.2,0l-0.3,0l-0.2,0l-0.2,0l-0.1,0l-0.2,0l-0.5,0h-0.2l-0.1,0l-0.2,0
			l-0.2,0l-0.2,0l-0.2-0.1l-0.2-0.1l-0.1-0.1l-0.2-0.1l-0.1-0.1l-0.1-0.1l-0.3-0.2l-0.1-0.1l-0.2-0.1l-0.1-0.1l-0.1-0.1l-0.1-0.1
			l0-0.1l0.1-0.1l0-0.1l0.1-0.1l0.3-0.3l0.1-0.1l0.2-0.3l0.1-0.1l0.1-0.1l0.1-0.1l0.1,0l0.1,0.1l0.3,0.2l0.2,0.1l0.1,0.1l0.2,0.1
			l0.2,0.1l0.2,0.1l0.2,0l0.2,0l0.2,0l0.6,0l0.2,0l0.1,0l0.2-0.1l0.1-0.1l0.1-0.1l0.1-0.1l0.1-0.2l0-0.2l0-0.1l-0.1-0.1l-0.1-0.1
			l-0.1-0.1l-0.1,0l-0.2-0.1l-0.2,0l-0.2,0l-1-0.1l-0.3-0.1l-0.2,0l-0.2-0.1l-0.2-0.1l-0.2-0.1l-0.3-0.2l-0.1-0.1l-0.2-0.1l-0.1-0.1
			l-0.2-0.1l-0.1-0.1l-0.1-0.2l-0.1-0.2l-0.1-0.2l0-0.2l0-0.2l0-0.3l0-0.2l0-0.2l0-0.2l0-0.1l0.1-0.2l0.1-0.2l0.1-0.1l0.1-0.1
			l0.1-0.1l0.2-0.2l0.1-0.1l0.1-0.1l0.1-0.1l0.2-0.1l0.3-0.1l0.2-0.1l0.2,0l0.2,0l0.3,0l0.2,0l0.2,0l0.2,0h0.2l0.3,0l0.2,0l0.1,0
			l0.2,0l0.3,0.1l0.2,0l0.2,0.1l0.2,0.1l0.2,0.1l0.2,0.1l0.2,0.1l0.2,0.1l0.1,0.1l0.1,0.1l0.1,0.1v0.1l-0.1,0.1l-0.1,0.2l-0.1,0.1
			l-0.4,0.5l-0.1,0.1l-0.1,0.1l-0.1,0l-0.1,0l-0.1-0.1l-0.2-0.1l-0.2-0.1l-0.1,0l-0.2-0.1l-0.1,0l-0.2,0l-0.2-0.1l-0.2,0l-0.3,0
			h-0.3l-0.2,0l-0.2,0l-0.2,0.1l-0.1,0l-0.1,0.1l-0.1,0.1l-0.1,0.1l0,0.2l0,0.1l0.1,0.1l0.1,0.1l0.1,0.1l0.1,0l0.2,0l0.3,0l0.3,0
			l0.2,0l0.3,0.1l0.3,0.1l0.2,0.1l0.2,0l0.3,0.1l0.2,0.1l0.1,0.1l0.1,0.1l0.1,0.1l0.3,0.2l0.1,0.1l0.1,0.1l0.1,0.2l0.1,0.1l0.1,0.2
			l0,0.2l0,0.2l0,0.2L40.2,122.5z"/>
		<path class="st1" d="M47.8,123.8L47.8,123.8l-0.3,0.2l-0.1,0.1l-0.2,0.1l-0.1,0.1l-0.2,0.1l-0.1,0.1l-0.2,0.1l-0.2,0.1l-0.2,0.1
			l-0.2,0l-0.3,0.1l-0.4,0l-0.2,0l-0.3,0h-0.5l-0.2,0l-0.2,0l-0.2,0l-0.2,0l-0.2-0.1l-0.5-0.1l-0.2-0.1l-0.1-0.1l-0.2-0.1l-0.1-0.1
			l-0.1-0.1l-0.1-0.1l-0.3-0.2l-0.1-0.1l-0.1-0.1l-0.1-0.2l-0.1-0.1l-0.1-0.1l-0.1-0.1l-0.1-0.2l-0.2-0.4l-0.1-0.2l-0.1-0.3l0-0.2
			l0-0.2l0-0.2l0-0.2V121l0-0.3l0-0.2l0-0.2l0-0.2l0-0.2l0.1-0.2l0.1-0.1l0.1-0.2l0.1-0.1l0.1-0.2l0.1-0.2l0.1-0.2l0.1-0.1l0.1-0.1
			l0.1-0.1l0.1-0.1l0.1-0.1l0.1-0.1l0.1-0.1l0.3-0.2l0.1-0.1l0.1-0.1l0.3-0.1l0.2-0.1l0.2-0.1l0.3-0.1l0.2,0l0.2,0l0.3,0l0.2,0
			l0.2,0l0.2,0l0.4,0.1l0.1,0l0.2,0l0.4,0.1l0.1,0.1l0.2,0.1l0.1,0.1l0.3,0.2l0.3,0.2l0.1,0.1l0.1,0.1l0.1,0.1l0,0.1l0,0.1l-0.1,0.1
			l-0.1,0.1l-0.1,0.1l-0.1,0.1l-0.1,0.1l-0.1,0.1l-0.2,0.2l-0.1,0.1l-0.1,0.1l-0.1,0.1l-0.1,0l-0.1,0l-0.1,0l-0.1-0.1l-0.2-0.1
			l-0.1-0.1l-0.2-0.1l-0.1-0.1l-0.2-0.1l-0.2,0l-0.3,0h-0.2l-0.2,0l-0.2,0l-0.2,0.1l-0.2,0.1l-0.1,0.1l-0.2,0.1l-0.1,0.1l-0.1,0.1
			l-0.1,0.1l-0.1,0.1l-0.1,0.1l-0.1,0.1l-0.1,0.2l-0.1,0.2l0,0.2l0,0.2l0,0.3v0.2l0,0.3l0,0.2l0.1,0.2L43,122l0.1,0.2l0.1,0.2
			l0.2,0.2l0.1,0.1l0.2,0.2l0.1,0.1l0.2,0.1l0.2,0.1l0.2,0.1l0.2,0l0.2,0H45l0.1,0l0.1,0l0.2-0.1l0.3-0.1l0.2-0.1l0.2-0.1l0.1-0.1
			l0.2-0.1l0.1-0.1l0.1-0.1l0.1,0l0.1,0l0.1,0.1l0.1,0.1l0,0.1l0.1,0.1l0.2,0.2l0.1,0.1l0.3,0.3l0.1,0.1l0.1,0.1L47.8,123.8
			L47.8,123.8z"/>
		<path class="st1" d="M56.7,124.5l0,0.1l-0.1,0.1l-0.1,0.1l-0.1,0h-0.1l-0.2,0l-0.2,0h-0.5l-0.6,0l-0.1,0l-0.1-0.1l-0.1-0.1
			l-0.3-0.9l-0.1-0.1l-0.1,0l-0.1,0l-0.6,0h-0.2l-0.8,0l-0.6,0h-0.2l-0.2,0H51l-0.1,0l-0.1,0.1l-0.1,0.1l-0.2,0.7l-0.1,0.2l-0.1,0.1
			l-0.2,0.1l-0.2,0l-0.6,0h-0.2l-0.6,0l-0.1,0l-0.1-0.1l-0.1-0.1l0-0.1l0-0.1l0.1-0.2l0.1-0.3l0.1-0.2l0.3-0.6l0.1-0.1l0.3-0.6
			l0.1-0.2l0.2-0.5l0.1-0.2l0.3-0.6l0.1-0.1l0.4-0.8l0.3-0.6l0.1-0.2l0.2-0.5l0.1-0.2l0.2-0.5l0.1-0.2l0.2-0.4l0.1-0.1l0.1-0.1
			l0.2,0l0.5,0h0.8l0.5,0l0.2,0l0.1,0.1l0.1,0.1l0.1,0.4l0.1,0.2l0.3,0.5l0.1,0.1l0.2,0.5l0.1,0.1l0.2,0.5l0.1,0.1l0.2,0.5l0.1,0.1
			l0.2,0.5l0.1,0.1l0.2,0.5l0.1,0.1l0.3,0.6l0.2,0.5l0.1,0.1l0.3,0.6L56.7,124.5z M53.3,121.6l0-0.1l-0.2-0.7l-0.1-0.2l-0.2-0.6
			l-0.1-0.1l-0.1-0.1l-0.1,0l-0.1,0l-0.1,0.1l-0.3,0.7l-0.1,0.2l-0.3,0.7l0,0.2l0,0.1l0.1,0.1l0.1,0h0.6l0.5,0l0.1,0l0.1-0.1
			L53.3,121.6z"/>
		<path class="st1" d="M64.7,119l0,0.2v1.5l0,0.6v0.2l0,1.3v0.2l0,0.1l0,0.2l0,0.5l0,0.6l0,0.1l0,0.1l-0.1,0.1l-0.1,0.1l-0.1,0
			l-0.1,0l-0.5,0l-0.2,0l-0.3,0h-0.2l-0.1,0l-0.1-0.1l-0.1-0.1l-0.1-0.1l-0.2-0.3l-0.1-0.1l-0.4-0.5l-0.1-0.1l-0.4-0.5l-0.1-0.1
			l-0.4-0.5l-0.1-0.1l-0.4-0.5l-0.1-0.1l-0.4-0.5L60,121l-0.1,0l0,0.1l0,0.5v0.2l0,0.5v0.2l0,0.6v0.2l0,0.6l0,0.2l0.1,0.4l0,0.2
			l0,0.1l-0.1,0.1l-0.1,0l-0.1,0l-0.1,0l-0.2,0l-0.5,0h-0.2l-0.4,0h-0.2l-0.2,0l-0.1,0l-0.1-0.1l0-0.1l0-0.1l0-0.1v-0.2l0-0.3l0-0.2
			l0-0.5v-0.2l0-1.2l0-0.2l0-0.5l0-0.2v-0.7l0-0.5v-0.2l0-0.5l0-0.2l0-0.5l0-0.2V118l0-0.2l0-0.2l0-0.1l0-0.1l0.1,0l0.1,0l0.3,0
			l0.3,0h0.8l0.1,0l0.1,0l0.1,0.1l0.4,0.5l0.1,0.1l0.4,0.5l0.1,0.1l0.4,0.5l0.1,0.1l0.4,0.5l0.1,0.1l0.4,0.5l0.1,0.1l0.4,0.5
			l0.1,0.1l0.1,0l0.1-0.1V121l-0.1-0.4l0-0.2l0-0.4v-0.2l0-0.6v-0.2l0-0.6l0-0.2l0-0.4v-0.3l0-0.1l0-0.1l0.1,0l0.1,0H63l0.2,0l0.5,0
			h0.2l0.3,0l0.2,0l0.2,0l0.1,0l0.1,0l0.1,0.1l0,0.1l0,0.1l0,0.2l0,0.3l0,0.2L64.7,119z"/>
	</g>
</g>
</svg>
